ply
format ascii 1.0
comment author: Greg Turk
comment object: another cube
element vertex 24
property float x
property float y
property float z
property uchar red
property uchar green
property uchar blue
element face 0
property list uchar int vertex_index
end_header
0.144735 1.006924 -0.025571 150 150 150
0.091341 0.918138 -0.046893 150 150 150
0.177952 0.923034 0.038940 150 150 150
0.114136 1.139591 -0.016043 150 150 150
0.115792 0.549333 -0.129175 150 150 150
0.275376 0.552830 0.059789 150 150 150
0.147445 1.264665 -0.071050 150 150 150
0.044028 0.124604 -0.130805 150 150 150
0.218541 0.146256 0.165509 150 150 150
0.157814 1.320574 -0.085020 150 150 150
0.124772 0.047378 -0.215860 150 150 150
0.313579 0.066948 0.088383 150 150 150
0.193698 1.540320 -0.104956 150 150 150
0.102649 1.439126 -0.134980 150 150 150
0.243478 1.435094 -0.054417 150 150 150
0.199477 1.590022 -0.189294 150 150 150
-0.021767 1.459564 -0.147583 150 150 150
0.349387 1.430298 -0.004389 150 150 150
-0.139034 1.286005 -0.016450 150 150 150
0.417277 1.181320 0.004965 150 150 150
-0.207288 1.040331 -0.020541 150 150 150
0.410123 1.250532 -0.246293 150 150 150
-0.215840 0.955615 0.001773 150 150 150
0.389176 1.288607 -0.324704 150 150 150
