ply
format ascii 1.0
comment author: Greg Turk
comment object: another cube
element vertex 24
property float x
property float y
property float z
property uchar red
property uchar green
property uchar blue
element face 0
property list uchar int vertex_index
end_header
-0.007129 1.229022 -0.050211 150 150 150
-0.041811 1.143175 -0.102911 150 150 150
-0.023899 1.140413 0.019629 150 150 150
-0.031042 1.366650 -0.058574 150 150 150
-0.064850 0.794325 -0.257542 150 150 150
-0.056353 0.795027 0.181980 150 150 150
0.028782 1.505772 -0.073525 150 150 150
-0.071798 0.381256 -0.363715 150 150 150
-0.239546 0.447483 0.329319 150 150 150
0.038854 1.570809 -0.077594 150 150 150
-0.001530 0.280552 -0.427198 150 150 150
-0.181076 0.318097 0.361963 150 150 150
0.056328 1.770365 -0.094094 150 150 150
0.039014 1.673699 -0.161064 150 150 150
0.042131 1.691758 -0.012748 150 150 150
0.127802 1.822432 -0.121702 150 150 150
0.009938 1.709160 -0.283507 150 150 150
0.025208 1.763732 0.082998 150 150 150
0.049250 1.685596 -0.537109 150 150 150
-0.035146 1.764713 0.335183 150 150 150
0.244248 1.854430 -0.588930 150 150 150
0.200002 1.755950 0.450665 150 150 150
0.315116 1.905759 -0.601790 150 150 150
0.274015 1.727438 0.493150 150 150 150
