ply
format ascii 1.0
comment author: Greg Turk
comment object: another cube
element vertex 24
property float x
property float y
property float z
property uchar red
property uchar green
property uchar blue
element face 0
property list uchar int vertex_index
end_header
0.158532 0.972335 0.009875 150 150 150
0.127138 0.884322 -0.034998 150 150 150
0.156823 0.889852 0.083479 150 150 150
0.123977 1.099038 -0.003154 150 150 150
0.213751 0.518461 -0.118606 150 150 150
0.256765 0.520722 0.094710 150 150 150
0.183507 1.216383 -0.033403 150 150 150
0.105470 0.100800 -0.138539 150 150 150
0.112441 0.128438 0.167594 150 150 150
0.203370 1.266254 -0.039665 150 150 150
0.217435 0.041906 -0.194723 150 150 150
0.223671 0.042080 0.124314 150 150 150
0.231007 1.490970 -0.061169 150 150 150
0.208119 1.369561 -0.134860 150 150 150
0.222090 1.394373 0.029155 150 150 150
0.306460 1.549306 -0.096138 150 150 150
0.177121 1.338393 -0.253545 150 150 150
0.222643 1.404889 0.145366 150 150 150
0.169102 1.084537 -0.283158 150 150 150
0.136971 1.189274 0.255477 150 150 150
0.344724 0.894703 -0.322540 150 150 150
0.315160 0.998021 0.283930 150 150 150
0.408119 0.832687 -0.327420 150 150 150
0.385495 0.941253 0.283223 150 150 150
