ply
format ascii 1.0
comment author: Greg Turk
comment object: another cube
element vertex 24
property float x
property float y
property float z
property uchar red
property uchar green
property uchar blue
element face 0
property list uchar int vertex_index
end_header
0.003426 1.090775 -0.154306 150 150 150
-0.050681 0.999196 -0.160398 150 150 150
0.061067 1.003712 -0.114123 150 150 150
-0.025350 1.226240 -0.121807 150 150 150
-0.069243 0.628221 -0.219404 150 150 150
0.168572 0.642165 -0.063221 150 150 150
-0.028970 1.368031 -0.156212 150 150 150
-0.098163 0.204579 -0.162832 150 150 150
0.115678 0.273822 0.137422 150 150 150
-0.027157 1.430461 -0.157873 150 150 150
-0.062102 0.087324 -0.227221 150 150 150
0.171748 0.145013 0.098222 150 150 150
-0.004319 1.644766 -0.176594 150 150 150
-0.094220 1.550170 -0.171953 150 150 150
0.058738 1.543949 -0.151646 150 150 150
-0.004331 1.693347 -0.254815 150 150 150
-0.190156 1.607260 -0.113648 150 150 150
0.172080 1.567198 -0.127347 150 150 150
-0.268754 1.521835 0.103646 150 150 150
0.327776 1.363118 -0.119689 150 150 150
-0.382282 1.295596 0.106865 150 150 150
0.277061 1.397403 -0.372299 150 150 150
-0.400679 1.209542 0.116676 150 150 150
0.239965 1.422663 -0.449998 150 150 150
