ply
format ascii 1.0
comment author: Greg Turk
comment object: another cube
element vertex 24
property float x
property float y
property float z
property uchar red
property uchar green
property uchar blue
element face 0
property list uchar int vertex_index
end_header
-0.072588 0.892155 -0.030903 150 150 150
-0.088137 0.808790 -0.090537 150 150 150
-0.101948 0.807664 0.033570 150 150 150
-0.094648 1.016306 -0.048251 150 150 150
0.019413 0.454315 -0.207867 150 150 150
0.021963 0.462345 0.151500 150 150 150
-0.003034 1.116734 -0.043389 150 150 150
-0.119121 0.049802 -0.273235 150 150 150
-0.126004 0.066415 0.185250 150 150 150
0.028959 1.159659 -0.037040 150 150 150
-0.006969 0.000840 -0.338633 150 150 150
-0.005685 0.010925 0.248959 150 150 150
0.099343 1.374482 -0.033526 150 150 150
0.089653 1.256548 -0.117068 150 150 150
0.041571 1.283284 0.041615 150 150 150
0.177643 1.438572 -0.038180 150 150 150
0.109670 1.218437 -0.237552 150 150 150
-0.005149 1.290700 0.152455 150 150 150
0.094524 0.967290 -0.294911 150 150 150
-0.184612 1.118284 0.221113 150 150 150
0.199583 0.726897 -0.346345 150 150 150
-0.250457 0.889303 0.344976 150 150 150
0.218248 0.641245 -0.359390 150 150 150
-0.277723 0.808376 0.374905 150 150 150
