ply
format ascii 1.0
comment author: Greg Turk
comment object: another cube
element vertex 24
property float x
property float y
property float z
property uchar red
property uchar green
property uchar blue
element face 0
property list uchar int vertex_index
end_header
-0.000976 1.315270 -0.008532 150 150 150
-0.000125 1.225399 -0.064766 150 150 150
-0.044301 1.233045 0.051953 150 150 150
-0.018054 1.440413 -0.034590 150 150 150
0.167308 0.876656 -0.044142 150 150 150
0.143371 0.922554 0.190727 150 150 150
0.068183 1.552346 -0.024682 150 150 150
-0.150709 0.610233 -0.164532 150 150 150
0.082788 0.517784 0.076955 150 150 150
0.098176 1.603384 -0.021661 150 150 150
-0.122906 0.474295 -0.163677 150 150 150
0.174257 0.417799 0.128779 150 150 150
0.198404 1.797947 -0.012406 150 150 150
0.168958 1.692456 -0.097121 150 150 150
0.126033 1.723639 0.054235 150 150 150
0.293572 1.808853 -0.008711 150 150 150
0.153068 1.718400 -0.221499 150 150 150
0.093193 1.773440 0.160023 150 150 150
-0.085066 1.704559 -0.291101 150 150 150
-0.054715 1.657217 0.332210 150 150 150
-0.202551 1.482748 -0.276422 150 150 150
0.202812 1.624834 0.314387 150 150 150
-0.256747 1.417323 -0.252115 150 150 150
0.286521 1.627896 0.282479 150 150 150
