ply
format ascii 1.0
comment author: Greg Turk
comment object: another cube
element vertex 24
property float x
property float y
property float z
property uchar red
property uchar green
property uchar blue
element face 0
property list uchar int vertex_index
end_header
-0.023625 1.165039 -0.172918 150 150 150
-0.081442 1.075175 -0.169333 150 150 150
0.038959 1.074378 -0.152222 150 150 150
-0.039139 1.299348 -0.128689 150 150 150
-0.126844 0.706845 -0.228156 150 150 150
0.173315 0.717537 -0.141164 150 150 150
-0.043064 1.443558 -0.158083 150 150 150
-0.131864 0.279790 -0.194319 150 150 150
0.186215 0.362132 0.086283 150 150 150
-0.039680 1.506532 -0.158517 150 150 150
-0.104594 0.171470 -0.276497 150 150 150
0.248976 0.236194 0.047554 150 150 150
-0.020658 1.716771 -0.184601 150 150 150
-0.107884 1.624230 -0.162462 150 150 150
0.045701 1.619336 -0.166461 150 150 150
-0.034707 1.751755 -0.267042 150 150 150
-0.197924 1.681852 -0.092649 150 150 150
0.159343 1.655086 -0.153047 150 150 150
-0.262182 1.603457 0.133013 150 150 150
0.361396 1.497646 -0.138456 150 150 150
-0.400651 1.391556 0.136320 150 150 150
0.300868 1.529391 -0.389491 150 150 150
-0.428352 1.307587 0.141874 150 150 150
0.255512 1.546379 -0.465088 150 150 150
