ply
format ascii 1.0
comment author: Greg Turk
comment object: another cube
element vertex 24
property float x
property float y
property float z
property uchar red
property uchar green
property uchar blue
element face 0
property list uchar int vertex_index
end_header
-0.022497 1.205073 -0.286908 150 150 150
-0.054038 1.111237 -0.249851 150 150 150
0.029129 1.120535 -0.341223 150 150 150
0.000035 1.325239 -0.231963 150 150 150
-0.222496 0.765861 -0.247709 150 150 150
-0.046755 0.817439 -0.563801 150 150 150
-0.048381 1.459717 -0.251016 150 150 150
-0.060012 0.402927 -0.081022 150 150 150
0.014368 0.399390 -0.565753 150 150 150
-0.061528 1.519218 -0.252898 150 150 150
-0.126643 0.282556 -0.085498 150 150 150
-0.062751 0.298133 -0.636679 150 150 150
-0.119423 1.724428 -0.259500 150 150 150
-0.155489 1.607251 -0.208644 150 150 150
-0.025238 1.651795 -0.286432 150 150 150
-0.187816 1.743226 -0.318898 150 150 150
-0.243868 1.599117 -0.115738 150 150 150
0.065530 1.730427 -0.301340 150 150 150
-0.257806 1.394118 0.026433 150 150 150
0.282542 1.658470 -0.199686 150 150 150
-0.382595 1.205731 -0.092065 150 150 150
0.310546 1.513201 -0.410001 150 150 150
-0.411195 1.139922 -0.143597 150 150 150
0.298330 1.450108 -0.472725 150 150 150
