ply
format ascii 1.0
comment author: Greg Turk
comment object: another cube
element vertex 24
property float x
property float y
property float z
property uchar red
property uchar green
property uchar blue
element face 0
property list uchar int vertex_index
end_header
0.022649 1.131489 -0.238001 150 150 150
-0.009425 1.043880 -0.290597 150 150 150
0.005319 1.044135 -0.169225 150 150 150
-0.003022 1.271160 -0.245801 150 150 150
-0.033811 0.682499 -0.386545 150 150 150
-0.006911 0.685076 -0.048140 150 150 150
0.044542 1.409383 -0.261010 150 150 150
-0.076292 0.261774 -0.450167 150 150 150
-0.063508 0.273885 0.024822 150 150 150
0.052970 1.471293 -0.262895 150 150 150
-0.009072 0.145181 -0.485884 150 150 150
0.031027 0.164653 0.041354 150 150 150
0.079921 1.686901 -0.263560 150 150 150
0.046845 1.584893 -0.340930 150 150 150
0.080339 1.591313 -0.187829 150 150 150
0.142543 1.750962 -0.280515 150 150 150
-0.035798 1.616109 -0.430399 150 150 150
0.093952 1.626495 -0.076620 150 150 150
-0.237475 1.488068 -0.381452 150 150 150
0.058427 1.436580 0.086593 150 150 150
-0.272581 1.237341 -0.386243 150 150 150
0.258867 1.317947 -0.025743 150 150 150
-0.290331 1.154471 -0.362036 150 150 150
0.315313 1.277532 -0.082547 150 150 150
