ply
format ascii 1.0
comment author: Greg Turk
comment object: another cube
element vertex 24
property float x
property float y
property float z
property uchar red
property uchar green
property uchar blue
element face 0
property list uchar int vertex_index
end_header
0.008436 1.336797 -0.050718 150 150 150
-0.029893 1.252039 -0.101417 150 150 150
0.013374 1.244787 0.016876 150 150 150
-0.024852 1.466933 -0.045343 150 150 150
0.000839 0.974519 -0.374021 150 150 150
0.069683 0.910461 0.202835 150 150 150
0.037589 1.600847 -0.075781 150 150 150
-0.114989 0.601447 -0.547835 150 150 150
-0.175474 0.710580 0.479492 150 150 150
0.049114 1.664847 -0.084121 150 150 150
-0.062240 0.532761 -0.655051 150 150 150
-0.148732 0.579302 0.535138 150 150 150
0.076002 1.859160 -0.115796 150 150 150
0.036066 1.762725 -0.172045 150 150 150
0.071903 1.786480 -0.027202 150 150 150
0.150161 1.887544 -0.159691 150 150 150
-0.016016 1.796327 -0.288765 150 150 150
0.073013 1.867239 0.064461 150 150 150
-0.035184 1.791327 -0.547570 150 150 150
0.012654 1.891618 0.314490 150 150 150
0.131414 1.977184 -0.633151 150 150 150
0.218952 1.826088 0.461789 150 150 150
0.189321 2.040740 -0.654089 150 150 150
0.275311 1.782728 0.516767 150 150 150
