ply
format ascii 1.0
comment author: Greg Turk
comment object: another cube
element vertex 24
property float x
property float y
property float z
property uchar red
property uchar green
property uchar blue
element face 0
property list uchar int vertex_index
end_header
0.022720 1.022602 -0.223292 150 150 150
-0.004897 0.935463 -0.277163 150 150 150
0.005442 0.936219 -0.154239 150 150 150
-0.007291 1.157426 -0.233591 150 150 150
-0.013229 0.570471 -0.373497 150 150 150
0.032990 0.570214 -0.050635 150 150 150
0.039010 1.290860 -0.245297 150 150 150
-0.111237 0.162393 -0.464848 150 150 150
-0.086176 0.173029 0.033056 150 150 150
0.046692 1.349362 -0.244953 150 150 150
-0.008051 0.071782 -0.489416 150 150 150
0.031324 0.085533 0.033851 150 150 150
0.063283 1.572530 -0.235359 150 150 150
0.040357 1.466945 -0.321446 150 150 150
0.062400 1.468688 -0.161712 150 150 150
0.125912 1.641962 -0.248553 150 150 150
-0.037549 1.484960 -0.419095 150 150 150
0.065453 1.485556 -0.046317 150 150 150
-0.206063 1.307860 -0.398203 150 150 150
0.006841 1.262949 0.061942 150 150 150
-0.228662 1.055532 -0.430823 150 150 150
0.201827 1.098817 0.010088 150 150 150
-0.238909 0.968582 -0.420909 150 150 150
0.267425 1.049254 -0.025734 150 150 150
