ply
format ascii 1.0
comment author: Greg Turk
comment object: another cube
element vertex 24
property float x
property float y
property float z
property uchar red
property uchar green
property uchar blue
element face 0
property list uchar int vertex_index
end_header
0.020813 0.966161 -0.097071 150 150 150
-0.029505 0.877115 -0.116570 150 150 150
0.061059 0.884968 -0.034430 150 150 150
-0.014096 1.094035 -0.086004 150 150 150
0.038659 0.515357 -0.223150 150 150 150
0.165352 0.515381 -0.023060 150 150 150
0.005767 1.217701 -0.135023 150 150 150
-0.104067 0.122616 -0.118560 150 150 150
0.046328 0.156300 0.167915 150 150 150
0.015150 1.269974 -0.144689 150 150 150
-0.047971 0.040822 -0.216169 150 150 150
0.142266 0.064630 0.106500 150 150 150
0.053211 1.497544 -0.148184 150 150 150
-0.040860 1.393864 -0.187616 150 150 150
0.100308 1.382019 -0.102849 150 150 150
0.083717 1.558855 -0.221292 150 150 150
-0.166518 1.409785 -0.190610 150 150 150
0.197077 1.364143 -0.042757 150 150 150
-0.278458 1.232790 -0.055610 150 150 150
0.216103 1.109942 0.004310 150 150 150
-0.318704 0.980069 -0.060973 150 150 150
0.242923 1.051998 -0.249147 150 150 150
-0.315564 0.892259 -0.049799 150 150 150
0.242874 1.053515 -0.339172 150 150 150
