ply
format ascii 1.0
comment author: Greg Turk
comment object: another cube
element vertex 24
property float x
property float y
property float z
property uchar red
property uchar green
property uchar blue
element face 0
property list uchar int vertex_index
end_header
0.021439 1.159057 -0.260542 150 150 150
-0.009872 1.068801 -0.308656 150 150 150
0.003711 1.076646 -0.185746 150 150 150
-0.003266 1.294011 -0.276801 150 150 150
0.013675 0.707341 -0.421426 150 150 150
0.049225 0.723827 -0.041352 150 150 150
0.065298 1.419551 -0.304711 150 150 150
-0.037423 0.293148 -0.518460 150 150 150
-0.051817 0.322501 0.042413 150 150 150
0.084414 1.478134 -0.312267 150 150 150
0.045291 0.187650 -0.557640 150 150 150
0.043656 0.214148 0.049900 150 150 150
0.147570 1.685275 -0.323972 150 150 150
0.090639 1.587544 -0.394754 150 150 150
0.137578 1.594264 -0.244446 150 150 150
0.219116 1.735313 -0.353130 150 150 150
0.003949 1.629955 -0.477959 150 150 150
0.175982 1.624612 -0.136640 150 150 150
-0.223260 1.563456 -0.409873 150 150 150
0.187368 1.453556 0.054689 150 150 150
-0.336221 1.337221 -0.412137 150 150 150
0.367690 1.365294 -0.110416 150 150 150
-0.373194 1.260627 -0.388718 150 150 150
0.412492 1.341603 -0.184250 150 150 150
