ply
format ascii 1.0
comment author: Greg Turk
comment object: another cube
element vertex 24
property float x
property float y
property float z
property uchar red
property uchar green
property uchar blue
element face 0
property list uchar int vertex_index
end_header
-0.044520 0.999882 -0.048380 150 150 150
-0.065778 0.915160 -0.105993 150 150 150
-0.065346 0.912287 0.016696 150 150 150
-0.077259 1.132199 -0.059394 150 150 150
-0.068760 0.546702 -0.199306 150 150 150
-0.064901 0.546076 0.121831 150 150 150
-0.044880 1.268239 -0.063622 150 150 150
-0.125867 0.124768 -0.260261 150 150 150
-0.140197 0.133488 0.175723 150 150 150
-0.041300 1.324788 -0.059562 150 150 150
-0.017371 0.063004 -0.322595 150 150 150
-0.019782 0.072712 0.236081 150 150 150
-0.062229 1.546620 -0.040844 150 150 150
-0.052298 1.443352 -0.132079 150 150 150
-0.059910 1.439551 0.029057 150 150 150
-0.003158 1.624885 -0.049058 150 150 150
-0.086019 1.457415 -0.256069 150 150 150
-0.077422 1.454288 0.146275 150 150 150
-0.111348 1.256379 -0.403099 150 150 150
-0.121729 1.255119 0.308295 150 150 150
0.067291 1.085751 -0.481246 150 150 150
0.041228 1.073681 0.410005 150 150 150
0.118810 1.014684 -0.495347 150 150 150
0.093962 1.003155 0.430378 150 150 150
