ply
format ascii 1.0
comment author: Greg Turk
comment object: another cube
element vertex 24
property float x
property float y
property float z
property uchar red
property uchar green
property uchar blue
element face 0
property list uchar int vertex_index
end_header
0.170452 1.251902 0.005527 150 150 150
0.137841 1.165352 -0.047177 150 150 150
0.185129 1.158687 0.069827 150 150 150
0.127723 1.378702 0.015078 150 150 150
0.208530 0.890448 -0.312422 150 150 150
0.321344 0.818060 0.192182 150 150 150
0.192566 1.505027 -0.025019 150 150 150
0.138207 0.520811 -0.518679 150 150 150
0.078048 0.552536 0.414380 150 150 150
0.207268 1.563448 -0.045277 150 150 150
0.213731 0.437418 -0.598362 150 150 150
0.133885 0.421728 0.444398 150 150 150
0.236742 1.745713 -0.126493 150 150 150
0.182577 1.638874 -0.151779 150 150 150
0.246414 1.694283 -0.021121 150 150 150
0.296416 1.736122 -0.194281 150 150 150
0.107108 1.632900 -0.262047 150 150 150
0.271251 1.786253 0.058499 150 150 150
0.032355 1.504808 -0.472710 150 150 150
0.216369 1.822833 0.303126 150 150 150
0.184185 1.669884 -0.605600 150 150 150
0.412907 1.656587 0.329347 150 150 150
0.236937 1.734885 -0.634573 150 150 150
0.457972 1.578596 0.333332 150 150 150
