ply
format ascii 1.0
comment author: Greg Turk
comment object: another cube
element vertex 24
property float x
property float y
property float z
property uchar red
property uchar green
property uchar blue
element face 0
property list uchar int vertex_index
end_header
-0.024304 1.208417 -0.125078 150 150 150
0.027217 1.120698 -0.156458 150 150 150
-0.091880 1.118469 -0.130344 150 150 150
-0.024190 1.345270 -0.159896 150 150 150
0.140355 0.760910 -0.126062 150 150 150
-0.191279 0.751652 -0.148972 150 150 150
-0.003214 1.484734 -0.120340 150 150 150
0.215733 0.343762 -0.066235 150 150 150
-0.233300 0.342681 -0.239683 150 150 150
-0.001252 1.546439 -0.114492 150 150 150
0.285519 0.264894 0.025409 150 150 150
-0.230753 0.220959 -0.158908 150 150 150
0.003425 1.759654 -0.092598 150 150 150
0.072725 1.658384 -0.137626 150 150 150
-0.070838 1.666133 -0.081359 150 150 150
0.043316 1.821680 -0.036515 150 150 150
0.144881 1.698575 -0.237558 150 150 150
-0.178260 1.715999 -0.056687 150 150 150
0.132400 1.613605 -0.471140 150 150 150
-0.421708 1.626922 -0.029203 150 150 150
0.218872 1.391406 -0.562492 150 150 150
-0.379500 1.540154 0.213853 150 150 150
0.229104 1.307987 -0.589473 150 150 150
-0.346104 1.505779 0.289793 150 150 150
