ply
format ascii 1.0
comment author: Greg Turk
comment object: another cube
element vertex 24
property float x
property float y
property float z
property uchar red
property uchar green
property uchar blue
element face 0
property list uchar int vertex_index
end_header
-0.038735 1.261259 -0.189954 150 150 150
-0.091600 1.170862 -0.168345 150 150 150
0.028728 1.171044 -0.201431 150 150 150
-0.037880 1.388342 -0.138468 150 150 150
-0.247340 0.826796 -0.229779 150 150 150
0.180000 0.848410 -0.348075 150 150 150
-0.050993 1.529097 -0.177936 150 150 150
-0.321464 0.419309 -0.116573 150 150 150
0.357468 0.525576 -0.139174 150 150 150
-0.049947 1.591382 -0.182651 150 150 150
-0.384283 0.315024 -0.181596 150 150 150
0.408373 0.423758 -0.230110 150 150 150
-0.052915 1.797781 -0.223240 150 150 150
-0.128029 1.700860 -0.179019 150 150 150
0.024030 1.709293 -0.209878 150 150 150
-0.086003 1.812060 -0.305324 150 150 150
-0.222864 1.741981 -0.098956 150 150 150
0.130775 1.769203 -0.205606 150 150 150
-0.274501 1.640439 0.122712 150 150 150
0.370935 1.698457 -0.151599 150 150 150
-0.427514 1.439270 0.109741 150 150 150
0.342651 1.682150 -0.410033 150 150 150
-0.465342 1.359448 0.102993 150 150 150
0.307267 1.667219 -0.491173 150 150 150
