ply
format ascii 1.0
comment author: Greg Turk
comment object: another cube
element vertex 24
property float x
property float y
property float z
property uchar red
property uchar green
property uchar blue
element face 0
property list uchar int vertex_index
end_header
0.104698 1.073496 0.013244 150 150 150
0.076873 0.985805 -0.036309 150 150 150
0.091663 0.988739 0.083806 150 150 150
0.078095 1.202714 -0.001830 150 150 150
0.180330 0.627357 -0.122159 150 150 150
0.221688 0.630089 0.116381 150 150 150
0.160181 1.311557 -0.025620 150 150 150
0.125849 0.200239 -0.162877 150 150 150
0.160794 0.210808 0.142050 150 150 150
0.189636 1.359154 -0.031499 150 150 150
0.225811 0.107922 -0.194122 150 150 150
0.253635 0.099653 0.119974 150 150 150
0.267118 1.567591 -0.059556 150 150 150
0.229937 1.450204 -0.129699 150 150 150
0.224582 1.485447 0.033066 150 150 150
0.356585 1.601501 -0.080750 150 150 150
0.206084 1.419059 -0.251105 150 150 150
0.205948 1.510675 0.147599 150 150 150
0.061046 1.212722 -0.267842 150 150 150
0.039355 1.338318 0.230912 150 150 150
-0.004953 0.959578 -0.277064 150 150 150
0.168367 1.113046 0.255382 150 150 150
-0.035849 0.877323 -0.268489 150 150 150
0.218953 1.038873 0.247022 150 150 150
