ply
format ascii 1.0
comment author: Greg Turk
comment object: another cube
element vertex 24
property float x
property float y
property float z
property uchar red
property uchar green
property uchar blue
element face 0
property list uchar int vertex_index
end_header
-0.042304 1.250516 -0.029620 150 150 150
0.003356 1.161614 -0.069588 150 150 150
-0.110850 1.160266 -0.011948 150 150 150
-0.050557 1.377470 -0.068397 150 150 150
0.295266 0.914277 -0.140263 150 150 150
-0.329972 0.882790 0.153334 150 150 150
-0.007222 1.509882 -0.021574 150 150 150
0.500042 0.639081 -0.394515 150 150 150
-0.586327 0.556484 0.209296 150 150 150
0.000343 1.571525 -0.012884 150 150 150
0.613986 0.561652 -0.380870 150 150 150
-0.624046 0.487990 0.330106 150 150 150
0.030879 1.772455 0.027590 150 150 150
0.073163 1.680968 -0.043521 150 150 150
-0.052289 1.687787 0.041968 150 150 150
0.093715 1.798288 0.087019 150 150 150
0.127413 1.731470 -0.153927 150 150 150
-0.153561 1.747281 0.078757 150 150 150
0.197383 1.714547 -0.398543 150 150 150
-0.410623 1.709532 0.119605 150 150 150
0.413847 1.752855 -0.542013 150 150 150
-0.527753 1.714168 0.359222 150 150 150
0.487931 1.780854 -0.579303 150 150 150
-0.557926 1.715808 0.443948 150 150 150
