ply
format ascii 1.0
comment author: Greg Turk
comment object: another cube
element vertex 24
property float x
property float y
property float z
property uchar red
property uchar green
property uchar blue
element face 0
property list uchar int vertex_index
end_header
-0.015143 1.224398 -0.163201 150 150 150
0.002386 1.136179 -0.219394 150 150 150
-0.068034 1.134026 -0.121723 150 150 150
-0.035898 1.360261 -0.191901 150 150 150
0.063876 0.766538 -0.267181 150 150 150
-0.069010 0.760436 -0.058412 150 150 150
0.006818 1.497876 -0.167610 150 150 150
0.022753 0.342660 -0.322778 150 150 150
-0.088337 0.339510 -0.090971 150 150 150
0.012011 1.558916 -0.162670 150 150 150
0.090716 0.222978 -0.313567 150 150 150
-0.002600 0.231984 -0.041065 150 150 150
0.028745 1.773673 -0.149146 150 150 150
0.067924 1.670653 -0.219664 150 150 150
-0.033809 1.679773 -0.102845 150 150 150
0.089027 1.835714 -0.114734 150 150 150
0.096472 1.701389 -0.340675 150 150 150
-0.124906 1.731000 -0.043108 150 150 150
0.044650 1.547415 -0.526134 150 150 150
-0.341854 1.606153 0.010912 150 150 150
0.156999 1.342260 -0.635113 150 150 150
-0.357311 1.460028 0.227268 150 150 150
0.183475 1.263325 -0.663442 150 150 150
-0.352976 1.399428 0.293217 150 150 150
