ply
format ascii 1.0
comment author: Greg Turk
comment object: another cube
element vertex 24
property float x
property float y
property float z
property uchar red
property uchar green
property uchar blue
element face 0
property list uchar int vertex_index
end_header
-0.019554 1.002613 -0.099600 150 150 150
0.035429 0.914282 -0.083297 150 150 150
-0.069518 0.915459 -0.149950 150 150 150
0.013945 1.131370 -0.121887 150 150 150
0.108223 0.561625 0.048515 150 150 150
-0.237931 0.571026 -0.139912 150 150 150
-0.020587 1.258263 -0.070915 150 150 150
0.246520 0.161189 -0.030337 150 150 150
-0.310098 0.173358 -0.265070 150 150 150
-0.033768 1.313421 -0.058659 150 150 150
0.229809 0.065369 0.067364 150 150 150
-0.368546 0.089177 -0.160422 150 150 150
-0.066525 1.529646 -0.025131 150 150 150
0.013869 1.423161 0.011642 150 150 150
-0.107395 1.432349 -0.097988 150 150 150
-0.101448 1.574989 0.052368 150 150 150
0.124123 1.418739 0.075283 150 150 150
-0.181455 1.458069 -0.188915 150 150 150
0.227747 1.190311 0.068776 150 150 150
-0.155625 1.304992 -0.390598 150 150 150
0.103529 1.012742 0.207560 150 150 150
-0.255168 1.071746 -0.332378 150 150 150
0.047871 0.957711 0.249979 150 150 150
-0.276696 0.991766 -0.296444 150 150 150
