ply
format ascii 1.0
comment author: Greg Turk
comment object: another cube
element vertex 24
property float x
property float y
property float z
property uchar red
property uchar green
property uchar blue
element face 0
property list uchar int vertex_index
end_header
0.071901 1.263385 -0.060862 150 150 150
0.063782 1.176621 -0.000037 150 150 150
0.105868 1.170948 -0.114522 150 150 150
0.103099 1.392988 -0.039858 150 150 150
-0.069445 0.824194 0.060712 150 150 150
-0.035919 0.831356 -0.219087 150 150 150
0.046387 1.523022 -0.071137 150 150 150
-0.044095 0.397027 0.112661 150 150 150
0.072370 0.423673 -0.172007 150 150 150
0.034341 1.582200 -0.077997 150 150 150
-0.124923 0.286712 0.132934 150 150 150
-0.025709 0.324374 -0.214797 150 150 150
0.000854 1.796406 -0.080833 150 150 150
-0.026043 1.684374 -0.009430 150 150 150
0.064121 1.708631 -0.140485 150 150 150
-0.086394 1.834210 -0.093895 150 150 150
-0.065588 1.676278 0.110720 150 150 150
0.151065 1.757666 -0.209236 150 150 150
0.002311 1.449699 0.185602 150 150 150
0.336888 1.596052 -0.230517 150 150 150
-0.116295 1.223135 0.182506 150 150 150
0.137120 1.561600 -0.389412 150 150 150
-0.138294 1.139010 0.168439 150 150 150
0.053989 1.547088 -0.419593 150 150 150
