ply
format ascii 1.0
comment author: Greg Turk
comment object: another cube
element vertex 24
property float x
property float y
property float z
property uchar red
property uchar green
property uchar blue
element face 0
property list uchar int vertex_index
end_header
-0.020495 1.298426 -0.199731 150 150 150
-0.074129 1.207961 -0.177358 150 150 150
0.047160 1.209554 -0.220547 150 150 150
-0.017505 1.417158 -0.146985 150 150 150
-0.316549 0.910164 -0.227823 150 150 150
0.176825 0.987157 -0.513584 150 150 150
-0.043567 1.551515 -0.198390 150 150 150
-0.391560 0.623206 0.084000 150 150 150
0.352170 0.606630 -0.450596 150 150 150
-0.051370 1.612515 -0.208598 150 150 150
-0.478246 0.518247 0.062940 150 150 150
0.393401 0.547790 -0.575423 150 150 150
-0.087125 1.812963 -0.256607 150 150 150
-0.144597 1.708540 -0.204159 150 150 150
0.003501 1.738077 -0.244227 150 150 150
-0.131082 1.814043 -0.334517 150 150 150
-0.247344 1.728737 -0.125445 150 150 150
0.098245 1.816490 -0.246963 150 150 150
-0.305376 1.601447 0.081858 150 150 150
0.338215 1.786359 -0.164821 150 150 150
-0.451422 1.400332 0.029801 150 150 150
0.372503 1.709439 -0.410904 150 150 150
-0.493050 1.326327 0.005848 150 150 150
0.364067 1.668515 -0.490519 150 150 150
