ply
format ascii 1.0
comment author: Greg Turk
comment object: another cube
element vertex 24
property float x
property float y
property float z
property uchar red
property uchar green
property uchar blue
element face 0
property list uchar int vertex_index
end_header
0.155439 1.218267 0.010760 150 150 150
0.123899 1.130330 -0.039192 150 150 150
0.169334 1.127346 0.077746 150 150 150
0.113108 1.344695 0.014842 150 150 150
0.206111 0.835488 -0.278731 150 150 150
0.317253 0.780299 0.161222 150 150 150
0.182759 1.465626 -0.027087 150 150 150
0.117817 0.438164 -0.419371 150 150 150
0.125636 0.441813 0.329393 150 150 150
0.201890 1.521400 -0.047716 150 150 150
0.187615 0.344318 -0.492419 150 150 150
0.198492 0.315803 0.320852 150 150 150
0.243259 1.704600 -0.129770 150 150 150
0.185163 1.597435 -0.156632 150 150 150
0.247055 1.651045 -0.022551 150 150 150
0.304687 1.695541 -0.198060 150 150 150
0.115074 1.588946 -0.269581 150 150 150
0.275482 1.735672 0.063497 150 150 150
0.047855 1.438793 -0.467733 150 150 150
0.201100 1.745724 0.305201 150 150 150
0.212363 1.578353 -0.613421 150 150 150
0.383079 1.564726 0.335095 150 150 150
0.269783 1.636430 -0.647655 150 150 150
0.425696 1.485323 0.334093 150 150 150
