ply
format ascii 1.0
comment author: Greg Turk
comment object: another cube
element vertex 24
property float x
property float y
property float z
property uchar red
property uchar green
property uchar blue
element face 0
property list uchar int vertex_index
end_header
-0.018722 1.259660 -0.150881 150 150 150
0.014716 1.171587 -0.199382 150 150 150
-0.081407 1.169344 -0.126926 150 150 150
-0.031668 1.395925 -0.184057 150 150 150
0.098073 0.802458 -0.210622 150 150 150
-0.118842 0.793400 -0.095902 150 150 150
0.003484 1.533939 -0.150856 150 150 150
0.108017 0.373476 -0.218780 150 150 150
-0.142113 0.378133 -0.171516 150 150 150
0.007657 1.595114 -0.144872 150 150 150
0.183947 0.264216 -0.180416 150 150 150
-0.083106 0.264403 -0.100155 150 150 150
0.022011 1.808357 -0.124994 150 150 150
0.074236 1.706212 -0.187779 150 150 150
-0.048706 1.715580 -0.094224 150 150 150
0.076171 1.869093 -0.080152 150 150 150
0.122819 1.742832 -0.302067 150 150 150
-0.147366 1.769368 -0.048670 150 150 150
0.090273 1.625832 -0.518855 150 150 150
-0.384807 1.677974 0.001898 150 150 150
0.194957 1.419478 -0.631504 150 150 150
-0.394865 1.569658 0.240152 150 150 150
0.214535 1.339866 -0.663740 150 150 150
-0.385021 1.521990 0.315523 150 150 150
