ply
format ascii 1.0
comment author: Greg Turk
comment object: another cube
element vertex 24
property float x
property float y
property float z
property uchar red
property uchar green
property uchar blue
element face 0
property list uchar int vertex_index
end_header
-0.048324 0.999349 -0.048209 150 150 150
-0.068942 0.914556 -0.105914 150 150 150
-0.069524 0.911777 0.016775 150 150 150
-0.081195 1.131525 -0.059615 150 150 150
-0.070580 0.545787 -0.198470 150 150 150
-0.067802 0.545461 0.121734 150 150 150
-0.049066 1.267448 -0.063775 150 150 150
-0.127485 0.123732 -0.258986 150 150 150
-0.140580 0.132280 0.174824 150 150 150
-0.045518 1.323847 -0.059724 150 150 150
-0.019039 0.062323 -0.321807 150 150 150
-0.020056 0.071944 0.235380 150 150 150
-0.067253 1.545859 -0.041337 150 150 150
-0.056354 1.442388 -0.132402 150 150 150
-0.065157 1.438646 0.028763 150 150 150
-0.008400 1.624442 -0.048983 150 150 150
-0.089910 1.455815 -0.256556 150 150 150
-0.083413 1.452574 0.145955 150 150 150
-0.115537 1.254784 -0.403722 150 150 150
-0.125862 1.252896 0.308364 150 150 150
0.062653 1.084008 -0.482640 150 150 150
0.037640 1.072523 0.411479 150 150 150
0.114429 1.013265 -0.497453 150 150 150
0.090974 1.002651 0.432623 150 150 150
