ply
format ascii 1.0
comment author: Greg Turk
comment object: another cube
element vertex 24
property float x
property float y
property float z
property uchar red
property uchar green
property uchar blue
element face 0
property list uchar int vertex_index
end_header
0.011024 0.943758 -0.071210 150 150 150
-0.042244 0.857760 -0.094215 150 150 150
0.042737 0.862314 -0.004566 150 150 150
-0.017509 1.070127 -0.066115 150 150 150
0.042568 0.502746 -0.220617 150 150 150
0.151748 0.493131 -0.013864 150 150 150
0.020203 1.184105 -0.119770 150 150 150
-0.110326 0.112892 -0.115397 150 150 150
0.032377 0.129889 0.168872 150 150 150
0.036012 1.231083 -0.132399 150 150 150
-0.049703 0.038651 -0.215712 150 150 150
0.139775 0.053560 0.105974 150 150 150
0.074502 1.461019 -0.142529 150 150 150
-0.011053 1.350748 -0.193448 150 150 150
0.113247 1.345690 -0.081768 150 150 150
0.118919 1.524716 -0.209974 150 150 150
-0.131144 1.340077 -0.227728 150 150 150
0.188052 1.322460 0.002252 150 150 150
-0.226314 1.115752 -0.162114 150 150 150
0.151203 1.079669 0.086191 150 150 150
-0.251722 0.863135 -0.222668 150 150 150
0.231448 0.890543 -0.079725 150 150 150
-0.247054 0.775518 -0.236457 150 150 150
0.256658 0.839597 -0.150271 150 150 150
