ply
format ascii 1.0
comment author: Greg Turk
comment object: another cube
element vertex 24
property float x
property float y
property float z
property uchar red
property uchar green
property uchar blue
element face 0
property list uchar int vertex_index
end_header
-0.041382 0.933103 -0.117428 150 150 150
0.017809 0.846042 -0.120139 150 150 150
-0.100962 0.850081 -0.160981 150 150 150
-0.016879 1.059367 -0.138211 150 150 150
0.099359 0.485317 -0.011906 150 150 150
-0.264612 0.507181 -0.089276 150 150 150
-0.030691 1.179743 -0.076170 150 150 150
0.262447 0.091342 -0.075192 150 150 150
-0.313982 0.128980 -0.271717 150 150 150
-0.037651 1.231616 -0.060517 150 150 150
0.246317 0.041317 0.053344 150 150 150
-0.371410 0.063431 -0.154907 150 150 150
-0.059909 1.456384 -0.034219 150 150 150
0.034565 1.347401 -0.030912 150 150 150
-0.125852 1.349413 -0.069341 150 150 150
-0.055358 1.518070 0.044652 150 150 150
0.159656 1.344350 -0.053458 150 150 150
-0.240126 1.353764 -0.099547 150 150 150
0.239908 1.139364 -0.174449 150 150 150
-0.362894 1.142252 -0.192863 150 150 150
0.312810 0.896572 -0.124426 150 150 150
-0.411054 0.965434 -0.003432 150 150 150
0.326396 0.812155 -0.101522 150 150 150
-0.411821 0.916100 0.072101 150 150 150
