ply
format ascii 1.0
comment author: Greg Turk
comment object: another cube
element vertex 24
property float x
property float y
property float z
property uchar red
property uchar green
property uchar blue
element face 0
property list uchar int vertex_index
end_header
0.071571 1.156180 0.020978 150 150 150
0.046758 1.068172 -0.030191 150 150 150
0.055787 1.071744 0.091254 150 150 150
0.046934 1.283462 0.004719 150 150 150
0.193197 0.724619 -0.120418 150 150 150
0.232090 0.731631 0.118500 150 150 150
0.141596 1.384152 -0.017420 150 150 150
0.107512 0.302661 -0.159551 150 150 150
0.208538 0.308071 0.112908 150 150 150
0.177055 1.429474 -0.024493 150 150 150
0.198772 0.201292 -0.188921 150 150 150
0.311439 0.206082 0.095525 150 150 150
0.277579 1.623849 -0.056255 150 150 150
0.229657 1.511069 -0.123628 150 150 150
0.224229 1.552591 0.036392 150 150 150
0.369987 1.645866 -0.074873 150 150 150
0.207017 1.487738 -0.248148 150 150 150
0.209508 1.591898 0.148280 150 150 150
0.020248 1.323902 -0.288788 150 150 150
0.018809 1.459280 0.247369 150 150 150
-0.072466 1.081861 -0.279535 150 150 150
0.156611 1.240004 0.262219 150 150 150
-0.114620 1.006047 -0.262761 150 150 150
0.210999 1.169592 0.248629 150 150 150
