ply
format ascii 1.0
comment author: Greg Turk
comment object: another cube
element vertex 24
property float x
property float y
property float z
property uchar red
property uchar green
property uchar blue
element face 0
property list uchar int vertex_index
end_header
0.074444 1.253529 -0.059508 150 150 150
0.048790 1.168137 -0.001813 150 150 150
0.122611 1.159970 -0.097727 150 150 150
0.099265 1.385174 -0.033414 150 150 150
-0.071310 0.807817 0.015516 150 150 150
0.038063 0.803012 -0.203667 150 150 150
0.059009 1.518176 -0.075635 150 150 150
-0.068287 0.378501 0.049908 150 150 150
0.146436 0.420164 -0.055634 150 150 150
0.052879 1.577988 -0.084206 150 150 150
-0.152776 0.269665 0.034770 150 150 150
0.082007 0.304575 -0.118014 150 150 150
0.034180 1.794484 -0.096064 150 150 150
-0.014989 1.685783 -0.032257 150 150 150
0.103814 1.701502 -0.138409 150 150 150
-0.047250 1.836574 -0.125915 150 150 150
-0.074235 1.689563 0.079229 150 150 150
0.206987 1.741111 -0.188080 150 150 150
-0.024095 1.471107 0.183217 150 150 150
0.377577 1.561815 -0.192837 150 150 150
-0.144517 1.246591 0.175451 150 150 150
0.187501 1.583767 -0.365646 150 150 150
-0.161652 1.160876 0.164854 150 150 150
0.105296 1.590767 -0.400494 150 150 150
