ply
format ascii 1.0
comment author: Greg Turk
comment object: another cube
element vertex 24
property float x
property float y
property float z
property uchar red
property uchar green
property uchar blue
element face 0
property list uchar int vertex_index
end_header
-0.046756 0.999662 -0.048167 150 150 150
-0.067552 0.914880 -0.105824 150 150 150
-0.067729 0.912074 0.016871 150 150 150
-0.079714 1.131869 -0.059443 150 150 150
-0.070077 0.546284 -0.198867 150 150 150
-0.066488 0.545840 0.121994 150 150 150
-0.047692 1.267862 -0.063691 150 150 150
-0.127149 0.124335 -0.259881 150 150 150
-0.140344 0.132921 0.175491 150 150 150
-0.044179 1.324313 -0.059667 150 150 150
-0.018643 0.062889 -0.322553 150 150 150
-0.019802 0.072473 0.235910 150 150 150
-0.065649 1.546265 -0.041287 150 150 150
-0.055089 1.442809 -0.132354 150 150 150
-0.063497 1.439142 0.028807 150 150 150
-0.006520 1.624586 -0.049081 150 150 150
-0.088669 1.456380 -0.256464 150 150 150
-0.081466 1.453449 0.145982 150 150 150
-0.113849 1.255167 -0.403407 150 150 150
-0.124322 1.253997 0.308369 150 150 150
0.064427 1.084424 -0.482224 150 150 150
0.038924 1.073167 0.410956 150 150 150
0.116086 1.013563 -0.496859 150 150 150
0.091991 1.003000 0.431765 150 150 150
