ply
format ascii 1.0
comment author: Greg Turk
comment object: another cube
element vertex 24
property float x
property float y
property float z
property uchar red
property uchar green
property uchar blue
element face 0
property list uchar int vertex_index
end_header
-0.036583 1.099446 -0.104483 150 150 150
0.022476 1.011211 -0.119791 150 150 150
-0.099955 1.009950 -0.130512 150 150 150
-0.025939 1.236839 -0.136677 150 150 150
0.134482 0.653995 -0.074638 150 150 150
-0.229391 0.653041 -0.164539 150 150 150
-0.017581 1.376658 -0.092484 150 150 150
0.217488 0.236027 -0.037237 150 150 150
-0.303829 0.245072 -0.235410 150 150 150
-0.016989 1.438637 -0.086546 150 150 150
0.234547 0.134855 0.056685 150 150 150
-0.346864 0.134609 -0.151458 150 150 150
-0.020756 1.653251 -0.067377 150 150 150
0.058889 1.552521 -0.092372 150 150 150
-0.094731 1.557865 -0.070898 150 150 150
0.005807 1.718077 -0.007165 150 150 150
0.151336 1.589514 -0.173257 150 150 150
-0.208173 1.596706 -0.065801 150 150 150
0.170805 1.491129 -0.399346 150 150 150
-0.425892 1.455089 -0.065581 150 150 150
0.246448 1.256753 -0.464510 150 150 150
-0.373921 1.380005 0.178934 150 150 150
0.252607 1.171659 -0.487316 150 150 150
-0.335405 1.355241 0.256282 150 150 150
