ply
format ascii 1.0
comment author: Greg Turk
comment object: another cube
element vertex 24
property float x
property float y
property float z
property uchar red
property uchar green
property uchar blue
element face 0
property list uchar int vertex_index
end_header
-0.001043 1.272640 -0.056305 150 150 150
-0.038158 1.187689 -0.108289 150 150 150
-0.009533 1.182098 0.012748 150 150 150
-0.028140 1.408530 -0.058174 150 150 150
-0.046029 0.857190 -0.306361 150 150 150
-0.029471 0.844162 0.194785 150 150 150
0.030407 1.548194 -0.075872 150 150 150
-0.079194 0.453852 -0.439867 150 150 150
-0.256046 0.559078 0.401843 150 150 150
0.039563 1.613505 -0.079981 150 150 150
-0.021324 0.361709 -0.524694 150 150 150
-0.227450 0.421865 0.439095 150 150 150
0.057910 1.810871 -0.098363 150 150 150
0.033512 1.715610 -0.163282 150 150 150
0.048180 1.733564 -0.015836 150 150 150
0.130283 1.857101 -0.130895 150 150 150
-0.003629 1.753090 -0.283232 150 150 150
0.036683 1.809467 0.077839 150 150 150
0.013324 1.752209 -0.541582 150 150 150
-0.020417 1.830852 0.330265 150 150 150
0.193602 1.934005 -0.605373 150 150 150
0.206678 1.809409 0.460029 150 150 150
0.258308 1.992279 -0.620869 150 150 150
0.274727 1.777319 0.509328 150 150 150
