ply
format ascii 1.0
comment author: Greg Turk
comment object: another cube
element vertex 24
property float x
property float y
property float z
property uchar red
property uchar green
property uchar blue
element face 0
property list uchar int vertex_index
end_header
0.043790 1.236611 -0.082509 150 150 150
0.066007 1.148831 -0.027485 150 150 150
0.040093 1.144509 -0.147221 150 150 150
0.086949 1.364732 -0.080324 150 150 150
-0.020601 0.809441 0.125185 150 150 150
-0.136537 0.808847 -0.197642 150 150 150
0.020774 1.493477 -0.074912 150 150 150
0.062220 0.388218 0.166726 150 150 150
-0.130798 0.393115 -0.275598 150 150 150
0.003153 1.551357 -0.073829 150 150 150
0.000464 0.280891 0.227986 150 150 150
-0.243994 0.305134 -0.249591 150 150 150
-0.042398 1.761264 -0.053265 150 150 150
-0.025867 1.647770 0.018542 150 150 150
-0.007419 1.678950 -0.139613 150 150 150
-0.128555 1.792289 -0.028765 150 150 150
-0.019906 1.626499 0.144361 150 150 150
0.034683 1.734744 -0.238850 150 150 150
0.062256 1.393557 0.189016 150 150 150
0.231156 1.608320 -0.321774 150 150 150
-0.067525 1.171889 0.197680 150 150 150
0.030676 1.471953 -0.409140 150 150 150
-0.107843 1.094235 0.185417 150 150 150
-0.044079 1.422380 -0.414598 150 150 150
