ply
format ascii 1.0
comment author: Greg Turk
comment object: another cube
element vertex 24
property float x
property float y
property float z
property uchar red
property uchar green
property uchar blue
element face 0
property list uchar int vertex_index
end_header
0.006929 1.305725 -0.056526 150 150 150
-0.030480 1.221035 -0.108236 150 150 150
0.004432 1.214187 0.011948 150 150 150
-0.023361 1.439162 -0.054721 150 150 150
-0.025347 0.917956 -0.350623 150 150 150
0.005317 0.881521 0.206770 150 150 150
0.034544 1.578209 -0.076438 150 150 150
-0.084008 0.532580 -0.522726 150 150 150
-0.247205 0.655068 0.452583 150 150 150
0.043296 1.643445 -0.081534 150 150 150
-0.033848 0.456776 -0.626488 150 150 150
-0.235509 0.518730 0.499674 150 150 150
0.062413 1.839621 -0.103524 150 150 150
0.032935 1.744302 -0.165776 150 150 150
0.055673 1.763731 -0.019254 150 150 150
0.135571 1.879620 -0.140428 150 150 150
-0.010516 1.781741 -0.283982 150 150 150
0.047912 1.842186 0.073052 150 150 150
-0.010841 1.788534 -0.543237 150 150 150
-0.009135 1.871196 0.324550 150 150 150
0.160335 1.975721 -0.616377 150 150 150
0.210679 1.836522 0.463486 150 150 150
0.221267 2.037273 -0.634442 150 150 150
0.273724 1.801275 0.517058 150 150 150
