ply
format ascii 1.0
comment author: Greg Turk
comment object: another cube
element vertex 24
property float x
property float y
property float z
property uchar red
property uchar green
property uchar blue
element face 0
property list uchar int vertex_index
end_header
-0.051467 1.007783 -0.003105 150 150 150
-0.034100 0.921383 -0.059704 150 150 150
-0.106740 0.920966 0.038826 150 150 150
-0.069373 1.138899 -0.031024 150 150 150
0.091717 0.558772 -0.048519 150 150 150
-0.115718 0.547524 0.120243 150 150 150
-0.011032 1.257311 0.006259 150 150 150
-0.006398 0.139724 -0.089410 150 150 150
-0.256791 0.150501 0.065513 150 150 150
0.003649 1.308616 0.021513 150 150 150
0.090946 0.049993 -0.048780 150 150 150
-0.183045 0.055389 0.150548 150 150 150
0.042973 1.526787 0.062384 150 150 150
0.072720 1.421283 -0.025308 150 150 150
-0.031076 1.425662 0.101169 150 150 150
0.118756 1.574081 0.104372 150 150 150
0.111076 1.424127 -0.147620 150 150 150
-0.124294 1.438576 0.175421 150 150 150
0.115884 1.202628 -0.267490 150 150 150
-0.308490 1.258436 0.165077 150 150 150
0.330574 1.061353 -0.318062 150 150 150
-0.341446 1.037158 0.306563 150 150 150
0.408121 1.019112 -0.327980 150 150 150
-0.339149 0.958681 0.351607 150 150 150
