ply
format ascii 1.0
comment author: Greg Turk
comment object: another cube
element vertex 24
property float x
property float y
property float z
property uchar red
property uchar green
property uchar blue
element face 0
property list uchar int vertex_index
end_header
0.004329 0.905579 -0.268660 150 150 150
-0.027144 0.820799 -0.322123 150 150 150
-0.010655 0.823479 -0.196161 150 150 150
-0.018655 1.028554 -0.280672 150 150 150
0.069154 0.469242 -0.453421 150 150 150
0.167783 0.487679 -0.127930 150 150 150
0.065936 1.131704 -0.300155 150 150 150
-0.064871 0.073502 -0.558285 150 150 150
0.046808 0.092186 -0.037568 150 150 150
0.094750 1.177215 -0.303240 150 150 150
0.061046 0.040172 -0.606625 150 150 150
0.187221 0.052875 -0.045222 150 150 150
0.161904 1.394175 -0.301264 150 150 150
0.112341 1.289227 -0.385318 150 150 150
0.140760 1.291146 -0.222373 150 150 150
0.236637 1.458058 -0.323764 150 150 150
0.042501 1.298865 -0.493308 150 150 150
0.159278 1.287290 -0.106812 150 150 150
-0.121392 1.117064 -0.549953 150 150 150
0.071833 1.077702 0.022428 150 150 150
-0.221738 0.911872 -0.681807 150 150 150
0.089101 0.831726 0.126848 150 150 150
-0.254870 0.838265 -0.718535 150 150 150
0.096789 0.745749 0.154364 150 150 150
