ply
format ascii 1.0
comment author: Greg Turk
comment object: another cube
element vertex 24
property float x
property float y
property float z
property uchar red
property uchar green
property uchar blue
element face 0
property list uchar int vertex_index
end_header
-0.061600 0.986772 -0.037013 150 150 150
-0.088178 0.904450 -0.096806 150 150 150
-0.098477 0.902555 0.025668 150 150 150
-0.074936 1.120766 -0.050158 150 150 150
-0.083928 0.537577 -0.195514 150 150 150
-0.102882 0.535891 0.128432 150 150 150
-0.006454 1.243610 -0.046253 150 150 150
-0.122015 0.114987 -0.264383 150 150 150
-0.145447 0.118497 0.179850 150 150 150
0.012884 1.297969 -0.040690 150 150 150
-0.012857 0.056281 -0.329049 150 150 150
-0.021656 0.064566 0.239429 150 150 150
0.049007 1.517176 -0.022922 150 150 150
0.048456 1.411585 -0.113444 150 150 150
0.012647 1.415678 0.045416 150 150 150
0.125556 1.577480 -0.025669 150 150 150
0.047211 1.420663 -0.240100 150 150 150
-0.022459 1.434121 0.156591 150 150 150
-0.024127 1.197457 -0.321030 150 150 150
-0.159916 1.233100 0.233796 150 150 150
0.055296 0.951736 -0.351841 150 150 150
-0.081575 0.993261 0.308492 150 150 150
0.064534 0.863768 -0.351294 150 150 150
-0.057107 0.907147 0.318416 150 150 150
