ply
format ascii 1.0
comment author: Greg Turk
comment object: another cube
element vertex 24
property float x
property float y
property float z
property uchar red
property uchar green
property uchar blue
element face 0
property list uchar int vertex_index
end_header
-0.080838 0.907788 -0.028676 150 150 150
-0.099937 0.825265 -0.088757 150 150 150
-0.114217 0.824021 0.034960 150 150 150
-0.097638 1.033630 -0.045049 150 150 150
-0.012428 0.467192 -0.206606 150 150 150
-0.014455 0.471790 0.151995 150 150 150
-0.004727 1.132832 -0.038648 150 150 150
-0.117076 0.053082 -0.272055 150 150 150
-0.125201 0.064177 0.187243 150 150 150
0.027849 1.175257 -0.031680 150 150 150
-0.004916 0.006260 -0.339533 150 150 150
-0.002631 0.014003 0.250905 150 150 150
0.100739 1.389685 -0.024597 150 150 150
0.089464 1.272945 -0.110211 150 150 150
0.042531 1.297400 0.049271 150 150 150
0.180784 1.451083 -0.027429 150 150 150
0.105306 1.237095 -0.231372 150 150 150
-0.002671 1.303229 0.159894 150 150 150
0.059929 0.989380 -0.279875 150 150 150
-0.182425 1.126741 0.214352 150 150 150
0.120682 0.732418 -0.315802 150 150 150
-0.243830 0.882224 0.304193 150 150 150
0.121594 0.643997 -0.322537 150 150 150
-0.270960 0.797262 0.319474 150 150 150
