ply
format ascii 1.0
comment author: Greg Turk
comment object: another cube
element vertex 24
property float x
property float y
property float z
property uchar red
property uchar green
property uchar blue
element face 0
property list uchar int vertex_index
end_header
-0.041800 1.000360 -0.047397 150 150 150
-0.064320 0.915977 -0.105110 150 150 150
-0.063256 0.912785 0.017544 150 150 150
-0.073005 1.133085 -0.057935 150 150 150
-0.068005 0.547904 -0.199460 150 150 150
-0.063597 0.546464 0.122364 150 150 150
-0.037741 1.268649 -0.061948 150 150 150
-0.125985 0.126260 -0.261191 150 150 150
-0.140484 0.134270 0.176975 150 150 150
-0.032965 1.325331 -0.057791 150 150 150
-0.017350 0.064189 -0.322928 150 150 150
-0.020019 0.072138 0.235838 150 150 150
-0.049044 1.547311 -0.038441 150 150 150
-0.041125 1.444366 -0.130058 150 150 150
-0.048928 1.440140 0.031062 150 150 150
0.010869 1.624679 -0.047784 150 150 150
-0.072715 1.460236 -0.254349 150 150 150
-0.066212 1.454641 0.148328 150 150 150
-0.100945 1.260308 -0.402326 150 150 150
-0.118075 1.252904 0.304008 150 150 150
0.073666 1.084955 -0.479076 150 150 150
0.043374 1.068802 0.402640 150 150 150
0.122974 1.012174 -0.492104 150 150 150
0.096151 0.998018 0.421806 150 150 150
