ply
format ascii 1.0
comment author: Greg Turk
comment object: another cube
element vertex 24
property float x
property float y
property float z
property uchar red
property uchar green
property uchar blue
element face 0
property list uchar int vertex_index
end_header
0.198019 1.260953 -0.008118 150 150 150
0.159710 1.177068 -0.060714 150 150 150
0.207465 1.166102 0.054252 150 150 150
0.161049 1.393793 0.005617 150 150 150
0.177114 0.873536 -0.295614 150 150 150
0.235100 0.811173 0.198775 150 150 150
0.205573 1.533252 -0.021854 150 150 150
0.146721 0.491460 -0.486476 150 150 150
-0.021699 0.569333 0.428179 150 150 150
0.210258 1.595529 -0.034146 150 150 150
0.225846 0.418618 -0.572967 150 150 150
-0.004574 0.427739 0.453223 150 150 150
0.212282 1.789828 -0.091088 150 150 150
0.173730 1.680132 -0.129094 150 150 150
0.231645 1.727183 0.004502 150 150 150
0.271102 1.800521 -0.160350 150 150 150
0.099751 1.676990 -0.238679 150 150 150
0.245292 1.817074 0.087343 150 150 150
0.054340 1.538937 -0.447580 150 150 150
0.225944 1.851433 0.337953 150 150 150
0.216607 1.713882 -0.548057 150 150 150
0.450960 1.732913 0.289358 150 150 150
0.275655 1.777454 -0.566724 150 150 150
0.508799 1.665666 0.273093 150 150 150
