ply
format ascii 1.0
comment author: Greg Turk
comment object: another cube
element vertex 24
property float x
property float y
property float z
property uchar red
property uchar green
property uchar blue
element face 0
property list uchar int vertex_index
end_header
-0.007302 1.317522 -0.000159 150 150 150
-0.015723 1.228668 -0.057126 150 150 150
-0.046318 1.238388 0.066460 150 150 150
-0.019919 1.438272 -0.024632 150 150 150
0.201181 0.905482 -0.074026 150 150 150
0.219787 0.978745 0.179818 150 150 150
0.084262 1.532429 -0.020393 150 150 150
-0.144984 0.661580 -0.157641 150 150 150
0.249335 0.567649 0.079285 150 150 150
0.124131 1.575956 -0.019720 150 150 150
-0.106635 0.530978 -0.185246 150 150 150
0.373048 0.505931 0.122303 150 150 150
0.250287 1.755371 -0.023314 150 150 150
0.201845 1.651601 -0.102952 150 150 150
0.173522 1.692104 0.051177 150 150 150
0.346452 1.762669 -0.028212 150 150 150
0.187026 1.666769 -0.229797 150 150 150
0.153832 1.746990 0.157981 150 150 150
-0.050901 1.659960 -0.302100 150 150 150
-0.030544 1.664154 0.312144 150 150 150
-0.193660 1.452893 -0.282193 150 150 150
0.193194 1.532363 0.319246 150 150 150
-0.254570 1.393487 -0.258869 150 150 150
0.274092 1.499245 0.299198 150 150 150
