ply
format ascii 1.0
comment author: Greg Turk
comment object: another cube
element vertex 24
property float x
property float y
property float z
property uchar red
property uchar green
property uchar blue
element face 0
property list uchar int vertex_index
end_header
0.032834 0.982211 -0.257344 150 150 150
0.023074 0.897938 -0.319456 150 150 150
0.013405 0.890119 -0.196224 150 150 150
-0.004539 1.109380 -0.268926 150 150 150
0.083669 0.541143 -0.448072 150 150 150
0.136897 0.535773 -0.121095 150 150 150
0.049437 1.241974 -0.255602 150 150 150
-0.043445 0.145156 -0.560885 150 150 150
0.046027 0.127166 -0.057494 150 150 150
0.057217 1.300966 -0.249756 150 150 150
0.057583 0.063383 -0.608970 150 150 150
0.180444 0.066979 -0.047875 150 150 150
0.056329 1.517236 -0.244449 150 150 150
0.084596 1.414245 -0.322790 150 150 150
0.020220 1.419182 -0.177079 150 150 150
0.112601 1.595394 -0.232966 150 150 150
0.107541 1.436714 -0.449642 150 150 150
-0.047744 1.457373 -0.084842 150 150 150
0.171837 1.277505 -0.636757 150 150 150
-0.239857 1.316588 0.007727 150 150 150
0.392983 1.176855 -0.735169 150 150 150
-0.274577 1.120144 0.180047 150 150 150
0.464763 1.131426 -0.760172 150 150 150
-0.284677 1.044026 0.226293 150 150 150
