ply
format ascii 1.0
comment author: Greg Turk
comment object: another cube
element vertex 24
property float x
property float y
property float z
property uchar red
property uchar green
property uchar blue
element face 0
property list uchar int vertex_index
end_header
0.060832 1.257603 -0.070424 150 150 150
0.068517 1.170383 -0.010344 150 150 150
0.075271 1.164965 -0.132384 150 150 150
0.100406 1.386303 -0.058557 150 150 150
-0.049779 0.825072 0.100960 150 150 150
-0.091363 0.829322 -0.208956 150 150 150
0.035584 1.515603 -0.072152 150 150 150
0.001306 0.400273 0.155531 150 150 150
-0.033363 0.410784 -0.240299 150 150 150
0.019430 1.574142 -0.075284 150 150 150
-0.072546 0.290774 0.196153 150 150 150
-0.150019 0.323874 -0.250845 150 150 150
-0.024338 1.785220 -0.066208 150 150 150
-0.027548 1.671925 0.007658 150 150 150
0.026924 1.701790 -0.141599 150 150 150
-0.113528 1.817856 -0.060049 150 150 150
-0.045744 1.654975 0.132553 150 150 150
0.091170 1.756960 -0.228296 150 150 150
0.030546 1.423811 0.188254 150 150 150
0.288205 1.616212 -0.278578 150 150 150
-0.091690 1.198226 0.189813 150 150 150
0.083857 1.523994 -0.405375 150 150 150
-0.122696 1.116919 0.175364 150 150 150
0.003277 1.489332 -0.424228 150 150 150
