ply
format ascii 1.0
comment author: Greg Turk
comment object: another cube
element vertex 24
property float x
property float y
property float z
property uchar red
property uchar green
property uchar blue
element face 0
property list uchar int vertex_index
end_header
-0.041767 0.999923 -0.047930 150 150 150
-0.064050 0.915457 -0.105576 150 150 150
-0.062773 0.912305 0.017075 150 150 150
-0.073571 1.132534 -0.058438 150 150 150
-0.067913 0.547274 -0.199603 150 150 150
-0.063375 0.545967 0.121810 150 150 150
-0.039521 1.268343 -0.062580 150 150 150
-0.126048 0.125604 -0.261179 150 150 150
-0.140676 0.133872 0.176547 150 150 150
-0.035270 1.324991 -0.058431 150 150 150
-0.017422 0.063556 -0.322936 150 150 150
-0.020212 0.071937 0.235626 150 150 150
-0.053356 1.546856 -0.039071 150 150 150
-0.045010 1.443893 -0.130658 150 150 150
-0.051926 1.439696 0.030478 150 150 150
0.005974 1.624721 -0.048428 150 150 150
-0.077824 1.459275 -0.254740 150 150 150
-0.068810 1.454337 0.147850 150 150 150
-0.104873 1.259605 -0.403346 150 150 150
-0.117865 1.254060 0.306598 150 150 150
0.072373 1.087186 -0.480698 150 150 150
0.044302 1.071104 0.406395 150 150 150
0.122910 1.015260 -0.493915 150 150 150
0.097020 1.000367 0.425965 150 150 150
