ply
format ascii 1.0
comment author: Greg Turk
comment object: another cube
element vertex 24
property float x
property float y
property float z
property uchar red
property uchar green
property uchar blue
element face 0
property list uchar int vertex_index
end_header
0.008925 1.056303 -0.267762 150 150 150
-0.022403 0.964749 -0.312942 150 150 150
-0.013740 0.978825 -0.189148 150 150 150
-0.011477 1.187345 -0.292518 150 150 150
0.007015 0.601583 -0.426345 150 150 150
0.072841 0.628688 -0.054999 150 150 150
0.069894 1.301873 -0.320910 150 150 150
-0.024846 0.191056 -0.547513 150 150 150
0.028869 0.211510 0.001135 150 150 150
0.095215 1.356398 -0.329690 150 150 150
0.073133 0.098298 -0.585688 150 150 150
0.150189 0.135961 -0.022409 150 150 150
0.170990 1.561941 -0.340474 150 150 150
0.112101 1.464370 -0.414157 150 150 150
0.152156 1.470738 -0.259856 150 150 150
0.245484 1.610016 -0.369762 150 150 150
0.030919 1.502107 -0.504509 150 150 150
0.191137 1.490062 -0.150832 150 150 150
-0.192651 1.416381 -0.447394 150 150 150
0.187404 1.289961 0.015291 150 150 150
-0.348322 1.214798 -0.463444 150 150 150
0.381384 1.150671 -0.090602 150 150 150
-0.400121 1.145506 -0.448339 150 150 150
0.439386 1.109510 -0.144913 150 150 150
