ply
format ascii 1.0
comment author: Greg Turk
comment object: another cube
element vertex 24
property float x
property float y
property float z
property uchar red
property uchar green
property uchar blue
element face 0
property list uchar int vertex_index
end_header
0.021269 1.192401 -0.245094 150 150 150
-0.012566 1.104746 -0.296646 150 150 150
0.005076 1.105612 -0.175473 150 150 150
-0.002845 1.331519 -0.252695 150 150 150
-0.021587 0.743110 -0.400026 150 150 150
0.003017 0.750138 -0.039678 150 150 150
0.049639 1.467884 -0.272448 150 150 150
-0.076500 0.322027 -0.449843 150 150 150
-0.068854 0.341584 0.032851 150 150 150
0.060917 1.529415 -0.275887 150 150 150
-0.019560 0.202949 -0.493929 150 150 150
0.012458 0.226358 0.066287 150 150 150
0.100148 1.741749 -0.282251 150 150 150
0.057186 1.640798 -0.355575 150 150 150
0.098908 1.648807 -0.205069 150 150 150
0.165701 1.801182 -0.305149 150 150 150
-0.028830 1.677729 -0.441063 150 150 150
0.122117 1.687919 -0.095284 150 150 150
-0.249397 1.589837 -0.380748 150 150 150
0.106549 1.528967 0.102027 150 150 150
-0.295940 1.341785 -0.373205 150 150 150
0.296929 1.442021 -0.050741 150 150 150
-0.314779 1.260641 -0.343488 150 150 150
0.345326 1.412974 -0.120611 150 150 150
