ply
format ascii 1.0
comment author: Greg Turk
comment object: another cube
element vertex 24
property float x
property float y
property float z
property uchar red
property uchar green
property uchar blue
element face 0
property list uchar int vertex_index
end_header
-0.073490 1.243329 -0.285492 150 150 150
-0.021814 1.156223 -0.251890 150 150 150
-0.093891 1.154328 -0.350716 150 150 150
-0.043900 1.381114 -0.295749 150 150 150
0.000600 0.789296 -0.167988 150 150 150
-0.145442 0.796277 -0.476803 150 150 150
-0.070901 1.523294 -0.255027 150 150 150
0.091498 0.371651 -0.215289 150 150 150
0.053648 0.470521 -0.654578 150 150 150
-0.071602 1.586646 -0.244216 150 150 150
0.022045 0.261458 -0.170945 150 150 150
0.020036 0.334005 -0.688368 150 150 150
-0.063808 1.790955 -0.214474 150 150 150
-0.011996 1.683720 -0.176970 150 150 150
-0.111860 1.715667 -0.285027 150 150 150
-0.100452 1.821694 -0.133578 150 150 150
0.095328 1.691302 -0.107935 150 150 150
-0.166770 1.788927 -0.361720 150 150 150
0.195547 1.502846 0.013480 150 150 150
-0.362863 1.785964 -0.525142 150 150 150
-0.021568 1.574998 0.126173 150 150 150
-0.378813 1.837877 -0.270249 150 150 150
-0.105674 1.587048 0.153330 150 150 150
-0.375572 1.829439 -0.180185 150 150 150
