ply
format ascii 1.0
comment author: Greg Turk
comment object: another cube
element vertex 24
property float x
property float y
property float z
property uchar red
property uchar green
property uchar blue
element face 0
property list uchar int vertex_index
end_header
-0.001131 1.221526 -0.050593 150 150 150
-0.048000 1.136670 -0.092474 150 150 150
0.015163 1.129326 0.013077 150 150 150
-0.031097 1.354067 -0.039189 150 150 150
-0.017733 0.805261 -0.289000 150 150 150
0.096836 0.766721 0.109975 150 150 150
0.035699 1.480011 -0.077264 150 150 150
-0.126117 0.389496 -0.274689 150 150 150
0.025906 0.397233 0.302139 150 150 150
0.055067 1.539137 -0.086234 150 150 150
-0.089150 0.270234 -0.331397 150 150 150
0.103041 0.274173 0.285907 150 150 150
0.101883 1.736828 -0.116826 150 150 150
0.041978 1.642720 -0.171154 150 150 150
0.103786 1.656112 -0.028583 150 150 150
0.172942 1.763530 -0.170099 150 150 150
-0.022775 1.668510 -0.283459 150 150 150
0.130258 1.716486 0.075806 150 150 150
-0.069434 1.579398 -0.521889 150 150 150
0.074678 1.671798 0.323066 150 150 150
0.133547 1.674075 -0.660152 150 150 150
0.244958 1.511319 0.439956 150 150 150
0.206474 1.709119 -0.696519 150 150 150
0.287332 1.439757 0.474476 150 150 150
