ply
format ascii 1.0
comment author: Greg Turk
comment object: another cube
element vertex 24
property float x
property float y
property float z
property uchar red
property uchar green
property uchar blue
element face 0
property list uchar int vertex_index
end_header
-0.041576 1.073481 -0.092019 150 150 150
0.010901 0.984601 -0.117954 150 150 150
-0.110422 0.987100 -0.111185 150 150 150
-0.028002 1.208718 -0.120327 150 150 150
0.064754 0.610207 -0.123376 150 150 150
-0.183817 0.615298 -0.067710 150 150 150
-0.011112 1.339864 -0.069291 150 150 150
0.103111 0.188420 -0.204154 150 150 150
-0.182754 0.207087 -0.180654 150 150 150
-0.009266 1.397958 -0.060987 150 150 150
0.107883 0.079402 -0.117070 150 150 150
-0.202252 0.103797 -0.078694 150 150 150
-0.001686 1.617667 -0.030325 150 150 150
0.073830 1.510129 -0.064446 150 150 150
-0.081998 1.520841 -0.041572 150 150 150
0.026356 1.669507 0.045231 150 150 150
0.158986 1.536600 -0.155665 150 150 150
-0.195971 1.557125 -0.053515 150 150 150
0.164347 1.386755 -0.353587 150 150 150
-0.372195 1.387311 -0.128881 150 150 150
0.264145 1.187093 -0.485060 150 150 150
-0.428144 1.255508 0.090040 150 150 150
0.284749 1.111155 -0.523664 150 150 150
-0.425892 1.212989 0.168897 150 150 150
