ply
format ascii 1.0
comment author: Greg Turk
comment object: another cube
element vertex 24
property float x
property float y
property float z
property uchar red
property uchar green
property uchar blue
element face 0
property list uchar int vertex_index
end_header
-0.041982 0.999696 -0.048222 150 150 150
-0.064000 0.915160 -0.105850 150 150 150
-0.062833 0.912067 0.016806 150 150 150
-0.074143 1.132237 -0.058808 150 150 150
-0.067973 0.546910 -0.199627 150 150 150
-0.063707 0.545761 0.121588 150 150 150
-0.040896 1.268208 -0.062980 150 150 150
-0.126172 0.125215 -0.261048 150 150 150
-0.140574 0.133581 0.176249 150 150 150
-0.036997 1.324843 -0.058844 150 150 150
-0.017626 0.063100 -0.322882 150 150 150
-0.020106 0.071912 0.235597 150 150 150
-0.056419 1.546629 -0.039568 150 150 150
-0.047588 1.443637 -0.131084 150 150 150
-0.054305 1.439501 0.030040 150 150 150
0.002644 1.624733 -0.048744 150 150 150
-0.081000 1.458648 -0.255051 150 150 150
-0.071191 1.454275 0.147404 150 150 150
-0.107168 1.258731 -0.403447 150 150 150
-0.118491 1.254728 0.307759 150 150 150
0.071264 1.087701 -0.481147 150 150 150
0.044014 1.072417 0.408311 150 150 150
0.122393 1.016210 -0.494494 150 150 150
0.096660 1.001682 0.428119 150 150 150
