ply
format ascii 1.0
comment author: Greg Turk
comment object: another cube
element vertex 24
property float x
property float y
property float z
property uchar red
property uchar green
property uchar blue
element face 0
property list uchar int vertex_index
end_header
-0.019645 1.255812 -0.142025 150 150 150
0.020051 1.167816 -0.185753 150 150 150
-0.085488 1.165746 -0.127233 150 150 150
-0.028066 1.392322 -0.176194 150 150 150
0.114460 0.800849 -0.182582 150 150 150
-0.144256 0.791107 -0.113280 150 150 150
0.002908 1.530652 -0.140259 150 150 150
0.154086 0.374493 -0.160782 150 150 150
-0.171924 0.380185 -0.206754 150 150 150
0.006312 1.591886 -0.134113 150 150 150
0.234570 0.274093 -0.108571 150 150 150
-0.130908 0.260363 -0.132922 150 150 150
0.017658 1.804989 -0.112888 150 150 150
0.075856 1.703171 -0.170845 150 150 150
-0.054860 1.712041 -0.088570 150 150 150
0.067615 1.866231 -0.064021 150 150 150
0.132081 1.741537 -0.281494 150 150 150
-0.157041 1.765139 -0.049803 150 150 150
0.106411 1.639983 -0.507485 150 150 150
-0.399957 1.682310 -0.005821 150 150 150
0.204251 1.428955 -0.616347 150 150 150
-0.395349 1.582758 0.236369 150 150 150
0.219952 1.348102 -0.647885 150 150 150
-0.378404 1.538949 0.312891 150 150 150
