ply
format ascii 1.0
comment author: Greg Turk
comment object: another cube
element vertex 24
property float x
property float y
property float z
property uchar red
property uchar green
property uchar blue
element face 0
property list uchar int vertex_index
end_header
-0.032753 1.287767 -0.192655 150 150 150
-0.085552 1.197314 -0.169593 150 150 150
0.034978 1.198238 -0.209767 150 150 150
-0.030187 1.410351 -0.140872 150 150 150
-0.296318 0.879299 -0.225796 150 150 150
0.189572 0.925488 -0.439232 150 150 150
-0.049529 1.547583 -0.188186 150 150 150
-0.380309 0.516392 -0.011077 150 150 150
0.392554 0.578421 -0.306814 150 150 150
-0.052401 1.609328 -0.196220 150 150 150
-0.466360 0.418716 -0.057243 150 150 150
0.442698 0.500949 -0.418247 150 150 150
-0.071020 1.813068 -0.242427 150 150 150
-0.137773 1.712636 -0.192498 150 150 150
0.012664 1.730868 -0.229089 150 150 150
-0.109549 1.819580 -0.322884 150 150 150
-0.236501 1.743165 -0.111711 150 150 150
0.113669 1.801057 -0.228300 150 150 150
-0.288491 1.629921 0.104625 150 150 150
0.355881 1.757536 -0.157492 150 150 150
-0.439631 1.429077 0.072396 150 150 150
0.361184 1.707019 -0.413017 150 150 150
-0.481090 1.352793 0.055734 150 150 150
0.340406 1.677622 -0.495342 150 150 150
