ply
format ascii 1.0
comment author: Greg Turk
comment object: another cube
element vertex 24
property float x
property float y
property float z
property uchar red
property uchar green
property uchar blue
element face 0
property list uchar int vertex_index
end_header
-0.027336 1.161034 -0.115243 150 150 150
0.028542 1.073194 -0.139726 150 150 150
-0.093576 1.071200 -0.130695 150 150 150
-0.022713 1.298515 -0.148835 150 150 150
0.142696 0.715374 -0.101331 150 150 150
-0.210596 0.710538 -0.163460 150 150 150
-0.007627 1.438704 -0.107628 150 150 150
0.217958 0.299097 -0.038764 150 150 150
-0.271635 0.300525 -0.235226 150 150 150
-0.006452 1.500753 -0.102205 150 150 150
0.262343 0.211366 0.060089 150 150 150
-0.294732 0.185004 -0.149336 150 150 150
-0.006077 1.714357 -0.082066 150 150 150
0.068420 1.613586 -0.118309 150 150 150
-0.080235 1.620115 -0.076831 150 150 150
0.027095 1.777733 -0.023722 150 150 150
0.149015 1.653137 -0.211061 150 150 150
-0.190579 1.665817 -0.060554 150 150 150
0.147578 1.565675 -0.443282 150 150 150
-0.425649 1.555452 -0.044306 150 150 150
0.230169 1.337508 -0.521156 150 150 150
-0.371700 1.475525 0.198509 150 150 150
0.238848 1.253039 -0.545435 150 150 150
-0.333409 1.446272 0.274331 150 150 150
