ply
format ascii 1.0
comment author: Greg Turk
comment object: another cube
element vertex 24
property float x
property float y
property float z
property uchar red
property uchar green
property uchar blue
element face 0
property list uchar int vertex_index
end_header
0.021877 1.204014 -0.247756 150 150 150
-0.011561 1.116026 -0.298849 150 150 150
0.006381 1.117653 -0.177564 150 150 150
-0.002766 1.342333 -0.255942 150 150 150
-0.010432 0.754132 -0.404921 150 150 150
0.016210 0.763128 -0.037034 150 150 150
0.052501 1.477027 -0.277781 150 150 150
-0.078103 0.334613 -0.454952 150 150 150
-0.072960 0.358362 0.038865 150 150 150
0.065433 1.538016 -0.282116 150 150 150
-0.022305 0.214895 -0.498583 150 150 150
0.004302 0.241415 0.075163 150 150 150
0.110776 1.748980 -0.290451 150 150 150
0.063164 1.648763 -0.362432 150 150 150
0.108361 1.656702 -0.212636 150 150 150
0.177878 1.805798 -0.316275 150 150 150
-0.023791 1.687277 -0.446962 150 150 150
0.137258 1.694740 -0.103421 150 150 150
-0.248900 1.611835 -0.384323 150 150 150
0.133896 1.541371 0.099855 150 150 150
-0.306566 1.366209 -0.375351 150 150 150
0.315802 1.461198 -0.066855 150 150 150
-0.327839 1.285711 -0.345283 150 150 150
0.359574 1.435422 -0.140966 150 150 150
