ply
format ascii 1.0
comment author: Greg Turk
comment object: another cube
element vertex 24
property float x
property float y
property float z
property uchar red
property uchar green
property uchar blue
element face 0
property list uchar int vertex_index
end_header
0.022317 1.168080 -0.242464 150 150 150
-0.011090 1.080593 -0.294597 150 150 150
0.005489 1.080878 -0.173408 150 150 150
-0.002196 1.307822 -0.249823 150 150 150
-0.031341 0.719272 -0.393682 150 150 150
-0.006283 0.724145 -0.044309 150 150 150
0.047138 1.445604 -0.267116 150 150 150
-0.074460 0.297599 -0.448758 150 150 150
-0.064162 0.313193 0.027090 150 150 150
0.056778 1.507477 -0.269636 150 150 150
-0.012754 0.179751 -0.489963 150 150 150
0.023987 0.201082 0.054188 150 150 150
0.089653 1.721425 -0.273198 150 150 150
0.051725 1.619915 -0.348484 150 150 150
0.089388 1.627267 -0.196776 150 150 150
0.153682 1.783211 -0.293164 150 150 150
-0.032781 1.654439 -0.435740 150 150 150
0.107200 1.665083 -0.086193 150 150 150
-0.246006 1.548754 -0.380065 150 150 150
0.079172 1.492262 0.096681 150 150 150
-0.285608 1.299181 -0.376198 150 150 150
0.277508 1.394187 -0.037449 150 150 150
-0.303696 1.217512 -0.347864 150 150 150
0.330740 1.360970 -0.101651 150 150 150
