ply
format ascii 1.0
comment author: Greg Turk
comment object: another cube
element vertex 24
property float x
property float y
property float z
property uchar red
property uchar green
property uchar blue
element face 0
property list uchar int vertex_index
end_header
-0.045611 0.999866 -0.048347 150 150 150
-0.066632 0.915115 -0.105990 150 150 150
-0.066497 0.912269 0.016707 150 150 150
-0.078473 1.132117 -0.059478 150 150 150
-0.069363 0.546612 -0.199284 150 150 150
-0.065545 0.546077 0.121971 150 150 150
-0.046263 1.268134 -0.063698 150 150 150
-0.126493 0.124691 -0.260365 150 150 150
-0.140281 0.133369 0.175766 150 150 150
-0.042729 1.324634 -0.059655 150 150 150
-0.017923 0.063091 -0.322755 150 150 150
-0.019808 0.072824 0.236231 150 150 150
-0.063982 1.546518 -0.041112 150 150 150
-0.053713 1.443152 -0.132262 150 150 150
-0.061724 1.439430 0.028888 150 150 150
-0.004856 1.624802 -0.049056 150 150 150
-0.087378 1.456939 -0.256309 150 150 150
-0.079470 1.454004 0.146077 150 150 150
-0.112528 1.255746 -0.403222 150 150 150
-0.122961 1.254764 0.308383 150 150 150
0.065853 1.084973 -0.481709 150 150 150
0.040160 1.073581 0.410424 150 150 150
0.117423 1.013996 -0.496080 150 150 150
0.093062 1.003223 0.430974 150 150 150
