ply
format ascii 1.0
comment author: Greg Turk
comment object: another cube
element vertex 24
property float x
property float y
property float z
property uchar red
property uchar green
property uchar blue
element face 0
property list uchar int vertex_index
end_header
0.147606 1.167638 0.014935 150 150 150
0.115514 1.078449 -0.031315 150 150 150
0.161471 1.078884 0.084061 150 150 150
0.105906 1.294859 0.015124 150 150 150
0.204118 0.762313 -0.237239 150 150 150
0.297190 0.721739 0.128366 150 150 150
0.176287 1.412265 -0.029208 150 150 150
0.100261 0.349259 -0.308369 150 150 150
0.178828 0.329526 0.237823 150 150 150
0.198008 1.465878 -0.049474 150 150 150
0.165404 0.246957 -0.373952 150 150 150
0.264917 0.221040 0.190374 150 150 150
0.245987 1.652598 -0.129977 150 150 150
0.186629 1.543708 -0.159738 150 150 150
0.246099 1.594877 -0.021706 150 150 150
0.308067 1.648441 -0.200025 150 150 150
0.121293 1.531151 -0.274220 150 150 150
0.273756 1.669774 0.072349 150 150 150
0.063859 1.353209 -0.451022 150 150 150
0.171621 1.640951 0.301649 150 150 150
0.243590 1.448758 -0.613004 150 150 150
0.338888 1.447638 0.337174 150 150 150
0.308153 1.492433 -0.655050 150 150 150
0.381172 1.368288 0.331998 150 150 150
