ply
format ascii 1.0
comment author: Greg Turk
comment object: another cube
element vertex 24
property float x
property float y
property float z
property uchar red
property uchar green
property uchar blue
element face 0
property list uchar int vertex_index
end_header
-0.072132 1.329359 -0.267887 150 150 150
-0.021152 1.240924 -0.239622 150 150 150
-0.114858 1.242904 -0.327543 150 150 150
-0.036419 1.453976 -0.286684 150 150 150
-0.018332 0.989983 0.062761 150 150 150
-0.295152 0.933834 -0.473463 150 150 150
-0.055751 1.584204 -0.223303 150 150 150
0.166183 0.607519 0.121998 150 150 150
0.050721 0.995905 -0.712541 150 150 150
-0.054646 1.643615 -0.204979 150 150 150
0.131943 0.535590 0.233803 150 150 150
0.089732 0.893900 -0.806623 150 150 150
-0.047893 1.842467 -0.146374 150 150 150
0.021379 1.735277 -0.144667 150 150 150
-0.110694 1.773641 -0.216274 150 150 150
-0.067580 1.847294 -0.055916 150 150 150
0.151618 1.742218 -0.120073 150 150 150
-0.192426 1.849508 -0.264040 150 150 150
0.348228 1.587934 -0.082584 150 150 150
-0.421724 1.858698 -0.384701 150 150 150
0.315836 1.643448 0.166395 150 150 150
-0.440689 1.852811 -0.123437 150 150 150
0.293216 1.667427 0.248922 150 150 150
-0.430877 1.831003 -0.035968 150 150 150
