ply
format ascii 1.0
comment author: Greg Turk
comment object: another cube
element vertex 24
property float x
property float y
property float z
property uchar red
property uchar green
property uchar blue
element face 0
property list uchar int vertex_index
end_header
-0.053174 1.194521 -0.024420 150 150 150
-0.013201 1.106288 -0.069322 150 150 150
-0.118479 1.104516 0.000291 150 150 150
-0.065026 1.322783 -0.060850 150 150 150
0.245490 0.820912 -0.120146 150 150 150
-0.260628 0.782947 0.165317 150 150 150
-0.011953 1.448657 -0.013334 150 150 150
0.359699 0.457959 -0.318370 150 150 150
-0.419573 0.394898 0.196898 150 150 150
0.000971 1.506930 -0.000667 150 150 150
0.456115 0.361399 -0.296061 150 150 150
-0.417056 0.292126 0.298131 150 150 150
0.046088 1.708887 0.043201 150 150 150
0.079303 1.613661 -0.034173 150 150 150
-0.040891 1.624837 0.063428 150 150 150
0.114309 1.735758 0.099667 150 150 150
0.137846 1.650946 -0.147247 150 150 150
-0.139271 1.676310 0.115860 150 150 150
0.221400 1.579786 -0.377273 150 150 150
-0.386277 1.599255 0.154669 150 150 150
0.470428 1.574085 -0.459713 150 150 150
-0.480866 1.520969 0.389657 150 150 150
0.555859 1.587914 -0.475274 150 150 150
-0.501903 1.492341 0.472525 150 150 150
