ply
format ascii 1.0
comment author: Greg Turk
comment object: another cube
element vertex 24
property float x
property float y
property float z
property uchar red
property uchar green
property uchar blue
element face 0
property list uchar int vertex_index
end_header
-0.012549 1.011689 -0.039602 150 150 150
-0.037254 0.924569 -0.093422 150 150 150
-0.044396 0.929211 0.029776 150 150 150
-0.031571 1.143695 -0.061959 150 150 150
-0.034923 0.556933 -0.196362 150 150 150
-0.026859 0.566145 0.149989 150 150 150
0.034358 1.273230 -0.071060 150 150 150
-0.120041 0.140387 -0.260413 150 150 150
-0.148637 0.163598 0.192779 150 150 150
0.047216 1.333980 -0.073806 150 150 150
-0.016099 0.075508 -0.327102 150 150 150
-0.030439 0.094222 0.247837 150 150 150
0.057025 1.546637 -0.086122 150 150 150
0.066300 1.439166 -0.158373 150 150 150
0.030145 1.459279 -0.008610 150 150 150
0.129681 1.610833 -0.095290 150 150 150
0.073680 1.458049 -0.286903 150 150 150
-0.008369 1.513337 0.092123 150 150 150
0.169866 1.314227 -0.472465 150 150 150
-0.111517 1.403969 0.298883 150 150 150
0.410689 1.394630 -0.524729 150 150 150
0.094245 1.424522 0.457887 150 150 150
0.496692 1.407086 -0.539747 150 150 150
0.167870 1.419451 0.508835 150 150 150
