ply
format ascii 1.0
comment author: Greg Turk
comment object: another cube
element vertex 24
property float x
property float y
property float z
property uchar red
property uchar green
property uchar blue
element face 0
property list uchar int vertex_index
end_header
-0.025054 0.945568 -0.038712 150 150 150
-0.043446 0.858241 -0.093602 150 150 150
-0.054377 0.862303 0.029807 150 150 150
-0.048881 1.073743 -0.061331 150 150 150
0.004310 0.492247 -0.199694 150 150 150
0.013774 0.503734 0.149004 150 150 150
0.026126 1.194668 -0.066590 150 150 150
-0.120875 0.085211 -0.264589 150 150 150
-0.142969 0.111888 0.186223 150 150 150
0.044220 1.251551 -0.067555 150 150 150
-0.012299 0.029111 -0.330325 150 150 150
-0.023883 0.048425 0.245496 150 150 150
0.068294 1.468020 -0.078620 150 150 150
0.076282 1.355074 -0.153065 150 150 150
0.031489 1.379007 -0.001120 150 150 150
0.143948 1.530708 -0.085486 150 150 150
0.094742 1.356128 -0.282159 150 150 150
-0.014169 1.421538 0.102981 150 150 150
0.179443 1.164019 -0.427321 150 150 150
-0.145198 1.275840 0.267076 150 150 150
0.427728 1.174384 -0.505279 150 150 150
0.011228 1.254447 0.475787 150 150 150
0.511774 1.162335 -0.528960 150 150 150
0.067235 1.238883 0.544196 150 150 150
