ply
format ascii 1.0
comment author: Greg Turk
comment object: another cube
element vertex 24
property float x
property float y
property float z
property uchar red
property uchar green
property uchar blue
element face 0
property list uchar int vertex_index
end_header
-0.032184 1.262152 -0.061445 150 150 150
0.015270 1.174571 -0.101152 150 150 150
-0.101065 1.171677 -0.052913 150 150 150
-0.037390 1.393123 -0.096096 150 150 150
0.240243 0.863802 -0.144234 150 150 150
-0.302220 0.855235 0.047343 150 150 150
-0.006024 1.529280 -0.051772 150 150 150
0.370288 0.503237 -0.334807 150 150 150
-0.505626 0.491603 0.000348 150 150 150
-0.004274 1.590951 -0.045341 150 150 150
0.462689 0.406528 -0.296564 150 150 150
-0.543854 0.387956 0.093707 150 150 150
0.009741 1.796213 -0.006166 150 150 150
0.065110 1.704290 -0.070928 150 150 150
-0.068441 1.705770 0.001123 150 150 150
0.063378 1.826503 0.061097 150 150 150
0.118338 1.759715 -0.177744 150 150 150
-0.174982 1.762759 0.022988 150 150 150
0.164356 1.732515 -0.426165 150 150 150
-0.433261 1.716480 0.033214 150 150 150
0.336612 1.716381 -0.622849 150 150 150
-0.559662 1.700572 0.266962 150 150 150
0.399405 1.713410 -0.683508 150 150 150
-0.590938 1.691258 0.350537 150 150 150
