ply
format ascii 1.0
comment author: Greg Turk
comment object: another cube
element vertex 24
property float x
property float y
property float z
property uchar red
property uchar green
property uchar blue
element face 0
property list uchar int vertex_index
end_header
-0.022618 1.238452 -0.134831 150 150 150
0.022938 1.150512 -0.172987 150 150 150
-0.090385 1.148674 -0.129970 150 150 150
-0.026320 1.375021 -0.169191 150 150 150
0.130034 0.787421 -0.151933 150 150 150
-0.169061 0.776744 -0.130124 150 150 150
0.000511 1.513515 -0.130354 150 150 150
0.194004 0.366348 -0.106076 150 150 150
-0.200637 0.367908 -0.228725 150 150 150
0.003301 1.574899 -0.124069 150 150 150
0.275575 0.277140 -0.036945 150 150 150
-0.178569 0.244858 -0.152605 150 150 150
0.011516 1.787971 -0.102102 150 150 150
0.075335 1.686453 -0.154221 150 150 150
-0.062160 1.694784 -0.084233 150 150 150
0.056707 1.850078 -0.049751 150 150 150
0.139072 1.726244 -0.260289 150 150 150
-0.167271 1.746768 -0.052511 150 150 150
0.119569 1.636785 -0.492081 150 150 150
-0.412797 1.666546 -0.016134 150 150 150
0.211245 1.420258 -0.593613 150 150 150
-0.389054 1.573821 0.227534 150 150 150
0.224053 1.338107 -0.623216 150 150 150
-0.363725 1.534603 0.304265 150 150 150
