ply
format ascii 1.0
comment author: Greg Turk
comment object: another cube
element vertex 24
property float x
property float y
property float z
property uchar red
property uchar green
property uchar blue
element face 0
property list uchar int vertex_index
end_header
-0.062677 1.327503 -0.272419 150 150 150
-0.011127 1.238481 -0.246638 150 150 150
-0.109345 1.242372 -0.331456 150 150 150
-0.026986 1.448979 -0.289929 150 150 150
-0.004685 1.030606 0.089475 150 150 150
-0.337161 0.952365 -0.449214 150 150 150
-0.050265 1.571943 -0.214472 150 150 150
0.181430 0.662599 0.204306 150 150 150
0.015660 1.029475 -0.674798 150 150 150
-0.051055 1.629616 -0.190344 150 150 150
0.148831 0.608185 0.326544 150 150 150
0.048436 0.926348 -0.769946 150 150 150
-0.048899 1.823460 -0.119614 150 150 150
0.024386 1.720099 -0.127785 150 150 150
-0.112934 1.757064 -0.190855 150 150 150
-0.062634 1.824585 -0.028088 150 150 150
0.156083 1.731637 -0.107998 150 150 150
-0.201994 1.830368 -0.228601 150 150 150
0.367829 1.594083 -0.079205 150 150 150
-0.440574 1.833701 -0.334156 150 150 150
0.358453 1.643548 0.174330 150 150 150
-0.475185 1.806578 -0.075011 150 150 150
0.344609 1.668600 0.258426 150 150 150
-0.470199 1.780868 0.011827 150 150 150
