ply
format ascii 1.0
comment author: Greg Turk
comment object: another cube
element vertex 24
property float x
property float y
property float z
property uchar red
property uchar green
property uchar blue
element face 0
property list uchar int vertex_index
end_header
-0.039192 1.142232 -0.241796 150 150 150
0.019859 1.055398 -0.237770 150 150 150
-0.092391 1.057085 -0.290329 150 150 150
-0.015388 1.269144 -0.257467 150 150 150
0.041753 0.722833 -0.040440 150 150 150
-0.216949 0.706933 -0.181754 150 150 150
-0.038030 1.369951 -0.161589 150 150 150
0.154133 0.312115 -0.116590 150 150 150
-0.159319 0.291398 -0.249679 150 150 150
-0.044469 1.416369 -0.125223 150 150 150
0.121750 0.206009 -0.033756 150 150 150
-0.202726 0.192296 -0.151491 150 150 150
-0.049228 1.613024 -0.035304 150 150 150
0.030839 1.508943 -0.057425 150 150 150
-0.120585 1.536645 -0.104314 150 150 150
-0.045181 1.631085 0.060934 150 150 150
0.158639 1.504725 -0.035094 150 150 150
-0.232233 1.568264 -0.133531 150 150 150
0.297834 1.293003 -0.000746 150 150 150
-0.379515 1.406113 -0.272289 150 150 150
0.292570 1.239934 0.254654 150 150 150
-0.474418 1.228926 -0.104964 150 150 150
0.280632 1.227166 0.341645 150 150 150
-0.489580 1.164885 -0.042798 150 150 150
