ply
format ascii 1.0
comment author: Greg Turk
comment object: another cube
element vertex 24
property float x
property float y
property float z
property uchar red
property uchar green
property uchar blue
element face 0
property list uchar int vertex_index
end_header
-0.074557 1.289662 -0.270844 150 150 150
-0.022224 1.203051 -0.238704 150 150 150
-0.103618 1.199930 -0.332006 150 150 150
-0.043046 1.423734 -0.287843 150 150 150
-0.008895 0.850181 -0.094103 150 150 150
-0.189730 0.848372 -0.461886 150 150 150
-0.065330 1.563527 -0.243976 150 150 150
0.127180 0.442568 -0.110396 150 150 150
0.095322 0.666137 -0.715486 150 150 150
-0.064488 1.625518 -0.232758 150 150 150
0.067576 0.340087 -0.041131 150 150 150
0.098747 0.534889 -0.775717 150 150 150
-0.056133 1.829588 -0.195425 150 150 150
0.003399 1.720613 -0.169622 150 150 150
-0.110455 1.755849 -0.264994 150 150 150
-0.087247 1.848440 -0.109265 150 150 150
0.122282 1.725382 -0.117904 150 150 150
-0.175566 1.830919 -0.333111 150 150 150
0.264292 1.542881 -0.027821 150 150 150
-0.383121 1.834560 -0.483388 150 150 150
0.104663 1.600494 0.162779 150 150 150
-0.392690 1.869404 -0.225157 150 150 150
0.037507 1.612829 0.220030 150 150 150
-0.383343 1.855383 -0.136153 150 150 150
