ply
format ascii 1.0
comment author: Greg Turk
comment object: another cube
element vertex 24
property float x
property float y
property float z
property uchar red
property uchar green
property uchar blue
element face 0
property list uchar int vertex_index
end_header
0.023039 1.203106 -0.250664 150 150 150
-0.009618 1.114551 -0.301125 150 150 150
0.007909 1.117451 -0.179521 150 150 150
-0.002400 1.340513 -0.260225 150 150 150
0.000570 0.752739 -0.409653 150 150 150
0.028921 0.763957 -0.035344 150 150 150
0.055978 1.473139 -0.284254 150 150 150
-0.075440 0.335178 -0.466403 150 150 150
-0.073570 0.362873 0.044486 150 150 150
0.070653 1.533516 -0.289583 150 150 150
-0.015617 0.216847 -0.508610 150 150 150
0.003940 0.245358 0.077786 150 150 150
0.122164 1.743098 -0.299528 150 150 150
0.070450 1.643766 -0.370576 150 150 150
0.117941 1.651325 -0.221102 150 150 150
0.190807 1.797181 -0.327600 150 150 150
-0.016750 1.683635 -0.454616 150 150 150
0.151478 1.687309 -0.112486 150 150 150
-0.244278 1.615842 -0.390304 150 150 150
0.156125 1.533180 0.091041 150 150 150
-0.316953 1.374140 -0.382593 150 150 150
0.332927 1.456045 -0.082770 150 150 150
-0.342009 1.294345 -0.353597 150 150 150
0.374245 1.432977 -0.159103 150 150 150
