ply
format ascii 1.0
comment author: Greg Turk
comment object: another cube
element vertex 24
property float x
property float y
property float z
property uchar red
property uchar green
property uchar blue
element face 0
property list uchar int vertex_index
end_header
0.022303 1.189278 -0.254283 150 150 150
-0.009876 1.100084 -0.303786 150 150 150
0.006479 1.104908 -0.181624 150 150 150
-0.002975 1.325523 -0.266333 150 150 150
0.009742 0.738590 -0.414927 150 150 150
0.039802 0.751751 -0.036482 150 150 150
0.060293 1.454811 -0.292828 150 150 150
-0.065407 0.322838 -0.486275 150 150 150
-0.068560 0.352558 0.046657 150 150 150
0.077153 1.514327 -0.299357 150 150 150
0.004408 0.209520 -0.527580 150 150 150
0.015198 0.237175 0.070701 150 150 150
0.134804 1.722616 -0.310723 150 150 150
0.079753 1.624060 -0.381208 150 150 150
0.128090 1.631300 -0.231600 150 150 150
0.204917 1.774433 -0.339950 150 150 150
-0.007460 1.665063 -0.464817 150 150 150
0.164870 1.664628 -0.123471 150 150 150
-0.235777 1.600662 -0.398599 150 150 150
0.174915 1.504667 0.076211 150 150 150
-0.326994 1.365164 -0.395084 150 150 150
0.350316 1.425802 -0.098480 150 150 150
-0.357518 1.286551 -0.368545 150 150 150
0.391613 1.403744 -0.174994 150 150 150
