ply
format ascii 1.0
comment author: Greg Turk
comment object: another cube
element vertex 24
property float x
property float y
property float z
property uchar red
property uchar green
property uchar blue
element face 0
property list uchar int vertex_index
end_header
-0.082311 0.929935 -0.029055 150 150 150
-0.105349 0.848029 -0.089304 150 150 150
-0.118957 0.846779 0.033999 150 150 150
-0.094862 1.058213 -0.044257 150 150 150
-0.046002 0.485271 -0.203492 150 150 150
-0.053300 0.486706 0.147476 150 150 150
-0.004517 1.160773 -0.037208 150 150 150
-0.116224 0.064692 -0.269933 150 150 150
-0.127878 0.071729 0.187490 150 150 150
0.026473 1.205208 -0.030063 150 150 150
-0.004463 0.017384 -0.338378 150 150 150
-0.003645 0.024523 0.250349 150 150 150
0.095306 1.420390 -0.017947 150 150 150
0.084714 1.306742 -0.106414 150 150 150
0.040029 1.325337 0.053801 150 150 150
0.176583 1.478898 -0.019905 150 150 150
0.095611 1.281164 -0.230381 150 150 150
-0.002865 1.332764 0.164625 150 150 150
0.029464 1.040668 -0.277561 150 150 150
-0.179040 1.152091 0.213429 150 150 150
0.078111 0.781851 -0.306498 150 150 150
-0.212417 0.897061 0.282730 150 150 150
0.077157 0.693295 -0.310501 150 150 150
-0.228637 0.808484 0.290867 150 150 150
