ply
format ascii 1.0
comment author: Greg Turk
comment object: another cube
element vertex 24
property float x
property float y
property float z
property uchar red
property uchar green
property uchar blue
element face 0
property list uchar int vertex_index
end_header
-0.026793 1.218611 -0.266313 150 150 150
0.032062 1.132435 -0.252766 150 150 150
-0.074751 1.133531 -0.320655 150 150 150
-0.002000 1.341337 -0.278606 150 150 150
0.035895 0.843342 0.011235 150 150 150
-0.267945 0.811629 -0.209425 150 150 150
-0.035478 1.436987 -0.178768 150 150 150
0.190741 0.439984 0.000003 150 150 150
-0.123200 0.438071 -0.352981 150 150 150
-0.043318 1.482538 -0.139570 150 150 150
0.157516 0.339137 0.088520 150 150 150
-0.169596 0.315247 -0.290825 150 150 150
-0.051222 1.670933 -0.041287 150 150 150
0.028915 1.570817 -0.066123 150 150 150
-0.119008 1.601634 -0.115893 150 150 150
-0.048677 1.679507 0.055929 150 150 150
0.157089 1.575693 -0.039559 150 150 150
-0.229493 1.642659 -0.139562 150 150 150
0.335167 1.396552 0.003610 150 150 150
-0.420464 1.514732 -0.262840 150 150 150
0.332155 1.379713 0.263731 150 150 150
-0.505646 1.371876 -0.060686 150 150 150
0.321232 1.380994 0.351604 150 150 150
-0.515953 1.318473 0.011708 150 150 150
