ply
format ascii 1.0
comment author: Greg Turk
comment object: another cube
element vertex 24
property float x
property float y
property float z
property uchar red
property uchar green
property uchar blue
element face 0
property list uchar int vertex_index
end_header
-0.049992 0.906059 -0.036756 150 150 150
-0.064775 0.819823 -0.093332 150 150 150
-0.077304 0.822115 0.030604 150 150 150
-0.075826 1.031042 -0.058060 150 150 150
0.030230 0.460874 -0.203553 150 150 150
0.035431 0.473128 0.148884 150 150 150
0.009012 1.141204 -0.059331 150 150 150
-0.121378 0.061690 -0.268928 150 150 150
-0.136601 0.086978 0.183509 150 150 150
0.035155 1.191679 -0.057418 150 150 150
-0.010674 0.008153 -0.332757 150 150 150
-0.017754 0.025222 0.244473 150 150 150
0.083499 1.408332 -0.065692 150 150 150
0.083195 1.290673 -0.142577 150 150 150
0.034766 1.319753 0.012374 150 150 150
0.159985 1.472361 -0.071639 150 150 150
0.108400 1.268852 -0.268525 150 150 150
-0.011662 1.347906 0.121299 150 150 150
0.163384 1.040704 -0.377577 150 150 150
-0.174325 1.191382 0.245535 150 150 150
0.395755 0.954822 -0.468124 150 150 150
-0.091221 1.077195 0.469104 150 150 150
0.468332 0.913349 -0.496292 150 150 150
-0.062254 1.031120 0.540817 150 150 150
