ply
format ascii 1.0
comment author: Greg Turk
comment object: another cube
element vertex 24
property float x
property float y
property float z
property uchar red
property uchar green
property uchar blue
element face 0
property list uchar int vertex_index
end_header
0.000709 0.991134 -0.268558 150 150 150
-0.033191 0.901295 -0.314140 150 150 150
-0.021417 0.914649 -0.189789 150 150 150
-0.017318 1.119022 -0.292407 150 150 150
0.006439 0.538246 -0.431079 150 150 150
0.098024 0.569191 -0.065188 150 150 150
0.068568 1.226458 -0.321019 150 150 150
-0.049501 0.129013 -0.549676 150 150 150
0.048592 0.152270 -0.010545 150 150 150
0.096585 1.277522 -0.329200 150 150 150
0.066489 0.065437 -0.596957 150 150 150
0.177018 0.087360 -0.030506 150 150 150
0.175326 1.485208 -0.337270 150 150 150
0.115782 1.386340 -0.413532 150 150 150
0.154201 1.390961 -0.257026 150 150 150
0.251502 1.535972 -0.365155 150 150 150
0.036120 1.418725 -0.507513 150 150 150
0.191023 1.403389 -0.146793 150 150 150
-0.181295 1.308112 -0.471026 150 150 150
0.169432 1.193618 0.007216 150 150 150
-0.348011 1.115383 -0.509224 150 150 150
0.348749 1.007359 -0.040522 150 150 150
-0.403168 1.047321 -0.505250 150 150 150
0.408546 0.948822 -0.072653 150 150 150
