ply
format ascii 1.0
comment author: Greg Turk
comment object: another cube
element vertex 24
property float x
property float y
property float z
property uchar red
property uchar green
property uchar blue
element face 0
property list uchar int vertex_index
end_header
0.026611 1.197209 -0.090979 150 150 150
0.059310 1.108419 -0.043301 150 150 150
0.008714 1.106062 -0.155168 150 150 150
0.070400 1.325721 -0.096206 150 150 150
0.017195 0.770608 0.130859 150 150 150
-0.168784 0.768983 -0.187159 150 150 150
0.008115 1.455069 -0.075371 150 150 150
0.128946 0.354868 0.148765 150 150 150
-0.206695 0.357278 -0.275623 150 150 150
-0.009252 1.512908 -0.070262 150 150 150
0.095103 0.239506 0.215789 150 150 150
-0.308804 0.267711 -0.223204 150 150 150
-0.052267 1.721880 -0.040721 150 150 150
-0.018766 1.609716 0.025762 150 150 150
-0.035653 1.639774 -0.132590 150 150 150
-0.131527 1.753128 -0.000291 150 150 150
0.013069 1.589873 0.148022 150 150 150
-0.019682 1.695447 -0.239371 150 150 150
0.100496 1.357317 0.184495 150 150 150
0.154778 1.577800 -0.372114 150 150 150
-0.040747 1.143636 0.206460 150 150 150
-0.034168 1.405696 -0.407072 150 150 150
-0.089063 1.069860 0.198717 150 150 150
-0.096316 1.341941 -0.394246 150 150 150
