ply
format ascii 1.0
comment author: Greg Turk
comment object: another cube
element vertex 24
property float x
property float y
property float z
property uchar red
property uchar green
property uchar blue
element face 0
property list uchar int vertex_index
end_header
0.185560 1.129704 -0.000319 150 150 150
0.147247 1.042181 -0.047365 150 150 150
0.185275 1.040196 0.068722 150 150 150
0.153199 1.267292 -0.002392 150 150 150
0.143235 0.678212 -0.143562 150 150 150
0.216186 0.668161 0.140528 150 150 150
0.198963 1.405977 -0.028142 150 150 150
0.133706 0.250894 -0.188282 150 150 150
0.132257 0.256777 0.180147 150 150 150
0.206780 1.468170 -0.037085 150 150 150
0.221496 0.148104 -0.216692 150 150 150
0.227794 0.150086 0.149054 150 150 150
0.209867 1.675781 -0.069780 150 150 150
0.180967 1.566506 -0.126222 150 150 150
0.225326 1.596830 0.018492 150 150 150
0.272511 1.717019 -0.127316 150 150 150
0.119379 1.570869 -0.238284 150 150 150
0.238026 1.660554 0.119344 150 150 150
0.115118 1.371760 -0.385600 150 150 150
0.213728 1.556125 0.345652 150 150 150
0.356003 1.438821 -0.441814 150 150 150
0.435947 1.460086 0.258561 150 150 150
0.443719 1.453687 -0.443957 150 150 150
0.494892 1.408446 0.214395 150 150 150
