ply
format ascii 1.0
comment author: Greg Turk
comment object: another cube
element vertex 24
property float x
property float y
property float z
property uchar red
property uchar green
property uchar blue
element face 0
property list uchar int vertex_index
end_header
-0.037465 1.140282 -0.308705 150 150 150
-0.054965 1.045494 -0.266627 150 150 150
0.005722 1.057593 -0.371727 150 150 150
-0.010102 1.263421 -0.258595 150 150 150
-0.166172 0.680359 -0.258988 150 150 150
-0.096367 0.728046 -0.534182 150 150 150
-0.060037 1.397419 -0.264970 150 150 150
-0.002965 0.283743 -0.218223 150 150 150
-0.062734 0.306890 -0.539780 150 150 150
-0.070955 1.456429 -0.264182 150 150 150
-0.081217 0.170342 -0.227722 150 150 150
-0.162338 0.207386 -0.579823 150 150 150
-0.117683 1.668215 -0.254812 150 150 150
-0.154196 1.548338 -0.204252 150 150 150
-0.032128 1.589009 -0.298725 150 150 150
-0.191712 1.700743 -0.302973 150 150 150
-0.228514 1.534221 -0.101896 150 150 150
0.066124 1.653401 -0.322236 150 150 150
-0.216279 1.307285 0.000159 150 150 150
0.263614 1.526351 -0.238574 150 150 150
-0.343372 1.123841 -0.124416 150 150 150
0.259376 1.376199 -0.446973 150 150 150
-0.372512 1.060228 -0.178379 150 150 150
0.236611 1.316215 -0.509754 150 150 150
