ply
format ascii 1.0
comment author: Greg Turk
comment object: another cube
element vertex 24
property float x
property float y
property float z
property uchar red
property uchar green
property uchar blue
element face 0
property list uchar int vertex_index
end_header
-0.058534 0.957453 -0.160950 150 150 150
0.000977 0.873644 -0.181480 150 150 150
-0.122299 0.875378 -0.197236 150 150 150
-0.041493 1.084467 -0.174685 150 150 150
0.038247 0.497003 -0.106140 150 150 150
-0.175934 0.520485 -0.059023 150 150 150
-0.041765 1.193173 -0.097478 150 150 150
0.101960 0.095277 -0.253271 150 150 150
-0.153208 0.124653 -0.208504 150 150 150
-0.045355 1.240252 -0.074816 150 150 150
0.100686 0.029404 -0.131171 150 150 150
-0.190281 0.057505 -0.083879 150 150 150
-0.043819 1.467434 -0.032407 150 150 150
0.039859 1.347519 -0.041769 150 150 150
-0.122501 1.365451 -0.070086 150 150 150
-0.029208 1.525415 0.051421 150 150 150
0.158430 1.324565 -0.073006 150 150 150
-0.231696 1.370623 -0.111762 150 150 150
0.176534 1.085998 -0.150104 150 150 150
-0.299522 1.154413 -0.235421 150 150 150
0.210681 0.843490 -0.056682 150 150 150
-0.391702 0.929497 -0.129848 150 150 150
0.209814 0.761570 -0.022259 150 150 150
-0.413909 0.855137 -0.082863 150 150 150
