ply
format ascii 1.0
comment author: Greg Turk
comment object: another cube
element vertex 24
property float x
property float y
property float z
property uchar red
property uchar green
property uchar blue
element face 0
property list uchar int vertex_index
end_header
-0.053934 1.000281 -0.042940 150 150 150
-0.078786 0.917015 -0.101983 150 150 150
-0.086034 0.914701 0.020487 150 150 150
-0.073511 1.134447 -0.055646 150 150 150
-0.079192 0.549459 -0.196796 150 150 150
-0.092847 0.548364 0.124332 150 150 150
-0.018279 1.264171 -0.054946 150 150 150
-0.123636 0.127055 -0.262306 150 150 150
-0.145717 0.132367 0.177518 150 150 150
-0.005106 1.320472 -0.050219 150 150 150
-0.015292 0.065145 -0.325252 150 150 150
-0.023694 0.073473 0.236347 150 150 150
0.009548 1.541890 -0.032191 150 150 150
0.013798 1.437934 -0.122950 150 150 150
-0.012868 1.437318 0.036612 150 150 150
0.079667 1.609548 -0.036342 150 150 150
0.002483 1.453492 -0.249297 150 150 150
-0.040909 1.454734 0.150298 150 150 150
-0.051166 1.238503 -0.361229 150 150 150
-0.141766 1.246075 0.261684 150 150 150
0.069267 1.014261 -0.410032 150 150 150
-0.015257 1.029593 0.341860 150 150 150
0.095810 0.929915 -0.414953 150 150 150
0.026612 0.951017 0.355837 150 150 150
