ply
format ascii 1.0
comment author: Greg Turk
comment object: another cube
element vertex 24
property float x
property float y
property float z
property uchar red
property uchar green
property uchar blue
element face 0
property list uchar int vertex_index
end_header
-0.046533 1.317675 -0.275888 150 150 150
0.005996 1.228989 -0.250947 150 150 150
-0.094564 1.233079 -0.334246 150 150 150
-0.012132 1.436485 -0.291745 150 150 150
0.007345 1.035213 0.094549 150 150 150
-0.363556 0.957016 -0.388831 150 150 150
-0.043154 1.550203 -0.206563 150 150 150
0.195019 0.670164 0.217398 150 150 150
-0.016540 0.961285 -0.636446 150 150 150
-0.047342 1.604690 -0.176187 150 150 150
0.161020 0.627827 0.344640 150 150 150
-0.006287 0.837595 -0.709678 150 150 150
-0.051851 1.793735 -0.093457 150 150 150
0.025483 1.694040 -0.109194 150 150 150
-0.115418 1.728602 -0.167012 150 150 150
-0.059748 1.792651 -0.000440 150 150 150
0.157148 1.709348 -0.089815 150 150 150
-0.212172 1.796046 -0.195365 150 150 150
0.377265 1.582604 -0.064490 150 150 150
-0.457754 1.782357 -0.287418 150 150 150
0.379841 1.623843 0.191748 150 150 150
-0.508496 1.733612 -0.033455 150 150 150
0.370081 1.647402 0.276749 150 150 150
-0.507863 1.703823 0.052184 150 150 150
