ply
format ascii 1.0
comment author: Greg Turk
comment object: another cube
element vertex 24
property float x
property float y
property float z
property uchar red
property uchar green
property uchar blue
element face 0
property list uchar int vertex_index
end_header
0.141678 0.953958 0.014648 150 150 150
0.093085 0.866849 -0.015106 150 150 150
0.161058 0.874002 0.087987 150 150 150
0.112755 1.078882 0.008375 150 150 150
0.175220 0.506191 -0.127526 150 150 150
0.299393 0.517378 0.051004 150 150 150
0.169423 1.185571 -0.046397 150 150 150
0.033140 0.096983 -0.126122 150 150 150
0.206468 0.118108 0.160251 150 150 150
0.190683 1.230694 -0.061539 150 150 150
0.121994 0.033690 -0.212452 150 150 150
0.315904 0.054949 0.086827 150 150 150
0.228112 1.455089 -0.096153 150 150 150
0.161442 1.336131 -0.150680 150 150 150
0.250596 1.353604 -0.009754 150 150 150
0.271207 1.502140 -0.177132 150 150 150
0.070614 1.306048 -0.232515 150 150 150
0.300526 1.343275 0.095003 150 150 150
-0.009936 1.062611 -0.225555 150 150 150
0.235896 1.119431 0.208122 150 150 150
0.016290 0.814663 -0.306560 150 150 150
0.380153 0.933451 0.090849 150 150 150
0.032978 0.729280 -0.323744 150 150 150
0.430014 0.882538 0.035064 150 150 150
