ply
format ascii 1.0
comment author: Greg Turk
comment object: another cube
element vertex 24
property float x
property float y
property float z
property uchar red
property uchar green
property uchar blue
element face 0
property list uchar int vertex_index
end_header
-0.054927 1.009590 -0.110504 150 150 150
-0.000909 0.921491 -0.132578 150 150 150
-0.123292 0.925829 -0.135943 150 150 150
-0.037249 1.140672 -0.135451 150 150 150
0.040304 0.543944 -0.099709 150 150 150
-0.178582 0.556335 -0.053459 150 150 150
-0.024570 1.263427 -0.075388 150 150 150
0.096001 0.135402 -0.230352 150 150 150
-0.165897 0.157856 -0.197973 150 150 150
-0.023393 1.317622 -0.062683 150 150 150
0.100942 0.046902 -0.122466 150 150 150
-0.193445 0.074123 -0.080810 150 150 150
-0.016919 1.543028 -0.031838 150 150 150
0.063320 1.428411 -0.054527 150 150 150
-0.097875 1.442831 -0.051609 150 150 150
0.005678 1.598701 0.047019 150 150 150
0.165143 1.434634 -0.129208 150 150 150
-0.211999 1.465494 -0.074417 150 150 150
0.166249 1.246921 -0.291616 150 150 150
-0.338473 1.263172 -0.167515 150 150 150
0.246360 1.018448 -0.386183 150 150 150
-0.411686 1.097941 0.022801 150 150 150
0.256689 0.935898 -0.414134 150 150 150
-0.419707 1.045496 0.095351 150 150 150
