ply
format ascii 1.0
comment author: Greg Turk
comment object: another cube
element vertex 24
property float x
property float y
property float z
property uchar red
property uchar green
property uchar blue
element face 0
property list uchar int vertex_index
end_header
0.146041 1.096452 0.011646 150 150 150
0.111315 1.006563 -0.030553 150 150 150
0.161272 1.008967 0.081313 150 150 150
0.105437 1.225597 0.010578 150 150 150
0.188080 0.664948 -0.190572 150 150 150
0.278457 0.645452 0.098410 150 150 150
0.174043 1.342188 -0.034040 150 150 150
0.081412 0.246366 -0.208085 150 150 150
0.224288 0.230074 0.166949 150 150 150
0.196639 1.394783 -0.052278 150 150 150
0.141043 0.136933 -0.266915 150 150 150
0.313252 0.135436 0.098539 150 150 150
0.245724 1.588835 -0.125184 150 150 150
0.186830 1.478025 -0.160762 150 150 150
0.245581 1.523163 -0.018348 150 150 150
0.307497 1.594823 -0.196952 150 150 150
0.123310 1.461061 -0.274395 150 150 150
0.270083 1.585095 0.084632 150 150 150
0.077587 1.254987 -0.420688 150 150 150
0.147245 1.510973 0.292543 150 150 150
0.266288 1.292917 -0.595943 150 150 150
0.296619 1.304432 0.334676 150 150 150
0.335663 1.316477 -0.645835 150 150 150
0.337540 1.224241 0.330240 150 150 150
