ply
format ascii 1.0
comment author: Greg Turk
comment object: another cube
element vertex 24
property float x
property float y
property float z
property uchar red
property uchar green
property uchar blue
element face 0
property list uchar int vertex_index
end_header
-0.044455 1.001416 -0.046195 150 150 150
-0.067497 0.917240 -0.104187 150 150 150
-0.068305 0.914187 0.018465 150 150 150
-0.073085 1.134582 -0.057322 150 150 150
-0.070351 0.549386 -0.198781 150 150 150
-0.068844 0.547933 0.123323 150 150 150
-0.032898 1.269069 -0.060468 150 150 150
-0.125176 0.127553 -0.261483 150 150 150
-0.140533 0.134714 0.177246 150 150 150
-0.026054 1.325860 -0.056285 150 150 150
-0.016594 0.065497 -0.323460 150 150 150
-0.019831 0.072908 0.235932 150 150 150
-0.034219 1.548092 -0.037404 150 150 150
-0.027306 1.445017 -0.128864 150 150 150
-0.039890 1.441249 0.032019 150 150 150
0.028429 1.623087 -0.045783 150 150 150
-0.053436 1.461817 -0.253964 150 150 150
-0.059515 1.456047 0.148548 150 150 150
-0.086633 1.258342 -0.395133 150 150 150
-0.122152 1.249833 0.292703 150 150 150
0.076478 1.070566 -0.467600 150 150 150
0.034503 1.059675 0.386761 150 150 150
0.120675 0.994495 -0.479437 150 150 150
0.086210 0.987871 0.404668 150 150 150
