ply
format ascii 1.0
comment author: Greg Turk
comment object: another cube
element vertex 24
property float x
property float y
property float z
property uchar red
property uchar green
property uchar blue
element face 0
property list uchar int vertex_index
end_header
0.137269 0.970514 0.011869 150 150 150
0.092752 0.882984 -0.023162 150 150 150
0.151208 0.888680 0.085254 150 150 150
0.106412 1.096726 0.005080 150 150 150
0.167862 0.520665 -0.134485 150 150 150
0.282878 0.529475 0.061446 150 150 150
0.170938 1.204779 -0.042889 150 150 150
0.034486 0.108458 -0.133561 150 150 150
0.205790 0.124188 0.161594 150 150 150
0.194201 1.251293 -0.057022 150 150 150
0.121372 0.039013 -0.216247 150 150 150
0.315882 0.060476 0.088207 150 150 150
0.236395 1.468753 -0.103763 150 150 150
0.177307 1.349461 -0.155920 150 150 150
0.245867 1.377420 -0.007104 150 150 150
0.289993 1.507686 -0.180352 150 150 150
0.102917 1.319885 -0.255248 150 150 150
0.277527 1.390452 0.106510 150 150 150
0.051718 1.073332 -0.308206 150 150 150
0.175788 1.210334 0.259566 150 150 150
0.186231 0.906309 -0.459103 150 150 150
0.294317 0.975783 0.254171 150 150 150
0.241122 0.853864 -0.505269 150 150 150
0.336698 0.898044 0.235313 150 150 150
