ply
format ascii 1.0
comment author: Greg Turk
comment object: another cube
element vertex 24
property float x
property float y
property float z
property uchar red
property uchar green
property uchar blue
element face 0
property list uchar int vertex_index
end_header
-0.060955 1.146778 -0.020605 150 150 150
-0.027371 1.059131 -0.070052 150 150 150
-0.123770 1.057288 0.009275 150 150 150
-0.075003 1.276636 -0.054051 150 150 150
0.194487 0.743356 -0.097479 150 150 150
-0.210065 0.707248 0.148052 150 150 150
-0.016906 1.398610 -0.007744 150 150 150
0.237158 0.337795 -0.234530 150 150 150
-0.320366 0.300115 0.156967 150 150 150
-0.001901 1.454632 0.006662 150 150 150
0.322804 0.237131 -0.193539 150 150 150
-0.276517 0.188930 0.239358 150 150 150
0.047213 1.659210 0.051049 150 150 150
0.076966 1.561427 -0.029742 150 150 150
-0.039312 1.572648 0.075907 150 150 150
0.119143 1.688667 0.104216 150 150 150
0.133446 1.589649 -0.145681 150 150 150
-0.137392 1.615952 0.134821 150 150 150
0.207081 1.470176 -0.357417 150 150 150
-0.372181 1.506857 0.159499 150 150 150
0.459340 1.426306 -0.412680 150 150 150
-0.452180 1.376632 0.374826 150 150 150
0.547253 1.424274 -0.419901 150 150 150
-0.467023 1.328042 0.449368 150 150 150
