ply
format ascii 1.0
comment author: Greg Turk
comment object: another cube
element vertex 24
property float x
property float y
property float z
property uchar red
property uchar green
property uchar blue
element face 0
property list uchar int vertex_index
end_header
-0.042615 0.999687 -0.048278 150 150 150
-0.064377 0.915075 -0.105889 150 150 150
-0.063416 0.912069 0.016781 150 150 150
-0.075011 1.132154 -0.059004 150 150 150
-0.067978 0.546761 -0.199493 150 150 150
-0.063997 0.545819 0.121749 150 150 150
-0.042163 1.268200 -0.063197 150 150 150
-0.125986 0.124993 -0.260627 150 150 150
-0.140320 0.133508 0.176199 150 150 150
-0.038435 1.324827 -0.059086 150 150 150
-0.017543 0.062868 -0.322644 150 150 150
-0.019842 0.072096 0.235793 150 150 150
-0.058534 1.546583 -0.039968 150 150 150
-0.049323 1.443532 -0.131392 150 150 150
-0.056212 1.439499 0.029722 150 150 150
0.000470 1.624766 -0.048868 150 150 150
-0.082947 1.458262 -0.255320 150 150 150
-0.073275 1.454372 0.147031 150 150 150
-0.108631 1.257936 -0.403214 150 150 150
-0.119490 1.255128 0.308184 150 150 150
0.070084 1.087279 -0.481074 150 150 150
0.043064 1.073103 0.409270 150 150 150
0.121414 1.015977 -0.494653 150 150 150
0.095645 1.002380 0.429304 150 150 150
