ply
format ascii 1.0
comment author: Greg Turk
comment object: another cube
element vertex 24
property float x
property float y
property float z
property uchar red
property uchar green
property uchar blue
element face 0
property list uchar int vertex_index
end_header
0.145127 0.965033 -0.000333 150 150 150
0.094847 0.877126 -0.026734 150 150 150
0.170513 0.884373 0.070341 150 150 150
0.114537 1.092114 -0.000811 150 150 150
0.158688 0.513897 -0.131999 150 150 150
0.298369 0.522045 0.052474 150 150 150
0.160920 1.205643 -0.057008 150 150 150
0.034940 0.100027 -0.127499 150 150 150
0.210082 0.122451 0.163717 150 150 150
0.177258 1.254818 -0.072498 150 150 150
0.123946 0.035027 -0.213232 150 150 150
0.315785 0.056489 0.088033 150 150 150
0.214565 1.479822 -0.094804 150 150 150
0.133521 1.368815 -0.143038 150 150 150
0.252120 1.372864 -0.026082 150 150 150
0.242354 1.527780 -0.180108 150 150 150
0.020418 1.359815 -0.197430 150 150 150
0.336311 1.357482 0.052386 150 150 150
-0.087971 1.144812 -0.124831 150 150 150
0.345890 1.104181 0.109516 150 150 150
-0.127392 0.890460 -0.151258 150 150 150
0.439579 1.053428 -0.129570 150 150 150
-0.131448 0.802764 -0.142172 150 150 150
0.460608 1.054047 -0.217120 150 150 150
