ply
format ascii 1.0
comment author: Greg Turk
comment object: another cube
element vertex 24
property float x
property float y
property float z
property uchar red
property uchar green
property uchar blue
element face 0
property list uchar int vertex_index
end_header
0.022323 1.246410 -0.001307 150 150 150
0.025270 1.155613 -0.056201 150 150 150
-0.026066 1.161708 0.052791 150 150 150
0.003878 1.381179 -0.029401 150 150 150
0.084608 0.780909 -0.060608 150 150 150
0.001441 0.794673 0.157326 150 150 150
0.065694 1.511411 -0.023078 150 150 150
-0.065591 0.381671 -0.117845 150 150 150
-0.127355 0.399762 0.071761 150 150 150
0.081767 1.569779 -0.020777 150 150 150
-0.024528 0.251120 -0.094457 150 150 150
-0.069455 0.275193 0.119468 150 150 150
0.141329 1.779184 -0.007060 150 150 150
0.137139 1.673180 -0.091787 150 150 150
0.082152 1.692339 0.055640 150 150 150
0.229043 1.809837 0.005166 150 150 150
0.117834 1.705343 -0.214228 150 150 150
0.034561 1.731619 0.159578 150 150 150
-0.114407 1.661729 -0.285591 150 150 150
-0.072254 1.575862 0.330780 150 150 150
-0.184466 1.420744 -0.269838 150 150 150
0.181031 1.621947 0.294542 150 150 150
-0.225102 1.346470 -0.242831 150 150 150
0.257514 1.648683 0.256108 150 150 150
