ply
format ascii 1.0
comment author: Greg Turk
comment object: another cube
element vertex 24
property float x
property float y
property float z
property uchar red
property uchar green
property uchar blue
element face 0
property list uchar int vertex_index
end_header
-0.002100 1.071674 -0.063998 150 150 150
-0.053853 0.986689 -0.098978 150 150 150
0.014763 0.981938 0.001992 150 150 150
-0.028649 1.206586 -0.056994 150 150 150
-0.048530 0.623767 -0.217938 150 150 150
0.084153 0.612320 0.066978 150 150 150
0.034622 1.330492 -0.095644 150 150 150
-0.107256 0.200782 -0.164605 150 150 150
0.055416 0.203531 0.174998 150 150 150
0.055334 1.386820 -0.102899 150 150 150
-0.060100 0.090087 -0.231988 150 150 150
0.146678 0.102887 0.118791 150 150 150
0.106909 1.594788 -0.121531 150 150 150
0.041929 1.498745 -0.182321 150 150 150
0.111973 1.500921 -0.039467 150 150 150
0.172957 1.634286 -0.176980 150 150 150
-0.036046 1.520540 -0.284175 150 150 150
0.142528 1.535260 0.073512 150 150 150
-0.111501 1.349422 -0.455520 150 150 150
0.071151 1.395229 0.275938 150 150 150
0.082962 1.336663 -0.628971 150 150 150
0.214361 1.191964 0.357196 150 150 150
0.155772 1.330426 -0.679542 150 150 150
0.250406 1.111312 0.374794 150 150 150
