ply
format ascii 1.0
comment author: Greg Turk
comment object: another cube
element vertex 24
property float x
property float y
property float z
property uchar red
property uchar green
property uchar blue
element face 0
property list uchar int vertex_index
end_header
0.198837 1.274498 -0.006234 150 150 150
0.162468 1.190144 -0.059942 150 150 150
0.210718 1.179410 0.056055 150 150 150
0.159027 1.405148 0.008249 150 150 150
0.186986 0.916378 -0.331078 150 150 150
0.259319 0.834160 0.219428 150 150 150
0.206581 1.543350 -0.022215 150 150 150
0.165305 0.572796 -0.583672 150 150 150
-0.018410 0.642483 0.471478 150 150 150
0.212024 1.605532 -0.036736 150 150 150
0.241677 0.510459 -0.680134 150 150 150
-0.000868 0.505665 0.515313 150 150 150
0.217695 1.795365 -0.101194 150 150 150
0.176197 1.686605 -0.134513 150 150 150
0.235804 1.737505 -0.002991 150 150 150
0.275912 1.798590 -0.170282 150 150 150
0.100143 1.683241 -0.243797 150 150 150
0.250431 1.831324 0.075662 150 150 150
0.041968 1.557744 -0.458827 150 150 150
0.226115 1.880524 0.323651 150 150 150
0.192601 1.738053 -0.569512 150 150 150
0.449518 1.751058 0.302121 150 150 150
0.246396 1.805107 -0.591493 150 150 150
0.505960 1.680869 0.296825 150 150 150
