ply
format ascii 1.0
comment author: Greg Turk
comment object: another cube
element vertex 24
property float x
property float y
property float z
property uchar red
property uchar green
property uchar blue
element face 0
property list uchar int vertex_index
end_header
-0.044285 0.970917 -0.103956 150 150 150
0.013661 0.882513 -0.109096 150 150 150
-0.106678 0.886252 -0.141484 150 150 150
-0.021047 1.100565 -0.131291 150 150 150
0.105660 0.520731 -0.027077 150 150 150
-0.257489 0.533150 -0.109402 150 150 150
-0.025047 1.229459 -0.077821 150 150 150
0.251031 0.117763 -0.068939 150 150 150
-0.315007 0.145158 -0.267049 150 150 150
-0.028344 1.285826 -0.067175 150 150 150
0.243913 0.053050 0.054301 150 150 150
-0.371062 0.071380 -0.154210 150 150 150
-0.045969 1.508027 -0.046636 150 150 150
0.046007 1.402423 -0.052604 150 150 150
-0.114863 1.403982 -0.069232 150 150 150
-0.035265 1.569787 0.027698 150 150 150
0.163688 1.417203 -0.101566 150 150 150
-0.231482 1.421762 -0.084273 150 150 150
0.229868 1.249309 -0.272994 150 150 150
-0.398648 1.228572 -0.136985 150 150 150
0.299935 1.003349 -0.272394 150 150 150
-0.405292 1.105146 0.094052 150 150 150
0.306099 0.915122 -0.271798 150 150 150
-0.386278 1.072049 0.175477 150 150 150
