ply
format ascii 1.0
comment author: Greg Turk
comment object: another cube
element vertex 24
property float x
property float y
property float z
property uchar red
property uchar green
property uchar blue
element face 0
property list uchar int vertex_index
end_header
0.017246 1.271453 0.013697 150 150 150
-0.002403 1.183980 -0.041238 150 150 150
-0.007892 1.190292 0.084160 150 150 150
0.000049 1.393292 -0.006096 150 150 150
0.208055 0.865122 -0.110784 150 150 150
0.254915 0.911044 0.136325 150 150 150
0.107842 1.482182 -0.017130 150 150 150
-0.050864 0.521267 -0.146672 150 150 150
0.282041 0.491451 0.080371 150 150 150
0.149843 1.523138 -0.021083 150 150 150
0.015481 0.403523 -0.180179 150 150 150
0.408917 0.421404 0.087503 150 150 150
0.276672 1.701321 -0.040967 150 150 150
0.220998 1.595446 -0.113634 150 150 150
0.207100 1.639317 0.043723 150 150 150
0.371965 1.712001 -0.052829 150 150 150
0.204662 1.588265 -0.241476 150 150 150
0.193808 1.689837 0.152757 150 150 150
-0.025025 1.522823 -0.314521 150 150 150
-0.008195 1.604906 0.278633 150 150 150
-0.161330 1.310476 -0.280277 150 150 150
0.169712 1.417178 0.293513 150 150 150
-0.220478 1.250073 -0.254455 150 150 150
0.238122 1.360761 0.279104 150 150 150
