ply
format ascii 1.0
comment author: Greg Turk
comment object: another cube
element vertex 24
property float x
property float y
property float z
property uchar red
property uchar green
property uchar blue
element face 0
property list uchar int vertex_index
end_header
-0.075033 1.318761 -0.268701 150 150 150
-0.023606 1.231445 -0.238056 150 150 150
-0.111146 1.230440 -0.328975 150 150 150
-0.041053 1.447899 -0.287446 150 150 150
-0.026256 0.919306 -0.007934 150 150 150
-0.241201 0.894960 -0.468437 150 150 150
-0.060276 1.583086 -0.234811 150 150 150
0.144580 0.525532 0.008437 150 150 150
0.087060 0.857498 -0.734425 150 150 150
-0.058809 1.643521 -0.220593 150 150 150
0.097482 0.439350 0.104284 150 150 150
0.113266 0.741272 -0.816019 150 150 150
-0.050192 1.846081 -0.172140 150 150 150
0.014743 1.736404 -0.159198 150 150 150
-0.109616 1.774686 -0.242108 150 150 150
-0.075752 1.856497 -0.083057 150 150 150
0.141170 1.740485 -0.123640 150 150 150
-0.183832 1.850646 -0.300385 150 150 150
0.315264 1.569245 -0.067473 150 150 150
-0.402235 1.856269 -0.437000 150 150 150
0.228695 1.622402 0.167363 150 150 150
-0.413987 1.873084 -0.176570 150 150 150
0.186716 1.640185 0.243741 150 150 150
-0.402733 1.856864 -0.088110 150 150 150
