ply
format ascii 1.0
comment author: Greg Turk
comment object: another cube
element vertex 24
property float x
property float y
property float z
property uchar red
property uchar green
property uchar blue
element face 0
property list uchar int vertex_index
end_header
0.195082 1.060692 -0.000845 150 150 150
0.159481 0.972252 -0.046352 150 150 150
0.197762 0.972718 0.068823 150 150 150
0.158191 1.196104 -0.004763 150 150 150
0.164357 0.603769 -0.124582 150 150 150
0.239149 0.598726 0.118304 150 150 150
0.201380 1.332893 -0.030646 150 150 150
0.123949 0.176090 -0.154278 150 150 150
0.139036 0.190407 0.165348 150 150 150
0.210410 1.393562 -0.038403 150 150 150
0.217971 0.084977 -0.199216 150 150 150
0.240970 0.090275 0.129495 150 150 150
0.214726 1.606970 -0.063885 150 150 150
0.189686 1.495744 -0.127506 150 150 150
0.227257 1.521750 0.023290 150 150 150
0.279582 1.657012 -0.113266 150 150 150
0.137612 1.495974 -0.243324 150 150 150
0.238890 1.571524 0.130125 150 150 150
0.149333 1.272012 -0.349623 150 150 150
0.197778 1.409307 0.316309 150 150 150
0.399760 1.268903 -0.404004 150 150 150
0.422952 1.298999 0.257734 150 150 150
0.488158 1.260340 -0.407042 150 150 150
0.489806 1.252637 0.219458 150 150 150
