ply
format ascii 1.0
comment author: Greg Turk
comment object: another cube
element vertex 24
property float x
property float y
property float z
property uchar red
property uchar green
property uchar blue
element face 0
property list uchar int vertex_index
end_header
-0.063201 0.890371 -0.033451 150 150 150
-0.077226 0.805743 -0.092065 150 150 150
-0.090774 0.805803 0.032172 150 150 150
-0.088151 1.014346 -0.052400 150 150 150
0.035230 0.451543 -0.206086 150 150 150
0.037957 0.461806 0.150024 150 150 150
0.001224 1.118152 -0.049513 150 150 150
-0.120635 0.053412 -0.272241 150 150 150
-0.130832 0.074124 0.183535 150 150 150
0.031386 1.163872 -0.044840 150 150 150
-0.008975 0.001642 -0.335946 150 150 150
-0.011717 0.014821 0.246154 150 150 150
0.094050 1.379610 -0.047521 150 150 150
0.087838 1.260792 -0.127693 150 150 150
0.039261 1.290014 0.029591 150 150 150
0.170980 1.444514 -0.053498 150 150 150
0.110677 1.225860 -0.249703 150 150 150
-0.007916 1.305721 0.140119 150 150 150
0.128792 0.977951 -0.323125 150 150 150
-0.184390 1.140063 0.230148 150 150 150
0.304251 0.794831 -0.404974 150 150 150
-0.193017 0.945976 0.413682 150 150 150
0.352250 0.724985 -0.429944 150 150 150
-0.197391 0.874020 0.468057 150 150 150
