ply
format ascii 1.0
comment author: Greg Turk
comment object: another cube
element vertex 24
property float x
property float y
property float z
property uchar red
property uchar green
property uchar blue
element face 0
property list uchar int vertex_index
end_header
-0.077697 0.952742 -0.031601 150 150 150
-0.103608 0.871014 -0.091707 150 150 150
-0.115355 0.869501 0.031307 150 150 150
-0.088840 1.083596 -0.045649 150 150 150
-0.069622 0.505707 -0.200577 150 150 150
-0.082106 0.504742 0.140253 150 150 150
-0.004535 1.193079 -0.039547 150 150 150
-0.117309 0.082926 -0.268229 150 150 150
-0.133764 0.087260 0.186212 150 150 150
0.023159 1.241252 -0.032868 150 150 150
-0.006254 0.032127 -0.335786 150 150 150
-0.008660 0.039448 0.247328 150 150 150
0.083453 1.457522 -0.016899 150 150 150
0.074911 1.347636 -0.107333 150 150 150
0.033579 1.359800 0.052948 150 150 150
0.164610 1.514174 -0.019056 150 150 150
0.081481 1.336422 -0.233686 150 150 150
-0.006112 1.371381 0.164096 150 150 150
0.005167 1.103734 -0.289532 150 150 150
-0.174128 1.185214 0.216510 150 150 150
0.058153 0.847518 -0.314897 150 150 150
-0.166329 0.929003 0.282926 150 150 150
0.059207 0.758938 -0.315575 150 150 150
-0.167058 0.838985 0.289752 150 150 150
