ply
format ascii 1.0
comment author: Greg Turk
comment object: another cube
element vertex 24
property float x
property float y
property float z
property uchar red
property uchar green
property uchar blue
element face 0
property list uchar int vertex_index
end_header
0.016895 1.113495 -0.265370 150 150 150
-0.013516 1.022103 -0.311929 150 150 150
-0.003700 1.033572 -0.188359 150 150 150
-0.006266 1.246741 -0.286710 150 150 150
0.011443 0.659757 -0.425183 150 150 150
0.059249 0.681348 -0.048041 150 150 150
0.068616 1.367445 -0.314309 150 150 150
-0.014389 0.247887 -0.541030 150 150 150
-0.012859 0.270927 0.023650 150 150 150
0.090527 1.424393 -0.322338 150 150 150
0.074849 0.145858 -0.575547 150 150 150
0.099607 0.180574 0.011536 150 150 150
0.159655 1.630734 -0.332736 150 150 150
0.101653 1.533688 -0.405171 150 150 150
0.145326 1.539398 -0.253002 150 150 150
0.232548 1.679400 -0.362677 150 150 150
0.016228 1.575463 -0.489966 150 150 150
0.184078 1.564235 -0.144261 150 150 150
-0.209520 1.500795 -0.425289 150 150 150
0.192739 1.378875 0.035965 150 150 150
-0.344665 1.286098 -0.433240 150 150 150
0.381510 1.272173 -0.108311 150 150 150
-0.388526 1.212378 -0.413342 150 150 150
0.432228 1.243122 -0.176080 150 150 150
