ply
format ascii 1.0
comment author: Greg Turk
comment object: another cube
element vertex 24
property float x
property float y
property float z
property uchar red
property uchar green
property uchar blue
element face 0
property list uchar int vertex_index
end_header
-0.011982 1.185690 -0.168908 150 150 150
-0.003610 1.097305 -0.227013 150 150 150
-0.058755 1.095841 -0.119395 150 150 150
-0.035430 1.321207 -0.195189 150 150 150
0.042582 0.729484 -0.298742 150 150 150
-0.043670 0.725432 -0.039729 150 150 150
0.010109 1.458394 -0.176854 150 150 150
-0.008973 0.309251 -0.370638 150 150 150
-0.067760 0.303856 -0.053425 150 150 150
0.015823 1.519123 -0.172447 150 150 150
0.058212 0.188946 -0.375966 150 150 150
0.026099 0.197581 -0.017872 150 150 150
0.032944 1.735298 -0.161035 150 150 150
0.064761 1.631742 -0.235604 150 150 150
-0.023445 1.639977 -0.107234 150 150 150
0.095256 1.798469 -0.132403 150 150 150
0.081053 1.658266 -0.358944 150 150 150
-0.108871 1.686805 -0.037753 150 150 150
0.014737 1.483772 -0.518158 150 150 150
-0.308791 1.538084 0.013900 150 150 150
0.123449 1.272996 -0.620423 150 150 150
-0.316378 1.363968 0.208871 150 150 150
0.152424 1.193732 -0.645265 150 150 150
-0.310645 1.295842 0.266971 150 150 150
