ply
format ascii 1.0
comment author: Greg Turk
comment object: another cube
element vertex 24
property float x
property float y
property float z
property uchar red
property uchar green
property uchar blue
element face 0
property list uchar int vertex_index
end_header
0.000174 1.152149 -0.057168 150 150 150
-0.049865 1.067555 -0.096126 150 150 150
0.016788 1.060132 0.006466 150 150 150
-0.027627 1.286647 -0.046030 150 150 150
-0.036168 0.716932 -0.249462 150 150 150
0.089792 0.693418 0.087666 150 150 150
0.037573 1.412831 -0.083472 150 150 150
-0.109174 0.294956 -0.211097 150 150 150
0.063848 0.293710 0.222068 150 150 150
0.057606 1.471267 -0.091375 150 150 150
-0.060869 0.180693 -0.270686 150 150 150
0.143859 0.179284 0.178297 150 150 150
0.106221 1.673027 -0.116053 150 150 150
0.043299 1.579299 -0.172416 150 150 150
0.110857 1.586333 -0.031220 150 150 150
0.174688 1.703551 -0.171453 150 150 150
-0.028064 1.605589 -0.279140 150 150 150
0.140920 1.636339 0.076586 150 150 150
-0.086850 1.476427 -0.492331 150 150 150
0.082408 1.544595 0.308777 150 150 150
0.116346 1.523046 -0.651192 150 150 150
0.238559 1.361560 0.410584 150 150 150
0.191585 1.538399 -0.695692 150 150 150
0.275191 1.284048 0.437928 150 150 150
