ply
format ascii 1.0
comment author: Greg Turk
comment object: another cube
element vertex 24
property float x
property float y
property float z
property uchar red
property uchar green
property uchar blue
element face 0
property list uchar int vertex_index
end_header
-0.044081 0.959673 0.027490 150 150 150
-0.037324 0.873132 -0.029046 150 150 150
-0.101489 0.879082 0.075080 150 150 150
-0.054654 1.087672 -0.000186 150 150 150
0.081696 0.507989 0.006592 150 150 150
-0.086109 0.501847 0.140421 150 150 150
0.010040 1.200599 0.020202 150 150 150
-0.034492 0.099381 -0.074640 150 150 150
-0.266644 0.128998 0.050383 150 150 150
0.027574 1.247508 0.031084 150 150 150
0.081978 0.031264 -0.040662 150 150 150
-0.188831 0.040703 0.138219 150 150 150
0.058160 1.476704 0.053249 150 150 150
0.084799 1.360141 -0.033166 150 150 150
-0.000705 1.368557 0.110224 150 150 150
0.131477 1.543240 0.081905 150 150 150
0.098194 1.339999 -0.156577 150 150 150
-0.070962 1.356299 0.201153 150 150 150
0.013504 1.112743 -0.229527 150 150 150
-0.197869 1.130030 0.208051 150 150 150
0.046342 0.853755 -0.258251 150 150 150
-0.059597 0.910723 0.261678 150 150 150
0.055311 0.765294 -0.254552 150 150 150
0.002290 0.845718 0.274804 150 150 150
