ply
format ascii 1.0
comment author: Greg Turk
comment object: another cube
element vertex 24
property float x
property float y
property float z
property uchar red
property uchar green
property uchar blue
element face 0
property list uchar int vertex_index
end_header
0.028011 1.021726 -0.130156 150 150 150
-0.021510 0.930529 -0.147424 150 150 150
0.076946 0.937473 -0.077258 150 150 150
-0.009715 1.153578 -0.105994 150 150 150
0.004544 0.561061 -0.224699 150 150 150
0.164837 0.569147 -0.032417 150 150 150
-0.007014 1.288872 -0.144718 150 150 150
-0.095498 0.152458 -0.134634 150 150 150
0.070319 0.202603 0.158576 150 150 150
-0.003796 1.347667 -0.149967 150 150 150
-0.049719 0.052823 -0.220633 150 150 150
0.148679 0.090519 0.105909 150 150 150
0.027002 1.568548 -0.162602 150 150 150
-0.067162 1.469769 -0.179611 150 150 150
0.083148 1.461150 -0.126609 150 150 150
0.039961 1.624652 -0.238522 150 150 150
-0.182846 1.513093 -0.150415 150 150 150
0.193590 1.464371 -0.088469 150 150 150
-0.287453 1.395691 0.039812 150 150 150
0.282799 1.223438 -0.064856 150 150 150
-0.359106 1.152776 0.045073 150 150 150
0.258848 1.234140 -0.323826 150 150 150
-0.363985 1.065579 0.059692 150 150 150
0.237152 1.257739 -0.407607 150 150 150
