ply
format ascii 1.0
comment author: Greg Turk
comment object: another cube
element vertex 24
property float x
property float y
property float z
property uchar red
property uchar green
property uchar blue
element face 0
property list uchar int vertex_index
end_header
0.195404 1.277297 -0.004123 150 150 150
0.160351 1.192297 -0.058184 150 150 150
0.209059 1.182437 0.058296 150 150 150
0.153782 1.406406 0.010257 150 150 150
0.197588 0.928806 -0.339400 150 150 150
0.284514 0.843916 0.226949 150 150 150
0.205607 1.542210 -0.023509 150 150 150
0.160973 0.589466 -0.596136 150 150 150
0.008094 0.657929 0.485492 150 150 150
0.212765 1.603836 -0.040082 150 150 150
0.238321 0.521100 -0.687396 150 150 150
0.038247 0.527093 0.539989 150 150 150
0.223567 1.790222 -0.111149 150 150 150
0.178459 1.682186 -0.140559 150 150 150
0.240354 1.735892 -0.010556 150 150 150
0.281751 1.787814 -0.179629 150 150 150
0.100855 1.677966 -0.249278 150 150 150
0.257238 1.831314 0.066150 150 150 150
0.033585 1.559006 -0.466629 150 150 150
0.225361 1.884956 0.312376 150 150 150
0.178666 1.740012 -0.584867 150 150 150
0.444111 1.745992 0.313014 150 150 150
0.229829 1.808279 -0.609110 150 150 150
0.497768 1.673482 0.314975 150 150 150
