ply
format ascii 1.0
comment author: Greg Turk
comment object: another cube
element vertex 24
property float x
property float y
property float z
property uchar red
property uchar green
property uchar blue
element face 0
property list uchar int vertex_index
end_header
-0.010579 1.073412 -0.095097 150 150 150
0.038874 0.983805 -0.068289 150 150 150
-0.053855 0.984419 -0.149548 150 150 150
0.028142 1.203332 -0.115186 150 150 150
0.084755 0.637118 0.085673 150 150 150
-0.218675 0.639689 -0.154495 150 150 150
-0.015046 1.333408 -0.070562 150 150 150
0.221598 0.232736 0.030276 150 150 150
-0.296710 0.235915 -0.253114 150 150 150
-0.029138 1.390777 -0.060222 150 150 150
0.207954 0.110701 0.091328 150 150 150
-0.359570 0.138030 -0.165164 150 150 150
-0.063915 1.602640 -0.026061 150 150 150
0.003144 1.496124 0.022633 150 150 150
-0.089059 1.512215 -0.109945 150 150 150
-0.115977 1.642736 0.041716 150 150 150
0.093115 1.489708 0.112979 150 150 150
-0.134934 1.552323 -0.214450 150 150 150
0.198903 1.263437 0.125044 150 150 150
-0.053433 1.421426 -0.413399 150 150 150
0.046789 1.077553 0.216301 150 150 150
-0.182451 1.200787 -0.373628 150 150 150
-0.014585 1.016119 0.235627 150 150 150
-0.211590 1.121381 -0.342365 150 150 150
