ply
format ascii 1.0
comment author: Greg Turk
comment object: another cube
element vertex 24
property float x
property float y
property float z
property uchar red
property uchar green
property uchar blue
element face 0
property list uchar int vertex_index
end_header
0.009071 1.115450 0.023713 150 150 150
0.010726 1.024032 -0.029766 150 150 150
-0.047506 1.033662 0.074613 150 150 150
-0.002688 1.253841 -0.007331 150 150 150
0.035478 0.649673 -0.055217 150 150 150
-0.123913 0.667805 0.132048 150 150 150
0.049460 1.387531 -0.005744 150 150 150
0.007339 0.222176 -0.067582 150 150 150
-0.224653 0.259517 0.085100 150 150 150
0.060269 1.446791 -0.004717 150 150 150
0.082377 0.106569 -0.043809 150 150 150
-0.163602 0.141801 0.146610 150 150 150
0.093099 1.665400 0.005368 150 150 150
0.105137 1.557737 -0.076608 150 150 150
0.044759 1.570046 0.069773 150 150 150
0.167802 1.719055 0.024418 150 150 150
0.083970 1.583467 -0.199165 150 150 150
-0.007708 1.594402 0.172829 150 150 150
-0.119181 1.467695 -0.273354 150 150 150
-0.081331 1.380680 0.288559 150 150 150
-0.140989 1.216280 -0.262980 150 150 150
0.174741 1.409059 0.260444 150 150 150
-0.166653 1.134469 -0.240204 150 150 150
0.256592 1.431727 0.231310 150 150 150
