ply
format ascii 1.0
comment author: Greg Turk
comment object: another cube
element vertex 24
property float x
property float y
property float z
property uchar red
property uchar green
property uchar blue
element face 0
property list uchar int vertex_index
end_header
-0.025640 1.238679 -0.071754 150 150 150
0.023004 1.151983 -0.111276 150 150 150
-0.093896 1.147960 -0.068092 150 150 150
-0.029513 1.371966 -0.104537 150 150 150
0.194170 0.811105 -0.145149 150 150 150
-0.262662 0.807479 0.000804 150 150 150
-0.003198 1.508715 -0.060878 150 150 150
0.290150 0.415621 -0.280604 150 150 150
-0.413350 0.426412 -0.091530 150 150 150
-0.002756 1.569966 -0.054622 150 150 150
0.367369 0.319214 -0.215457 150 150 150
-0.439237 0.310704 -0.007666 150 150 150
0.006693 1.777733 -0.015891 150 150 150
0.067595 1.683989 -0.076977 150 150 150
-0.070378 1.685231 -0.012039 150 150 150
0.055638 1.810963 0.054530 150 150 150
0.123451 1.738130 -0.182165 150 150 150
-0.178618 1.739993 0.004180 150 150 150
0.158581 1.688708 -0.427950 150 150 150
-0.432403 1.677438 -0.003382 150 150 150
0.320086 1.624972 -0.622376 150 150 150
-0.536875 1.626590 0.234453 150 150 150
0.376526 1.598230 -0.683460 150 150 150
-0.557174 1.602728 0.318377 150 150 150
