ply
format ascii 1.0
comment author: Greg Turk
comment object: another cube
element vertex 24
property float x
property float y
property float z
property uchar red
property uchar green
property uchar blue
element face 0
property list uchar int vertex_index
end_header
0.131582 1.002360 0.013001 150 150 150
0.102236 0.914303 -0.033622 150 150 150
0.121039 0.920641 0.086964 150 150 150
0.102720 1.129329 -0.004872 150 150 150
0.191281 0.548277 -0.113432 150 150 150
0.229984 0.554750 0.112587 150 150 150
0.173697 1.240468 -0.031661 150 150 150
0.104074 0.125841 -0.144319 150 150 150
0.121747 0.147242 0.161208 150 150 150
0.198533 1.287518 -0.036737 150 150 150
0.218185 0.063728 -0.194192 150 150 150
0.232477 0.057604 0.123911 150 150 150
0.254080 1.507725 -0.062964 150 150 150
0.226470 1.384363 -0.135006 150 150 150
0.222635 1.416360 0.029350 150 150 150
0.338717 1.557222 -0.086389 150 150 150
0.198106 1.347161 -0.252494 150 150 150
0.205544 1.428661 0.144373 150 150 150
0.103161 1.110947 -0.257835 150 150 150
0.069561 1.228779 0.230183 150 150 150
0.097145 0.848213 -0.272990 150 150 150
0.178555 0.992559 0.272184 150 150 150
0.090168 0.760083 -0.267310 150 150 150
0.223845 0.914401 0.273852 150 150 150
