ply
format ascii 1.0
comment author: Greg Turk
comment object: another cube
element vertex 24
property float x
property float y
property float z
property uchar red
property uchar green
property uchar blue
element face 0
property list uchar int vertex_index
end_header
-0.075260 1.110604 -0.323309 150 150 150
-0.035583 1.019065 -0.285386 150 150 150
-0.078101 1.026919 -0.397605 150 150 150
-0.041676 1.249136 -0.312426 150 150 150
-0.013790 0.646658 -0.277321 150 150 150
-0.120074 0.659367 -0.482028 150 150 150
-0.077817 1.390581 -0.275087 150 150 150
0.033627 0.222387 -0.330439 150 150 150
-0.078203 0.242523 -0.527976 150 150 150
-0.083344 1.454028 -0.262400 150 150 150
-0.045204 0.109555 -0.320533 150 150 150
-0.175280 0.133443 -0.529893 150 150 150
-0.071177 1.661586 -0.236956 150 150 150
-0.046496 1.552478 -0.179368 150 150 150
-0.102167 1.584218 -0.316589 150 150 150
-0.123539 1.712508 -0.175879 150 150 150
0.019447 1.551038 -0.073278 150 150 150
-0.135646 1.645543 -0.410288 150 150 150
-0.007696 1.328756 0.019670 150 150 150
-0.295697 1.548906 -0.580931 150 150 150
-0.233720 1.441208 -0.015034 150 150 150
-0.396091 1.644799 -0.362103 150 150 150
-0.314371 1.466884 -0.043954 150 150 150
-0.421515 1.659726 -0.276760 150 150 150
