ply
format ascii 1.0
comment author: Greg Turk
comment object: another cube
element vertex 24
property float x
property float y
property float z
property uchar red
property uchar green
property uchar blue
element face 0
property list uchar int vertex_index
end_header
0.141789 1.017862 0.008146 150 150 150
0.103107 0.928545 -0.030654 150 150 150
0.155706 0.933125 0.079899 150 150 150
0.104781 1.146503 0.003577 150 150 150
0.168886 0.569224 -0.151104 150 150 150
0.272941 0.569574 0.079853 150 150 150
0.171694 1.260546 -0.039895 150 150 150
0.058186 0.150499 -0.145710 150 150 150
0.211431 0.157018 0.160419 150 150 150
0.194654 1.311050 -0.055141 150 150 150
0.128455 0.060450 -0.223761 150 150 150
0.317808 0.082363 0.091013 150 150 150
0.241766 1.517012 -0.115362 150 150 150
0.184228 1.401664 -0.159909 150 150 150
0.243519 1.439080 -0.012394 150 150 150
0.301909 1.540384 -0.188756 150 150 150
0.117909 1.380074 -0.269171 150 150 150
0.267815 1.481039 0.098637 150 150 150
0.078819 1.148374 -0.371989 150 150 150
0.145110 1.356785 0.283614 150 150 150
0.260596 1.102471 -0.553398 150 150 150
0.270711 1.131605 0.318493 150 150 150
0.329699 1.093818 -0.608459 150 150 150
0.307886 1.049612 0.312021 150 150 150
