ply
format ascii 1.0
comment author: Greg Turk
comment object: another cube
element vertex 24
property float x
property float y
property float z
property uchar red
property uchar green
property uchar blue
element face 0
property list uchar int vertex_index
end_header
-0.004771 0.998346 -0.201411 150 150 150
-0.016727 0.911643 -0.260354 150 150 150
-0.034700 0.911475 -0.137218 150 150 150
-0.034337 1.129162 -0.220665 150 150 150
-0.004941 0.546728 -0.368703 150 150 150
0.028121 0.552612 -0.019894 150 150 150
0.014682 1.258815 -0.215344 150 150 150
-0.109672 0.143938 -0.479285 150 150 150
-0.090013 0.149527 0.033542 150 150 150
0.023210 1.314037 -0.209298 150 150 150
0.002142 0.062098 -0.487262 150 150 150
0.032379 0.068736 0.037113 150 150 150
0.037182 1.539996 -0.187254 150 150 150
0.046744 1.434091 -0.280241 150 150 150
0.006432 1.430798 -0.121959 150 150 150
0.105627 1.608464 -0.179777 150 150 150
0.019667 1.440517 -0.403060 150 150 150
-0.044382 1.436469 -0.016346 150 150 150
-0.073121 1.219975 -0.462937 150 150 150
-0.167469 1.216119 0.025506 150 150 150
-0.013293 0.982829 -0.551138 150 150 150
-0.112181 0.977684 0.124898 150 150 150
0.009528 0.899945 -0.571969 150 150 150
-0.083116 0.896362 0.150925 150 150 150
