ply
format ascii 1.0
comment author: Greg Turk
comment object: another cube
element vertex 24
property float x
property float y
property float z
property uchar red
property uchar green
property uchar blue
element face 0
property list uchar int vertex_index
end_header
0.100477 1.132430 -0.058637 150 150 150
0.034699 1.048128 -0.049396 150 150 150
0.151716 1.039489 -0.023930 150 150 150
0.096207 1.272431 -0.030514 150 150 150
0.006795 0.680926 -0.100271 150 150 150
0.214675 0.666958 0.013341 150 150 150
0.108824 1.410973 -0.084201 150 150 150
0.043848 0.256575 -0.140770 150 150 150
0.219554 0.265723 0.141500 150 150 150
0.114059 1.474084 -0.094156 150 150 150
0.091627 0.160782 -0.231052 150 150 150
0.258471 0.145460 0.069837 150 150 150
0.138587 1.684304 -0.117671 150 150 150
0.048238 1.593460 -0.103135 150 150 150
0.203191 1.584671 -0.104798 150 150 150
0.098766 1.734557 -0.185595 150 150 150
-0.057038 1.637454 -0.051257 150 150 150
0.321053 1.602067 -0.100980 150 150 150
-0.112415 1.488995 0.133305 150 150 150
0.442015 1.382138 -0.113944 150 150 150
-0.226370 1.263677 0.124614 150 150 150
0.312801 1.507866 -0.300336 150 150 150
-0.238714 1.178002 0.140607 150 150 150
0.248505 1.553034 -0.343301 150 150 150
