ply
format ascii 1.0
comment author: Greg Turk
comment object: another cube
element vertex 24
property float x
property float y
property float z
property uchar red
property uchar green
property uchar blue
element face 0
property list uchar int vertex_index
end_header
0.000220 0.937820 -0.267105 150 150 150
-0.034646 0.850656 -0.315509 150 150 150
-0.017988 0.859525 -0.190368 150 150 150
-0.018855 1.062761 -0.285518 150 150 150
0.027803 0.491337 -0.440164 150 150 150
0.134447 0.517762 -0.093859 150 150 150
0.067526 1.165494 -0.312163 150 150 150
-0.062135 0.086838 -0.555710 150 150 150
0.046831 0.109190 -0.025132 150 150 150
0.096582 1.212832 -0.318633 150 150 150
0.062565 0.046820 -0.604394 150 150 150
0.184240 0.062503 -0.038968 150 150 150
0.172314 1.425408 -0.322460 150 150 150
0.113901 1.323676 -0.402077 150 150 150
0.152233 1.325895 -0.242736 150 150 150
0.248576 1.482188 -0.348934 150 150 150
0.034858 1.344790 -0.500889 150 150 150
0.183992 1.327885 -0.130488 150 150 150
-0.163797 1.195293 -0.503183 150 150 150
0.131738 1.112047 0.008020 150 150 150
-0.319970 1.001708 -0.582251 150 150 150
0.254891 0.880074 0.046462 150 150 150
-0.371843 0.932010 -0.596693 150 150 150
0.300499 0.802397 0.047760 150 150 150
