ply
format ascii 1.0
comment author: Greg Turk
comment object: another cube
element vertex 24
property float x
property float y
property float z
property uchar red
property uchar green
property uchar blue
element face 0
property list uchar int vertex_index
end_header
-0.072484 1.044085 -0.337847 150 150 150
-0.040799 0.951269 -0.298845 150 150 150
-0.068307 0.964760 -0.415349 150 150 150
-0.036997 1.176869 -0.316395 150 150 150
-0.050691 0.574649 -0.299245 150 150 150
-0.145414 0.597856 -0.483477 150 150 150
-0.079269 1.311546 -0.280474 150 150 150
0.053664 0.159568 -0.353450 150 150 150
-0.066207 0.183403 -0.521411 150 150 150
-0.088655 1.371430 -0.268844 150 150 150
-0.042717 0.061742 -0.336030 150 150 150
-0.179741 0.089958 -0.529388 150 150 150
-0.076006 1.586191 -0.243688 150 150 150
-0.066276 1.470854 -0.178030 150 150 150
-0.095389 1.503408 -0.329115 150 150 150
-0.138640 1.642983 -0.194766 150 150 150
-0.030015 1.455622 -0.059472 150 150 150
-0.118627 1.550630 -0.433406 150 150 150
-0.085302 1.218978 -0.027765 150 150 150
-0.228969 1.392353 -0.599007 150 150 150
-0.310266 1.314111 -0.098489 150 150 150
-0.412743 1.472881 -0.435432 150 150 150
-0.384253 1.343783 -0.138806 150 150 150
-0.465114 1.498470 -0.366750 150 150 150
