ply
format ascii 1.0
comment author: Greg Turk
comment object: another cube
element vertex 24
property float x
property float y
property float z
property uchar red
property uchar green
property uchar blue
element face 0
property list uchar int vertex_index
end_header
0.017942 0.973967 -0.216139 150 150 150
-0.006100 0.887195 -0.270994 150 150 150
-0.001151 0.888847 -0.146808 150 150 150
-0.013260 1.105120 -0.229301 150 150 150
0.000293 0.519335 -0.367175 150 150 150
0.055566 0.523609 -0.047589 150 150 150
0.033354 1.234161 -0.238891 150 150 150
-0.126313 0.122100 -0.472434 150 150 150
-0.095275 0.137408 0.036171 150 150 150
0.042030 1.289381 -0.236995 150 150 150
-0.006669 0.053285 -0.489963 150 150 150
0.031687 0.064322 0.033565 150 150 150
0.054980 1.516902 -0.221018 150 150 150
0.038790 1.408861 -0.312786 150 150 150
0.050484 1.407535 -0.149254 150 150 150
0.120402 1.588377 -0.230704 150 150 150
-0.032090 1.415852 -0.417105 150 150 150
0.046268 1.410922 -0.033363 150 150 150
-0.177481 1.215926 -0.414084 150 150 150
-0.020294 1.177220 0.048896 150 150 150
-0.191753 0.963441 -0.463086 150 150 150
0.156735 0.984126 0.036484 150 150 150
-0.194850 0.875215 -0.464012 150 150 150
0.223872 0.927225 0.017929 150 150 150
