ply
format ascii 1.0
comment author: Greg Turk
comment object: another cube
element vertex 24
property float x
property float y
property float z
property uchar red
property uchar green
property uchar blue
element face 0
property list uchar int vertex_index
end_header
0.420705 0.805267 -0.087424 150 150 150
0.428794 0.722021 -0.026391 150 150 150
0.461129 0.725962 -0.152063 150 150 150
0.431003 0.919622 -0.065656 150 150 150
0.149954 0.450708 0.043144 150 150 150
0.225398 0.448077 -0.287658 150 150 150
0.329586 1.005708 -0.091978 150 150 150
0.410852 0.116774 0.119424 150 150 150
0.439373 0.084698 -0.273652 150 150 150
0.295315 1.045957 -0.110210 150 150 150
0.308436 0.050098 0.182102 150 150 150
0.313471 0.057216 -0.342455 150 150 150
0.231090 1.250118 -0.168543 150 150 150
0.212833 1.151469 -0.068853 150 150 150
0.309290 1.153554 -0.203465 150 150 150
0.140401 1.293558 -0.187041 150 150 150
0.137425 1.156504 0.037179 150 150 150
0.385201 1.155858 -0.296066 150 150 150
0.062402 0.937080 0.155416 150 150 150
0.559182 0.962714 -0.304800 150 150 150
-0.094170 0.722978 0.160073 150 150 150
0.638661 0.748882 -0.445632 150 150 150
-0.138639 0.645913 0.159790 150 150 150
0.657831 0.676104 -0.496151 150 150 150
