ply
format ascii 1.0
comment author: Greg Turk
comment object: another cube
element vertex 24
property float x
property float y
property float z
property uchar red
property uchar green
property uchar blue
element face 0
property list uchar int vertex_index
end_header
0.332566 1.009736 -0.093473 150 150 150
0.351402 0.925409 -0.036555 150 150 150
0.353070 0.922766 -0.158352 150 150 150
0.366691 1.139752 -0.081233 150 150 150
0.352827 0.556303 0.066236 150 150 150
0.356813 0.552925 -0.250829 150 150 150
0.337083 1.270986 -0.072787 150 150 150
0.420534 0.134714 0.118943 150 150 150
0.426039 0.136083 -0.278646 150 150 150
0.333997 1.323129 -0.075744 150 150 150
0.317235 0.067431 0.185538 150 150 150
0.306581 0.072001 -0.338079 150 150 150
0.386782 1.548947 -0.084655 150 150 150
0.347807 1.441029 0.003083 150 150 150
0.376872 1.437721 -0.158851 150 150 150
0.332684 1.635062 -0.088883 150 150 150
0.351921 1.426670 0.128886 150 150 150
0.400281 1.427635 -0.272184 150 150 150
0.308746 1.189216 0.200062 150 150 150
0.385977 1.184406 -0.361894 150 150 150
0.164706 0.974708 0.257157 150 150 150
0.276982 0.967361 -0.477227 150 150 150
0.122120 0.897327 0.269652 150 150 150
0.244113 0.887893 -0.506625 150 150 150
