ply
format ascii 1.0
comment author: Greg Turk
comment object: another cube
element vertex 24
property float x
property float y
property float z
property uchar red
property uchar green
property uchar blue
element face 0
property list uchar int vertex_index
end_header
0.057521 0.913683 0.071003 150 150 150
0.127568 0.841943 0.092452 150 150 150
0.065707 0.850656 -0.017827 150 150 150
0.041067 1.026493 0.104830 150 150 150
0.027780 0.521519 0.298098 150 150 150
-0.088667 0.495854 -0.047921 150 150 150
-0.064320 1.040596 0.181498 150 150 150
0.293890 0.198112 0.189350 150 150 150
0.207251 0.211949 -0.157896 150 150 150
-0.112163 1.042262 0.202696 150 150 150
0.320461 0.070894 0.240316 150 150 150
0.137348 0.104890 -0.232058 150 150 150
-0.315822 1.104330 0.279692 150 150 150
-0.189447 1.054425 0.321200 150 150 150
-0.237540 1.101441 0.166942 150 150 150
-0.397902 1.055246 0.263029 150 150 150
-0.137259 1.053115 0.442023 150 150 150
-0.240498 1.128615 0.054881 150 150 150
0.115251 1.027522 0.467071 150 150 150
0.005314 1.161517 -0.017153 150 150 150
0.366889 0.970411 0.404258 150 150 150
0.273776 1.176569 -0.034701 150 150 150
0.453932 0.964257 0.381654 150 150 150
0.364671 1.189406 -0.033518 150 150 150
