ply
format ascii 1.0
comment author: Greg Turk
comment object: another cube
element vertex 24
property float x
property float y
property float z
property uchar red
property uchar green
property uchar blue
element face 0
property list uchar int vertex_index
end_header
0.358196 0.972336 -0.113224 150 150 150
0.362717 0.890541 -0.050453 150 150 150
0.394550 0.883788 -0.168535 150 150 150
0.383571 1.099576 -0.096145 150 150 150
0.302764 0.526556 0.065132 150 150 150
0.345221 0.517132 -0.269790 150 150 150
0.324876 1.220673 -0.115437 150 150 150
0.418685 0.117886 0.130534 150 150 150
0.417159 0.100727 -0.271716 150 150 150
0.311247 1.270826 -0.128123 150 150 150
0.310064 0.052603 0.187851 150 150 150
0.300001 0.052673 -0.348017 150 150 150
0.309292 1.500212 -0.144721 150 150 150
0.252633 1.387792 -0.073179 150 150 150
0.364899 1.390582 -0.193999 150 150 150
0.245025 1.569711 -0.182639 150 150 150
0.173693 1.372003 0.023680 150 150 150
0.453849 1.391229 -0.271631 150 150 150
0.120488 1.123179 0.038944 150 150 150
0.580001 1.168478 -0.301918 150 150 150
0.018176 0.904427 -0.069802 150 150 150
0.659171 0.945374 -0.429770 150 150 150
-0.013660 0.827479 -0.101341 150 150 150
0.685481 0.863906 -0.459046 150 150 150
