ply
format ascii 1.0
comment author: Greg Turk
comment object: another cube
element vertex 24
property float x
property float y
property float z
property uchar red
property uchar green
property uchar blue
element face 0
property list uchar int vertex_index
end_header
0.141492 0.998211 -0.128228 150 150 150
0.103840 0.906138 -0.099184 150 150 150
0.201344 0.914497 -0.173144 150 150 150
0.155336 1.115102 -0.066186 150 150 150
-0.041191 0.545813 -0.069661 150 150 150
0.227076 0.584639 -0.368295 150 150 150
0.131725 1.259690 -0.074517 150 150 150
0.137614 0.188571 0.088843 150 150 150
0.342502 0.177478 -0.357258 150 150 150
0.136399 1.322360 -0.069168 150 150 150
0.057180 0.082152 0.130985 150 150 150
0.290276 0.102339 -0.472627 150 150 150
0.177052 1.518339 -0.019575 150 150 150
0.083606 1.436141 -0.023940 150 150 150
0.234175 1.422468 -0.048431 150 150 150
0.187060 1.593431 -0.077155 150 150 150
-0.030276 1.489378 0.006729 150 150 150
0.345272 1.462527 -0.054147 150 150 150
-0.278167 1.522634 -0.075357 150 150 150
0.583511 1.442852 -0.170140 150 150 150
-0.407163 1.665577 -0.257139 150 150 150
0.655895 1.579073 -0.389206 150 150 150
-0.458662 1.700081 -0.320197 150 150 150
0.680112 1.613057 -0.468884 150 150 150
