ply
format ascii 1.0
comment author: Greg Turk
comment object: another cube
element vertex 24
property float x
property float y
property float z
property uchar red
property uchar green
property uchar blue
element face 0
property list uchar int vertex_index
end_header
-0.408964 0.771724 0.342880 150 150 150
-0.391432 0.697318 0.412837 150 150 150
-0.400921 0.677236 0.289636 150 150 150
-0.376482 0.891840 0.338338 150 150 150
-0.445555 0.331375 0.551399 150 150 150
-0.722135 0.478525 0.333511 150 150 150
-0.454987 0.998834 0.321143 150 150 150
-0.020185 0.246086 0.547593 150 150 150
-0.702658 0.085863 0.489801 150 150 150
-0.488950 1.036008 0.305984 150 150 150
0.041460 0.132267 0.597262 150 150 150
-0.838236 0.075580 0.433735 150 150 150
-0.561123 1.241196 0.261326 150 150 150
-0.560389 1.144208 0.358859 150 150 150
-0.489557 1.140326 0.207210 150 150 150
-0.658449 1.248382 0.238657 150 150 150
-0.633942 1.129093 0.461422 150 150 150
-0.445865 1.109421 0.105011 150 150 150
-0.793783 0.917524 0.426221 150 150 150
-0.307159 0.889315 0.116785 150 150 150
-0.982782 0.799664 0.272933 150 150 150
-0.240447 0.628003 0.139116 150 150 150
-1.040829 0.752977 0.222797 150 150 150
-0.213422 0.543998 0.163561 150 150 150
