ply
format ascii 1.0
comment author: Greg Turk
comment object: another cube
element vertex 24
property float x
property float y
property float z
property uchar red
property uchar green
property uchar blue
element face 0
property list uchar int vertex_index
end_header
0.218163 0.986529 -0.173687 150 150 150
0.224859 0.902065 -0.113089 150 150 150
0.256830 0.900036 -0.232547 150 150 150
0.243702 1.117838 -0.155572 150 150 150
0.134997 0.565633 0.049606 150 150 150
0.296921 0.533197 -0.329407 150 150 150
0.199217 1.247904 -0.154451 150 150 150
0.210521 0.161456 0.174629 150 150 150
0.461229 0.142605 -0.325250 150 150 150
0.194443 1.303862 -0.156167 150 150 150
0.114291 0.101558 0.253912 150 150 150
0.371701 0.076081 -0.420535 150 150 150
0.212508 1.529358 -0.153783 150 150 150
0.178222 1.417068 -0.075506 150 150 150
0.236468 1.425920 -0.225602 150 150 150
0.139839 1.593996 -0.168222 150 150 150
0.176057 1.409224 0.052078 150 150 150
0.293657 1.445663 -0.326930 150 150 150
0.158759 1.175523 0.134073 150 150 150
0.340948 1.241531 -0.476673 150 150 150
-0.084348 1.096077 0.124130 150 150 150
0.171320 1.217343 -0.674058 150 150 150
-0.161489 1.056036 0.105363 150 150 150
0.104829 1.200290 -0.732767 150 150 150
