ply
format ascii 1.0
comment author: Greg Turk
comment object: another cube
element vertex 24
property float x
property float y
property float z
property uchar red
property uchar green
property uchar blue
element face 0
property list uchar int vertex_index
end_header
0.228323 0.831586 -0.138241 150 150 150
0.265030 0.749918 -0.085122 150 150 150
0.241981 0.753055 -0.212246 150 150 150
0.244245 0.950428 -0.130954 150 150 150
0.024305 0.480734 0.063495 150 150 150
0.079768 0.433683 -0.376768 150 150 150
0.147441 1.038363 -0.093348 150 150 150
0.185647 0.084262 0.094242 150 150 150
0.361227 0.119476 -0.362049 150 150 150
0.109845 1.078302 -0.079958 150 150 150
0.059508 0.050985 0.140655 150 150 150
0.290328 0.062999 -0.476222 150 150 150
0.005119 1.272049 -0.083107 150 150 150
0.097001 1.194513 -0.010359 150 150 150
0.014984 1.167179 -0.149893 150 150 150
-0.076388 1.313770 -0.039209 150 150 150
0.183275 1.234422 0.080723 150 150 150
-0.074047 1.138666 -0.218343 150 150 150
0.393410 1.106397 0.139041 150 150 150
-0.180151 0.895069 -0.273403 150 150 150
0.557728 0.981072 0.304670 150 150 150
-0.341110 0.721771 -0.143921 150 150 150
0.613185 0.927930 0.348937 150 150 150
-0.385095 0.663188 -0.089531 150 150 150
