ply
format ascii 1.0
comment author: Greg Turk
comment object: another cube
element vertex 24
property float x
property float y
property float z
property uchar red
property uchar green
property uchar blue
element face 0
property list uchar int vertex_index
end_header
0.377388 0.829584 -0.086372 150 150 150
0.393521 0.744325 -0.028982 150 150 150
0.398172 0.747759 -0.157405 150 150 150
0.402581 0.946749 -0.069920 150 150 150
0.142267 0.456302 0.060747 150 150 150
0.177240 0.446456 -0.269066 150 150 150
0.314751 1.052514 -0.067101 150 150 150
0.409066 0.123549 0.117426 150 150 150
0.431858 0.109078 -0.274121 150 150 150
0.285213 1.101102 -0.075072 150 150 150
0.309644 0.050876 0.179057 150 150 150
0.311585 0.059264 -0.340056 150 150 150
0.231232 1.306008 -0.136428 150 150 150
0.247055 1.224564 -0.023142 150 150 150
0.270780 1.195941 -0.182391 150 150 150
0.146547 1.358866 -0.121312 150 150 150
0.245071 1.271851 0.099029 150 150 150
0.279869 1.183846 -0.301424 150 150 150
0.299742 1.128663 0.302548 150 150 150
0.328652 0.950694 -0.413752 150 150 150
0.239153 0.948973 0.483106 150 150 150
0.150701 0.803325 -0.546094 150 150 150
0.235978 0.877883 0.535872 150 150 150
0.080479 0.758973 -0.581945 150 150 150
