ply
format ascii 1.0
comment author: Greg Turk
comment object: another cube
element vertex 24
property float x
property float y
property float z
property uchar red
property uchar green
property uchar blue
element face 0
property list uchar int vertex_index
end_header
0.220848 0.892595 -0.148491 150 150 150
0.224143 0.805025 -0.093060 150 150 150
0.265398 0.812940 -0.211818 150 150 150
0.240071 1.015873 -0.120041 150 150 150
0.051895 0.495150 0.070569 150 150 150
0.254523 0.456849 -0.357959 150 150 150
0.180346 1.134376 -0.116482 150 150 150
0.191256 0.111992 0.209025 150 150 150
0.471741 0.097531 -0.321109 150 150 150
0.167976 1.185338 -0.118019 150 150 150
0.091236 0.063303 0.290490 150 150 150
0.376131 0.061012 -0.423544 150 150 150
0.156274 1.414781 -0.110901 150 150 150
0.131006 1.292657 -0.035220 150 150 150
0.200537 1.312832 -0.182697 150 150 150
0.074629 1.469538 -0.132390 150 150 150
0.128593 1.270010 0.090620 150 150 150
0.264880 1.329951 -0.279507 150 150 150
0.166207 1.030108 0.159766 150 150 150
0.367393 1.123342 -0.400328 150 150 150
0.017185 0.823851 0.215186 150 150 150
0.310155 0.998389 -0.628063 150 150 150
-0.032130 0.750415 0.223982 150 150 150
0.281972 0.956145 -0.703151 150 150 150
