ply
format ascii 1.0
comment author: Greg Turk
comment object: another cube
element vertex 24
property float x
property float y
property float z
property uchar red
property uchar green
property uchar blue
element face 0
property list uchar int vertex_index
end_header
-0.267116 0.918103 0.296318 150 150 150
-0.271612 0.841726 0.365293 150 150 150
-0.261564 0.821841 0.244965 150 150 150
-0.213834 1.035048 0.297677 150 150 150
-0.406949 0.479603 0.385792 150 150 150
-0.511815 0.536264 0.248284 150 150 150
-0.252915 1.160289 0.274966 150 150 150
-0.137091 0.146221 0.349999 150 150 150
-0.583356 0.143053 0.386440 150 150 150
-0.265151 1.207584 0.255933 150 150 150
-0.230789 0.051173 0.390108 150 150 150
-0.710671 0.130906 0.313297 150 150 150
-0.254825 1.423204 0.188490 150 150 150
-0.297812 1.339523 0.294334 150 150 150
-0.217318 1.298458 0.155018 150 150 150
-0.332891 1.467780 0.142036 150 150 150
-0.349922 1.375923 0.406263 150 150 150
-0.157215 1.260417 0.063724 150 150 150
-0.500747 1.206123 0.533848 150 150 150
-0.073112 1.017530 0.094620 150 150 150
-0.733408 1.085142 0.495173 150 150 150
-0.133205 0.757171 0.096801 150 150 150
-0.800248 1.027081 0.482982 150 150 150
-0.156294 0.671124 0.115032 150 150 150
