ply
format ascii 1.0
comment author: Greg Turk
comment object: another cube
element vertex 24
property float x
property float y
property float z
property uchar red
property uchar green
property uchar blue
element face 0
property list uchar int vertex_index
end_header
-0.406617 0.842382 0.359373 150 150 150
-0.404740 0.770143 0.433195 150 150 150
-0.409939 0.744426 0.311890 150 150 150
-0.355062 0.956224 0.348114 150 150 150
-0.622017 0.450942 0.498999 150 150 150
-0.698366 0.496608 0.345556 150 150 150
-0.403821 1.075796 0.314519 150 150 150
-0.243697 0.254141 0.438627 150 150 150
-0.701601 0.099008 0.488846 150 150 150
-0.422741 1.118395 0.292824 150 150 150
-0.240652 0.115988 0.452685 150 150 150
-0.833898 0.084605 0.425610 150 150 150
-0.431584 1.330915 0.216802 150 150 150
-0.464293 1.246647 0.327956 150 150 150
-0.389146 1.206866 0.182002 150 150 150
-0.518619 1.366548 0.178415 150 150 150
-0.532748 1.248185 0.431317 150 150 150
-0.333189 1.161343 0.089560 150 150 150
-0.641577 1.007346 0.443699 150 150 150
-0.214172 0.937745 0.139345 150 150 150
-0.771563 0.840068 0.283039 150 150 150
-0.217647 0.672367 0.174709 150 150 150
-0.798187 0.771844 0.231717 150 150 150
-0.217025 0.587573 0.207655 150 150 150
