ply
format ascii 1.0
comment author: Greg Turk
comment object: another cube
element vertex 24
property float x
property float y
property float z
property uchar red
property uchar green
property uchar blue
element face 0
property list uchar int vertex_index
end_header
-0.048427 1.056048 0.113722 150 150 150
-0.043213 0.966856 0.167432 150 150 150
-0.027345 0.970461 0.044768 150 150 150
-0.009588 1.179627 0.139042 150 150 150
-0.119722 0.602222 0.278129 150 150 150
-0.096849 0.632036 -0.125719 150 150 150
-0.057178 1.313305 0.139894 150 150 150
-0.081605 0.176241 0.318183 150 150 150
0.154705 0.291955 -0.097938 150 150 150
-0.061803 1.372472 0.132971 150 150 150
-0.184796 0.106048 0.381235 150 150 150
0.094335 0.204757 -0.201289 150 150 150
-0.050726 1.582621 0.100276 150 150 150
-0.082033 1.494499 0.191342 150 150 150
-0.016437 1.478114 0.049657 150 150 150
-0.125955 1.628530 0.063810 150 150 150
-0.100454 1.546285 0.312193 150 150 150
0.046199 1.504429 -0.050751 150 150 150
-0.215957 1.497863 0.537925 150 150 150
0.153049 1.387840 -0.261694 150 150 150
-0.447154 1.565993 0.645393 150 150 150
0.117357 1.426708 -0.524020 150 150 150
-0.526795 1.576530 0.682942 150 150 150
0.096032 1.431357 -0.611777 150 150 150
