ply
format ascii 1.0
comment author: Greg Turk
comment object: another cube
element vertex 24
property float x
property float y
property float z
property uchar red
property uchar green
property uchar blue
element face 0
property list uchar int vertex_index
end_header
-0.141393 0.803153 -0.306887 150 150 150
-0.137799 0.729670 -0.232669 150 150 150
-0.123251 0.709080 -0.360572 150 150 150
-0.111485 0.916956 -0.309981 150 150 150
-0.437111 0.510084 -0.098993 150 150 150
-0.443335 0.548496 -0.517848 150 150 150
-0.208527 1.008912 -0.346360 150 150 150
-0.236288 0.140566 -0.001020 150 150 150
-0.327984 0.137781 -0.524090 150 150 150
-0.244557 1.048897 -0.366668 150 150 150
-0.322743 0.067432 0.077819 150 150 150
-0.443943 0.075665 -0.586297 150 150 150
-0.323126 1.228528 -0.465492 150 150 150
-0.290556 1.175335 -0.341425 150 150 150
-0.275364 1.115549 -0.492645 150 150 150
-0.417295 1.244073 -0.446444 150 150 150
-0.277255 1.231812 -0.226434 150 150 150
-0.277027 1.078285 -0.607057 150 150 150
-0.200115 1.080393 -0.040771 150 150 150
-0.277100 0.818860 -0.675455 150 150 150
-0.261386 0.890126 0.129127 150 150 150
-0.447020 0.619572 -0.738463 150 150 150
-0.272935 0.817792 0.179697 150 150 150
-0.506549 0.550652 -0.746137 150 150 150
