ply
format ascii 1.0
comment author: Greg Turk
comment object: another cube
element vertex 24
property float x
property float y
property float z
property uchar red
property uchar green
property uchar blue
element face 0
property list uchar int vertex_index
end_header
-0.152121 0.807310 -0.323411 150 150 150
-0.145655 0.732647 -0.250883 150 150 150
-0.132746 0.715082 -0.379181 150 150 150
-0.124780 0.921966 -0.324540 150 150 150
-0.431768 0.496946 -0.116274 150 150 150
-0.454313 0.548158 -0.525115 150 150 150
-0.219040 1.017476 -0.353886 150 150 150
-0.232378 0.129002 -0.009407 150 150 150
-0.330112 0.140441 -0.524965 150 150 150
-0.253678 1.058301 -0.370561 150 150 150
-0.321308 0.062964 0.072780 150 150 150
-0.444658 0.075347 -0.586642 150 150 150
-0.327390 1.250227 -0.454915 150 150 150
-0.293752 1.184427 -0.334420 150 150 150
-0.285538 1.135499 -0.491171 150 150 150
-0.420724 1.271858 -0.432545 150 150 150
-0.270861 1.224169 -0.215119 150 150 150
-0.290482 1.102364 -0.606378 150 150 150
-0.179938 1.039670 -0.070961 150 150 150
-0.294922 0.844622 -0.680743 150 150 150
-0.219853 0.810786 0.050999 150 150 150
-0.452317 0.637055 -0.750323 150 150 150
-0.223259 0.727116 0.081649 150 150 150
-0.506662 0.564138 -0.760610 150 150 150
