ply
format ascii 1.0
comment author: Greg Turk
comment object: another cube
element vertex 24
property float x
property float y
property float z
property uchar red
property uchar green
property uchar blue
element face 0
property list uchar int vertex_index
end_header
0.153161 1.260563 -0.010568 150 150 150
0.103869 1.168025 -0.020739 150 150 150
0.197574 1.184448 0.058596 150 150 150
0.115757 1.386099 -0.017994 150 150 150
0.111806 0.797138 -0.137616 150 150 150
0.423003 0.872755 0.058331 150 150 150
0.168169 1.501293 -0.090408 150 150 150
-0.061623 0.444095 0.041504 150 150 150
0.287268 0.647003 0.393970 150 150 150
0.182034 1.555067 -0.114841 150 150 150
-0.072075 0.309516 0.017692 150 150 150
0.378106 0.534368 0.416191 150 150 150
0.199428 1.744905 -0.200055 150 150 150
0.154170 1.621836 -0.225860 150 150 150
0.217339 1.693011 -0.095415 150 150 150
0.257713 1.732371 -0.271382 150 150 150
0.115883 1.560980 -0.332301 150 150 150
0.230228 1.787893 -0.015425 150 150 150
0.141487 1.301744 -0.336463 150 150 150
0.206173 1.795911 0.238482 150 150 150
0.357971 1.156926 -0.341465 150 150 150
0.450925 1.884066 0.262842 150 150 150
0.428069 1.106435 -0.320979 150 150 150
0.541129 1.886103 0.259720 150 150 150
