ply
format ascii 1.0
comment author: Greg Turk
comment object: another cube
element vertex 24
property float x
property float y
property float z
property uchar red
property uchar green
property uchar blue
element face 0
property list uchar int vertex_index
end_header
0.067676 0.983091 -0.138399 150 150 150
0.103719 0.897392 -0.089787 150 150 150
0.069861 0.899833 -0.210440 150 150 150
0.099662 1.109791 -0.134250 150 150 150
0.070220 0.539054 0.048113 150 150 150
-0.028951 0.555493 -0.357808 150 150 150
0.043720 1.230232 -0.100353 150 150 150
0.138286 0.119138 0.108148 150 150 150
0.173521 0.186854 -0.398152 150 150 150
0.024841 1.282479 -0.092254 150 150 150
0.021256 0.072680 0.169260 150 150 150
0.077176 0.119196 -0.486335 150 150 150
-0.021598 1.500093 -0.095360 150 150 150
0.044087 1.401714 -0.024053 150 150 150
-0.035468 1.394333 -0.164932 150 150 150
-0.089456 1.549979 -0.042394 150 150 150
0.137270 1.434243 0.062143 150 150 150
-0.114123 1.393057 -0.250337 150 150 150
0.317429 1.281891 0.151037 150 150 150
-0.221966 1.170531 -0.351799 150 150 150
0.405005 1.136095 0.351547 150 150 150
-0.414511 0.992379 -0.298423 150 150 150
0.429273 1.075537 0.411755 150 150 150
-0.472745 0.929924 -0.266741 150 150 150
