ply
format ascii 1.0
comment author: Greg Turk
comment object: another cube
element vertex 24
property float x
property float y
property float z
property uchar red
property uchar green
property uchar blue
element face 0
property list uchar int vertex_index
end_header
0.097192 0.967211 -0.140298 150 150 150
0.134581 0.881970 -0.092123 150 150 150
0.099925 0.884848 -0.213001 150 150 150
0.126822 1.093155 -0.135836 150 150 150
0.075232 0.527153 0.048645 150 150 150
-0.003025 0.541942 -0.364752 150 150 150
0.065603 1.209524 -0.097031 150 150 150
0.158353 0.108883 0.097432 150 150 150
0.253162 0.206798 -0.388509 150 150 150
0.043931 1.260440 -0.086174 150 150 150
0.037818 0.066463 0.153797 150 150 150
0.174841 0.124113 -0.481564 150 150 150
-0.014589 1.474360 -0.082373 150 150 150
0.059832 1.378701 -0.016191 150 150 150
-0.026387 1.370053 -0.153082 150 150 150
-0.083122 1.521982 -0.027711 150 150 150
0.154760 1.415177 0.066922 150 150 150
-0.111766 1.366632 -0.231258 150 150 150
0.349752 1.274760 0.143820 150 150 150
-0.223463 1.143416 -0.328096 150 150 150
0.465485 1.137794 0.336579 150 150 150
-0.406611 0.962907 -0.253616 150 150 150
0.499973 1.079737 0.394141 150 150 150
-0.460114 0.900021 -0.215177 150 150 150
