ply
format ascii 1.0
comment author: Greg Turk
comment object: another cube
element vertex 24
property float x
property float y
property float z
property uchar red
property uchar green
property uchar blue
element face 0
property list uchar int vertex_index
end_header
-0.011250 0.962673 -0.144150 150 150 150
0.020009 0.876111 -0.094715 150 150 150
-0.013299 0.878007 -0.215037 150 150 150
0.027185 1.087629 -0.140916 150 150 150
-0.009899 0.524525 0.062503 150 150 150
-0.135048 0.534283 -0.340742 150 150 150
-0.016268 1.212754 -0.114306 150 150 150
0.097950 0.114865 0.139484 150 150 150
-0.024993 0.130976 -0.403482 150 150 150
-0.029255 1.265231 -0.111410 150 150 150
-0.001021 0.061430 0.221954 150 150 150
-0.150867 0.085065 -0.462634 150 150 150
-0.046791 1.490002 -0.128624 150 150 150
-0.002519 1.385211 -0.045289 150 150 150
-0.065103 1.380091 -0.195697 150 150 150
-0.115155 1.547894 -0.084613 150 150 150
0.085223 1.398544 0.049511 150 150 150
-0.122326 1.379623 -0.297452 150 150 150
0.221342 1.207089 0.141299 150 150 150
-0.221844 1.162047 -0.415016 150 150 150
0.233356 1.023050 0.327128 150 150 150
-0.445961 1.015998 -0.429563 150 150 150
0.230884 0.953256 0.382183 150 150 150
-0.522441 0.967056 -0.422630 150 150 150
