ply
format ascii 1.0
comment author: Greg Turk
comment object: another cube
element vertex 24
property float x
property float y
property float z
property uchar red
property uchar green
property uchar blue
element face 0
property list uchar int vertex_index
end_header
0.231008 1.029811 -0.178536 150 150 150
0.243564 0.942059 -0.123489 150 150 150
0.260223 0.945047 -0.246317 150 150 150
0.259004 1.158131 -0.156150 150 150 150
0.177076 0.598638 0.040215 150 150 150
0.229142 0.588341 -0.380030 150 150 150
0.200910 1.285278 -0.154093 150 150 150
0.315567 0.202731 0.133932 150 150 150
0.338586 0.180845 -0.419776 150 150 150
0.190004 1.342274 -0.159476 150 150 150
0.248973 0.123314 0.225835 150 150 150
0.226685 0.115726 -0.489314 150 150 150
0.172029 1.560373 -0.183933 150 150 150
0.157930 1.459842 -0.093005 150 150 150
0.214244 1.457529 -0.241478 150 150 150
0.090457 1.607737 -0.202379 150 150 150
0.152250 1.486662 0.034321 150 150 150
0.275904 1.487458 -0.340442 150 150 150
0.158578 1.311761 0.213450 150 150 150
0.426200 1.322072 -0.469801 150 150 150
-0.056100 1.187738 0.283989 150 150 150
0.380241 1.233554 -0.712602 150 150 150
-0.123523 1.131894 0.298874 150 150 150
0.358335 1.192717 -0.789923 150 150 150
