ply
format ascii 1.0
comment author: Greg Turk
comment object: another cube
element vertex 24
property float x
property float y
property float z
property uchar red
property uchar green
property uchar blue
element face 0
property list uchar int vertex_index
end_header
0.323401 0.854703 -0.197879 150 150 150
0.344089 0.768331 -0.144148 150 150 150
0.350662 0.777277 -0.272092 150 150 150
0.338357 0.970502 -0.173979 150 150 150
0.153415 0.483783 0.051063 150 150 150
0.129033 0.491041 -0.412308 150 150 150
0.237398 1.059587 -0.172890 150 150 150
0.340769 0.103847 0.130691 150 150 150
0.276774 0.099400 -0.471028 150 150 150
0.203588 1.101788 -0.180420 150 150 150
0.269765 0.054020 0.237892 150 150 150
0.143495 0.065757 -0.518238 150 150 150
0.120969 1.308850 -0.215279 150 150 150
0.135473 1.206179 -0.115750 150 150 150
0.190911 1.213341 -0.271057 150 150 150
0.029397 1.350817 -0.222613 150 150 150
0.126478 1.215695 0.013558 150 150 150
0.247432 1.225164 -0.375355 150 150 150
0.231588 1.036925 0.159216 150 150 150
0.440869 1.059097 -0.425365 150 150 150
0.216970 0.797075 0.263304 150 150 150
0.500097 0.850972 -0.581195 150 150 150
0.215411 0.712300 0.290736 150 150 150
0.511204 0.779197 -0.635514 150 150 150
