ply
format ascii 1.0
comment author: Greg Turk
comment object: another cube
element vertex 24
property float x
property float y
property float z
property uchar red
property uchar green
property uchar blue
element face 0
property list uchar int vertex_index
end_header
0.169526 0.876101 -0.103230 150 150 150
0.254374 0.822908 -0.120122 150 150 150
0.147457 0.819579 -0.191553 150 150 150
0.150714 0.977109 -0.053744 150 150 150
0.201192 0.601656 0.198486 150 150 150
0.077241 0.445044 -0.125617 150 150 150
0.081616 0.951068 0.060426 150 150 150
0.309906 0.184359 0.147709 150 150 150
0.279146 0.114410 -0.293253 150 150 150
0.047916 0.939118 0.103714 150 150 150
0.317744 0.065904 0.221855 150 150 150
0.146940 0.057192 -0.267446 150 150 150
-0.086603 0.988006 0.265398 150 150 150
0.039363 0.942278 0.239133 150 150 150
-0.083265 0.987848 0.136702 150 150 150
-0.163905 0.941367 0.307506 150 150 150
0.132739 0.895144 0.321225 150 150 150
-0.179435 1.003467 0.063957 150 150 150
0.312744 0.721950 0.239920 150 150 150
-0.192816 1.034615 -0.194748 150 150 150
0.390515 0.516273 0.087021 150 150 150
-0.188403 1.055332 -0.464757 150 150 150
0.426221 0.461315 0.024430 150 150 150
-0.182064 1.073253 -0.553930 150 150 150
