ply
format ascii 1.0
comment author: Greg Turk
comment object: another cube
element vertex 24
property float x
property float y
property float z
property uchar red
property uchar green
property uchar blue
element face 0
property list uchar int vertex_index
end_header
0.425786 0.894537 -0.096693 150 150 150
0.430769 0.812600 -0.034366 150 150 150
0.470072 0.811129 -0.154337 150 150 150
0.437198 1.014144 -0.076307 150 150 150
0.227728 0.491838 0.069126 150 150 150
0.315410 0.480864 -0.277259 150 150 150
0.346801 1.110601 -0.114335 150 150 150
0.413220 0.107216 0.120099 150 150 150
0.433387 0.076161 -0.278248 150 150 150
0.319435 1.154644 -0.137282 150 150 150
0.309424 0.051279 0.191186 150 150 150
0.304152 0.062688 -0.346674 150 150 150
0.270025 1.361250 -0.190691 150 150 150
0.229718 1.257202 -0.109546 150 150 150
0.355571 1.268633 -0.213940 150 150 150
0.185906 1.401115 -0.230110 150 150 150
0.119801 1.253566 -0.040762 150 150 150
0.455510 1.290511 -0.278211 150 150 150
-0.017860 1.029305 -0.050391 150 150 150
0.661630 1.141904 -0.233275 150 150 150
-0.109324 0.888703 -0.255780 150 150 150
0.863265 0.978755 -0.300085 150 150 150
-0.127033 0.834842 -0.325130 150 150 150
0.927984 0.918549 -0.319088 150 150 150
