ply
format ascii 1.0
comment author: Greg Turk
comment object: another cube
element vertex 24
property float x
property float y
property float z
property uchar red
property uchar green
property uchar blue
element face 0
property list uchar int vertex_index
end_header
0.335292 1.008318 -0.102363 150 150 150
0.351015 0.924640 -0.043514 150 150 150
0.358742 0.920334 -0.165127 150 150 150
0.368433 1.137910 -0.089396 150 150 150
0.349155 0.556835 0.065079 150 150 150
0.346205 0.550210 -0.259174 150 150 150
0.333129 1.269122 -0.086529 150 150 150
0.420741 0.136454 0.120049 150 150 150
0.421015 0.134043 -0.278454 150 150 150
0.328597 1.321920 -0.090746 150 150 150
0.317055 0.069497 0.185995 150 150 150
0.302503 0.069764 -0.339754 150 150 150
0.370056 1.549523 -0.097970 150 150 150
0.325237 1.441546 -0.013473 150 150 150
0.376071 1.437574 -0.169566 150 150 150
0.312544 1.632245 -0.110361 150 150 150
0.309361 1.430066 0.111526 150 150 150
0.416360 1.429785 -0.278322 150 150 150
0.270121 1.189484 0.174972 150 150 150
0.417124 1.186162 -0.366408 150 150 150
0.141228 0.960183 0.204549 150 150 150
0.311116 0.976530 -0.497034 150 150 150
0.106897 0.878383 0.211674 150 150 150
0.279376 0.899029 -0.531837 150 150 150
