ply
format ascii 1.0
comment author: Greg Turk
comment object: another cube
element vertex 24
property float x
property float y
property float z
property uchar red
property uchar green
property uchar blue
element face 0
property list uchar int vertex_index
end_header
0.049284 1.180496 -0.124740 150 150 150
0.101297 1.120831 -0.188825 150 150 150
-0.006562 1.087516 -0.135502 150 150 150
0.031501 1.299795 -0.114835 150 150 150
0.364674 0.925860 0.024032 150 150 150
0.068232 0.716059 -0.039489 150 150 150
0.099789 1.356811 -0.007016 150 150 150
0.458188 0.549108 -0.166087 150 150 150
0.151743 0.342363 -0.225955 150 150 150
0.125648 1.374866 0.044689 150 150 150
0.554056 0.456045 -0.124329 150 150 150
0.142677 0.217968 -0.144801 150 150 150
0.132145 1.490610 0.219516 150 150 150
0.193502 1.473757 0.109011 150 150 150
0.065053 1.402413 0.168921 150 150 150
0.155389 1.480767 0.314835 150 150 150
0.304910 1.543592 0.087223 150 150 150
0.010953 1.324186 0.234646 150 150 150
0.556528 1.493765 0.028715 150 150 150
-0.007443 1.053137 0.223091 150 150 150
0.771679 1.363245 0.127780 150 150 150
0.035728 0.784328 0.237517 150 150 150
0.845063 1.316887 0.151779 150 150 150
0.042457 0.692963 0.235128 150 150 150
