ply
format ascii 1.0
comment author: Greg Turk
comment object: another cube
element vertex 24
property float x
property float y
property float z
property uchar red
property uchar green
property uchar blue
element face 0
property list uchar int vertex_index
end_header
-0.124602 1.041375 -0.214970 150 150 150
-0.094586 0.957674 -0.160443 150 150 150
-0.129176 0.950788 -0.278883 150 150 150
-0.085226 1.167629 -0.220267 150 150 150
-0.120754 0.619326 0.024148 150 150 150
-0.260010 0.605097 -0.387742 150 150 150
-0.127512 1.296878 -0.206301 150 150 150
0.014187 0.221070 0.121328 150 150 150
-0.112499 0.209441 -0.427492 150 150 150
-0.139133 1.350386 -0.209050 150 150 150
-0.043615 0.126785 0.205413 150 150 150
-0.205257 0.107074 -0.477021 150 150 150
-0.161568 1.571806 -0.236179 150 150 150
-0.117005 1.473472 -0.147793 150 150 150
-0.172637 1.459558 -0.300206 150 150 150
-0.233553 1.617626 -0.189088 150 150 150
-0.036449 1.491165 -0.048568 150 150 150
-0.211508 1.458646 -0.412653 150 150 150
0.092797 1.299632 0.050721 150 150 150
-0.234885 1.238243 -0.555527 150 150 150
0.061320 1.090494 0.203696 150 150 150
-0.412700 1.050486 -0.618499 150 150 150
0.042138 1.013149 0.243859 150 150 150
-0.473856 0.982991 -0.624131 150 150 150
