ply
format ascii 1.0
comment author: Greg Turk
comment object: another cube
element vertex 24
property float x
property float y
property float z
property uchar red
property uchar green
property uchar blue
element face 0
property list uchar int vertex_index
end_header
0.067640 1.142444 -0.141370 150 150 150
0.127756 1.086123 -0.201007 150 150 150
0.012196 1.053496 -0.170200 150 150 150
0.052572 1.261230 -0.122276 150 150 150
0.337039 0.873621 0.049896 150 150 150
0.055932 0.673360 -0.100038 150 150 150
0.101910 1.295913 0.004095 150 150 150
0.470261 0.465649 0.001463 150 150 150
0.173835 0.291520 -0.248274 150 150 150
0.118314 1.302533 0.061822 150 150 150
0.538603 0.365973 0.072675 150 150 150
0.135124 0.169723 -0.171703 150 150 150
0.101739 1.388557 0.251755 150 150 150
0.182161 1.380555 0.152059 150 150 150
0.037168 1.317608 0.176057 150 150 150
0.107939 1.359646 0.345632 150 150 150
0.306867 1.428388 0.158757 150 150 150
-0.039792 1.238529 0.215235 150 150 150
0.544177 1.320161 0.116861 150 150 150
-0.119121 0.994039 0.131928 150 150 150
0.702332 1.115915 0.197217 150 150 150
-0.153596 0.731718 0.067671 150 150 150
0.755186 1.045754 0.217931 150 150 150
-0.169486 0.646577 0.038016 150 150 150
