ply
format ascii 1.0
comment author: Greg Turk
comment object: another cube
element vertex 24
property float x
property float y
property float z
property uchar red
property uchar green
property uchar blue
element face 0
property list uchar int vertex_index
end_header
-0.330976 0.903385 0.327780 150 150 150
-0.335917 0.829888 0.399955 150 150 150
-0.332930 0.804543 0.281312 150 150 150
-0.272313 1.018937 0.320446 150 150 150
-0.503603 0.481915 0.423270 150 150 150
-0.579616 0.518390 0.315354 150 150 150
-0.309259 1.143320 0.287836 150 150 150
-0.188122 0.191894 0.374705 150 150 150
-0.673553 0.129158 0.454007 150 150 150
-0.321807 1.188855 0.265739 150 150 150
-0.237906 0.063336 0.395981 150 150 150
-0.808267 0.120109 0.394022 150 150 150
-0.316541 1.401632 0.188904 150 150 150
-0.356628 1.321109 0.299069 150 150 150
-0.277621 1.275602 0.158590 150 150 150
-0.396792 1.446541 0.147076 150 150 150
-0.414659 1.346760 0.408833 150 150 150
-0.211489 1.232377 0.071860 150 150 150
-0.547919 1.143197 0.505188 150 150 150
-0.091610 1.014274 0.137169 150 150 150
-0.739886 0.977559 0.427395 150 150 150
-0.108450 0.752363 0.185685 150 150 150
-0.789466 0.907741 0.401763 150 150 150
-0.116252 0.669557 0.222103 150 150 150
