ply
format ascii 1.0
comment author: Greg Turk
comment object: another cube
element vertex 24
property float x
property float y
property float z
property uchar red
property uchar green
property uchar blue
element face 0
property list uchar int vertex_index
end_header
0.406385 0.923256 -0.104462 150 150 150
0.412926 0.841762 -0.041866 150 150 150
0.449028 0.838495 -0.161470 150 150 150
0.420347 1.045658 -0.085502 150 150 150
0.251198 0.503548 0.070160 150 150 150
0.329910 0.491474 -0.272919 150 150 150
0.339314 1.151690 -0.117274 150 150 150
0.413666 0.108988 0.120906 150 150 150
0.430499 0.081931 -0.278636 150 150 150
0.316389 1.198203 -0.137396 150 150 150
0.310262 0.052580 0.192439 150 150 150
0.301683 0.063232 -0.346660 150 150 150
0.282775 1.412831 -0.181434 150 150 150
0.236595 1.306693 -0.102208 150 150 150
0.359020 1.313118 -0.211947 150 150 150
0.202522 1.460593 -0.220538 150 150 150
0.132561 1.300536 -0.026969 150 150 150
0.457417 1.328467 -0.279537 150 150 150
0.016445 1.065929 -0.029000 150 150 150
0.648590 1.157780 -0.248891 150 150 150
-0.062719 0.903571 -0.221744 150 150 150
0.836100 0.982671 -0.325488 150 150 150
-0.074968 0.842586 -0.286227 150 150 150
0.896002 0.918764 -0.347786 150 150 150
