ply
format ascii 1.0
comment author: Greg Turk
comment object: another cube
element vertex 24
property float x
property float y
property float z
property uchar red
property uchar green
property uchar blue
element face 0
property list uchar int vertex_index
end_header
-0.192952 1.036929 -0.284258 150 150 150
-0.170166 0.955354 -0.223372 150 150 150
-0.194039 0.943623 -0.343946 150 150 150
-0.150758 1.161950 -0.292387 150 150 150
-0.251088 0.624138 -0.043337 150 150 150
-0.325219 0.602661 -0.463898 150 150 150
-0.203049 1.288100 -0.295748 150 150 150
-0.195179 0.200608 0.012261 150 150 150
-0.303673 0.184137 -0.530151 150 150 150
-0.220484 1.339152 -0.305454 150 150 150
-0.279350 0.119981 0.088635 150 150 150
-0.423273 0.114202 -0.578576 150 150 150
-0.262527 1.552085 -0.358284 150 150 150
-0.221686 1.466992 -0.253538 150 150 150
-0.252655 1.434767 -0.411529 150 150 150
-0.346218 1.583605 -0.321850 150 150 150
-0.165359 1.490578 -0.140669 150 150 150
-0.274306 1.418293 -0.527955 150 150 150
-0.043011 1.296570 -0.037907 150 150 150
-0.251329 1.184593 -0.649866 150 150 150
-0.084381 1.053031 0.043516 150 150 150
-0.392269 0.971476 -0.724511 150 150 150
-0.098263 0.964832 0.049549 150 150 150
-0.440945 0.894448 -0.731467 150 150 150
