ply
format ascii 1.0
comment author: Greg Turk
comment object: another cube
element vertex 24
property float x
property float y
property float z
property uchar red
property uchar green
property uchar blue
element face 0
property list uchar int vertex_index
end_header
0.332231 1.009812 -0.094624 150 150 150
0.350939 0.925553 -0.037560 150 150 150
0.352779 0.922722 -0.159353 150 150 150
0.366350 1.139782 -0.082454 150 150 150
0.352404 0.556571 0.065794 150 150 150
0.354467 0.552734 -0.251794 150 150 150
0.336324 1.271086 -0.074355 150 150 150
0.420569 0.135109 0.118755 150 150 150
0.425084 0.136078 -0.278765 150 150 150
0.333158 1.323319 -0.077376 150 150 150
0.317378 0.067943 0.185608 150 150 150
0.305747 0.071756 -0.338202 150 150 150
0.385286 1.549245 -0.086166 150 150 150
0.345884 1.441371 0.001426 150 150 150
0.376358 1.437988 -0.160210 150 150 150
0.331107 1.635263 -0.090886 150 150 150
0.348692 1.427345 0.127330 150 150 150
0.400888 1.428123 -0.273340 150 150 150
0.306768 1.189622 0.198483 150 150 150
0.386200 1.184934 -0.362958 150 150 150
0.165922 0.972566 0.254031 150 150 150
0.274825 0.969293 -0.478645 150 150 150
0.124914 0.894364 0.266455 150 150 150
0.241251 0.890230 -0.508260 150 150 150
