ply
format ascii 1.0
comment author: Greg Turk
comment object: another cube
element vertex 24
property float x
property float y
property float z
property uchar red
property uchar green
property uchar blue
element face 0
property list uchar int vertex_index
end_header
0.108392 0.980862 -0.033460 150 150 150
0.121561 0.893546 0.021226 150 150 150
0.146655 0.899713 -0.099788 150 150 150
0.128004 1.108637 -0.009680 150 150 150
0.005845 0.549942 0.164818 150 150 150
0.189382 0.550011 -0.253388 150 150 150
0.067292 1.230476 -0.002080 150 150 150
0.163400 0.154101 0.224871 150 150 150
0.405412 0.189543 -0.307063 150 150 150
0.056955 1.284396 -0.005591 150 150 150
0.079902 0.074532 0.302888 150 150 150
0.341683 0.105174 -0.409367 150 150 150
0.038799 1.506817 -0.017612 150 150 150
0.022636 1.398368 0.067746 150 150 150
0.085509 1.404092 -0.079674 150 150 150
-0.040495 1.556508 -0.046453 150 150 150
0.023829 1.409900 0.199600 150 150 150
0.159624 1.429706 -0.172538 150 150 150
0.050603 1.249560 0.395911 150 150 150
0.328147 1.277048 -0.300798 150 150 150
-0.084142 1.128611 0.586542 150 150 150
0.382172 1.196040 -0.550121 150 150 150
-0.134454 1.087869 0.647049 150 150 150
0.394944 1.170268 -0.635711 150 150 150
