ply
format ascii 1.0
comment author: Greg Turk
comment object: another cube
element vertex 24
property float x
property float y
property float z
property uchar red
property uchar green
property uchar blue
element face 0
property list uchar int vertex_index
end_header
-0.362862 0.890103 0.341512 150 150 150
-0.367367 0.817287 0.414509 150 150 150
-0.367597 0.791093 0.295788 150 150 150
-0.303356 1.004503 0.331693 150 150 150
-0.555738 0.479520 0.446554 150 150 150
-0.622784 0.512214 0.332742 150 150 150
-0.341024 1.128131 0.296320 150 150 150
-0.220679 0.214169 0.387130 150 150 150
-0.690792 0.117830 0.471818 150 150 150
-0.354248 1.173027 0.273599 150 150 150
-0.246462 0.078067 0.402292 150 150 150
-0.824410 0.104242 0.410113 150 150 150
-0.351583 1.385148 0.195578 150 150 150
-0.390711 1.304461 0.306368 150 150 150
-0.311666 1.259441 0.164977 150 150 150
-0.433176 1.428493 0.154728 150 150 150
-0.453003 1.323123 0.414176 150 150 150
-0.244758 1.216266 0.077970 150 150 150
-0.578165 1.104318 0.488037 150 150 150
-0.115673 1.004158 0.144226 150 150 150
-0.747305 0.925567 0.388494 150 150 150
-0.120803 0.741836 0.193784 150 150 150
-0.788329 0.853158 0.355956 150 150 150
-0.125105 0.659000 0.230724 150 150 150
