ply
format ascii 1.0
comment author: Greg Turk
comment object: another cube
element vertex 24
property float x
property float y
property float z
property uchar red
property uchar green
property uchar blue
element face 0
property list uchar int vertex_index
end_header
-0.171131 0.870213 -0.324029 150 150 150
-0.160321 0.791759 -0.256385 150 150 150
-0.154019 0.780023 -0.383772 150 150 150
-0.142259 0.987455 -0.321634 150 150 150
-0.388058 0.510233 -0.105522 150 150 150
-0.438312 0.553434 -0.523746 150 150 150
-0.224530 1.094195 -0.339028 150 150 150
-0.225599 0.121702 -0.011558 150 150 150
-0.327694 0.143133 -0.526092 150 150 150
-0.253538 1.138587 -0.351043 150 150 150
-0.317864 0.063869 0.073460 150 150 150
-0.442015 0.077714 -0.587753 150 150 150
-0.313714 1.345468 -0.415361 150 150 150
-0.279862 1.264128 -0.301884 150 150 150
-0.283579 1.229349 -0.463220 150 150 150
-0.405282 1.373195 -0.389450 150 150 150
-0.242115 1.286190 -0.183134 150 150 150
-0.295037 1.206086 -0.579596 150 150 150
-0.130848 1.081386 -0.092317 150 150 150
-0.297481 0.958186 -0.679774 150 150 150
-0.154334 0.833196 -0.014274 150 150 150
-0.454694 0.754791 -0.757545 150 150 150
-0.153052 0.744676 -0.003832 150 150 150
-0.506922 0.680649 -0.769523 150 150 150
