ply
format ascii 1.0
comment author: Greg Turk
comment object: another cube
element vertex 24
property float x
property float y
property float z
property uchar red
property uchar green
property uchar blue
element face 0
property list uchar int vertex_index
end_header
-0.386709 0.785822 0.333495 150 150 150
-0.364970 0.711042 0.401720 150 150 150
-0.376123 0.692023 0.279165 150 150 150
-0.357529 0.907989 0.330474 150 150 150
-0.348665 0.339347 0.527612 150 150 150
-0.686224 0.479983 0.329123 150 150 150
-0.439032 1.013987 0.317637 150 150 150
0.073069 0.236668 0.534026 150 150 150
-0.700336 0.087210 0.485675 150 150 150
-0.474538 1.051378 0.303973 150 150 150
0.110550 0.118795 0.597869 150 150 150
-0.837604 0.080708 0.433144 150 150 150
-0.560220 1.251144 0.265199 150 150 150
-0.550636 1.154809 0.360468 150 150 150
-0.482551 1.157369 0.208642 150 150 150
-0.656575 1.248806 0.242673 150 150 150
-0.621194 1.148327 0.467911 150 150 150
-0.439003 1.137892 0.103614 150 150 150
-0.792397 0.944202 0.479260 150 150 150
-0.273315 0.938059 0.098890 150 150 150
-1.003942 0.818425 0.367888 150 150 150
-0.173556 0.688035 0.119811 150 150 150
-1.069442 0.768315 0.332192 150 150 150
-0.134333 0.608816 0.143504 150 150 150
