ply
format ascii 1.0
comment author: Greg Turk
comment object: another cube
element vertex 24
property float x
property float y
property float z
property uchar red
property uchar green
property uchar blue
element face 0
property list uchar int vertex_index
end_header
0.068064 1.018837 0.004742 150 150 150
0.078719 0.930553 0.058796 150 150 150
0.100765 0.936016 -0.062647 150 150 150
0.093646 1.145859 0.028376 150 150 150
-0.040259 0.586774 0.200775 150 150 150
0.123454 0.590363 -0.230151 150 150 150
0.035533 1.271294 0.034618 150 150 150
0.125157 0.192668 0.250747 150 150 150
0.351516 0.236603 -0.280532 150 150 150
0.026969 1.326997 0.030207 150 150 150
0.052560 0.094424 0.317541 150 150 150
0.299233 0.151288 -0.388622 150 150 150
0.015379 1.545622 0.010516 150 150 150
-0.002922 1.444055 0.098808 150 150 150
0.058873 1.442364 -0.047933 150 150 150
-0.063273 1.593727 -0.019357 150 150 150
-0.007196 1.469026 0.229230 150 150 150
0.131027 1.469020 -0.142958 150 150 150
-0.018859 1.344693 0.452636 150 150 150
0.293396 1.330928 -0.294925 150 150 150
-0.177696 1.278192 0.652201 150 150 150
0.343067 1.290524 -0.555125 150 150 150
-0.233880 1.254074 0.716241 150 150 150
0.354204 1.276247 -0.643585 150 150 150
