ply
format ascii 1.0
comment author: Greg Turk
comment object: another cube
element vertex 24
property float x
property float y
property float z
property uchar red
property uchar green
property uchar blue
element face 0
property list uchar int vertex_index
end_header
0.149215 0.941227 -0.072559 150 150 150
0.163069 0.854471 -0.017392 150 150 150
0.192362 0.862169 -0.138158 150 150 150
0.164153 1.068033 -0.047755 150 150 150
0.036334 0.517634 0.132563 150 150 150
0.236163 0.507076 -0.277546 150 150 150
0.099918 1.186009 -0.039602 150 150 150
0.184717 0.122991 0.217454 150 150 150
0.446145 0.141463 -0.311718 150 150 150
0.087891 1.238416 -0.041985 150 150 150
0.090377 0.061485 0.298920 150 150 150
0.362333 0.081081 -0.415737 150 150 150
0.066197 1.463574 -0.046256 150 150 150
0.049438 1.348976 0.035436 150 150 150
0.115554 1.361831 -0.111566 150 150 150
-0.014859 1.513604 -0.073325 150 150 150
0.052092 1.350551 0.167067 150 150 150
0.190621 1.386060 -0.202391 150 150 150
0.098216 1.162800 0.332049 150 150 150
0.354782 1.217386 -0.314091 150 150 150
-0.013631 0.987609 0.491892 150 150 150
0.400403 1.105871 -0.552627 150 150 150
-0.053228 0.924066 0.539467 150 150 150
0.409551 1.068614 -0.634394 150 150 150
