ply
format ascii 1.0
comment author: Greg Turk
comment object: another cube
element vertex 24
property float x
property float y
property float z
property uchar red
property uchar green
property uchar blue
element face 0
property list uchar int vertex_index
end_header
-0.157684 0.935649 0.233327 150 150 150
-0.119574 0.851482 0.280825 150 150 150
-0.143040 0.859059 0.156183 150 150 150
-0.145756 1.055546 0.255146 150 150 150
-0.095604 0.469991 0.379763 150 150 150
-0.459798 0.644550 0.144817 150 150 150
-0.257354 1.120376 0.284809 150 150 150
0.292224 0.283787 0.330305 150 150 150
-0.432628 0.249653 0.295387 150 150 150
-0.307803 1.140309 0.284787 150 150 150
0.305577 0.160965 0.397020 150 150 150
-0.561228 0.187372 0.254183 150 150 150
-0.486889 1.267160 0.272247 150 150 150
-0.413482 1.196878 0.359593 150 150 150
-0.381229 1.226821 0.201794 150 150 150
-0.564099 1.221460 0.238469 150 150 150
-0.445485 1.209811 0.487449 150 150 150
-0.355097 1.228828 0.090923 150 150 150
-0.422989 1.060226 0.699305 150 150 150
-0.119742 1.127555 0.037858 150 150 150
-0.526598 0.872808 0.861257 150 150 150
0.093415 0.962295 0.025814 150 150 150
-0.558966 0.813792 0.920671 150 150 150
0.168666 0.909839 0.030749 150 150 150
