ply
format ascii 1.0
comment author: Greg Turk
comment object: another cube
element vertex 24
property float x
property float y
property float z
property uchar red
property uchar green
property uchar blue
element face 0
property list uchar int vertex_index
end_header
-0.116856 1.014131 0.178304 150 150 150
-0.119550 0.925899 0.233139 150 150 150
-0.100976 0.927486 0.110369 150 150 150
-0.070568 1.132628 0.204300 150 150 150
-0.218248 0.558129 0.315174 150 150 150
-0.260362 0.607259 -0.032826 150 150 150
-0.113052 1.266221 0.202260 150 150 150
-0.121450 0.139268 0.334397 150 150 150
-0.022882 0.270244 0.064493 150 150 150
-0.118469 1.324358 0.193887 150 150 150
-0.230846 0.070641 0.387169 150 150 150
-0.102656 0.189883 -0.030540 150 150 150
-0.098430 1.534637 0.157436 150 150 150
-0.140815 1.448622 0.248204 150 150 150
-0.064425 1.426795 0.110527 150 150 150
-0.172819 1.579309 0.114534 150 150 150
-0.177722 1.503656 0.362439 150 150 150
-0.007442 1.441291 0.006851 150 150 150
-0.349755 1.451199 0.550296 150 150 150
0.048125 1.283462 -0.197129 150 150 150
-0.598307 1.528148 0.595691 150 150 150
-0.064009 1.299591 -0.439153 150 150 150
-0.684138 1.540342 0.614517 150 150 150
-0.112235 1.300536 -0.515772 150 150 150
