ply
format ascii 1.0
comment author: Greg Turk
comment object: another cube
element vertex 24
property float x
property float y
property float z
property uchar red
property uchar green
property uchar blue
element face 0
property list uchar int vertex_index
end_header
0.333524 1.009662 -0.099214 150 150 150
0.350772 0.925685 -0.041263 150 150 150
0.355382 0.922092 -0.163002 150 150 150
0.367261 1.139415 -0.086655 150 150 150
0.350794 0.557242 0.064610 150 150 150
0.348324 0.551890 -0.256205 150 150 150
0.334625 1.270827 -0.080985 150 150 150
0.420560 0.136315 0.118685 150 150 150
0.422296 0.135641 -0.278912 150 150 150
0.330786 1.323432 -0.084528 150 150 150
0.317348 0.069451 0.185636 150 150 150
0.303591 0.070840 -0.339190 150 150 150
0.377701 1.550200 -0.092394 150 150 150
0.335595 1.442392 -0.006227 150 150 150
0.376134 1.438580 -0.165424 150 150 150
0.321789 1.634661 -0.100770 150 150 150
0.329157 1.430195 0.119720 150 150 150
0.408301 1.429856 -0.276763 150 150 150
0.289291 1.191257 0.188362 150 150 150
0.398791 1.186577 -0.366191 150 150 150
0.155796 0.966690 0.230896 150 150 150
0.285920 0.975501 -0.488577 150 150 150
0.119011 0.886179 0.240775 150 150 150
0.251988 0.897638 -0.520583 150 150 150
