ply
format ascii 1.0
comment author: Greg Turk
comment object: another cube
element vertex 24
property float x
property float y
property float z
property uchar red
property uchar green
property uchar blue
element face 0
property list uchar int vertex_index
end_header
0.140076 1.080579 -0.144531 150 150 150
0.092443 0.989471 -0.132715 150 150 150
0.207350 0.994101 -0.168948 150 150 150
0.136652 1.198933 -0.076294 150 150 150
-0.007354 0.617247 -0.135361 150 150 150
0.269640 0.651175 -0.322552 150 150 150
0.127136 1.346047 -0.073425 150 150 150
0.099895 0.258510 0.074870 150 150 150
0.316230 0.230951 -0.345141 150 150 150
0.134836 1.407446 -0.059818 150 150 150
0.027778 0.139505 0.089371 150 150 150
0.287335 0.155926 -0.468539 150 150 150
0.172105 1.594054 0.015953 150 150 150
0.079877 1.522902 -0.023542 150 150 150
0.227369 1.495512 -0.000500 150 150 150
0.208920 1.666065 -0.030665 150 150 150
-0.032429 1.586545 -0.024051 150 150 150
0.335937 1.526232 0.034144 150 150 150
-0.240333 1.657683 -0.168316 150 150 150
0.598973 1.501868 -0.001894 150 150 150
-0.299415 1.815018 -0.373540 150 150 150
0.778797 1.640791 -0.145301 150 150 150
-0.328391 1.854657 -0.447252 150 150 150
0.841355 1.675251 -0.200091 150 150 150
