ply
format ascii 1.0
comment author: Greg Turk
comment object: another cube
element vertex 24
property float x
property float y
property float z
property uchar red
property uchar green
property uchar blue
element face 0
property list uchar int vertex_index
end_header
0.332690 1.009742 -0.093026 150 150 150
0.351503 0.925385 -0.036149 150 150 150
0.353337 0.922834 -0.157945 150 150 150
0.366737 1.139791 -0.080646 150 150 150
0.353118 0.556189 0.066253 150 150 150
0.357803 0.553054 -0.250410 150 150 150
0.337288 1.271000 -0.072108 150 150 150
0.420674 0.134566 0.118978 150 150 150
0.426567 0.136146 -0.278505 150 150 150
0.334246 1.323111 -0.075050 150 150 150
0.317325 0.067242 0.185456 150 150 150
0.307139 0.072043 -0.337967 150 150 150
0.387313 1.548877 -0.083870 150 150 150
0.348271 1.440955 0.003814 150 150 150
0.377247 1.437651 -0.158142 150 150 150
0.333155 1.634961 -0.088048 150 150 150
0.352602 1.426588 0.129606 150 150 150
0.400612 1.427471 -0.271476 150 150 150
0.308480 1.189386 0.200978 150 150 150
0.386960 1.184191 -0.361203 150 150 150
0.162176 0.976472 0.258141 150 150 150
0.279381 0.966480 -0.476585 150 150 150
0.118602 0.899599 0.270472 150 150 150
0.246908 0.886815 -0.505924 150 150 150
