ply
format ascii 1.0
comment author: Greg Turk
comment object: another cube
element vertex 24
property float x
property float y
property float z
property uchar red
property uchar green
property uchar blue
element face 0
property list uchar int vertex_index
end_header
0.254543 0.997480 -0.067772 150 150 150
0.296864 0.912528 -0.022639 150 150 150
0.225662 0.905768 -0.122344 150 150 150
0.296552 1.123351 -0.095705 150 150 150
0.226759 0.567310 0.126858 150 150 150
0.141055 0.534786 -0.176887 150 150 150
0.277981 1.262218 -0.072276 150 150 150
0.384823 0.166468 0.112734 150 150 150
0.384288 0.203714 -0.285367 150 150 150
0.274982 1.322706 -0.077183 150 150 150
0.310113 0.077594 0.187100 150 150 150
0.294229 0.095200 -0.328852 150 150 150
0.260868 1.530587 -0.133254 150 150 150
0.336378 1.445672 -0.067969 150 150 150
0.210556 1.423834 -0.154346 150 150 150
0.244767 1.608015 -0.074805 150 150 150
0.456560 1.490714 -0.054195 150 150 150
0.115151 1.441181 -0.222299 150 150 150
0.668250 1.402063 0.047360 150 150 150
-0.116004 1.316503 -0.235007 150 150 150
0.751822 1.501656 0.270509 150 150 150
-0.268286 1.476178 -0.091235 150 150 150
0.778007 1.518161 0.353069 150 150 150
-0.310789 1.526647 -0.029447 150 150 150
