ply
format ascii 1.0
comment author: Greg Turk
comment object: another cube
element vertex 24
property float x
property float y
property float z
property uchar red
property uchar green
property uchar blue
element face 0
property list uchar int vertex_index
end_header
0.268551 0.957967 -0.190020 150 150 150
0.284192 0.869503 -0.137477 150 150 150
0.295455 0.876454 -0.262047 150 150 150
0.292823 1.080771 -0.165294 150 150 150
0.177120 0.541364 0.044990 150 150 150
0.186158 0.538101 -0.408143 150 150 150
0.214626 1.193303 -0.162696 150 150 150
0.327980 0.147826 0.132530 150 150 150
0.283896 0.129912 -0.463155 150 150 150
0.192996 1.244703 -0.169607 150 150 150
0.265521 0.079550 0.235677 150 150 150
0.156682 0.080815 -0.516743 150 150 150
0.140143 1.458779 -0.201570 150 150 150
0.139960 1.357101 -0.105665 150 150 150
0.200290 1.359191 -0.255790 150 150 150
0.052345 1.498921 -0.217479 150 150 150
0.129483 1.379306 0.022794 150 150 150
0.263905 1.384506 -0.354916 150 150 150
0.194280 1.210820 0.199125 150 150 150
0.458503 1.231313 -0.430738 150 150 150
0.091761 1.004366 0.319401 150 150 150
0.513587 1.074151 -0.636797 150 150 150
0.059543 0.928082 0.351850 150 150 150
0.524691 1.017438 -0.706257 150 150 150
