ply
format ascii 1.0
comment author: Greg Turk
comment object: another cube
element vertex 24
property float x
property float y
property float z
property uchar red
property uchar green
property uchar blue
element face 0
property list uchar int vertex_index
end_header
0.050092 1.213886 -0.106800 150 150 150
0.090666 1.152707 -0.177629 150 150 150
0.000081 1.117102 -0.099012 150 150 150
0.025754 1.332467 -0.100386 150 150 150
0.394562 0.952495 -0.034259 150 150 150
0.110468 0.757662 0.012716 150 150 150
0.103838 1.412249 -0.015830 150 150 150
0.378211 0.626751 -0.317773 150 150 150
0.126764 0.389445 -0.199273 150 150 150
0.134598 1.441175 0.027283 150 150 150
0.479436 0.530638 -0.319484 150 150 150
0.141449 0.259149 -0.129443 150 150 150
0.150828 1.579804 0.184057 150 150 150
0.193690 1.557627 0.066492 150 150 150
0.092399 1.476640 0.157156 150 150 150
0.187115 1.585061 0.275592 150 150 150
0.283500 1.642200 0.017814 150 150 150
0.066476 1.403896 0.242802 150 150 150
0.528154 1.646970 -0.078161 150 150 150
0.107125 1.138300 0.285923 150 150 150
0.783227 1.586623 -0.011982 150 150 150
0.220416 0.893743 0.326607 150 150 150
0.869297 1.564042 0.000346 150 150 150
0.249389 0.807056 0.334061 150 150 150
