ply
format ascii 1.0
comment author: Greg Turk
comment object: another cube
element vertex 24
property float x
property float y
property float z
property uchar red
property uchar green
property uchar blue
element face 0
property list uchar int vertex_index
end_header
0.125533 1.009340 0.058200 150 150 150
0.072787 0.942856 0.121391 150 150 150
0.188135 0.919430 0.079491 150 150 150
0.130286 1.135568 0.045716 150 150 150
-0.119451 0.607776 0.164327 150 150 150
0.258649 0.590632 -0.115676 150 150 150
0.123442 1.203383 -0.084246 150 150 150
-0.113144 0.234581 0.381776 150 150 150
0.333907 0.179699 -0.051484 150 150 150
0.126910 1.237892 -0.135559 150 150 150
-0.190588 0.119026 0.369776 150 150 150
0.326887 0.086679 -0.162620 150 150 150
0.141995 1.381409 -0.284773 150 150 150
0.053172 1.316334 -0.211950 150 150 150
0.213197 1.319963 -0.214618 150 150 150
0.106484 1.338317 -0.358871 150 150 150
-0.074685 1.305470 -0.220827 150 150 150
0.327987 1.362351 -0.233524 150 150 150
-0.192485 1.114975 -0.092388 150 150 150
0.548673 1.299562 -0.114621 150 150 150
-0.281172 0.873625 -0.043613 150 150 150
0.680974 1.188946 -0.314229 150 150 150
-0.296338 0.792179 -0.013330 150 150 150
0.706090 1.136699 -0.383366 150 150 150
