ply
format ascii 1.0
comment author: Greg Turk
comment object: another cube
element vertex 24
property float x
property float y
property float z
property uchar red
property uchar green
property uchar blue
element face 0
property list uchar int vertex_index
end_header
-0.171477 0.957487 0.233226 150 150 150
-0.177427 0.872679 0.291979 150 150 150
-0.159993 0.868688 0.168941 150 150 150
-0.122195 1.072699 0.253673 150 150 150
-0.312212 0.509930 0.344853 150 150 150
-0.397407 0.579042 0.081649 150 150 150
-0.165765 1.201425 0.247834 150 150 150
-0.125927 0.122051 0.339751 150 150 150
-0.259829 0.199626 0.206341 150 150 150
-0.175638 1.255291 0.236142 150 150 150
-0.237884 0.055543 0.388526 150 150 150
-0.372283 0.143586 0.129480 150 150 150
-0.158785 1.469869 0.191592 150 150 150
-0.205711 1.382427 0.285474 150 150 150
-0.120941 1.355220 0.149395 150 150 150
-0.233694 1.512977 0.142511 150 150 150
-0.257612 1.431760 0.395631 150 150 150
-0.065597 1.347092 0.046736 150 150 150
-0.442440 1.336425 0.553991 150 150 150
-0.023298 1.119423 -0.076294 150 150 150
-0.705916 1.350438 0.567936 150 150 150
-0.182713 1.019021 -0.264761 150 150 150
-0.793758 1.340858 0.576454 150 150 150
-0.245566 0.985240 -0.320725 150 150 150
