ply
format ascii 1.0
comment author: Greg Turk
comment object: another cube
element vertex 24
property float x
property float y
property float z
property uchar red
property uchar green
property uchar blue
element face 0
property list uchar int vertex_index
end_header
-0.160957 0.829668 -0.329604 150 150 150
-0.152651 0.753331 -0.259050 150 150 150
-0.141597 0.738633 -0.387160 150 150 150
-0.133791 0.945443 -0.328806 150 150 150
-0.415401 0.496474 -0.118044 150 150 150
-0.452482 0.549684 -0.528325 150 150 150
-0.223951 1.045431 -0.352631 150 150 150
-0.228580 0.121976 -0.011887 150 150 150
-0.329802 0.142021 -0.525658 150 150 150
-0.256520 1.087853 -0.366774 150 150 150
-0.319767 0.061728 0.072252 150 150 150
-0.443940 0.076176 -0.587204 150 150 150
-0.325186 1.287816 -0.440036 150 150 150
-0.290849 1.213572 -0.323291 150 150 150
-0.288582 1.172498 -0.482791 150 150 150
-0.417059 1.314003 -0.414524 150 150 150
-0.259758 1.244565 -0.204004 150 150 150
-0.297052 1.144000 -0.598619 150 150 150
-0.154172 1.048160 -0.090755 150 150 150
-0.303034 0.889461 -0.682147 150 150 150
-0.184740 0.806143 0.004217 150 150 150
-0.457649 0.681958 -0.756700 150 150 150
-0.184222 0.718929 0.022707 150 150 150
-0.509121 0.607215 -0.768516 150 150 150
