ply
format ascii 1.0
comment author: Greg Turk
comment object: another cube
element vertex 24
property float x
property float y
property float z
property uchar red
property uchar green
property uchar blue
element face 0
property list uchar int vertex_index
end_header
0.221107 1.045979 -0.174183 150 150 150
0.232441 0.959180 -0.117451 150 150 150
0.252432 0.960131 -0.239335 150 150 150
0.249109 1.176284 -0.153367 150 150 150
0.173937 0.612514 0.038530 150 150 150
0.250735 0.598994 -0.362969 150 150 150
0.198959 1.307455 -0.151502 150 150 150
0.304660 0.214532 0.133270 150 150 150
0.384860 0.197390 -0.385225 150 150 150
0.191886 1.365579 -0.156072 150 150 150
0.232584 0.133508 0.219223 150 150 150
0.286323 0.118472 -0.460544 150 150 150
0.189412 1.584850 -0.176125 150 150 150
0.168542 1.483931 -0.087731 150 150 150
0.223033 1.481138 -0.235973 150 150 150
0.111108 1.637160 -0.195139 150 150 150
0.164573 1.508243 0.039343 150 150 150
0.282613 1.510413 -0.335673 150 150 150
0.146954 1.323935 0.205677 150 150 150
0.398271 1.337312 -0.487545 150 150 150
-0.095758 1.243535 0.227051 150 150 150
0.303209 1.293647 -0.727049 150 150 150
-0.172709 1.199163 0.223801 150 150 150
0.263267 1.265954 -0.803026 150 150 150
