ply
format ascii 1.0
comment author: Greg Turk
comment object: another cube
element vertex 24
property float x
property float y
property float z
property uchar red
property uchar green
property uchar blue
element face 0
property list uchar int vertex_index
end_header
-0.228878 0.898085 0.262057 150 150 150
-0.198009 0.814421 0.315158 150 150 150
-0.216833 0.815146 0.191073 150 150 150
-0.207336 1.020485 0.278103 150 150 150
-0.135080 0.439415 0.411502 150 150 150
-0.527901 0.597685 0.207308 150 150 150
-0.311418 1.101247 0.297605 150 150 150
0.269893 0.285554 0.395437 150 150 150
-0.601517 0.213070 0.368558 150 150 150
-0.359551 1.126957 0.293394 150 150 150
0.274434 0.168870 0.473448 150 150 150
-0.745755 0.184847 0.345701 150 150 150
-0.519425 1.273585 0.271915 150 150 150
-0.462423 1.194612 0.361701 150 150 150
-0.415873 1.222120 0.207389 150 150 150
-0.599688 1.234769 0.238236 150 150 150
-0.509561 1.200958 0.485182 150 150 150
-0.383970 1.221992 0.097538 150 150 150
-0.577183 1.030400 0.673187 150 150 150
-0.162199 1.092662 0.047206 150 150 150
-0.771428 0.873506 0.774049 150 150 150
0.022063 0.896065 0.035612 150 150 150
-0.835116 0.823336 0.812635 150 150 150
0.088296 0.833126 0.042910 150 150 150
