ply
format ascii 1.0
comment author: Greg Turk
comment object: another cube
element vertex 24
property float x
property float y
property float z
property uchar red
property uchar green
property uchar blue
element face 0
property list uchar int vertex_index
end_header
0.215620 1.016788 -0.171358 150 150 150
0.224056 0.932827 -0.109934 150 150 150
0.252427 0.928937 -0.229653 150 150 150
0.242136 1.149971 -0.155836 150 150 150
0.155188 0.590132 0.045452 150 150 150
0.303315 0.562907 -0.321585 150 150 150
0.200241 1.282964 -0.155832 150 150 150
0.234007 0.183051 0.157183 150 150 150
0.452179 0.165939 -0.331410 150 150 150
0.196859 1.340542 -0.158402 150 150 150
0.140910 0.114336 0.233138 150 150 150
0.366453 0.087486 -0.421475 150 150 150
0.217137 1.563284 -0.162351 150 150 150
0.184118 1.455955 -0.081410 150 150 150
0.238517 1.459819 -0.231237 150 150 150
0.144535 1.626389 -0.176977 150 150 150
0.182362 1.458455 0.046459 150 150 150
0.295007 1.482437 -0.332754 150 150 150
0.149051 1.235982 0.148625 150 150 150
0.339940 1.286831 -0.492884 150 150 150
-0.101662 1.193104 0.125697 150 150 150
0.167066 1.288429 -0.687758 150 150 150
-0.181874 1.162133 0.103072 150 150 150
0.098948 1.277182 -0.745900 150 150 150
