ply
format ascii 1.0
comment author: Greg Turk
comment object: another cube
element vertex 24
property float x
property float y
property float z
property uchar red
property uchar green
property uchar blue
element face 0
property list uchar int vertex_index
end_header
0.332565 1.009917 -0.093066 150 150 150
0.351279 0.925532 -0.036220 150 150 150
0.353614 0.923098 -0.158001 150 150 150
0.366385 1.140034 -0.080349 150 150 150
0.353424 0.556175 0.065452 150 150 150
0.358889 0.553292 -0.250103 150 150 150
0.337143 1.271279 -0.071803 150 150 150
0.420686 0.134489 0.118188 150 150 150
0.427185 0.136276 -0.278147 150 150 150
0.334167 1.323382 -0.074782 150 150 150
0.317429 0.067187 0.184830 150 150 150
0.307670 0.071847 -0.337103 150 150 150
0.387708 1.549027 -0.083435 150 150 150
0.347984 1.441262 0.004061 150 150 150
0.377882 1.437739 -0.157718 150 150 150
0.333495 1.635058 -0.087956 150 150 150
0.351573 1.427263 0.129942 150 150 150
0.401836 1.427348 -0.270940 150 150 150
0.305273 1.190636 0.201805 150 150 150
0.388484 1.183912 -0.360434 150 150 150
0.157019 0.978915 0.258448 150 150 150
0.282433 0.965178 -0.475357 150 150 150
0.112835 0.902364 0.270610 150 150 150
0.250525 0.885230 -0.504548 150 150 150
