ply
format ascii 1.0
comment author: Greg Turk
comment object: another cube
element vertex 24
property float x
property float y
property float z
property uchar red
property uchar green
property uchar blue
element face 0
property list uchar int vertex_index
end_header
0.256552 0.781110 -0.119903 150 150 150
0.280368 0.698090 -0.062534 150 150 150
0.277268 0.703115 -0.192887 150 150 150
0.275295 0.896486 -0.107408 150 150 150
-0.016702 0.467054 0.049248 150 150 150
0.084204 0.415909 -0.382031 150 150 150
0.174048 0.984419 -0.090816 150 150 150
0.186322 0.091344 0.095988 150 150 150
0.368292 0.104987 -0.359511 150 150 150
0.134199 1.023184 -0.087069 150 150 150
0.061274 0.049419 0.136721 150 150 150
0.292647 0.057511 -0.474056 150 150 150
0.038128 1.219593 -0.120387 150 150 150
0.105016 1.140224 -0.023508 150 150 150
0.063227 1.112154 -0.181272 150 150 150
-0.052380 1.264365 -0.105407 150 150 150
0.160445 1.165894 0.092204 150 150 150
-0.002229 1.078383 -0.270974 150 150 150
0.320806 1.005412 0.209003 150 150 150
-0.080526 0.829847 -0.346507 150 150 150
0.384508 0.854635 0.417834 150 150 150
-0.267030 0.660907 -0.248466 150 150 150
0.406320 0.796247 0.481175 150 150 150
-0.324671 0.607328 -0.202102 150 150 150
