ply
format ascii 1.0
comment author: Greg Turk
comment object: another cube
element vertex 24
property float x
property float y
property float z
property uchar red
property uchar green
property uchar blue
element face 0
property list uchar int vertex_index
end_header
0.217026 0.809918 -0.100595 150 150 150
0.210399 0.721218 -0.048045 150 150 150
0.254642 0.731694 -0.168122 150 150 150
0.242540 0.922535 -0.067572 150 150 150
-0.072845 0.450457 0.000774 150 150 150
0.118453 0.443294 -0.395580 150 150 150
0.167996 1.037682 -0.077969 150 150 150
0.178691 0.114912 0.092360 150 150 150
0.367891 0.105314 -0.357790 150 150 150
0.144903 1.089224 -0.086963 150 150 150
0.064621 0.050175 0.133987 150 150 150
0.290515 0.058939 -0.473066 150 150 150
0.134430 1.303133 -0.117969 150 150 150
0.103195 1.204951 -0.028104 150 150 150
0.177483 1.201069 -0.173077 150 150 150
0.066701 1.362410 -0.163187 150 150 150
0.045786 1.224565 0.089413 150 150 150
0.202189 1.215606 -0.287592 150 150 150
-0.092034 1.082254 0.260467 150 150 150
0.218901 1.065040 -0.508720 150 150 150
-0.344309 1.037522 0.326583 150 150 150
0.008616 0.997757 -0.661445 150 150 150
-0.427361 1.014818 0.347768 150 150 150
-0.067537 0.972201 -0.703578 150 150 150
