ply
format ascii 1.0
comment author: Greg Turk
comment object: another cube
element vertex 24
property float x
property float y
property float z
property uchar red
property uchar green
property uchar blue
element face 0
property list uchar int vertex_index
end_header
-0.047086 0.956997 0.163485 150 150 150
0.001632 0.871851 0.197468 150 150 150
-0.040159 0.887231 0.078703 150 150 150
-0.039659 1.076096 0.191535 150 150 150
-0.027953 0.498931 0.326301 150 150 150
-0.292251 0.598726 0.026433 150 150 150
-0.148780 1.122310 0.247123 150 150 150
0.294784 0.227105 0.230560 150 150 150
-0.019159 0.274823 0.048898 150 150 150
-0.199280 1.133476 0.258426 150 150 150
0.318415 0.098948 0.282240 150 150 150
-0.087277 0.171493 -0.032546 150 150 150
-0.403997 1.220848 0.287252 150 150 150
-0.296697 1.166893 0.357036 150 150 150
-0.306709 1.201636 0.194608 150 150 150
-0.480120 1.170761 0.257547 150 150 150
-0.282792 1.181990 0.487573 150 150 150
-0.294763 1.206114 0.082097 150 150 150
-0.085910 1.101631 0.632532 150 150 150
-0.043175 1.169213 0.023939 150 150 150
0.057486 0.910726 0.752646 150 150 150
0.216111 1.093544 0.028921 150 150 150
0.109802 0.851164 0.795493 150 150 150
0.305566 1.074232 0.040039 150 150 150
