ply
format ascii 1.0
comment author: Greg Turk
comment object: another cube
element vertex 24
property float x
property float y
property float z
property uchar red
property uchar green
property uchar blue
element face 0
property list uchar int vertex_index
end_header
0.184655 0.908247 -0.103349 150 150 150
0.195532 0.821200 -0.048358 150 150 150
0.230023 0.830427 -0.168456 150 150 150
0.198758 1.032859 -0.076671 150 150 150
0.037474 0.499503 0.107787 150 150 150
0.253990 0.472015 -0.305733 150 150 150
0.132341 1.147470 -0.069494 150 150 150
0.190037 0.111364 0.214242 150 150 150
0.466217 0.107220 -0.315272 150 150 150
0.118392 1.197858 -0.071519 150 150 150
0.091877 0.058334 0.296436 150 150 150
0.372760 0.066815 -0.419274 150 150 150
0.094253 1.425360 -0.068953 150 150 150
0.076648 1.305065 0.009275 150 150 150
0.145222 1.324312 -0.137585 150 150 150
0.012484 1.477184 -0.095317 150 150 150
0.079890 1.292282 0.139042 150 150 150
0.218563 1.344252 -0.229142 150 150 150
0.138930 1.080771 0.267279 150 150 150
0.370625 1.161305 -0.335991 150 150 150
0.038509 0.869222 0.384776 150 150 150
0.394902 1.032603 -0.569036 150 150 150
0.004025 0.793483 0.416079 150 150 150
0.396167 0.990557 -0.649216 150 150 150
