ply
format ascii 1.0
comment author: Greg Turk
comment object: another cube
element vertex 24
property float x
property float y
property float z
property uchar red
property uchar green
property uchar blue
element face 0
property list uchar int vertex_index
end_header
0.015462 0.979216 -0.141471 150 150 150
0.048492 0.892562 -0.092822 150 150 150
0.015826 0.895155 -0.213179 150 150 150
0.051226 1.105655 -0.136929 150 150 150
0.026983 0.537566 0.056098 150 150 150
-0.089429 0.548629 -0.345056 150 150 150
0.003136 1.229742 -0.108329 150 150 150
0.105719 0.122018 0.135950 150 150 150
0.005224 0.140842 -0.403878 150 150 150
-0.011662 1.282571 -0.104084 150 150 150
0.003123 0.067090 0.213666 150 150 150
-0.119326 0.098508 -0.468976 150 150 150
-0.037316 1.505430 -0.118129 150 150 150
0.012483 1.402868 -0.037882 150 150 150
-0.054088 1.396687 -0.185760 150 150 150
-0.105082 1.561325 -0.071334 150 150 150
0.101879 1.423892 0.054618 150 150 150
-0.117226 1.396510 -0.284003 150 150 150
0.250464 1.245433 0.151992 150 150 150
-0.219880 1.177103 -0.395863 150 150 150
0.280689 1.070859 0.345346 150 150 150
-0.434666 1.016984 -0.389818 150 150 150
0.284000 1.002715 0.402388 150 150 150
-0.505735 0.961940 -0.375090 150 150 150
