ply
format ascii 1.0
comment author: Greg Turk
comment object: another cube
element vertex 24
property float x
property float y
property float z
property uchar red
property uchar green
property uchar blue
element face 0
property list uchar int vertex_index
end_header
0.436743 0.864506 -0.091267 150 150 150
0.440744 0.782257 -0.029114 150 150 150
0.481949 0.782408 -0.149786 150 150 150
0.446301 0.981706 -0.069867 150 150 150
0.204763 0.479145 0.063026 150 150 150
0.296168 0.470948 -0.282118 150 150 150
0.349867 1.070235 -0.111119 150 150 150
0.413731 0.107003 0.119538 150 150 150
0.436227 0.073428 -0.277379 150 150 150
0.319207 1.111739 -0.135491 150 150 150
0.308980 0.050736 0.188941 150 150 150
0.307194 0.061421 -0.346227 150 150 150
0.258282 1.312698 -0.193728 150 150 150
0.223245 1.209338 -0.110524 150 150 150
0.349468 1.225213 -0.214023 150 150 150
0.171176 1.347852 -0.231689 150 150 150
0.112115 1.204133 -0.042424 150 150 150
0.449441 1.249903 -0.277549 150 150 150
-0.034154 0.984283 -0.051720 150 150 150
0.661722 1.112885 -0.225524 150 150 150
-0.157449 0.851954 -0.247180 150 150 150
0.868564 0.955641 -0.291763 150 150 150
-0.189101 0.802074 -0.314306 150 150 150
0.934963 0.897571 -0.311787 150 150 150
