ply
format ascii 1.0
comment author: Greg Turk
comment object: another cube
element vertex 24
property float x
property float y
property float z
property uchar red
property uchar green
property uchar blue
element face 0
property list uchar int vertex_index
end_header
-0.082054 0.970428 -0.187186 150 150 150
-0.049529 0.886506 -0.134470 150 150 150
-0.086632 0.881904 -0.253312 150 150 150
-0.044468 1.095336 -0.190779 150 150 150
-0.077544 0.544392 0.044564 150 150 150
-0.230429 0.538678 -0.356519 150 150 150
-0.088578 1.221708 -0.170474 150 150 150
0.070763 0.149132 0.133537 150 150 150
-0.066059 0.152007 -0.408006 150 150 150
-0.100931 1.274250 -0.170038 150 150 150
-0.009309 0.075109 0.219822 150 150 150
-0.177197 0.075843 -0.465351 150 150 150
-0.118549 1.498514 -0.188168 150 150 150
-0.074798 1.393713 -0.103788 150 150 150
-0.134487 1.388610 -0.255878 150 150 150
-0.189440 1.549664 -0.141683 150 150 150
0.010013 1.402069 -0.006705 150 150 150
-0.180779 1.392188 -0.364396 150 150 150
0.133794 1.199623 0.079317 150 150 150
-0.240498 1.178731 -0.509088 150 150 150
0.113503 0.993285 0.238582 150 150 150
-0.446571 1.018114 -0.564054 150 150 150
0.098432 0.917329 0.282709 150 150 150
-0.518711 0.962544 -0.568409 150 150 150
