ply
format ascii 1.0
comment author: Greg Turk
comment object: another cube
element vertex 24
property float x
property float y
property float z
property uchar red
property uchar green
property uchar blue
element face 0
property list uchar int vertex_index
end_header
0.244924 0.781021 -0.103367 150 150 150
0.247610 0.694285 -0.047080 150 150 150
0.275578 0.702659 -0.173425 150 150 150
0.270102 0.893992 -0.078699 150 150 150
-0.058162 0.453366 0.016437 150 150 150
0.100695 0.425484 -0.390412 150 150 150
0.181113 0.997099 -0.084291 150 150 150
0.182313 0.105711 0.093745 150 150 150
0.370026 0.102298 -0.358494 150 150 150
0.148229 1.042414 -0.091460 150 150 150
0.063561 0.048929 0.134090 150 150 150
0.291492 0.056867 -0.472802 150 150 150
0.099541 1.251145 -0.135935 150 150 150
0.107057 1.158526 -0.032068 150 150 150
0.138718 1.146879 -0.193141 150 150 150
0.018200 1.306674 -0.161156 150 150 150
0.090167 1.175551 0.097583 150 150 150
0.124588 1.139527 -0.309281 150 150 150
0.078152 1.006330 0.294271 150 150 150
0.093541 0.936771 -0.483668 150 150 150
-0.095085 0.889034 0.456846 150 150 150
-0.132779 0.801285 -0.537289 150 150 150
-0.151216 0.842963 0.508033 150 150 150
-0.211332 0.755627 -0.542563 150 150 150
