ply
format ascii 1.0
comment author: Greg Turk
comment object: another cube
element vertex 24
property float x
property float y
property float z
property uchar red
property uchar green
property uchar blue
element face 0
property list uchar int vertex_index
end_header
0.164921 0.905092 -0.149489 150 150 150
0.205454 0.821881 -0.100980 150 150 150
0.172529 0.825241 -0.223685 150 150 150
0.185322 1.028305 -0.143445 150 150 150
0.061485 0.496576 0.054886 150 150 150
0.051318 0.485400 -0.376660 150 150 150
0.106732 1.129351 -0.095801 150 150 150
0.181246 0.086463 0.090821 150 150 150
0.328066 0.166179 -0.373210 150 150 150
0.077234 1.174788 -0.079558 150 150 150
0.056652 0.055409 0.144154 150 150 150
0.266575 0.086311 -0.479834 150 150 150
-0.006049 1.378741 -0.065628 150 150 150
0.082972 1.290615 -0.006080 150 150 150
-0.011166 1.276280 -0.137840 150 150 150
-0.077538 1.423704 -0.010406 150 150 150
0.179259 1.331885 0.074184 150 150 150
-0.104486 1.263192 -0.204804 150 150 150
0.395156 1.211685 0.127065 150 150 150
-0.221928 1.033760 -0.283532 150 150 150
0.552279 1.087721 0.299158 150 150 150
-0.385992 0.855371 -0.168216 150 150 150
0.603052 1.034058 0.348076 150 150 150
-0.431892 0.794411 -0.118486 150 150 150
