ply
format ascii 1.0
comment author: Greg Turk
comment object: another cube
element vertex 24
property float x
property float y
property float z
property uchar red
property uchar green
property uchar blue
element face 0
property list uchar int vertex_index
end_header
-0.108548 0.843912 -0.250985 150 150 150
-0.108814 0.775339 -0.171657 150 150 150
-0.090421 0.744818 -0.296328 150 150 150
-0.075282 0.957277 -0.262314 150 150 150
-0.403467 0.563028 -0.020159 150 150 150
-0.374379 0.552228 -0.486591 150 150 150
-0.174343 1.042893 -0.313553 150 150 150
-0.198955 0.201097 0.092802 150 150 150
-0.315773 0.131690 -0.521494 150 150 150
-0.210938 1.080825 -0.341793 150 150 150
-0.291556 0.116716 0.152317 150 150 150
-0.435261 0.080277 -0.585940 150 150 150
-0.294210 1.233463 -0.467798 150 150 150
-0.266418 1.204800 -0.339104 150 150 150
-0.236982 1.125681 -0.476367 150 150 150
-0.388894 1.235666 -0.456128 150 150 150
-0.272067 1.289341 -0.240223 150 150 150
-0.234015 1.078378 -0.587147 150 150 150
-0.202453 1.236567 -0.003075 150 150 150
-0.225329 0.816337 -0.642196 150 150 150
-0.244422 1.167154 0.245873 150 150 150
-0.430991 0.647991 -0.677437 150 150 150
-0.248486 1.134543 0.327818 150 150 150
-0.504032 0.594022 -0.673125 150 150 150
