ply
format ascii 1.0
comment author: Greg Turk
comment object: another cube
element vertex 24
property float x
property float y
property float z
property uchar red
property uchar green
property uchar blue
element face 0
property list uchar int vertex_index
end_header
0.120779 1.088401 0.038360 150 150 150
0.063537 1.014759 0.089099 150 150 150
0.184489 0.999201 0.064007 150 150 150
0.120269 1.218389 0.034657 150 150 150
-0.126227 0.677873 0.112779 150 150 150
0.311989 0.667275 -0.089279 150 150 150
0.134301 1.297045 -0.090368 150 150 150
-0.137420 0.311822 0.341339 150 150 150
0.446550 0.270556 -0.037304 150 150 150
0.144246 1.336788 -0.137926 150 150 150
-0.198488 0.187078 0.338223 150 150 150
0.446607 0.181876 -0.151886 150 150 150
0.167655 1.485922 -0.275316 150 150 150
0.076782 1.407362 -0.224604 150 150 150
0.231819 1.433123 -0.195363 150 150 150
0.152857 1.438430 -0.351175 150 150 150
-0.039013 1.367077 -0.261820 150 150 150
0.335913 1.499961 -0.188645 150 150 150
-0.124882 1.137589 -0.173377 150 150 150
0.517455 1.496059 -0.009474 150 150 150
-0.141035 0.878245 -0.198307 150 150 150
0.694683 1.435155 -0.193202 150 150 150
-0.131766 0.790584 -0.194701 150 150 150
0.738276 1.392174 -0.259316 150 150 150
