ply
format ascii 1.0
comment author: Greg Turk
comment object: another cube
element vertex 24
property float x
property float y
property float z
property uchar red
property uchar green
property uchar blue
element face 0
property list uchar int vertex_index
end_header
0.344294 0.870507 -0.083258 150 150 150
0.364970 0.783944 -0.028692 150 150 150
0.348325 0.785949 -0.154414 150 150 150
0.382138 0.989865 -0.075269 150 150 150
0.155389 0.474130 0.081890 150 150 150
0.160027 0.458325 -0.248239 150 150 150
0.313017 1.109447 -0.057575 150 150 150
0.407626 0.127119 0.115375 150 150 150
0.424110 0.128595 -0.276765 150 150 150
0.290397 1.163740 -0.061158 150 150 150
0.310424 0.053250 0.179198 150 150 150
0.308670 0.063477 -0.338844 150 150 150
0.241928 1.367982 -0.119930 150 150 150
0.284177 1.293091 -0.012752 150 150 150
0.254791 1.255173 -0.165962 150 150 150
0.169891 1.428184 -0.086255 150 150 150
0.331961 1.357246 0.091251 150 150 150
0.220359 1.248902 -0.280644 150 150 150
0.456824 1.257757 0.288237 150 150 150
0.156439 1.036740 -0.425614 150 150 150
0.425647 1.143502 0.519448 150 150 150
-0.103702 1.005540 -0.467238 150 150 150
0.427550 1.087399 0.587697 150 150 150
-0.193808 0.999935 -0.465895 150 150 150
