ply
format ascii 1.0
comment author: Greg Turk
comment object: another cube
element vertex 24
property float x
property float y
property float z
property uchar red
property uchar green
property uchar blue
element face 0
property list uchar int vertex_index
end_header
-0.145087 1.067343 -0.228502 150 150 150
-0.115967 0.983747 -0.173361 150 150 150
-0.149691 0.976324 -0.291870 150 150 150
-0.104933 1.193664 -0.234510 150 150 150
-0.147104 0.647140 0.013086 150 150 150
-0.272238 0.628855 -0.402430 150 150 150
-0.146761 1.323556 -0.224334 150 150 150
-0.019698 0.245357 0.104981 150 150 150
-0.145483 0.226515 -0.446796 150 150 150
-0.158171 1.377140 -0.229259 150 150 150
-0.073254 0.151159 0.191854 150 150 150
-0.244723 0.130149 -0.495950 150 150 150
-0.182195 1.596812 -0.264476 150 150 150
-0.137848 1.502514 -0.172258 150 150 150
-0.191043 1.482387 -0.324668 150 150 150
-0.255041 1.640614 -0.217726 150 150 150
-0.059008 1.525983 -0.072813 150 150 150
-0.226045 1.478269 -0.438661 150 150 150
0.070910 1.339491 0.033857 150 150 150
-0.234903 1.255146 -0.578536 150 150 150
0.031274 1.130055 0.183674 150 150 150
-0.400138 1.058196 -0.646684 150 150 150
0.010105 1.051646 0.220799 150 150 150
-0.456540 0.986822 -0.653801 150 150 150
