ply
format ascii 1.0
comment author: Greg Turk
comment object: another cube
element vertex 24
property float x
property float y
property float z
property uchar red
property uchar green
property uchar blue
element face 0
property list uchar int vertex_index
end_header
0.208595 0.890418 -0.128971 150 150 150
0.215362 0.803044 -0.073744 150 150 150
0.254419 0.812210 -0.193085 150 150 150
0.224206 1.013593 -0.101040 150 150 150
0.039449 0.492352 0.086289 150 150 150
0.252877 0.455081 -0.337578 150 150 150
0.159215 1.128651 -0.096271 150 150 150
0.190769 0.109266 0.212167 150 150 150
0.471532 0.095241 -0.318240 150 150 150
0.145160 1.178632 -0.097974 150 150 150
0.091062 0.059531 0.293894 150 150 150
0.376037 0.061379 -0.421758 150 150 150
0.125179 1.407515 -0.090152 150 150 150
0.103921 1.284312 -0.014984 150 150 150
0.174297 1.306813 -0.161555 150 150 150
0.043177 1.461155 -0.114486 150 150 150
0.103674 1.261716 0.111903 150 150 150
0.243815 1.324927 -0.255256 150 150 150
0.152537 1.029758 0.202688 150 150 150
0.372783 1.128022 -0.367025 150 150 150
0.038328 0.810375 0.288619 150 150 150
0.361152 0.994250 -0.597808 150 150 150
-0.000532 0.732992 0.308724 150 150 150
0.349099 0.950368 -0.676204 150 150 150
