ply
format ascii 1.0
comment author: Greg Turk
comment object: another cube
element vertex 24
property float x
property float y
property float z
property uchar red
property uchar green
property uchar blue
element face 0
property list uchar int vertex_index
end_header
0.332735 1.009813 -0.092974 150 150 150
0.351502 0.925447 -0.036105 150 150 150
0.353556 0.922939 -0.157895 150 150 150
0.366683 1.139890 -0.080454 150 150 150
0.353344 0.556187 0.066020 150 150 150
0.358291 0.553148 -0.250197 150 150 150
0.337316 1.271105 -0.071910 150 150 150
0.420832 0.134549 0.118789 150 150 150
0.426845 0.136190 -0.278231 150 150 150
0.334295 1.323209 -0.074861 150 150 150
0.317545 0.067220 0.185357 150 150 150
0.307411 0.071921 -0.337507 150 150 150
0.387520 1.548933 -0.083567 150 150 150
0.348223 1.441053 0.004014 150 150 150
0.377573 1.437689 -0.157871 150 150 150
0.333285 1.634964 -0.087868 150 150 150
0.352275 1.426841 0.129843 150 150 150
0.401169 1.427436 -0.271162 150 150 150
0.307160 1.189912 0.201495 150 150 150
0.387862 1.184094 -0.360839 150 150 150
0.159505 0.977856 0.258356 150 150 150
0.281119 0.965891 -0.476079 150 150 150
0.115440 0.901236 0.270547 150 150 150
0.248933 0.886081 -0.505346 150 150 150
