ply
format ascii 1.0
comment author: Greg Turk
comment object: another cube
element vertex 24
property float x
property float y
property float z
property uchar red
property uchar green
property uchar blue
element face 0
property list uchar int vertex_index
end_header
-0.144640 0.983536 0.205709 150 150 150
-0.150263 0.896634 0.261846 150 150 150
-0.131085 0.896176 0.138995 150 150 150
-0.096001 1.099619 0.230319 150 150 150
-0.269267 0.531156 0.329203 150 150 150
-0.334713 0.591567 0.020159 150 150 150
-0.138296 1.230975 0.227270 150 150 150
-0.124639 0.125881 0.337354 150 150 150
-0.138319 0.234127 0.132242 150 150 150
-0.145748 1.287259 0.217663 150 150 150
-0.236789 0.060956 0.388242 150 150 150
-0.235802 0.163331 0.047127 150 150 150
-0.126077 1.499847 0.178856 150 150 150
-0.172085 1.412818 0.270064 150 150 150
-0.089988 1.388916 0.133977 150 150 150
-0.200545 1.543719 0.132490 150 150 150
-0.217986 1.465606 0.381711 150 150 150
-0.034010 1.393024 0.030230 150 150 150
-0.401881 1.394945 0.552691 150 150 150
0.008374 1.198512 -0.141968 150 150 150
-0.658687 1.449707 0.580314 150 150 150
-0.132182 1.168762 -0.366827 150 150 150
-0.746234 1.455294 0.593356 150 150 150
-0.188753 1.158085 -0.436761 150 150 150
