ply
format ascii 1.0
comment author: Greg Turk
comment object: another cube
element vertex 24
property float x
property float y
property float z
property uchar red
property uchar green
property uchar blue
element face 0
property list uchar int vertex_index
end_header
-0.089164 0.881239 -0.215869 150 150 150
-0.091908 0.814499 -0.134534 150 150 150
-0.062104 0.781300 -0.255202 150 150 150
-0.060116 0.997324 -0.229335 150 150 150
-0.364575 0.574732 0.012614 150 150 150
-0.309173 0.552159 -0.455187 150 150 150
-0.157024 1.079590 -0.289967 150 150 150
-0.144566 0.240805 0.172674 150 150 150
-0.304608 0.131417 -0.517241 150 150 150
-0.192094 1.116202 -0.321914 150 150 150
-0.234474 0.153708 0.233531 150 150 150
-0.425885 0.086908 -0.582470 150 150 150
-0.272232 1.261039 -0.458007 150 150 150
-0.250861 1.238538 -0.327453 150 150 150
-0.210875 1.155447 -0.459018 150 150 150
-0.366768 1.256428 -0.451858 150 150 150
-0.261111 1.328823 -0.233954 150 150 150
-0.201077 1.103565 -0.567086 150 150 150
-0.182308 1.310475 0.005277 150 150 150
-0.192307 0.838548 -0.606051 150 150 150
-0.192919 1.294354 0.265892 150 150 150
-0.417085 0.693921 -0.612915 150 150 150
-0.188048 1.281444 0.352607 150 150 150
-0.496398 0.652069 -0.600091 150 150 150
