ply
format ascii 1.0
comment author: Greg Turk
comment object: another cube
element vertex 24
property float x
property float y
property float z
property uchar red
property uchar green
property uchar blue
element face 0
property list uchar int vertex_index
end_header
0.103742 1.090138 -0.142251 150 150 150
0.172656 1.036111 -0.194275 150 150 150
0.052858 1.006363 -0.189218 150 150 150
0.088832 1.208130 -0.114986 150 150 150
0.320083 0.794100 0.072320 150 150 150
0.067576 0.620741 -0.152692 150 150 150
0.110195 1.224384 0.022522 150 150 150
0.421465 0.377073 0.118778 150 150 150
0.197590 0.238384 -0.289202 150 150 150
0.113758 1.222447 0.082253 150 150 150
0.458621 0.272670 0.205050 150 150 150
0.126338 0.120038 -0.233690 150 150 150
0.070332 1.285947 0.277335 150 150 150
0.168748 1.277928 0.192116 150 150 150
0.013191 1.234664 0.181002 150 150 150
0.057209 1.244085 0.365028 150 150 150
0.298628 1.296702 0.218194 150 150 150
-0.085148 1.168196 0.189739 150 150 150
0.505503 1.140908 0.161936 150 150 150
-0.204480 0.990174 0.030209 150 150 150
0.606161 0.892378 0.198807 150 150 150
-0.279479 0.775784 -0.118763 150 150 150
0.638361 0.808127 0.201651 150 150 150
-0.304434 0.712989 -0.180348 150 150 150
