ply
format ascii 1.0
comment author: Greg Turk
comment object: another cube
element vertex 24
property float x
property float y
property float z
property uchar red
property uchar green
property uchar blue
element face 0
property list uchar int vertex_index
end_header
0.107579 0.905764 0.062606 150 150 150
0.069362 0.846112 0.140181 150 150 150
0.178827 0.823849 0.078418 150 150 150
0.104570 1.024439 0.038224 150 150 150
-0.100780 0.497931 0.185106 150 150 150
0.204083 0.511991 -0.153479 150 150 150
0.060847 1.069547 -0.087519 150 150 150
-0.064344 0.140631 0.423962 150 150 150
0.313135 0.122914 -0.024309 150 150 150
0.049804 1.092421 -0.140362 150 150 150
-0.175604 0.066318 0.383180 150 150 150
0.325910 0.059640 -0.154786 150 150 150
0.045272 1.222486 -0.314205 150 150 150
-0.028541 1.182726 -0.203290 150 150 150
0.120409 1.144108 -0.257050 150 150 150
-0.022625 1.192751 -0.377273 150 150 150
-0.141884 1.221915 -0.155530 150 150 150
0.223618 1.119417 -0.316613 150 150 150
-0.214488 1.103394 0.056368 150 150 150
0.375960 0.902478 -0.285705 150 150 150
-0.316718 0.987413 0.270792 150 150 150
0.449900 0.685357 -0.426636 150 150 150
-0.327445 0.952260 0.351215 150 150 150
0.459909 0.606606 -0.470915 150 150 150
