ply
format ascii 1.0
comment author: Greg Turk
comment object: another cube
element vertex 24
property float x
property float y
property float z
property uchar red
property uchar green
property uchar blue
element face 0
property list uchar int vertex_index
end_header
0.167426 0.852733 -0.046854 150 150 150
0.253239 0.797642 -0.044577 150 150 150
0.166278 0.800316 -0.140817 150 150 150
0.138961 0.951550 0.001194 150 150 150
0.133197 0.578133 0.258378 150 150 150
0.048348 0.433691 -0.098361 150 150 150
0.043151 0.920590 0.090074 150 150 150
0.306186 0.189688 0.169046 150 150 150
0.286336 0.126164 -0.262642 150 150 150
-0.000151 0.907756 0.121396 150 150 150
0.320798 0.061992 0.222629 150 150 150
0.155560 0.060423 -0.270201 150 150 150
-0.173676 0.942502 0.250866 150 150 150
-0.042727 0.897462 0.251806 150 150 150
-0.135057 0.957601 0.125133 150 150 150
-0.254277 0.886545 0.261969 150 150 150
0.035097 0.851994 0.348684 150 150 150
-0.196487 0.997258 0.028100 150 150 150
0.249867 0.722264 0.276735 150 150 150
-0.070271 1.082853 -0.180191 150 150 150
0.392137 0.569756 0.109918 150 150 150
0.092696 1.174053 -0.375761 150 150 150
0.447559 0.529760 0.050521 150 150 150
0.150250 1.213122 -0.434905 150 150 150
