ply
format ascii 1.0
comment author: Greg Turk
comment object: another cube
element vertex 24
property float x
property float y
property float z
property uchar red
property uchar green
property uchar blue
element face 0
property list uchar int vertex_index
end_header
-0.233904 0.926010 0.279377 150 150 150
-0.238767 0.846994 0.345329 150 150 150
-0.226196 0.832195 0.223676 150 150 150
-0.182497 1.042351 0.286825 150 150 150
-0.378352 0.485430 0.372708 150 150 150
-0.481085 0.549783 0.199530 150 150 150
-0.224297 1.167997 0.269941 150 150 150
-0.131380 0.134119 0.345036 150 150 150
-0.489022 0.148648 0.332087 150 150 150
-0.236585 1.216909 0.253049 150 150 150
-0.234170 0.050880 0.388486 150 150 150
-0.611862 0.126392 0.254088 150 150 150
-0.224601 1.432953 0.192156 150 150 150
-0.269125 1.347669 0.294690 150 150 150
-0.186782 1.310568 0.156088 150 150 150
-0.301436 1.476710 0.143343 150 150 150
-0.321961 1.388251 0.406020 150 150 150
-0.130315 1.278541 0.060543 150 150 150
-0.485825 1.238954 0.543715 150 150 150
-0.067140 1.026442 0.052616 150 150 150
-0.735341 1.151225 0.526601 150 150 150
-0.173522 0.786991 0.000910 150 150 150
-0.810986 1.104052 0.523787 150 150 150
-0.214112 0.705654 -0.001544 150 150 150
