ply
format ascii 1.0
comment author: Greg Turk
comment object: another cube
element vertex 24
property float x
property float y
property float z
property uchar red
property uchar green
property uchar blue
element face 0
property list uchar int vertex_index
end_header
-0.425189 0.773184 0.351491 150 150 150
-0.416071 0.698982 0.423230 150 150 150
-0.419808 0.677832 0.299542 150 150 150
-0.386227 0.890798 0.346397 150 150 150
-0.573229 0.359489 0.550388 150 150 150
-0.741908 0.476186 0.333864 150 150 150
-0.457136 1.001294 0.322914 150 150 150
-0.158161 0.236002 0.540571 150 150 150
-0.703904 0.086585 0.494192 150 150 150
-0.487725 1.039558 0.305437 150 150 150
-0.096853 0.119147 0.582037 150 150 150
-0.836812 0.074191 0.432591 150 150 150
-0.538164 1.250409 0.249961 150 150 150
-0.550861 1.154890 0.351863 150 150 150
-0.476418 1.140123 0.201510 150 150 150
-0.633579 1.269259 0.222206 150 150 150
-0.625490 1.134889 0.450124 150 150 150
-0.433388 1.098571 0.102346 150 150 150
-0.744953 0.904137 0.386603 150 150 150
-0.334997 0.857733 0.129471 150 150 150
-0.879317 0.784731 0.186618 150 150 150
-0.338341 0.588458 0.150129 150 150 150
-0.914917 0.734723 0.121288 150 150 150
-0.335602 0.500818 0.175958 150 150 150
