ply
format ascii 1.0
comment author: Greg Turk
comment object: another cube
element vertex 24
property float x
property float y
property float z
property uchar red
property uchar green
property uchar blue
element face 0
property list uchar int vertex_index
end_header
0.185084 0.858358 -0.108143 150 150 150
0.166287 0.767591 -0.062448 150 150 150
0.230065 0.779223 -0.171247 150 150 150
0.211311 0.970906 -0.063661 150 150 150
-0.076441 0.459404 -0.017466 150 150 150
0.146438 0.474276 -0.398779 150 150 150
0.152998 1.097385 -0.074992 150 150 150
0.172671 0.127222 0.091584 150 150 150
0.363492 0.114749 -0.356764 150 150 150
0.140412 1.154625 -0.081525 150 150 150
0.065040 0.053031 0.136410 150 150 150
0.289284 0.064322 -0.473100 150 150 150
0.158109 1.366977 -0.086841 150 150 150
0.093937 1.268756 -0.024528 150 150 150
0.208407 1.268712 -0.136276 150 150 150
0.113634 1.431310 -0.147382 150 150 150
0.004103 1.298563 0.067655 150 150 150
0.274882 1.302117 -0.228272 150 150 150
-0.224265 1.211344 0.163907 150 150 150
0.366900 1.209657 -0.461234 150 150 150
-0.484081 1.248274 0.130780 150 150 150
0.230423 1.236896 -0.690453 150 150 150
-0.571816 1.252053 0.120114 150 150 150
0.177574 1.243651 -0.763404 150 150 150
