ply
format ascii 1.0
comment author: Greg Turk
comment object: another cube
element vertex 24
property float x
property float y
property float z
property uchar red
property uchar green
property uchar blue
element face 0
property list uchar int vertex_index
end_header
0.222047 0.949231 -0.171889 150 150 150
0.225686 0.863351 -0.113518 150 150 150
0.262997 0.865137 -0.232327 150 150 150
0.246423 1.077257 -0.148656 150 150 150
0.104168 0.535777 0.052862 150 150 150
0.280252 0.500302 -0.347143 150 150 150
0.197558 1.203471 -0.146525 150 150 150
0.197958 0.139317 0.191179 150 150 150
0.467159 0.121629 -0.323267 150 150 150
0.190359 1.257513 -0.147831 150 150 150
0.100193 0.085626 0.272615 150 150 150
0.374309 0.067783 -0.422225 150 150 150
0.200414 1.485519 -0.142122 150 150 150
0.167115 1.368780 -0.065465 150 150 150
0.230717 1.381957 -0.214828 150 150 150
0.125288 1.548697 -0.157948 150 150 150
0.163495 1.353246 0.061229 150 150 150
0.288995 1.399280 -0.315551 150 150 150
0.166072 1.112961 0.129880 150 150 150
0.348782 1.189902 -0.455789 150 150 150
-0.053287 0.978525 0.138689 150 150 150
0.201306 1.124712 -0.663668 150 150 150
-0.122600 0.924103 0.126717 150 150 150
0.142332 1.097314 -0.726565 150 150 150
