ply
format ascii 1.0
comment author: Greg Turk
comment object: another cube
element vertex 24
property float x
property float y
property float z
property uchar red
property uchar green
property uchar blue
element face 0
property list uchar int vertex_index
end_header
0.179183 1.262913 -0.029142 150 150 150
0.168715 1.165735 -0.067759 150 150 150
0.169922 1.188845 0.053367 150 150 150
0.138426 1.382437 -0.066569 150 150 150
0.304966 0.803250 -0.087991 150 150 150
0.356769 0.892707 0.212915 150 150 150
0.190543 1.511248 -0.098555 150 150 150
0.106903 0.419218 -0.067264 150 150 150
0.041492 0.605425 0.218922 150 150 150
0.199951 1.567361 -0.112980 150 150 150
0.142498 0.286942 -0.069331 150 150 150
0.076753 0.496294 0.310434 150 150 150
0.203215 1.771026 -0.180774 150 150 150
0.213228 1.642968 -0.224501 150 150 150
0.179086 1.706636 -0.080222 150 150 150
0.290748 1.787545 -0.217094 150 150 150
0.231218 1.597926 -0.343159 150 150 150
0.132817 1.783879 0.003843 150 150 150
0.302984 1.352451 -0.363915 150 150 150
0.034292 1.730733 0.236253 150 150 150
0.526172 1.224799 -0.318187 150 150 150
0.224803 1.815260 0.394688 150 150 150
0.589498 1.174929 -0.281307 150 150 150
0.305278 1.820587 0.435643 150 150 150
