ply
format ascii 1.0
comment author: Greg Turk
comment object: another cube
element vertex 24
property float x
property float y
property float z
property uchar red
property uchar green
property uchar blue
element face 0
property list uchar int vertex_index
end_header
0.169630 1.268179 -0.019102 150 150 150
0.134967 1.172483 -0.045697 150 150 150
0.191955 1.194383 0.061919 150 150 150
0.126977 1.390813 -0.040001 150 150 150
0.208707 0.802451 -0.137948 150 150 150
0.415289 0.891309 0.139100 150 150 150
0.180664 1.513348 -0.093803 150 150 150
0.016882 0.428934 -0.036043 150 150 150
0.131697 0.660957 0.360167 150 150 150
0.192071 1.568676 -0.113032 150 150 150
0.031859 0.294952 -0.060212 150 150 150
0.197990 0.548092 0.425810 150 150 150
0.201368 1.766267 -0.189554 150 150 150
0.182442 1.638147 -0.227420 150 150 150
0.199478 1.709615 -0.083437 150 150 150
0.276241 1.767373 -0.246997 150 150 150
0.169772 1.582959 -0.342683 150 150 150
0.181066 1.796789 0.002778 150 150 150
0.211623 1.328281 -0.355898 150 150 150
0.113931 1.768076 0.248109 150 150 150
0.433077 1.194247 -0.328789 150 150 150
0.340008 1.857607 0.342725 150 150 150
0.499317 1.143798 -0.298063 150 150 150
0.428061 1.862117 0.362414 150 150 150
