ply
format ascii 1.0
comment author: Greg Turk
comment object: another cube
element vertex 24
property float x
property float y
property float z
property uchar red
property uchar green
property uchar blue
element face 0
property list uchar int vertex_index
end_header
-0.127592 0.816684 -0.280935 150 150 150
-0.126058 0.745138 -0.204454 150 150 150
-0.111235 0.720070 -0.331346 150 150 150
-0.094806 0.929844 -0.287800 150 150 150
-0.427506 0.536355 -0.059341 150 150 150
-0.418128 0.550497 -0.506296 150 150 150
-0.193628 1.018555 -0.332070 150 150 150
-0.234815 0.159692 0.024756 150 150 150
-0.323528 0.134796 -0.522850 150 150 150
-0.230232 1.057812 -0.356781 150 150 150
-0.321457 0.078070 0.095033 150 150 150
-0.440934 0.077197 -0.586523 150 150 150
-0.312054 1.222357 -0.471320 150 150 150
-0.281412 1.183535 -0.344470 150 150 150
-0.259146 1.111963 -0.488013 150 150 150
-0.406506 1.231227 -0.455482 150 150 150
-0.278378 1.257807 -0.238358 150 150 150
-0.258394 1.069826 -0.600945 150 150 150
-0.208124 1.155858 -0.018950 150 150 150
-0.253746 0.809214 -0.663718 150 150 150
-0.271998 1.021961 0.197001 150 150 150
-0.440700 0.623454 -0.716676 150 150 150
-0.284637 0.967965 0.266246 150 150 150
-0.506893 0.560839 -0.720013 150 150 150
