ply
format ascii 1.0
comment author: Greg Turk
comment object: another cube
element vertex 24
property float x
property float y
property float z
property uchar red
property uchar green
property uchar blue
element face 0
property list uchar int vertex_index
end_header
0.334544 0.814735 -0.197723 150 150 150
0.358266 0.730373 -0.142165 150 150 150
0.359011 0.736959 -0.271711 150 150 150
0.348160 0.929202 -0.177547 150 150 150
0.138831 0.470147 0.057793 150 150 150
0.102244 0.474880 -0.402258 150 150 150
0.242728 1.012147 -0.174677 150 150 150
0.341621 0.097165 0.133170 150 150 150
0.274886 0.094912 -0.470340 150 150 150
0.205631 1.051255 -0.181131 150 150 150
0.266978 0.050276 0.238854 150 150 150
0.141694 0.062296 -0.517355 150 150 150
0.117717 1.256874 -0.216489 150 150 150
0.141998 1.156948 -0.114259 150 150 150
0.181502 1.158552 -0.275880 150 150 150
0.026544 1.302147 -0.213961 150 150 150
0.145470 1.161970 0.014787 150 150 150
0.223323 1.156235 -0.386843 150 150 150
0.264166 0.973001 0.135987 150 150 150
0.392228 0.965297 -0.442448 150 150 150
0.263381 0.728275 0.231246 150 150 150
0.406192 0.733884 -0.575735 150 150 150
0.265279 0.642775 0.256412 150 150 150
0.400948 0.655600 -0.621504 150 150 150
