ply
format ascii 1.0
comment author: Greg Turk
comment object: another cube
element vertex 24
property float x
property float y
property float z
property uchar red
property uchar green
property uchar blue
element face 0
property list uchar int vertex_index
end_header
0.173077 1.205580 -0.123313 150 150 150
0.127666 1.123696 -0.165120 150 150 150
0.226549 1.111434 -0.099703 150 150 150
0.128353 1.319660 -0.064651 150 150 150
0.121184 0.763019 -0.304171 150 150 150
0.317819 0.758494 -0.210982 150 150 150
0.127071 1.461667 -0.052917 150 150 150
0.017008 0.417563 -0.068506 150 150 150
0.225275 0.345245 -0.198105 150 150 150
0.131835 1.519043 -0.035267 150 150 150
-0.026755 0.300428 -0.130945 150 150 150
0.273433 0.242141 -0.293228 150 150 150
0.142528 1.701127 0.064367 150 150 150
0.082190 1.644348 -0.030416 150 150 150
0.181943 1.591309 0.075097 150 150 150
0.220189 1.752350 0.058724 150 150 150
-0.002718 1.724088 -0.089762 150 150 150
0.264357 1.598805 0.159701 150 150 150
-0.097666 1.830900 -0.309624 150 150 150
0.506516 1.521423 0.245478 150 150 150
-0.061477 2.010705 -0.503899 150 150 150
0.774470 1.555072 0.260696 150 150 150
-0.054888 2.060351 -0.577386 150 150 150
0.865064 1.555037 0.260669 150 150 150
