ply
format ascii 1.0
comment author: Greg Turk
comment object: another cube
element vertex 24
property float x
property float y
property float z
property uchar red
property uchar green
property uchar blue
element face 0
property list uchar int vertex_index
end_header
0.127661 1.154090 0.023061 150 150 150
0.066604 1.075800 0.060334 150 150 150
0.190687 1.068227 0.059998 150 150 150
0.119420 1.284864 0.021213 150 150 150
-0.108098 0.730516 0.045081 150 150 150
0.353578 0.736249 -0.050855 150 150 150
0.149585 1.373265 -0.093700 150 150 150
-0.143731 0.380436 0.294943 150 150 150
0.505786 0.352131 0.038003 150 150 150
0.162938 1.417438 -0.135794 150 150 150
-0.192096 0.250635 0.293668 150 150 150
0.532386 0.268918 -0.078009 150 150 150
0.189196 1.577797 -0.258902 150 150 150
0.101871 1.485480 -0.228468 150 150 150
0.245713 1.527340 -0.172311 150 150 150
0.192166 1.534023 -0.337826 150 150 150
0.000880 1.431603 -0.286431 150 150 150
0.334087 1.609904 -0.144317 150 150 150
-0.058047 1.182697 -0.232455 150 150 150
0.462982 1.638506 0.072803 150 150 150
0.029808 0.946953 -0.297620 150 150 150
0.675835 1.633032 -0.079397 150 150 150
0.072770 0.869893 -0.303879 150 150 150
0.738042 1.605096 -0.138377 150 150 150
