ply
format ascii 1.0
comment author: Greg Turk
comment object: another cube
element vertex 24
property float x
property float y
property float z
property uchar red
property uchar green
property uchar blue
element face 0
property list uchar int vertex_index
end_header
-0.162074 1.080371 -0.241487 150 150 150
-0.133951 0.997058 -0.185418 150 150 150
-0.166597 0.988780 -0.304025 150 150 150
-0.120970 1.206812 -0.248702 150 150 150
-0.172331 0.662385 0.002318 150 150 150
-0.278496 0.639184 -0.416627 150 150 150
-0.163032 1.336925 -0.242347 150 150 150
-0.054673 0.256086 0.086045 150 150 150
-0.188451 0.228525 -0.473100 150 150 150
-0.174930 1.390327 -0.249162 150 150 150
-0.108272 0.163898 0.175053 150 150 150
-0.297890 0.143374 -0.521488 150 150 150
-0.202337 1.607961 -0.291243 150 150 150
-0.157671 1.517465 -0.195619 150 150 150
-0.208206 1.491849 -0.348128 150 150 150
-0.276483 1.649657 -0.245601 150 150 150
-0.081602 1.545051 -0.094876 150 150 150
-0.240457 1.484406 -0.463077 150 150 150
0.049574 1.362897 0.017254 150 150 150
-0.236901 1.259427 -0.600429 150 150 150
-0.001470 1.150174 0.157829 150 150 150
-0.391153 1.054946 -0.671730 150 150 150
-0.025852 1.070370 0.189916 150 150 150
-0.443881 0.980925 -0.679880 150 150 150
