ply
format ascii 1.0
comment author: Greg Turk
comment object: another cube
element vertex 24
property float x
property float y
property float z
property uchar red
property uchar green
property uchar blue
element face 0
property list uchar int vertex_index
end_header
-0.037338 0.950066 -0.106259 150 150 150
-0.047212 0.885517 -0.022949 150 150 150
0.011678 0.854158 -0.131545 150 150 150
-0.020633 1.072822 -0.120744 150 150 150
-0.210471 0.554359 0.102114 150 150 150
-0.102839 0.559967 -0.362251 150 150 150
-0.100715 1.154354 -0.201141 150 150 150
-0.080845 0.224323 0.346510 150 150 150
0.120415 0.237162 -0.195497 150 150 150
-0.126641 1.189665 -0.240204 150 150 150
-0.174136 0.120662 0.362241 150 150 150
0.098008 0.130299 -0.290929 150 150 150
-0.190938 1.321872 -0.401912 150 150 150
-0.189784 1.309870 -0.265033 150 150 150
-0.123632 1.218843 -0.382248 150 150 150
-0.284517 1.307129 -0.410380 150 150 150
-0.199065 1.413691 -0.188922 150 150 150
-0.096149 1.151771 -0.475015 150 150 150
-0.061358 1.420081 0.019115 150 150 150
-0.085060 0.890962 -0.418755 150 150 150
0.042720 1.439491 0.257365 150 150 150
-0.321416 0.785093 -0.357528 150 150 150
0.095234 1.437489 0.327805 150 150 150
-0.402355 0.769714 -0.319921 150 150 150
