ply
format ascii 1.0
comment author: Greg Turk
comment object: another cube
element vertex 24
property float x
property float y
property float z
property uchar red
property uchar green
property uchar blue
element face 0
property list uchar int vertex_index
end_header
0.215843 1.048192 -0.171261 150 150 150
0.226115 0.962622 -0.112413 150 150 150
0.249151 0.961069 -0.233294 150 150 150
0.243554 1.180341 -0.152986 150 150 150
0.170622 0.615087 0.038794 150 150 150
0.274340 0.597328 -0.344679 150 150 150
0.199045 1.313964 -0.151869 150 150 150
0.287350 0.213588 0.136168 150 150 150
0.417593 0.198450 -0.360252 150 150 150
0.194663 1.372594 -0.155762 150 150 150
0.208318 0.132636 0.215815 150 150 150
0.330842 0.110607 -0.440041 150 150 150
0.204721 1.592438 -0.171040 150 150 150
0.177898 1.490706 -0.085206 150 150 150
0.231534 1.488596 -0.233533 150 150 150
0.129166 1.649132 -0.189212 150 150 150
0.174220 1.509861 0.041919 150 150 150
0.289612 1.516042 -0.333907 150 150 150
0.141008 1.313918 0.189844 150 150 150
0.370989 1.337165 -0.499860 150 150 150
-0.108282 1.257801 0.178638 150 150 150
0.233129 1.330428 -0.720925 150 150 150
-0.187014 1.219411 0.163659 150 150 150
0.177651 1.314002 -0.790140 150 150 150
