ply
format ascii 1.0
comment author: Greg Turk
comment object: another cube
element vertex 24
property float x
property float y
property float z
property uchar red
property uchar green
property uchar blue
element face 0
property list uchar int vertex_index
end_header
-0.194018 0.990067 -0.303204 150 150 150
-0.177664 0.908768 -0.240399 150 150 150
-0.190488 0.897674 -0.363537 150 150 150
-0.152404 1.112231 -0.306106 150 150 150
-0.295430 0.585830 -0.059830 150 150 150
-0.368510 0.578596 -0.488347 150 150 150
-0.211691 1.233853 -0.312977 150 150 150
-0.217542 0.165962 0.002276 150 150 150
-0.316780 0.159446 -0.529435 150 150 150
-0.232672 1.282505 -0.322711 150 150 150
-0.302068 0.090057 0.082611 150 150 150
-0.434733 0.093380 -0.585389 150 150 150
-0.282432 1.494924 -0.375591 150 150 150
-0.244625 1.408396 -0.268404 150 150 150
-0.263530 1.378503 -0.429634 150 150 150
-0.370193 1.523097 -0.343191 150 150 150
-0.198380 1.425280 -0.150723 150 150 150
-0.282560 1.358646 -0.545503 150 150 150
-0.080153 1.224416 -0.054835 150 150 150
-0.265956 1.120874 -0.663947 150 150 150
-0.109389 0.973474 0.009946 150 150 150
-0.410770 0.908900 -0.738002 150 150 150
-0.117742 0.884277 0.010999 150 150 150
-0.461991 0.833344 -0.745315 150 150 150
