ply
format ascii 1.0
comment author: Greg Turk
comment object: another cube
element vertex 24
property float x
property float y
property float z
property uchar red
property uchar green
property uchar blue
element face 0
property list uchar int vertex_index
end_header
0.398946 0.809687 -0.085466 150 150 150
0.412113 0.725522 -0.026239 150 150 150
0.431848 0.730152 -0.154131 150 150 150
0.413924 0.925067 -0.064901 150 150 150
0.141762 0.449183 0.047956 150 150 150
0.199708 0.444223 -0.280500 150 150 150
0.316103 1.019711 -0.077128 150 150 150
0.409862 0.120466 0.118527 150 150 150
0.436891 0.095094 -0.273414 150 150 150
0.283713 1.064273 -0.090320 150 150 150
0.308968 0.049790 0.179615 150 150 150
0.313181 0.057944 -0.341251 150 150 150
0.228522 1.269948 -0.151478 150 150 150
0.220653 1.179647 -0.042814 150 150 150
0.289092 1.165411 -0.192441 150 150 150
0.138054 1.315726 -0.157268 150 150 150
0.172404 1.204977 0.075682 150 150 150
0.338858 1.159181 -0.301473 150 150 150
0.154898 1.013468 0.245811 150 150 150
0.468306 0.939342 -0.355428 150 150 150
0.062284 0.799566 0.369499 150 150 150
0.431558 0.733130 -0.521015 150 150 150
0.049752 0.720658 0.407970 150 150 150
0.408094 0.664497 -0.575173 150 150 150
