ply
format ascii 1.0
comment author: Greg Turk
comment object: another cube
element vertex 24
property float x
property float y
property float z
property uchar red
property uchar green
property uchar blue
element face 0
property list uchar int vertex_index
end_header
0.181220 1.041933 -0.460164 150 150 150
0.206135 0.950047 -0.412991 150 150 150
0.170742 0.959551 -0.534537 150 150 150
0.226582 1.160701 -0.443129 150 150 150
0.191878 0.567064 -0.379538 150 150 150
-0.150620 0.750687 -0.551789 150 150 150
0.181990 1.297446 -0.427577 150 150 150
0.253353 0.144116 -0.423435 150 150 150
0.141268 0.440674 -0.590222 150 150 150
0.173905 1.356552 -0.428182 150 150 150
0.155012 0.054615 -0.386260 150 150 150
0.051188 0.327638 -0.623594 150 150 150
0.174967 1.575366 -0.425160 150 150 150
0.161939 1.468650 -0.345682 150 150 150
0.195819 1.477732 -0.501582 150 150 150
0.102215 1.639680 -0.414870 150 150 150
0.161803 1.488472 -0.220200 150 150 150
0.253037 1.511438 -0.599973 150 150 150
0.054486 1.287540 -0.113527 150 150 150
0.385322 1.309762 -0.676728 150 150 150
-0.186680 1.179201 -0.114802 150 150 150
0.477195 1.114228 -0.831512 150 150 150
-0.252283 1.120170 -0.126439 150 150 150
0.501024 1.031996 -0.859431 150 150 150
