ply
format ascii 1.0
comment author: Greg Turk
comment object: another cube
element vertex 24
property float x
property float y
property float z
property uchar red
property uchar green
property uchar blue
element face 0
property list uchar int vertex_index
end_header
0.203841 1.013918 -0.507792 150 150 150
0.223548 0.926168 -0.452324 150 150 150
0.222218 0.926047 -0.574072 150 150 150
0.239837 1.148512 -0.494667 150 150 150
0.225812 0.552864 -0.404400 150 150 150
0.207950 0.554623 -0.643207 150 150 150
0.205841 1.286525 -0.486042 150 150 150
0.257597 0.124235 -0.424390 150 150 150
0.267852 0.135167 -0.640826 150 150 150
0.203729 1.345180 -0.487677 150 150 150
0.148775 0.044945 -0.387024 150 150 150
0.143127 0.067776 -0.683808 150 150 150
0.215151 1.568278 -0.494105 150 150 150
0.209888 1.462036 -0.409382 150 150 150
0.218382 1.465026 -0.568302 150 150 150
0.151286 1.638396 -0.479732 150 150 150
0.258119 1.476340 -0.292951 150 150 150
0.249472 1.483987 -0.681007 150 150 150
0.275284 1.255450 -0.187130 150 150 150
0.281093 1.253398 -0.785861 150 150 150
0.201121 1.049715 -0.040199 150 150 150
0.242410 1.044339 -0.946593 150 150 150
0.187508 0.966472 -0.015236 150 150 150
0.227852 0.961716 -0.979087 150 150 150
