ply
format ascii 1.0
comment author: Greg Turk
comment object: another cube
element vertex 24
property float x
property float y
property float z
property uchar red
property uchar green
property uchar blue
element face 0
property list uchar int vertex_index
end_header
-0.330435 1.005847 -0.434675 150 150 150
-0.281766 0.923764 -0.387924 150 150 150
-0.347247 0.910275 -0.490522 150 150 150
-0.299088 1.138813 -0.455526 150 150 150
-0.227896 0.560230 -0.298490 150 150 150
-0.469203 0.550632 -0.476154 150 150 150
-0.343044 1.274924 -0.443643 150 150 150
0.074190 0.264296 -0.382937 150 150 150
-0.478118 0.126165 -0.483345 150 150 150
-0.352812 1.332975 -0.448054 150 150 150
0.073677 0.127363 -0.367265 150 150 150
-0.600144 0.073020 -0.421876 150 150 150
-0.370655 1.552510 -0.468832 150 150 150
-0.320932 1.456214 -0.389268 150 150 150
-0.393565 1.443991 -0.530955 150 150 150
-0.416494 1.612134 -0.409786 150 150 150
-0.231691 1.480917 -0.303559 150 150 150
-0.418235 1.455800 -0.647872 150 150 150
-0.167030 1.271605 -0.189229 150 150 150
-0.377166 1.222699 -0.741145 150 150 150
-0.200480 1.071304 -0.020998 150 150 150
-0.403756 0.983514 -0.854886 150 150 150
-0.209576 0.991364 0.015538 150 150 150
-0.408648 0.894366 -0.866995 150 150 150
