ply
format ascii 1.0
comment author: Greg Turk
comment object: another cube
element vertex 24
property float x
property float y
property float z
property uchar red
property uchar green
property uchar blue
element face 0
property list uchar int vertex_index
end_header
-0.610428 1.002554 0.053490 150 150 150
-0.559811 0.912571 0.042561 150 150 150
-0.681012 0.918432 0.040212 150 150 150
-0.588086 1.129729 0.009289 150 150 150
-0.546736 0.539405 0.120339 150 150 150
-0.765620 0.549113 0.076891 150 150 150
-0.573788 1.267202 0.036423 150 150 150
-0.624798 0.122488 0.191560 150 150 150
-0.660658 0.334150 -0.272521 150 150 150
-0.573338 1.324146 0.040318 150 150 150
-0.593993 0.061748 0.312210 150 150 150
-0.696972 0.190780 -0.279376 150 150 150
-0.574890 1.546762 0.028661 150 150 150
-0.490352 1.436796 0.032259 150 150 150
-0.652320 1.445795 0.028824 150 150 150
-0.547072 1.614912 0.093948 150 150 150
-0.366030 1.442172 0.008224 150 150 150
-0.767231 1.472308 0.015967 150 150 150
-0.277172 1.210251 0.037905 150 150 150
-0.916035 1.275480 -0.056156 150 150 150
-0.241338 1.003371 0.198103 150 150 150
-1.063406 1.058153 -0.016751 150 150 150
-0.251599 0.923121 0.235297 150 150 150
-1.087502 0.971006 -0.010349 150 150 150
