ply
format ascii 1.0
comment author: Greg Turk
comment object: another cube
element vertex 24
property float x
property float y
property float z
property uchar red
property uchar green
property uchar blue
element face 0
property list uchar int vertex_index
end_header
0.205328 1.013858 -0.514421 150 150 150
0.224793 0.926489 -0.458201 150 150 150
0.224360 0.925618 -0.579953 150 150 150
0.241065 1.148708 -0.502125 150 150 150
0.227256 0.553483 -0.408579 150 150 150
0.213351 0.553658 -0.646504 150 150 150
0.207404 1.286805 -0.494759 150 150 150
0.257182 0.124525 -0.425104 150 150 150
0.270173 0.133818 -0.640546 150 150 150
0.205423 1.345379 -0.496783 150 150 150
0.148496 0.045134 -0.387423 150 150 150
0.145112 0.067462 -0.684109 150 150 150
0.217731 1.568561 -0.505008 150 150 150
0.212852 1.462779 -0.419447 150 150 150
0.219597 1.464755 -0.578489 150 150 150
0.154387 1.639167 -0.490551 150 150 150
0.263385 1.476854 -0.304095 150 150 150
0.248377 1.482751 -0.691977 150 150 150
0.282886 1.254606 -0.202391 150 150 150
0.272665 1.251582 -0.798286 150 150 150
0.213414 1.046690 -0.056301 150 150 150
0.227399 1.042390 -0.957372 150 150 150
0.200748 0.963099 -0.032036 150 150 150
0.211272 0.959801 -0.989307 150 150 150
