ply
format ascii 1.0
comment author: Greg Turk
comment object: another cube
element vertex 24
property float x
property float y
property float z
property uchar red
property uchar green
property uchar blue
element face 0
property list uchar int vertex_index
end_header
-0.610511 0.984714 -0.002251 150 150 150
-0.555770 0.896336 -0.004327 150 150 150
-0.673054 0.899074 -0.030722 150 150 150
-0.588559 1.116091 -0.041929 150 150 150
-0.548805 0.531950 0.100494 150 150 150
-0.714849 0.531953 -0.112741 150 150 150
-0.577958 1.253888 -0.014893 150 150 150
-0.629233 0.117436 0.182010 150 150 150
-0.576015 0.245157 -0.390728 150 150 150
-0.577339 1.311751 -0.012022 150 150 150
-0.594375 0.066895 0.307356 150 150 150
-0.641084 0.111916 -0.386466 150 150 150
-0.581623 1.534245 -0.021787 150 150 150
-0.496394 1.426081 -0.018514 150 150 150
-0.656869 1.432535 -0.023649 150 150 150
-0.556757 1.603099 0.042766 150 150 150
-0.375934 1.442368 -0.057310 150 150 150
-0.772131 1.456564 -0.031703 150 150 150
-0.260282 1.226378 -0.097476 150 150 150
-0.922131 1.248399 -0.064080 150 150 150
-0.152890 0.996283 -0.029169 150 150 150
-1.003547 1.038309 0.074879 150 150 150
-0.140995 0.908885 -0.022718 150 150 150
-1.006878 0.957683 0.115661 150 150 150
