ply
format ascii 1.0
comment author: Greg Turk
comment object: another cube
element vertex 24
property float x
property float y
property float z
property uchar red
property uchar green
property uchar blue
element face 0
property list uchar int vertex_index
end_header
0.079357 1.041498 -0.454825 150 150 150
0.114645 0.950538 -0.409711 150 150 150
0.051219 0.959836 -0.523830 150 150 150
0.126192 1.155929 -0.448505 150 150 150
0.141911 0.567868 -0.376784 150 150 150
-0.314866 0.967091 -0.402184 150 150 150
0.074214 1.295211 -0.432289 150 150 150
0.249000 0.154203 -0.418313 150 150 150
-0.165840 0.576344 -0.501459 150 150 150
0.062021 1.356773 -0.432980 150 150 150
0.158044 0.056154 -0.387753 150 150 150
-0.295673 0.504723 -0.490143 150 150 150
0.064484 1.567567 -0.419557 150 150 150
0.047304 1.463099 -0.348281 150 150 150
0.086899 1.478767 -0.499132 150 150 150
-0.007157 1.629809 -0.403202 150 150 150
0.021342 1.483505 -0.226182 150 150 150
0.161494 1.528716 -0.579252 150 150 150
-0.190688 1.345046 -0.195004 150 150 150
0.345614 1.365512 -0.640294 150 150 150
-0.277881 1.442502 -0.423606 150 150 150
0.509319 1.231635 -0.797199 150 150 150
-0.302289 1.447985 -0.510283 150 150 150
0.555520 1.159421 -0.824248 150 150 150
