ply
format ascii 1.0
comment author: Greg Turk
comment object: another cube
element vertex 24
property float x
property float y
property float z
property uchar red
property uchar green
property uchar blue
element face 0
property list uchar int vertex_index
end_header
-0.561365 1.054915 0.357081 150 150 150
-0.529233 0.963111 0.313732 150 150 150
-0.613820 0.972532 0.408837 150 150 150
-0.575538 1.169904 0.304637 150 150 150
-0.520757 0.578119 0.298414 150 150 150
-0.398732 0.867141 0.710683 150 150 150
-0.544803 1.311601 0.337771 150 150 150
-0.617921 0.166977 0.207886 150 150 150
-0.486567 0.449484 0.693918 150 150 150
-0.538772 1.371925 0.349337 150 150 150
-0.596089 0.065729 0.297511 150 150 150
-0.422268 0.395364 0.815965 150 150 150
-0.521808 1.580047 0.336065 150 150 150
-0.452326 1.472209 0.323314 150 150 150
-0.605715 1.496380 0.356404 150 150 150
-0.467446 1.645005 0.384395 150 150 150
-0.326397 1.474625 0.316825 150 150 150
-0.711587 1.556241 0.346751 150 150 150
-0.261239 1.357809 0.541685 150 150 150
-0.920148 1.472217 0.223793 150 150 150
-0.458474 1.477372 0.672698 150 150 150
-1.165583 1.379864 0.192918 150 150 150
-0.537518 1.499563 0.710371 150 150 150
-1.228708 1.320261 0.167909 150 150 150
