ply
format ascii 1.0
comment author: Greg Turk
comment object: another cube
element vertex 24
property float x
property float y
property float z
property uchar red
property uchar green
property uchar blue
element face 0
property list uchar int vertex_index
end_header
0.044826 1.035989 -0.452561 150 150 150
0.083755 0.946182 -0.408300 150 150 150
0.016267 0.952165 -0.519146 150 150 150
0.089606 1.152653 -0.449445 150 150 150
0.125922 0.565959 -0.374640 150 150 150
-0.346873 0.910887 -0.392816 150 150 150
0.036761 1.292416 -0.433203 150 150 150
0.245557 0.155239 -0.415318 150 150 150
-0.256608 0.503031 -0.491903 150 150 150
0.024436 1.354488 -0.433769 150 150 150
0.157166 0.054263 -0.387096 150 150 150
-0.392464 0.445662 -0.473482 150 150 150
0.026040 1.563925 -0.420845 150 150 150
0.013305 1.460497 -0.349066 150 150 150
0.044554 1.476067 -0.501270 150 150 150
-0.044864 1.625218 -0.400001 150 150 150
-0.009337 1.481680 -0.226719 150 150 150
0.115866 1.528770 -0.582890 150 150 150
-0.229595 1.355461 -0.197506 150 150 150
0.301961 1.371123 -0.650842 150 150 150
-0.301729 1.464404 -0.426390 150 150 150
0.473535 1.249691 -0.809003 150 150 150
-0.322322 1.473369 -0.513721 150 150 150
0.523120 1.179859 -0.835768 150 150 150
