ply
format ascii 1.0
comment author: Greg Turk
comment object: another cube
element vertex 24
property float x
property float y
property float z
property uchar red
property uchar green
property uchar blue
element face 0
property list uchar int vertex_index
end_header
0.096238 1.043368 -0.454952 150 150 150
0.129981 0.952040 -0.409427 150 150 150
0.069225 0.962215 -0.524969 150 150 150
0.143445 1.157436 -0.447133 150 150 150
0.149441 0.568552 -0.377278 150 150 150
-0.298581 0.973748 -0.410712 150 150 150
0.092103 1.296434 -0.430829 150 150 150
0.249901 0.153432 -0.419516 150 150 150
-0.120546 0.594463 -0.506740 150 150 150
0.080124 1.357703 -0.431592 150 150 150
0.157871 0.056907 -0.387155 150 150 150
-0.244060 0.511925 -0.500347 150 150 150
0.082822 1.569404 -0.418596 150 150 150
0.064540 1.464515 -0.347045 150 150 150
0.106313 1.479734 -0.497655 150 150 150
0.010970 1.632012 -0.404065 150 150 150
0.039069 1.484468 -0.224653 150 150 150
0.181224 1.527898 -0.578341 150 150 150
-0.165276 1.337023 -0.186668 150 150 150
0.361826 1.360509 -0.638908 150 150 150
-0.275741 1.420485 -0.410606 150 150 150
0.518904 1.218978 -0.796235 150 150 150
-0.307109 1.421319 -0.495136 150 150 150
0.562689 1.145339 -0.823661 150 150 150
