ply
format ascii 1.0
comment author: Greg Turk
comment object: another cube
element vertex 24
property float x
property float y
property float z
property uchar red
property uchar green
property uchar blue
element face 0
property list uchar int vertex_index
end_header
-0.356576 1.070391 0.732549 150 150 150
-0.324121 0.993032 0.672198 150 150 150
-0.384505 0.974344 0.781807 150 150 150
-0.410201 1.185374 0.714340 150 150 150
0.028048 0.956950 0.816695 150 150 150
-0.357403 0.590064 0.836288 150 150 150
-0.367442 1.320375 0.735395 150 150 150
-0.212941 0.615725 0.720249 150 150 150
-0.425194 0.174802 0.802250 150 150 150
-0.355663 1.379814 0.743723 150 150 150
-0.133297 0.506477 0.751716 150 150 150
-0.335706 0.089646 0.882758 150 150 150
-0.355586 1.589999 0.787173 150 150 150
-0.350439 1.503810 0.686934 150 150 150
-0.365698 1.482755 0.843385 150 150 150
-0.282105 1.651307 0.775696 150 150 150
-0.369435 1.554988 0.568476 150 150 150
-0.361704 1.494100 0.962178 150 150 150
-0.441146 1.426488 0.365798 150 150 150
-0.299924 1.285583 1.111637 150 150 150
-0.435850 1.271830 0.155337 150 150 150
-0.051210 1.194755 1.110993 150 150 150
-0.458790 1.206990 0.101039 150 150 150
0.030285 1.162339 1.090074 150 150 150
