ply
format ascii 1.0
comment author: Greg Turk
comment object: another cube
element vertex 24
property float x
property float y
property float z
property uchar red
property uchar green
property uchar blue
element face 0
property list uchar int vertex_index
end_header
-0.484856 1.069155 -0.360009 150 150 150
-0.428913 0.993375 -0.317825 150 150 150
-0.523844 0.972537 -0.400724 150 150 150
-0.461091 1.185107 -0.404933 150 150 150
-0.660530 1.033332 -0.014395 150 150 150
-0.570845 0.584883 -0.402005 150 150 150
-0.490785 1.319008 -0.360339 150 150 150
-0.539384 0.654388 -0.174710 150 150 150
-0.501494 0.174286 -0.467484 150 150 150
-0.499929 1.379573 -0.349221 150 150 150
-0.581332 0.565549 -0.075463 150 150 150
-0.605959 0.086922 -0.411731 150 150 150
-0.544680 1.587080 -0.353404 150 150 150
-0.444578 1.503077 -0.342323 150 150 150
-0.598335 1.481539 -0.366631 150 150 150
-0.540096 1.650336 -0.280754 150 150 150
-0.329832 1.560899 -0.371228 150 150 150
-0.717035 1.499051 -0.368408 150 150 150
-0.130667 1.472106 -0.496048 150 150 150
-0.905062 1.331480 -0.289189 150 150 150
0.104926 1.371741 -0.536102 150 150 150
-0.807066 1.349965 -0.044586 150 150 150
0.165615 1.319398 -0.570728 150 150 150
-0.752742 1.355039 0.026744 150 150 150
