ply
format ascii 1.0
comment author: Greg Turk
comment object: another cube
element vertex 24
property float x
property float y
property float z
property uchar red
property uchar green
property uchar blue
element face 0
property list uchar int vertex_index
end_header
-0.610326 0.991084 0.031249 150 150 150
-0.557001 0.902222 0.024664 150 150 150
-0.676638 0.905618 0.010515 150 150 150
-0.589005 1.120835 -0.011104 150 150 150
-0.546764 0.533000 0.113020 150 150 150
-0.748401 0.534337 -0.022069 150 150 150
-0.576619 1.258830 0.014535 150 150 150
-0.627302 0.117227 0.187902 150 150 150
-0.621838 0.288487 -0.342039 150 150 150
-0.576116 1.316232 0.017290 150 150 150
-0.594372 0.062075 0.311198 150 150 150
-0.669964 0.148991 -0.354036 150 150 150
-0.578424 1.538936 0.005633 150 150 150
-0.493832 1.429591 0.009034 150 150 150
-0.655122 1.437640 0.005587 150 150 150
-0.552022 1.607771 0.069987 150 150 150
-0.371238 1.439187 -0.023238 150 150 150
-0.770288 1.462723 -0.005558 150 150 150
-0.268306 1.212571 -0.029028 150 150 150
-0.917954 1.258975 -0.060157 150 150 150
-0.193486 0.986380 0.084125 150 150 150
-1.036864 1.037947 0.025456 150 150 150
-0.191794 0.900465 0.106240 150 150 150
-1.051944 0.951515 0.047931 150 150 150
