ply
format ascii 1.0
comment author: Greg Turk
comment object: another cube
element vertex 24
property float x
property float y
property float z
property uchar red
property uchar green
property uchar blue
element face 0
property list uchar int vertex_index
end_header
-0.608370 1.046683 0.140481 150 150 150
-0.566783 0.952007 0.114710 150 150 150
-0.681265 0.968123 0.170568 150 150 150
-0.596410 1.159870 0.084460 150 150 150
-0.552586 0.569795 0.167161 150 150 150
-0.645482 0.854811 0.532812 150 150 150
-0.572761 1.301550 0.119852 150 150 150
-0.630794 0.148896 0.195921 150 150 150
-0.732238 0.621526 0.184567 150 150 150
-0.569837 1.361568 0.130914 150 150 150
-0.595356 0.070289 0.303047 150 150 150
-0.762969 0.479885 0.214382 150 150 150
-0.557644 1.573603 0.119633 150 150 150
-0.482510 1.466978 0.124395 150 150 150
-0.640825 1.484433 0.120075 150 150 150
-0.521606 1.639896 0.181515 150 150 150
-0.356994 1.474887 0.136036 150 150 150
-0.747603 1.533972 0.095159 150 150 150
-0.312414 1.302833 0.323307 150 150 150
-0.924624 1.402839 -0.035978 150 150 150
-0.480826 1.311050 0.528900 150 150 150
-1.143939 1.268227 -0.102257 150 150 150
-0.548041 1.293088 0.586037 150 150 150
-1.192227 1.199227 -0.135274 150 150 150
