ply
format ascii 1.0
comment author: Greg Turk
comment object: another cube
element vertex 24
property float x
property float y
property float z
property uchar red
property uchar green
property uchar blue
element face 0
property list uchar int vertex_index
end_header
-0.606638 1.012688 0.067715 150 150 150
-0.557405 0.921887 0.052800 150 150 150
-0.679770 0.929280 0.061957 150 150 150
-0.584756 1.136882 0.022421 150 150 150
-0.545325 0.545909 0.124332 150 150 150
-0.769308 0.582820 0.195512 150 150 150
-0.570913 1.274835 0.053486 150 150 150
-0.623333 0.128816 0.192367 150 150 150
-0.696325 0.399040 -0.180067 150 150 150
-0.570724 1.332169 0.059321 150 150 150
-0.594115 0.064232 0.311036 150 150 150
-0.730559 0.255082 -0.181659 150 150 150
-0.572329 1.553211 0.049004 150 150 150
-0.487978 1.444364 0.053065 150 150 150
-0.649831 1.453433 0.048292 150 150 150
-0.542689 1.620426 0.114809 150 150 150
-0.362562 1.450657 0.038368 150 150 150
-0.763871 1.483846 0.033556 150 150 150
-0.284441 1.221086 0.103807 150 150 150
-0.916895 1.296572 -0.052559 150 150 150
-0.291128 1.045693 0.301609 150 150 150
-1.086065 1.091555 -0.050269 150 150 150
-0.313106 0.973687 0.349557 150 150 150
-1.116891 1.006626 -0.057155 150 150 150
