ply
format ascii 1.0
comment author: Greg Turk
comment object: another cube
element vertex 24
property float x
property float y
property float z
property uchar red
property uchar green
property uchar blue
element face 0
property list uchar int vertex_index
end_header
-0.584528 1.068391 0.300754 150 150 150
-0.550705 0.974247 0.263162 150 150 150
-0.640804 0.992085 0.356155 150 150 150
-0.593697 1.176883 0.242472 150 150 150
-0.536985 0.586653 0.271929 150 150 150
-0.412109 1.050012 0.660325 150 150 150
-0.561819 1.319285 0.275852 150 150 150
-0.623526 0.169494 0.205487 150 150 150
-0.540123 0.646038 0.595587 150 150 150
-0.555298 1.379852 0.288258 150 150 150
-0.596827 0.071225 0.297208 150 150 150
-0.488251 0.578960 0.717434 150 150 150
-0.532415 1.585730 0.270517 150 150 150
-0.464409 1.477275 0.269793 150 150 150
-0.619749 1.505484 0.283007 150 150 150
-0.482954 1.651633 0.322850 150 150 150
-0.338715 1.478835 0.283115 150 150 150
-0.721356 1.569088 0.259275 150 150 150
-0.314700 1.392343 0.530196 150 150 150
-0.921214 1.501044 0.112701 150 150 150
-0.528389 1.537120 0.595518 150 150 150
-1.168747 1.435940 0.043517 150 150 150
-0.611774 1.568227 0.612573 150 150 150
-1.232460 1.382813 0.007204 150 150 150
