ply
format ascii 1.0
comment author: Greg Turk
comment object: another cube
element vertex 24
property float x
property float y
property float z
property uchar red
property uchar green
property uchar blue
element face 0
property list uchar int vertex_index
end_header
-0.447225 1.064168 -0.390629 150 150 150
-0.393337 0.988977 -0.343673 150 150 150
-0.483525 0.966352 -0.431039 150 150 150
-0.421145 1.179739 -0.436521 150 150 150
-0.614078 0.970473 -0.031720 150 150 150
-0.548238 0.581991 -0.417819 150 150 150
-0.456654 1.313346 -0.399685 150 150 150
-0.441788 0.635128 -0.235944 150 150 150
-0.494968 0.166548 -0.468219 150 150 150
-0.468460 1.372575 -0.391171 150 150 150
-0.474796 0.523750 -0.159488 150 150 150
-0.604505 0.084690 -0.413313 150 150 150
-0.514215 1.582407 -0.403278 150 150 150
-0.415561 1.498463 -0.378277 150 150 150
-0.565554 1.472977 -0.422821 150 150 150
-0.520195 1.646779 -0.331786 150 150 150
-0.297115 1.553234 -0.386427 150 150 150
-0.682904 1.480850 -0.446404 150 150 150
-0.078882 1.439149 -0.432090 150 150 150
-0.831461 1.264547 -0.432690 150 150 150
0.149653 1.317661 -0.394429 150 150 150
-0.868377 1.147203 -0.198463 150 150 150
0.215185 1.260377 -0.403185 150 150 150
-0.859911 1.105140 -0.119173 150 150 150
