ply
format ascii 1.0
comment author: Greg Turk
comment object: another cube
element vertex 24
property float x
property float y
property float z
property uchar red
property uchar green
property uchar blue
element face 0
property list uchar int vertex_index
end_header
0.206425 1.014180 -0.525729 150 150 150
0.225553 0.927412 -0.468419 150 150 150
0.226085 0.925370 -0.590186 150 150 150
0.242029 1.149258 -0.514705 150 150 150
0.230190 0.554909 -0.415633 150 150 150
0.217980 0.552652 -0.652476 150 150 150
0.209329 1.287446 -0.509307 150 150 150
0.257093 0.125438 -0.425438 150 150 150
0.272413 0.132665 -0.639587 150 150 150
0.207671 1.345812 -0.512030 150 150 150
0.148438 0.046052 -0.387499 150 150 150
0.147181 0.067550 -0.684474 150 150 150
0.221569 1.569143 -0.523373 150 150 150
0.217134 1.464118 -0.436294 150 150 150
0.221365 1.464287 -0.595567 150 150 150
0.159000 1.640587 -0.508882 150 150 150
0.270817 1.477729 -0.322515 150 150 150
0.246990 1.480469 -0.710072 150 150 150
0.292813 1.253407 -0.227025 150 150 150
0.263120 1.248367 -0.816960 150 150 150
0.228193 1.042636 -0.082967 150 150 150
0.209188 1.038564 -0.972774 150 150 150
0.216111 0.958684 -0.059638 150 150 150
0.191112 0.955988 -1.003864 150 150 150
