ply
format ascii 1.0
comment author: Greg Turk
comment object: another cube
element vertex 24
property float x
property float y
property float z
property uchar red
property uchar green
property uchar blue
element face 0
property list uchar int vertex_index
end_header
-0.376711 1.057283 0.711885 150 150 150
-0.346027 0.978345 0.651759 150 150 150
-0.408785 0.961802 0.758410 150 150 150
-0.426763 1.176697 0.692349 150 150 150
-0.037793 0.782079 0.763477 150 150 150
-0.380174 0.580687 0.817418 150 150 150
-0.391441 1.311097 0.714321 150 150 150
-0.333591 0.509841 0.615663 150 150 150
-0.430462 0.161764 0.795962 150 150 150
-0.382468 1.368428 0.724018 150 150 150
-0.258603 0.396130 0.639217 150 150 150
-0.336745 0.085542 0.880868 150 150 150
-0.388052 1.583997 0.762685 150 150 150
-0.367328 1.492330 0.664698 150 150 150
-0.408120 1.474275 0.819112 150 150 150
-0.312773 1.645940 0.758467 150 150 150
-0.361775 1.530855 0.541336 150 150 150
-0.431536 1.481514 0.936259 150 150 150
-0.376042 1.366801 0.351597 150 150 150
-0.444617 1.257068 1.070112 150 150 150
-0.310705 1.174707 0.186043 150 150 150
-0.251589 1.098468 1.158148 150 150 150
-0.313671 1.099384 0.141212 150 150 150
-0.181878 1.042069 1.168226 150 150 150
