ply
format ascii 1.0
comment author: Greg Turk
comment object: another cube
element vertex 24
property float x
property float y
property float z
property uchar red
property uchar green
property uchar blue
element face 0
property list uchar int vertex_index
end_header
0.199348 1.023668 -0.477920 150 150 150
0.221845 0.934243 -0.426789 150 150 150
0.208664 0.937581 -0.548350 150 150 150
0.238444 1.154122 -0.462200 150 150 150
0.224112 0.557692 -0.387085 150 150 150
0.114142 0.577799 -0.625028 150 150 150
0.200202 1.290836 -0.449745 150 150 150
0.256750 0.129961 -0.422846 150 150 150
0.241217 0.173408 -0.637407 150 150 150
0.196280 1.349364 -0.450564 150 150 150
0.150868 0.046904 -0.386747 150 150 150
0.121413 0.098569 -0.682607 150 150 150
0.202567 1.571702 -0.451943 150 150 150
0.195006 1.464059 -0.369331 150 150 150
0.213025 1.470335 -0.528156 150 150 150
0.134605 1.639283 -0.439375 150 150 150
0.225267 1.479310 -0.246646 150 150 150
0.254482 1.493690 -0.636750 150 150 150
0.209648 1.262535 -0.127105 150 150 150
0.331353 1.270212 -0.729355 150 150 150
0.084900 1.068688 0.001425 150 150 150
0.341500 1.056931 -0.888065 150 150 150
0.057770 0.987727 0.023694 150 150 150
0.341094 0.972709 -0.919571 150 150 150
