ply
format ascii 1.0
comment author: Greg Turk
comment object: another cube
element vertex 24
property float x
property float y
property float z
property uchar red
property uchar green
property uchar blue
element face 0
property list uchar int vertex_index
end_header
-0.527145 1.061371 -0.316766 150 150 150
-0.470383 0.983321 -0.280275 150 150 150
-0.569580 0.966545 -0.356924 150 150 150
-0.505138 1.179661 -0.361845 150 150 150
-0.667036 0.967912 0.049963 150 150 150
-0.594010 0.579347 -0.379890 150 150 150
-0.524379 1.314570 -0.315286 150 150 150
-0.586863 0.572001 -0.099578 150 150 150
-0.507273 0.175168 -0.466941 150 150 150
-0.529687 1.375254 -0.303557 150 150 150
-0.611560 0.486273 0.008162 150 150 150
-0.607307 0.083469 -0.409887 150 150 150
-0.566382 1.584529 -0.301539 150 150 150
-0.469104 1.496251 -0.300404 150 150 150
-0.624795 1.481759 -0.311330 150 150 150
-0.553800 1.646943 -0.228572 150 150 150
-0.356870 1.550583 -0.343582 150 150 150
-0.741478 1.504307 -0.299324 150 150 150
-0.179099 1.465357 -0.500219 150 150 150
-0.927219 1.366266 -0.168659 150 150 150
0.044127 1.367080 -0.588023 150 150 150
-0.772010 1.427352 0.037418 150 150 150
0.095570 1.316010 -0.636544 150 150 150
-0.701240 1.443890 0.089974 150 150 150
