ply
format ascii 1.0
comment author: Greg Turk
comment object: another cube
element vertex 24
property float x
property float y
property float z
property uchar red
property uchar green
property uchar blue
element face 0
property list uchar int vertex_index
end_header
-0.605786 1.037161 0.118877 150 150 150
-0.561758 0.943806 0.093838 150 150 150
-0.679220 0.956146 0.140751 150 150 150
-0.592109 1.153648 0.066189 150 150 150
-0.549554 0.562855 0.148276 150 150 150
-0.685467 0.772612 0.475116 150 150 150
-0.571733 1.294839 0.101764 150 150 150
-0.627604 0.143357 0.192358 150 150 150
-0.741313 0.570016 0.102779 150 150 150
-0.569854 1.354419 0.112095 150 150 150
-0.595162 0.069407 0.303828 150 150 150
-0.777427 0.427116 0.113507 150 150 150
-0.562065 1.568336 0.102505 150 150 150
-0.484288 1.462016 0.106174 150 150 150
-0.643531 1.476417 0.102419 150 150 150
-0.527295 1.634606 0.165375 150 150 150
-0.358457 1.470846 0.112911 150 150 150
-0.752526 1.521470 0.080101 150 150 150
-0.301721 1.281555 0.276834 150 150 150
-0.923778 1.375509 -0.042427 150 150 150
-0.440694 1.243946 0.500129 150 150 150
-1.133787 1.222812 -0.099274 150 150 150
-0.498397 1.211646 0.560956 150 150 150
-1.178990 1.150166 -0.128690 150 150 150
