ply
format ascii 1.0
comment author: Greg Turk
comment object: another cube
element vertex 24
property float x
property float y
property float z
property uchar red
property uchar green
property uchar blue
element face 0
property list uchar int vertex_index
end_header
-0.550584 1.047737 0.380559 150 150 150
-0.519407 0.956737 0.335231 150 150 150
-0.602526 0.963212 0.430080 150 150 150
-0.566264 1.165913 0.330404 150 150 150
-0.515702 0.573919 0.308415 150 150 150
-0.409119 0.790781 0.714332 150 150 150
-0.536425 1.307458 0.362960 150 150 150
-0.616745 0.165494 0.209166 150 150 150
-0.470121 0.369374 0.721483 150 150 150
-0.530867 1.367788 0.374006 150 150 150
-0.596416 0.063027 0.297882 150 150 150
-0.400507 0.326054 0.844880 150 150 150
-0.517097 1.576841 0.362634 150 150 150
-0.447030 1.469603 0.344843 150 150 150
-0.598842 1.491411 0.386186 150 150 150
-0.460934 1.641063 0.409404 150 150 150
-0.321898 1.472665 0.329831 150 150 150
-0.705938 1.549335 0.383098 150 150 150
-0.241152 1.338519 0.538498 150 150 150
-0.916978 1.457728 0.271063 150 150 150
-0.423812 1.438566 0.701828 150 150 150
-1.157071 1.349254 0.264410 150 150 150
-0.498911 1.454404 0.749178 150 150 150
-1.218480 1.285232 0.247857 150 150 150
