ply
format ascii 1.0
comment author: Greg Turk
comment object: another cube
element vertex 24
property float x
property float y
property float z
property uchar red
property uchar green
property uchar blue
element face 0
property list uchar int vertex_index
end_header
0.201687 1.016425 -0.493512 150 150 150
0.222589 0.927833 -0.440069 150 150 150
0.217242 0.929448 -0.561772 150 150 150
0.238499 1.149839 -0.478765 150 150 150
0.224376 0.553464 -0.395716 150 150 150
0.182226 0.560101 -0.636773 150 150 150
0.202844 1.287328 -0.467602 150 150 150
0.257645 0.125418 -0.423837 150 150 150
0.258848 0.143323 -0.641822 150 150 150
0.200081 1.346026 -0.468568 150 150 150
0.149619 0.045151 -0.386711 150 150 150
0.135506 0.073024 -0.684365 150 150 150
0.209200 1.568856 -0.471613 150 150 150
0.202978 1.461709 -0.388400 150 150 150
0.215733 1.466695 -0.547174 150 150 150
0.143787 1.637851 -0.457747 150 150 150
0.244107 1.476316 -0.269042 150 150 150
0.252150 1.487678 -0.657922 150 150 150
0.250612 1.257881 -0.154862 150 150 150
0.303883 1.259096 -0.757157 150 150 150
0.159461 1.056679 -0.010934 150 150 150
0.284986 1.048629 -0.919079 150 150 150
0.141810 0.974252 0.014448 150 150 150
0.275848 0.965512 -0.952123 150 150 150
