ply
format ascii 1.0
comment author: Greg Turk
comment object: another cube
element vertex 24
property float x
property float y
property float z
property uchar red
property uchar green
property uchar blue
element face 0
property list uchar int vertex_index
end_header
0.203219 1.014682 -0.500800 150 150 150
0.223525 0.926539 -0.446264 150 150 150
0.220534 0.927250 -0.568003 150 150 150
0.239390 1.148819 -0.486875 150 150 150
0.224659 0.552762 -0.400017 150 150 150
0.198295 0.556571 -0.640009 150 150 150
0.204435 1.286550 -0.476910 150 150 150
0.257893 0.124473 -0.423985 150 150 150
0.264235 0.137984 -0.641351 150 150 150
0.201977 1.345245 -0.478167 150 150 150
0.149256 0.044965 -0.386752 150 150 150
0.140083 0.069189 -0.683833 150 150 150
0.212217 1.568239 -0.482782 150 150 150
0.206570 1.461512 -0.398881 150 150 150
0.217035 1.465555 -0.557715 150 150 150
0.147716 1.637875 -0.468562 150 150 150
0.251696 1.475982 -0.281092 150 150 150
0.250734 1.485492 -0.669501 150 150 150
0.264806 1.256451 -0.170858 150 150 150
0.291680 1.255664 -0.771848 150 150 150
0.183654 1.052994 -0.024330 150 150 150
0.261631 1.046283 -0.933733 150 150 150
0.168510 0.970155 0.001161 150 150 150
0.249348 0.963538 -0.966753 150 150 150
