ply
format ascii 1.0
comment author: Greg Turk
comment object: another cube
element vertex 24
property float x
property float y
property float z
property uchar red
property uchar green
property uchar blue
element face 0
property list uchar int vertex_index
end_header
0.166657 1.045154 -0.459152 150 150 150
0.192911 0.952874 -0.412358 150 150 150
0.151488 0.964005 -0.533606 150 150 150
0.212599 1.161285 -0.442880 150 150 150
0.177795 0.568712 -0.380583 150 150 150
-0.211428 0.841233 -0.510739 150 150 150
0.165026 1.298323 -0.426385 150 150 150
0.251875 0.148158 -0.424683 150 150 150
0.076370 0.527110 -0.557688 150 150 150
0.155149 1.358036 -0.426927 150 150 150
0.155387 0.058205 -0.384934 150 150 150
-0.013297 0.411136 -0.580807 150 150 150
0.156126 1.574769 -0.420491 150 150 150
0.140183 1.468620 -0.343856 150 150 150
0.179777 1.479485 -0.497198 150 150 150
0.083215 1.638547 -0.410187 150 150 150
0.129905 1.489630 -0.219122 150 150 150
0.244208 1.518050 -0.589499 150 150 150
-0.013204 1.302257 -0.128255 150 150 150
0.393080 1.326249 -0.661715 150 150 150
-0.256599 1.249707 -0.216299 150 150 150
0.507933 1.144639 -0.817464 150 150 150
-0.325492 1.207216 -0.254224 150 150 150
0.538352 1.064734 -0.845835 150 150 150
