ply
format ascii 1.0
comment author: Greg Turk
comment object: another cube
element vertex 24
property float x
property float y
property float z
property uchar red
property uchar green
property uchar blue
element face 0
property list uchar int vertex_index
end_header
0.157160 1.045927 -0.458201 150 150 150
0.184861 0.953692 -0.411550 150 150 150
0.139300 0.965104 -0.532094 150 150 150
0.203316 1.161188 -0.443374 150 150 150
0.171965 0.569208 -0.379748 150 150 150
-0.233478 0.886353 -0.484835 150 150 150
0.154171 1.298430 -0.426618 150 150 150
0.251730 0.149869 -0.424518 150 150 150
0.040453 0.561208 -0.542691 150 150 150
0.143427 1.358491 -0.427229 150 150 150
0.156101 0.059338 -0.384491 150 150 150
-0.053850 0.447889 -0.560248 150 150 150
0.144379 1.574106 -0.419265 150 150 150
0.127502 1.468296 -0.343933 150 150 150
0.168816 1.480062 -0.496232 150 150 150
0.071687 1.637730 -0.408606 150 150 150
0.113039 1.489495 -0.219719 150 150 150
0.236514 1.520844 -0.585471 150 150 150
-0.045867 1.309531 -0.139288 150 150 150
0.392754 1.333868 -0.654990 150 150 150
-0.274665 1.287997 -0.268984 150 150 150
0.517395 1.160334 -0.811869 150 150 150
-0.340449 1.254682 -0.319811 150 150 150
0.550841 1.081704 -0.840328 150 150 150
