ply
format ascii 1.0
comment author: Greg Turk
comment object: another cube
element vertex 24
property float x
property float y
property float z
property uchar red
property uchar green
property uchar blue
element face 0
property list uchar int vertex_index
end_header
-0.609576 1.055491 0.160490 150 150 150
-0.569993 0.959853 0.133976 150 150 150
-0.681349 0.979285 0.197208 150 150 150
-0.599560 1.165941 0.102160 150 150 150
-0.555301 0.576623 0.186076 150 150 150
-0.600684 0.940820 0.567768 150 150 150
-0.573128 1.307839 0.137950 150 150 150
-0.633563 0.154706 0.199327 150 150 150
-0.713649 0.671386 0.254525 150 150 150
-0.569240 1.368116 0.150003 150 150 150
-0.595870 0.071553 0.302062 150 150 150
-0.737446 0.533534 0.303253 150 150 150
-0.552780 1.578365 0.137311 150 150 150
-0.480153 1.471299 0.143105 150 150 150
-0.637643 1.491872 0.138230 150 150 150
-0.515497 1.644902 0.197992 150 150 150
-0.354986 1.477255 0.159654 150 150 150
-0.742499 1.545249 0.111265 150 150 150
-0.323599 1.323679 0.366665 150 150 150
-0.924747 1.429177 -0.027281 150 150 150
-0.515439 1.373370 0.544397 150 150 150
-1.151212 1.310571 -0.100010 150 150 150
-0.590479 1.369663 0.594345 150 150 150
-1.202431 1.244868 -0.135379 150 150 150
