ply
format ascii 1.0
comment author: Greg Turk
comment object: another cube
element vertex 24
property float x
property float y
property float z
property uchar red
property uchar green
property uchar blue
element face 0
property list uchar int vertex_index
end_header
-0.526622 1.030860 0.433916 150 150 150
-0.498256 0.941707 0.383894 150 150 150
-0.579117 0.942797 0.477850 150 150 150
-0.543943 1.155984 0.390186 150 150 150
-0.503452 0.564514 0.334577 150 150 150
-0.441863 0.663157 0.699924 150 150 150
-0.515563 1.296837 0.423671 150 150 150
-0.614526 0.164903 0.213334 150 150 150
-0.456980 0.243962 0.759198 150 150 150
-0.511192 1.357195 0.434342 150 150 150
-0.595432 0.058968 0.298477 150 150 150
-0.364299 0.209510 0.869072 150 150 150
-0.505232 1.568227 0.428522 150 150 150
-0.434391 1.463134 0.399165 150 150 150
-0.580916 1.478459 0.458114 150 150 150
-0.445219 1.630825 0.470997 150 150 150
-0.313490 1.467887 0.364773 150 150 150
-0.689206 1.531263 0.470247 150 150 150
-0.205961 1.290838 0.518593 150 150 150
-0.902862 1.421103 0.385373 150 150 150
-0.331480 1.323874 0.747345 150 150 150
-1.113477 1.273614 0.437798 150 150 150
-0.391048 1.319502 0.814493 150 150 150
-1.165127 1.199896 0.439944 150 150 150
