ply
format ascii 1.0
comment author: Greg Turk
comment object: another cube
element vertex 24
property float x
property float y
property float z
property uchar red
property uchar green
property uchar blue
element face 0
property list uchar int vertex_index
end_header
-0.340252 1.074534 0.744027 150 150 150
-0.306701 0.997775 0.683737 150 150 150
-0.367427 0.978291 0.793661 150 150 150
-0.395272 1.188321 0.725616 150 150 150
0.046050 1.003035 0.831958 150 150 150
-0.347367 0.592758 0.845275 150 150 150
-0.352242 1.324236 0.744901 150 150 150
-0.168475 0.641054 0.750454 150 150 150
-0.423856 0.179854 0.805520 150 150 150
-0.340474 1.384645 0.752232 150 150 150
-0.076647 0.541885 0.782566 150 150 150
-0.335131 0.091327 0.882960 150 150 150
-0.339253 1.593264 0.795844 150 150 150
-0.339233 1.508288 0.695976 150 150 150
-0.345932 1.487244 0.851897 150 150 150
-0.266391 1.654177 0.782070 150 150 150
-0.368691 1.564161 0.581610 150 150 150
-0.332343 1.501865 0.969063 150 150 150
-0.468597 1.453055 0.380781 150 150 150
-0.237967 1.306945 1.121516 150 150 150
-0.487725 1.317666 0.159075 150 150 150
0.015636 1.253192 1.068286 150 150 150
-0.517643 1.257736 0.102776 150 150 150
0.094833 1.233315 1.030315 150 150 150
