ply
format ascii 1.0
comment author: Greg Turk
comment object: another cube
element vertex 24
property float x
property float y
property float z
property uchar red
property uchar green
property uchar blue
element face 0
property list uchar int vertex_index
end_header
0.206907 1.014186 -0.529915 150 150 150
0.225968 0.927648 -0.472218 150 150 150
0.226725 0.925172 -0.594006 150 150 150
0.242471 1.149293 -0.519377 150 150 150
0.231071 0.555330 -0.418077 150 150 150
0.218884 0.552178 -0.654766 150 150 150
0.210077 1.287480 -0.514664 150 150 150
0.257342 0.125738 -0.425401 150 150 150
0.272765 0.132217 -0.639243 150 150 150
0.208528 1.345759 -0.517657 150 150 150
0.148425 0.046693 -0.387487 150 150 150
0.147504 0.067429 -0.684505 150 150 150
0.222988 1.569134 -0.530230 150 150 150
0.218731 1.464429 -0.442559 150 150 150
0.222045 1.463850 -0.601907 150 150 150
0.160800 1.640996 -0.515788 150 150 150
0.273516 1.478025 -0.329382 150 150 150
0.246638 1.479296 -0.716717 150 150 150
0.296397 1.253216 -0.235541 150 150 150
0.261042 1.246840 -0.823410 150 150 150
0.232709 1.041878 -0.092002 150 150 150
0.204496 1.036830 -0.978065 150 150 150
0.220576 0.957887 -0.068829 150 150 150
0.185991 0.954273 -1.009003 150 150 150
