ply
format ascii 1.0
comment author: Greg Turk
comment object: another cube
element vertex 24
property float x
property float y
property float z
property uchar red
property uchar green
property uchar blue
element face 0
property list uchar int vertex_index
end_header
-0.487173 1.007943 0.543921 150 150 150
-0.462107 0.922105 0.487091 150 150 150
-0.539001 0.916650 0.582438 150 150 150
-0.508442 1.139593 0.510958 150 150 150
-0.460587 0.551245 0.414266 150 150 150
-0.474517 0.570667 0.728123 150 150 150
-0.480316 1.278613 0.544844 150 150 150
-0.605631 0.184008 0.240157 150 150 150
-0.452219 0.151883 0.779681 150 150 150
-0.477448 1.338212 0.555365 150 150 150
-0.585779 0.064687 0.305829 150 150 150
-0.349500 0.105145 0.874319 150 150 150
-0.481709 1.553225 0.563054 150 150 150
-0.414161 1.451507 0.511333 150 150 150
-0.545839 1.455392 0.601020 150 150 150
-0.415423 1.615716 0.593502 150 150 150
-0.312939 1.461697 0.437212 150 150 150
-0.651913 1.494089 0.642423 150 150 150
-0.191641 1.240540 0.455972 150 150 150
-0.853987 1.343009 0.609644 150 150 150
-0.150710 1.124688 0.686623 150 150 150
-0.975423 1.148544 0.736311 150 150 150
-0.159103 1.075893 0.760851 150 150 150
-0.995456 1.065610 0.765013 150 150 150
