ply
format ascii 1.0
comment author: Greg Turk
comment object: another cube
element vertex 24
property float x
property float y
property float z
property uchar red
property uchar green
property uchar blue
element face 0
property list uchar int vertex_index
end_header
-0.397993 1.040922 0.688452 150 150 150
-0.367715 0.959501 0.630558 150 150 150
-0.436843 0.946702 0.731880 150 150 150
-0.441298 1.165319 0.663862 150 150 150
-0.147471 0.651615 0.686826 150 150 150
-0.415891 0.569560 0.799952 150 150 150
-0.412434 1.299792 0.687342 150 150 150
-0.443741 0.405770 0.496440 150 150 150
-0.437458 0.147195 0.792499 150 150 150
-0.407525 1.355902 0.697464 150 150 150
-0.390976 0.280018 0.517899 150 150 150
-0.339421 0.081976 0.881406 150 150 150
-0.420303 1.575437 0.727318 150 150 150
-0.379586 1.478591 0.637982 150 150 150
-0.453281 1.465057 0.781638 150 150 150
-0.344727 1.637753 0.733350 150 150 150
-0.344796 1.503491 0.517386 150 150 150
-0.510673 1.472049 0.886531 150 150 150
-0.305217 1.308794 0.362454 150 150 150
-0.597975 1.248284 0.985476 150 150 150
-0.187547 1.088594 0.282886 150 150 150
-0.495716 1.046586 1.123197 150 150 150
-0.168900 1.004617 0.263607 150 150 150
-0.448332 0.975484 1.152576 150 150 150
