ply
format ascii 1.0
comment author: Greg Turk
comment object: another cube
element vertex 24
property float x
property float y
property float z
property uchar red
property uchar green
property uchar blue
element face 0
property list uchar int vertex_index
end_header
-0.384091 1.029964 -0.421060 150 150 150
-0.335539 0.950257 -0.371991 150 150 150
-0.407067 0.933180 -0.471376 150 150 150
-0.351540 1.157655 -0.454150 150 150 150
-0.376165 0.617601 -0.190419 150 150 150
-0.495596 0.561376 -0.471167 150 150 150
-0.388976 1.292555 -0.437918 150 150 150
-0.081712 0.364968 -0.376631 150 150 150
-0.486345 0.137962 -0.483010 150 150 150
-0.400229 1.349511 -0.439943 150 150 150
-0.091495 0.237607 -0.322951 150 150 150
-0.602753 0.074428 -0.420052 150 150 150
-0.428554 1.569198 -0.464026 150 150 150
-0.357259 1.475939 -0.395758 150 150 150
-0.464084 1.456344 -0.513656 150 150 150
-0.463009 1.628872 -0.396154 150 150 150
-0.249428 1.509484 -0.338235 150 150 150
-0.531717 1.456549 -0.611692 150 150 150
-0.119914 1.319852 -0.244962 150 150 150
-0.543741 1.209522 -0.679018 150 150 150
-0.031572 1.129342 -0.085410 150 150 150
-0.629778 0.958201 -0.700045 150 150 150
-0.003058 1.052386 -0.054235 150 150 150
-0.642795 0.869955 -0.686872 150 150 150
