ply
format ascii 1.0
comment author: Greg Turk
comment object: another cube
element vertex 24
property float x
property float y
property float z
property uchar red
property uchar green
property uchar blue
element face 0
property list uchar int vertex_index
end_header
-0.513042 1.065278 -0.332482 150 150 150
-0.456479 0.988100 -0.294007 150 150 150
-0.554419 0.969813 -0.372807 150 150 150
-0.490440 1.182556 -0.377565 150 150 150
-0.669765 1.002558 0.025475 150 150 150
-0.586154 0.581971 -0.388240 150 150 150
-0.513326 1.317219 -0.331183 150 150 150
-0.576183 0.611308 -0.126520 150 150 150
-0.505377 0.175357 -0.467433 150 150 150
-0.519931 1.378031 -0.319528 150 150 150
-0.609684 0.525253 -0.021493 150 150 150
-0.607032 0.085334 -0.410664 150 150 150
-0.559936 1.586309 -0.319445 150 150 150
-0.461411 1.499877 -0.315405 150 150 150
-0.616511 1.482771 -0.330048 150 150 150
-0.549665 1.648718 -0.246345 150 150 150
-0.348669 1.556067 -0.354566 150 150 150
-0.733966 1.504091 -0.321831 150 150 150
-0.165002 1.471499 -0.504298 150 150 150
-0.922420 1.359346 -0.204380 150 150 150
0.062877 1.374767 -0.580542 150 150 150
-0.777888 1.416096 0.010087 150 150 150
0.116775 1.323574 -0.626203 150 150 150
-0.709777 1.431923 0.066286 150 150 150
