ply
format ascii 1.0
comment author: Greg Turk
comment object: another cube
element vertex 24
property float x
property float y
property float z
property uchar red
property uchar green
property uchar blue
element face 0
property list uchar int vertex_index
end_header
0.205829 1.014000 -0.520478 150 150 150
0.225059 0.926951 -0.463653 150 150 150
0.225211 0.925437 -0.585407 150 150 150
0.241541 1.149002 -0.508878 150 150 150
0.228905 0.554228 -0.412446 150 150 150
0.216328 0.553071 -0.649658 150 150 150
0.208494 1.287194 -0.502610 150 150 150
0.257000 0.124969 -0.425480 150 150 150
0.271599 0.133099 -0.640143 150 150 150
0.206711 1.345668 -0.505010 150 150 150
0.148420 0.045480 -0.387591 150 150 150
0.146388 0.067496 -0.684395 150 150 150
0.219900 1.568922 -0.514908 150 150 150
0.215268 1.463553 -0.428538 150 150 150
0.220611 1.464570 -0.587704 150 150 150
0.156946 1.639930 -0.500418 150 150 150
0.267555 1.477363 -0.314045 150 150 150
0.247561 1.481634 -0.701784 150 150 150
0.288453 1.253910 -0.215899 150 150 150
0.266735 1.249973 -0.808676 150 150 150
0.222049 1.044265 -0.070921 150 150 150
0.216547 1.040443 -0.966004 150 150 150
0.209844 0.960438 -0.047230 150 150 150
0.199272 0.957850 -0.997424 150 150 150
