ply
format ascii 1.0
comment author: Greg Turk
comment object: another cube
element vertex 24
property float x
property float y
property float z
property uchar red
property uchar green
property uchar blue
element face 0
property list uchar int vertex_index
end_header
-0.433260 1.060418 -0.401483 150 150 150
-0.380216 0.984752 -0.353715 150 150 150
-0.467583 0.962512 -0.443182 150 150 150
-0.406491 1.177358 -0.446192 150 150 150
-0.593611 0.908311 -0.045928 150 150 150
-0.538241 0.580191 -0.425814 150 150 150
-0.443218 1.310691 -0.412255 150 150 150
-0.388680 0.601522 -0.264560 150 150 150
-0.492694 0.162660 -0.469432 150 150 150
-0.455743 1.369192 -0.404823 150 150 150
-0.414022 0.483795 -0.195450 150 150 150
-0.603776 0.083266 -0.414054 150 150 150
-0.500231 1.580883 -0.419084 150 150 150
-0.403584 1.495757 -0.387462 150 150 150
-0.550375 1.470111 -0.443046 150 150 150
-0.511054 1.644819 -0.347612 150 150 150
-0.284164 1.547569 -0.385911 150 150 150
-0.664673 1.474387 -0.478928 150 150 150
-0.070053 1.419189 -0.398338 150 150 150
-0.788449 1.243802 -0.485252 150 150 150
0.145110 1.285012 -0.330895 150 150 150
-0.871610 1.082576 -0.291761 150 150 150
0.208753 1.224983 -0.329834 150 150 150
-0.880387 1.024769 -0.223025 150 150 150
