ply
format ascii 1.0
comment author: Greg Turk
comment object: another cube
element vertex 24
property float x
property float y
property float z
property uchar red
property uchar green
property uchar blue
element face 0
property list uchar int vertex_index
end_header
0.198458 1.028230 -0.469188 150 150 150
0.222446 0.938660 -0.418882 150 150 150
0.202394 0.942210 -0.540067 150 150 150
0.239159 1.156370 -0.454558 150 150 150
0.221257 0.560501 -0.382568 150 150 150
0.053534 0.598183 -0.608361 150 150 150
0.198880 1.292748 -0.442027 150 150 150
0.256380 0.133254 -0.422715 150 150 150
0.226775 0.211124 -0.629561 150 150 150
0.194014 1.351223 -0.443029 150 150 150
0.152086 0.048431 -0.387118 150 150 150
0.113257 0.128445 -0.677314 150 150 150
0.198661 1.573060 -0.444150 150 150 150
0.190708 1.465474 -0.361581 150 150 150
0.210969 1.472146 -0.520523 150 150 150
0.129427 1.639992 -0.432126 150 150 150
0.214736 1.481236 -0.237524 150 150 150
0.255008 1.496917 -0.627914 150 150 150
0.182933 1.265678 -0.117005 150 150 150
0.345078 1.277307 -0.716852 150 150 150
0.033501 1.080493 -0.002304 150 150 150
0.371968 1.064375 -0.873978 150 150 150
-0.000521 1.001243 0.016947 150 150 150
0.376981 0.979771 -0.904091 150 150 150
