ply
format ascii 1.0
comment author: Greg Turk
comment object: another cube
element vertex 24
property float x
property float y
property float z
property uchar red
property uchar green
property uchar blue
element face 0
property list uchar int vertex_index
end_header
0.207334 1.013964 -0.532950 150 150 150
0.226335 0.927605 -0.474945 150 150 150
0.227149 0.924758 -0.596752 150 150 150
0.242985 1.149082 -0.522861 150 150 150
0.231616 0.555451 -0.419818 150 150 150
0.219336 0.551559 -0.656288 150 150 150
0.210863 1.287308 -0.518705 150 150 150
0.257369 0.125788 -0.425455 150 150 150
0.272847 0.131611 -0.639373 150 150 150
0.209393 1.345548 -0.521908 150 150 150
0.148105 0.047125 -0.387761 150 150 150
0.147375 0.067158 -0.684527 150 150 150
0.224186 1.568904 -0.535445 150 150 150
0.220158 1.464500 -0.447342 150 150 150
0.222677 1.463324 -0.606726 150 150 150
0.162322 1.641093 -0.521117 150 150 150
0.275796 1.478269 -0.334659 150 150 150
0.246389 1.478283 -0.721748 150 150 150
0.299374 1.253272 -0.241669 150 150 150
0.259822 1.245567 -0.828218 150 150 150
0.236116 1.041832 -0.098189 150 150 150
0.201668 1.035402 -0.982083 150 150 150
0.223860 0.957872 -0.074959 150 150 150
0.183071 0.952864 -1.013051 150 150 150
