ply
format ascii 1.0
comment author: Greg Turk
comment object: another cube
element vertex 24
property float x
property float y
property float z
property uchar red
property uchar green
property uchar blue
element face 0
property list uchar int vertex_index
end_header
-0.410644 1.031315 0.673791 150 150 150
-0.379961 0.948212 0.617974 150 150 150
-0.452752 0.937761 0.716024 150 150 150
-0.450146 1.158169 0.645412 150 150 150
-0.205928 0.608361 0.641305 150 150 150
-0.434039 0.563464 0.790239 150 150 150
-0.423686 1.293464 0.670175 150 150 150
-0.479434 0.349477 0.432065 150 150 150
-0.440660 0.139982 0.790972 150 150 150
-0.420789 1.349734 0.680126 150 150 150
-0.446539 0.216357 0.446857 150 150 150
-0.340740 0.080721 0.881679 150 150 150
-0.435457 1.569798 0.705400 150 150 150
-0.385679 1.471679 0.622606 150 150 150
-0.475586 1.460179 0.756975 150 150 150
-0.361166 1.632281 0.716657 150 150 150
-0.336840 1.491874 0.506689 150 150 150
-0.549630 1.468821 0.851135 150 150 150
-0.272855 1.286232 0.376063 150 150 150
-0.667122 1.250618 0.926540 150 150 150
-0.136268 1.063426 0.356621 150 150 150
-0.616428 1.037238 1.074758 150 150 150
-0.110529 0.978767 0.356528 150 150 150
-0.583049 0.960218 1.108342 150 150 150
