ply
format ascii 1.0
comment author: Greg Turk
comment object: another cube
element vertex 24
property float x
property float y
property float z
property uchar red
property uchar green
property uchar blue
element face 0
property list uchar int vertex_index
end_header
-0.387232 1.049397 0.701151 150 150 150
-0.357035 0.969272 0.641865 150 150 150
-0.423021 0.954552 0.745890 150 150 150
-0.433762 1.171520 0.679419 150 150 150
-0.093006 0.706098 0.727029 150 150 150
-0.397327 0.575389 0.809163 150 150 150
-0.401885 1.305817 0.702258 150 150 150
-0.397815 0.455597 0.559618 150 150 150
-0.433915 0.154599 0.794012 150 150 150
-0.394944 1.362443 0.712357 150 150 150
-0.329117 0.337712 0.580518 150 150 150
-0.337941 0.083621 0.880886 150 150 150
-0.404346 1.580279 0.747095 150 150 150
-0.373625 1.485929 0.652631 150 150 150
-0.430724 1.469941 0.802683 150 150 150
-0.328625 1.642462 0.747670 150 150 150
-0.354127 1.518302 0.529732 150 150 150
-0.471192 1.477045 0.915081 150 150 150
-0.341239 1.338609 0.354441 150 150 150
-0.523393 1.251417 1.034540 150 150 150
-0.245840 1.130495 0.227289 150 150 150
-0.374530 1.066460 1.151845 150 150 150
-0.237324 1.049974 0.193194 150 150 150
-0.316228 1.000731 1.172579 150 150 150
