ply
format ascii 1.0
comment author: Greg Turk
comment object: another cube
element vertex 24
property float x
property float y
property float z
property uchar red
property uchar green
property uchar blue
element face 0
property list uchar int vertex_index
end_header
-0.605438 0.988992 -0.076542 150 150 150
-0.550225 0.900742 -0.073023 150 150 150
-0.664311 0.903063 -0.111047 150 150 150
-0.582637 1.120791 -0.115163 150 150 150
-0.553274 0.546859 0.063635 150 150 150
-0.673593 0.541202 -0.220424 150 150 150
-0.573867 1.258307 -0.085533 150 150 150
-0.634828 0.136197 0.159945 150 150 150
-0.541553 0.203113 -0.437610 150 150 150
-0.573540 1.317064 -0.081994 150 150 150
-0.592724 0.096751 0.288003 150 150 150
-0.619871 0.081135 -0.405629 150 150 150
-0.584809 1.538030 -0.088708 150 150 150
-0.497055 1.433761 -0.087369 150 150 150
-0.655949 1.435286 -0.092144 150 150 150
-0.563628 1.606270 -0.022568 150 150 150
-0.382176 1.464012 -0.136278 150 150 150
-0.771309 1.457624 -0.091403 150 150 150
-0.245554 1.282259 -0.236109 150 150 150
-0.931406 1.252340 -0.069366 150 150 150
-0.089878 1.072611 -0.235180 150 150 150
-0.927273 1.108380 0.151965 150 150 150
-0.062274 0.990318 -0.250094 150 150 150
-0.903838 1.054684 0.220444 150 150 150
