ply
format ascii 1.0
comment author: Greg Turk
comment object: another cube
element vertex 24
property float x
property float y
property float z
property uchar red
property uchar green
property uchar blue
element face 0
property list uchar int vertex_index
end_header
-0.362559 1.018711 -0.427604 150 150 150
-0.315251 0.937476 -0.378986 150 150 150
-0.382429 0.922459 -0.480647 150 150 150
-0.329086 1.149337 -0.454830 150 150 150
-0.309000 0.581950 -0.246157 150 150 150
-0.483146 0.555481 -0.475803 150 150 150
-0.368813 1.285086 -0.441488 150 150 150
-0.001362 0.309479 -0.376636 150 150 150
-0.482679 0.131204 -0.483530 150 150 150
-0.378998 1.342520 -0.445083 150 150 150
-0.005828 0.175573 -0.342346 150 150 150
-0.601774 0.072815 -0.420991 150 150 150
-0.401264 1.562560 -0.468011 150 150 150
-0.340972 1.467433 -0.393007 150 150 150
-0.430760 1.451664 -0.524658 150 150 150
-0.441881 1.621638 -0.404012 150 150 150
-0.241361 1.495698 -0.320676 150 150 150
-0.477261 1.456594 -0.634634 150 150 150
-0.144820 1.294001 -0.214850 150 150 150
-0.463387 1.214475 -0.714472 150 150 150
-0.111480 1.095100 -0.044791 150 150 150
-0.522712 0.964685 -0.785532 150 150 150
-0.099332 1.015632 -0.008827 150 150 150
-0.531935 0.875030 -0.784981 150 150 150
