ply
format ascii 1.0
comment author: Greg Turk
comment object: another cube
element vertex 24
property float x
property float y
property float z
property uchar red
property uchar green
property uchar blue
element face 0
property list uchar int vertex_index
end_header
-0.604707 1.020631 0.082750 150 150 150
-0.556421 0.929220 0.064082 150 150 150
-0.678585 0.937267 0.085361 150 150 150
-0.585196 1.142558 0.035687 150 150 150
-0.545517 0.551350 0.128226 150 150 150
-0.752380 0.632389 0.303744 150 150 150
-0.570556 1.281819 0.069607 150 150 150
-0.623306 0.133972 0.192055 150 150 150
-0.721502 0.449380 -0.079414 150 150 150
-0.570185 1.340143 0.077147 150 150 150
-0.594246 0.066453 0.308820 150 150 150
-0.752502 0.304891 -0.081338 150 150 150
-0.569964 1.558667 0.067931 150 150 150
-0.487296 1.451425 0.071677 150 150 150
-0.648121 1.461198 0.066845 150 150 150
-0.538384 1.625100 0.133063 150 150 150
-0.361675 1.460469 0.063872 150 150 150
-0.760561 1.496800 0.048961 150 150 150
-0.287148 1.240558 0.162455 150 150 150
-0.919181 1.321300 -0.049658 150 150 150
-0.336742 1.107807 0.385940 150 150 150
-1.104557 1.132468 -0.073461 150 150 150
-0.369265 1.045956 0.441677 150 150 150
-1.139986 1.051265 -0.091889 150 150 150
