ply
format ascii 1.0
comment author: Greg Turk
comment object: another cube
element vertex 24
property float x
property float y
property float z
property uchar red
property uchar green
property uchar blue
element face 0
property list uchar int vertex_index
end_header
-0.539005 1.039916 0.405271 150 150 150
-0.509213 0.949777 0.357692 150 150 150
-0.590977 0.953482 0.452160 150 150 150
-0.555691 1.161541 0.358067 150 150 150
-0.510282 0.569500 0.319901 150 150 150
-0.422687 0.722331 0.707987 150 150 150
-0.526581 1.302738 0.390827 150 150 150
-0.615706 0.164678 0.210824 150 150 150
-0.460419 0.300896 0.743984 150 150 150
-0.521567 1.363041 0.401666 150 150 150
-0.596291 0.060778 0.298219 150 150 150
-0.379718 0.263499 0.862279 150 150 150
-0.511489 1.573092 0.392810 150 150 150
-0.440931 1.466766 0.369466 150 150 150
-0.590507 1.485581 0.419430 150 150 150
-0.453445 1.636440 0.437782 150 150 150
-0.317352 1.470378 0.345399 150 150 150
-0.698515 1.541055 0.423612 150 150 150
-0.222248 1.315820 0.531266 150 150 150
-0.911473 1.440654 0.324438 150 150 150
-0.382612 1.387935 0.728055 150 150 150
-1.140308 1.313166 0.347933 150 150 150
-0.451600 1.396108 0.785323 150 150 150
-1.198441 1.244492 0.342063 150 150 150
