ply
format ascii 1.0
comment author: Greg Turk
comment object: another cube
element vertex 24
property float x
property float y
property float z
property uchar red
property uchar green
property uchar blue
element face 0
property list uchar int vertex_index
end_header
0.002067 1.026531 -0.448418 150 150 150
0.043822 0.938165 -0.404541 150 150 150
-0.024651 0.939278 -0.512388 150 150 150
0.044794 1.147383 -0.449048 150 150 150
0.103662 0.562573 -0.371070 150 150 150
-0.367155 0.795059 -0.406999 150 150 150
-0.005958 1.287989 -0.433230 150 150 150
0.241872 0.157320 -0.413313 150 150 150
-0.343677 0.375367 -0.483002 150 150 150
-0.017428 1.350332 -0.434045 150 150 150
0.156630 0.053208 -0.386621 150 150 150
-0.482219 0.328611 -0.457987 150 150 150
-0.016773 1.559660 -0.424369 150 150 150
-0.022545 1.457398 -0.350480 150 150 150
-0.004352 1.470834 -0.504573 150 150 150
-0.086440 1.619742 -0.398713 150 150 150
-0.035936 1.478795 -0.227079 150 150 150
0.059420 1.524035 -0.591727 150 150 150
-0.249415 1.347390 -0.179229 150 150 150
0.239807 1.366482 -0.672800 150 150 150
-0.351622 1.444455 -0.401553 150 150 150
0.407493 1.249717 -0.838052 150 150 150
-0.381420 1.449586 -0.486320 150 150 150
0.457407 1.181388 -0.867490 150 150 150
