ply
format ascii 1.0
comment author: Greg Turk
comment object: another cube
element vertex 24
property float x
property float y
property float z
property uchar red
property uchar green
property uchar blue
element face 0
property list uchar int vertex_index
end_header
-0.424813 1.020891 0.652539 150 150 150
-0.395442 0.936277 0.597784 150 150 150
-0.469664 0.928079 0.694191 150 150 150
-0.459847 1.150128 0.621465 150 150 150
-0.275574 0.574063 0.583149 150 150 150
-0.448686 0.557779 0.779073 150 150 150
-0.435273 1.286624 0.647780 150 150 150
-0.524297 0.292520 0.370662 150 150 150
-0.443259 0.134131 0.789496 150 150 150
-0.433942 1.343427 0.657412 150 150 150
-0.507674 0.156418 0.381819 150 150 150
-0.342074 0.079865 0.881769 150 150 150
-0.448873 1.563118 0.677719 150 150 150
-0.391663 1.463964 0.602476 150 150 150
-0.495764 1.455350 0.726102 150 150 150
-0.376637 1.625931 0.694484 150 150 150
-0.328321 1.480107 0.493645 150 150 150
-0.583387 1.469112 0.807635 150 150 150
-0.242694 1.265621 0.392825 150 150 150
-0.731485 1.263900 0.859009 150 150 150
-0.102781 1.050124 0.444025 150 150 150
-0.730375 1.044430 1.006435 150 150 150
-0.075810 0.968803 0.467362 150 150 150
-0.710954 0.962783 1.040023 150 150 150
