ply
format ascii 1.0
comment author: Greg Turk
comment object: another cube
element vertex 24
property float x
property float y
property float z
property uchar red
property uchar green
property uchar blue
element face 0
property list uchar int vertex_index
end_header
0.113431 1.044840 -0.455574 150 150 150
0.145893 0.953241 -0.409780 150 150 150
0.088163 0.964002 -0.526631 150 150 150
0.160419 1.158914 -0.446133 150 150 150
0.155671 0.569037 -0.377677 150 150 150
-0.282422 0.967721 -0.422791 150 150 150
0.109299 1.297366 -0.429498 150 150 150
0.250593 0.152766 -0.420872 150 150 150
-0.078095 0.600576 -0.513112 150 150 150
0.097458 1.358304 -0.430253 150 150 150
0.157526 0.057892 -0.386365 150 150 150
-0.194729 0.508425 -0.512214 150 150 150
0.100029 1.570974 -0.418079 150 150 150
0.081448 1.465730 -0.345905 150 150 150
0.124126 1.480300 -0.496643 150 150 150
0.028003 1.633960 -0.404989 150 150 150
0.057659 1.485487 -0.223038 150 150 150
0.198415 1.526597 -0.578703 150 150 150
-0.137636 1.329155 -0.176087 150 150 150
0.374178 1.354481 -0.640363 150 150 150
-0.278720 1.392772 -0.389101 150 150 150
0.523976 1.205124 -0.798113 150 150 150
-0.319554 1.387129 -0.469174 150 150 150
0.565355 1.130257 -0.826080 150 150 150
