ply
format ascii 1.0
comment author: Greg Turk
comment object: another cube
element vertex 24
property float x
property float y
property float z
property uchar red
property uchar green
property uchar blue
element face 0
property list uchar int vertex_index
end_header
-0.127256 0.992035 -0.445463 150 150 150
-0.078265 0.907654 -0.402467 150 150 150
-0.145610 0.899348 -0.506869 150 150 150
-0.093150 1.122892 -0.453182 150 150 150
0.028176 0.547612 -0.366013 150 150 150
-0.365932 0.588629 -0.473545 150 150 150
-0.140399 1.262959 -0.439967 150 150 150
0.226556 0.168736 -0.411960 150 150 150
-0.435716 0.171886 -0.492456 150 150 150
-0.150143 1.324363 -0.443193 150 150 150
0.158829 0.051577 -0.386840 150 150 150
-0.566429 0.133525 -0.435977 150 150 150
-0.154177 1.537395 -0.448128 150 150 150
-0.141090 1.438022 -0.367270 150 150 150
-0.155000 1.441086 -0.522762 150 150 150
-0.217405 1.596330 -0.410029 150 150 150
-0.117943 1.459209 -0.245348 150 150 150
-0.114603 1.484898 -0.626828 150 150 150
-0.238247 1.272615 -0.127522 150 150 150
0.030793 1.310285 -0.737502 150 150 150
-0.479116 1.240489 -0.224480 150 150 150
0.148703 1.169028 -0.925879 150 150 150
-0.548650 1.207117 -0.269666 150 150 150
0.184945 1.097258 -0.965407 150 150 150
