ply
format ascii 1.0
comment author: Greg Turk
comment object: another cube
element vertex 24
property float x
property float y
property float z
property uchar red
property uchar green
property uchar blue
element face 0
property list uchar int vertex_index
end_header
0.174447 1.043772 -0.459859 150 150 150
0.199698 0.951579 -0.412918 150 150 150
0.161737 0.962119 -0.534502 150 150 150
0.220202 1.161047 -0.442780 150 150 150
0.184348 0.567937 -0.380492 150 150 150
-0.183741 0.795098 -0.533795 150 150 150
0.174305 1.297981 -0.426675 150 150 150
0.252486 0.146205 -0.424198 150 150 150
0.110642 0.486972 -0.574721 150 150 150
0.165378 1.357393 -0.427208 150 150 150
0.155089 0.056528 -0.385579 150 150 150
0.022434 0.371051 -0.602878 150 150 150
0.166291 1.575199 -0.422505 150 150 150
0.151704 1.468779 -0.344444 150 150 150
0.188793 1.478702 -0.498988 150 150 150
0.093350 1.639180 -0.412333 150 150 150
0.146399 1.489512 -0.219305 150 150 150
0.249714 1.514932 -0.594337 150 150 150
0.021110 1.295102 -0.119172 150 150 150
0.390461 1.318129 -0.668898 150 150 150
-0.226558 1.213683 -0.162297 150 150 150
0.494434 1.129238 -0.823999 150 150 150
-0.295484 1.162461 -0.186405 150 150 150
0.521743 1.048125 -0.852056 150 150 150
