ply
format ascii 1.0
comment author: Greg Turk
comment object: another cube
element vertex 24
property float x
property float y
property float z
property uchar red
property uchar green
property uchar blue
element face 0
property list uchar int vertex_index
end_header
-0.590439 1.071277 0.283770 150 150 150
-0.556151 0.976353 0.248453 150 150 150
-0.648660 0.996681 0.339370 150 150 150
-0.597521 1.178314 0.223546 150 150 150
-0.542631 0.588658 0.262500 150 150 150
-0.428443 1.085224 0.641721 150 150 150
-0.565624 1.320884 0.256610 150 150 150
-0.625748 0.169736 0.205324 150 150 150
-0.560927 0.686636 0.556410 150 150 150
-0.559138 1.381524 0.269096 150 150 150
-0.597302 0.072311 0.297537 150 150 150
-0.515313 0.616737 0.679310 150 150 150
-0.535192 1.587095 0.250924 150 150 150
-0.467496 1.478611 0.252900 150 150 150
-0.623039 1.507270 0.261052 150 150 150
-0.487428 1.653035 0.304675 150 150 150
-0.342228 1.480350 0.270592 150 150 150
-0.723694 1.571250 0.234785 150 150 150
-0.326768 1.395166 0.518939 150 150 150
-0.920900 1.504923 0.083664 150 150 150
-0.542185 1.540397 0.577859 150 150 150
-1.167156 1.441035 0.008079 150 150 150
-0.625986 1.571684 0.592622 150 150 150
-1.230120 1.388156 -0.029961 150 150 150
