ply
format ascii 1.0
comment author: Greg Turk
comment object: another cube
element vertex 24
property float x
property float y
property float z
property uchar red
property uchar green
property uchar blue
element face 0
property list uchar int vertex_index
end_header
-0.056120 1.010676 -0.445209 150 150 150
-0.012051 0.923801 -0.401619 150 150 150
-0.078013 0.920398 -0.508313 150 150 150
-0.016278 1.137258 -0.448453 150 150 150
0.072553 0.556007 -0.368304 150 150 150
-0.357954 0.664778 -0.447591 150 150 150
-0.063263 1.278458 -0.434230 150 150 150
0.236926 0.160722 -0.412171 150 150 150
-0.404591 0.244972 -0.486614 150 150 150
-0.073187 1.340652 -0.436089 150 150 150
0.158003 0.051215 -0.386504 150 150 150
-0.541582 0.209423 -0.443576 150 150 150
-0.073366 1.551381 -0.432849 150 150 150
-0.071296 1.450480 -0.355603 150 150 150
-0.067543 1.459413 -0.510866 150 150 150
-0.141016 1.610065 -0.401761 150 150 150
-0.069728 1.471726 -0.231596 150 150 150
-0.014133 1.509654 -0.605891 150 150 150
-0.250678 1.314611 -0.148944 150 150 150
0.151881 1.345867 -0.703265 150 150 150
-0.423826 1.365420 -0.339187 150 150 150
0.299901 1.221772 -0.881329 150 150 150
-0.473451 1.356388 -0.413420 150 150 150
0.344594 1.152619 -0.916524 150 150 150
