ply
format ascii 1.0
comment author: Greg Turk
comment object: another cube
element vertex 24
property float x
property float y
property float z
property uchar red
property uchar green
property uchar blue
element face 0
property list uchar int vertex_index
end_header
-0.444543 1.011692 0.622015 150 150 150
-0.418102 0.926054 0.566807 150 150 150
-0.491948 0.919659 0.663295 150 150 150
-0.474184 1.142854 0.590134 150 150 150
-0.350672 0.554190 0.520447 150 150 150
-0.460513 0.555194 0.765370 150 150 150
-0.448893 1.280285 0.619154 150 150 150
-0.570913 0.243280 0.317418 150 150 150
-0.445177 0.132302 0.787418 150 150 150
-0.447867 1.337899 0.628871 150 150 150
-0.564700 0.107063 0.333212 150 150 150
-0.343608 0.081715 0.881290 150 150 150
-0.460747 1.556437 0.645027 150 150 150
-0.398335 1.456585 0.577448 150 150 150
-0.513876 1.451374 0.689874 150 150 150
-0.390960 1.619779 0.666811 150 150 150
-0.321102 1.469872 0.477984 150 150 150
-0.611382 1.472145 0.758058 150 150 150
-0.218236 1.249216 0.411970 150 150 150
-0.783954 1.283150 0.783629 150 150 150
-0.094673 1.053724 0.534862 150 150 150
-0.824329 1.065997 0.928041 150 150 150
-0.073544 0.980642 0.581129 150 150 150
-0.816760 0.982806 0.962446 150 150 150
