ply
format ascii 1.0
comment author: Greg Turk
comment object: another cube
element vertex 24
property float x
property float y
property float z
property uchar red
property uchar green
property uchar blue
element face 0
property list uchar int vertex_index
end_header
-0.610452 1.062695 0.182284 150 150 150
-0.572571 0.966495 0.154778 150 150 150
-0.680685 0.988443 0.224359 150 150 150
-0.602700 1.171083 0.122392 150 150 150
-0.557452 0.582173 0.204146 150 150 150
-0.559821 1.015718 0.585276 150 150 150
-0.573667 1.313106 0.157981 150 150 150
-0.634799 0.159611 0.201925 150 150 150
-0.687927 0.706129 0.318234 150 150 150
-0.568841 1.373575 0.170517 150 150 150
-0.596268 0.072558 0.300977 150 150 150
-0.700050 0.575231 0.386826 150 150 150
-0.548717 1.582246 0.155898 150 150 150
-0.478275 1.474696 0.162487 150 150 150
-0.634958 1.498116 0.157859 150 150 150
-0.509888 1.649030 0.215230 150 150 150
-0.353439 1.479119 0.182049 150 150 150
-0.737889 1.554965 0.129059 150 150 150
-0.331703 1.343265 0.403388 150 150 150
-0.924119 1.453226 -0.015803 150 150 150
-0.538208 1.425654 0.549963 150 150 150
-1.156144 1.349168 -0.093061 150 150 150
-0.618421 1.433545 0.590896 150 150 150
-1.209935 1.286548 -0.130298 150 150 150
