ply
format ascii 1.0
comment author: Greg Turk
comment object: another cube
element vertex 24
property float x
property float y
property float z
property uchar red
property uchar green
property uchar blue
element face 0
property list uchar int vertex_index
end_header
-0.578024 1.064804 0.318223 150 150 150
-0.544672 0.971458 0.278516 150 150 150
-0.632803 0.986607 0.372789 150 150 150
-0.588870 1.175079 0.261971 150 150 150
-0.531407 0.584243 0.280655 150 150 150
-0.400673 1.001181 0.680013 150 150 150
-0.557194 1.317242 0.295569 150 150 150
-0.621300 0.168877 0.206093 150 150 150
-0.521188 0.592916 0.630665 150 150 150
-0.550723 1.377725 0.307789 150 150 150
-0.596196 0.069818 0.297317 150 150 150
-0.464005 0.529046 0.751726 150 150 150
-0.529327 1.584188 0.290947 150 150 150
-0.460876 1.475792 0.286983 150 150 150
-0.615876 1.503142 0.305865 150 150 150
-0.478197 1.649955 0.341910 150 150 150
-0.334815 1.477517 0.294630 150 150 150
-0.718713 1.565938 0.285559 150 150 150
-0.299235 1.384955 0.537746 150 150 150
-0.921324 1.493657 0.145251 150 150 150
-0.510217 1.525851 0.617670 150 150 150
-1.169505 1.423651 0.085036 150 150 150
-0.592983 1.555346 0.639559 150 150 150
-1.233558 1.369288 0.051390 150 150 150
