ply
format ascii 1.0
comment author: Greg Turk
comment object: another cube
element vertex 24
property float x
property float y
property float z
property uchar red
property uchar green
property uchar blue
element face 0
property list uchar int vertex_index
end_header
-0.398703 1.038809 -0.415110 150 150 150
-0.348622 0.960364 -0.366162 150 150 150
-0.424534 0.941607 -0.463015 150 150 150
-0.367900 1.163722 -0.452543 150 150 150
-0.434468 0.663662 -0.141162 150 150 150
-0.506995 0.566627 -0.461058 150 150 150
-0.404840 1.297802 -0.432994 150 150 150
-0.159280 0.419326 -0.362906 150 150 150
-0.488364 0.144197 -0.480401 150 150 150
-0.417279 1.354521 -0.433011 150 150 150
-0.169176 0.295686 -0.301232 150 150 150
-0.603145 0.076339 -0.418577 150 150 150
-0.452468 1.572861 -0.456868 150 150 150
-0.371293 1.482184 -0.396816 150 150 150
-0.492457 1.458768 -0.499208 150 150 150
-0.480332 1.633965 -0.386789 150 150 150
-0.257580 1.521293 -0.354537 150 150 150
-0.577633 1.455525 -0.582426 150 150 150
-0.096821 1.346959 -0.280439 150 150 150
-0.615790 1.206571 -0.637562 150 150 150
0.035335 1.169647 -0.137206 150 150 150
-0.720060 0.963548 -0.605469 150 150 150
0.076992 1.096651 -0.112520 150 150 150
-0.735140 0.878260 -0.580201 150 150 150
