ply
format ascii 1.0
comment author: Greg Turk
comment object: another cube
element vertex 24
property float x
property float y
property float z
property uchar red
property uchar green
property uchar blue
element face 0
property list uchar int vertex_index
end_header
0.210132 1.012997 -0.537571 150 150 150
0.229194 0.926940 -0.479074 150 150 150
0.229534 0.923355 -0.600886 150 150 150
0.246176 1.148189 -0.528574 150 150 150
0.234555 0.555094 -0.422666 150 150 150
0.221845 0.549745 -0.657319 150 150 150
0.214373 1.286579 -0.525520 150 150 150
0.255862 0.125153 -0.424769 150 150 150
0.271897 0.129321 -0.641853 150 150 150
0.212879 1.344858 -0.529002 150 150 150
0.145837 0.047032 -0.388270 150 150 150
0.144441 0.067448 -0.685092 150 150 150
0.227924 1.567929 -0.543795 150 150 150
0.224767 1.464059 -0.455248 150 150 150
0.225293 1.462191 -0.614639 150 150 150
0.166845 1.640780 -0.529753 150 150 150
0.282090 1.478291 -0.343480 150 150 150
0.246994 1.477281 -0.729930 150 150 150
0.307562 1.253331 -0.251193 150 150 150
0.261303 1.245003 -0.837552 150 150 150
0.241844 1.042767 -0.107886 150 150 150
0.198716 1.034088 -0.988461 150 150 150
0.228369 0.959172 -0.083920 150 150 150
0.180073 0.951527 -1.019336 150 150 150
