ply
format ascii 1.0
comment author: Greg Turk
comment object: another cube
element vertex 24
property float x
property float y
property float z
property uchar red
property uchar green
property uchar blue
element face 0
property list uchar int vertex_index
end_header
-0.554472 1.050463 -0.279320 150 150 150
-0.498449 0.969732 -0.247324 150 150 150
-0.599184 0.957610 -0.319874 150 150 150
-0.532064 1.171700 -0.323482 150 150 150
-0.648537 0.854997 0.088119 150 150 150
-0.612257 0.573470 -0.358857 150 150 150
-0.543719 1.306656 -0.278135 150 150 150
-0.603830 0.444866 -0.038989 150 150 150
-0.512633 0.176341 -0.466256 150 150 150
-0.546821 1.366687 -0.266985 150 150 150
-0.603997 0.369894 0.079218 150 150 150
-0.607865 0.079737 -0.408908 150 150 150
-0.576820 1.578965 -0.263056 150 150 150
-0.481990 1.486394 -0.265181 150 150 150
-0.638620 1.476697 -0.272056 150 150 150
-0.560825 1.642313 -0.190778 150 150 150
-0.370317 1.536133 -0.314176 150 150 150
-0.754110 1.499682 -0.255897 150 150 150
-0.201812 1.442988 -0.476634 150 150 150
-0.932924 1.360676 -0.114732 150 150 150
0.012355 1.332335 -0.572992 150 150 150
-0.773092 1.408321 0.091893 150 150 150
0.060989 1.278915 -0.621897 150 150 150
-0.701817 1.420714 0.144795 150 150 150
