ply
format ascii 1.0
comment author: Greg Turk
comment object: another cube
element vertex 24
property float x
property float y
property float z
property uchar red
property uchar green
property uchar blue
element face 0
property list uchar int vertex_index
end_header
-0.596016 1.073219 0.265911 150 150 150
-0.561273 0.977646 0.232702 150 150 150
-0.656752 0.999946 0.320590 150 150 150
-0.600343 1.179356 0.204401 150 150 150
-0.547510 0.590026 0.252514 150 150 150
-0.448741 1.104496 0.625678 150 150 150
-0.568526 1.321878 0.237533 150 150 150
-0.627832 0.169629 0.204968 150 150 150
-0.583284 0.713748 0.512929 150 150 150
-0.562152 1.382531 0.250073 150 150 150
-0.597460 0.073259 0.297794 150 150 150
-0.545448 0.640094 0.636391 150 150 150
-0.537701 1.588156 0.231822 150 150 150
-0.470063 1.479654 0.236003 150 150 150
-0.625767 1.508290 0.239781 150 150 150
-0.491695 1.654292 0.286894 150 150 150
-0.345125 1.481901 0.256581 150 150 150
-0.725904 1.572123 0.211813 150 150 150
-0.334772 1.393459 0.503942 150 150 150
-0.920785 1.504665 0.058026 150 150 150
-0.551539 1.535854 0.565010 150 150 150
-1.165301 1.438170 -0.021538 150 150 150
-0.635793 1.565776 0.580134 150 150 150
-1.227089 1.384425 -0.060332 150 150 150
