ply
format ascii 1.0
comment author: Greg Turk
comment object: another cube
element vertex 24
property float x
property float y
property float z
property uchar red
property uchar green
property uchar blue
element face 0
property list uchar int vertex_index
end_header
-0.289941 0.995510 -0.443742 150 150 150
-0.238863 0.913609 -0.398782 150 150 150
-0.304700 0.900666 -0.501679 150 150 150
-0.261397 1.128902 -0.459752 150 150 150
-0.156896 0.550567 -0.334406 150 150 150
-0.452956 0.550939 -0.475426 150 150 150
-0.309519 1.264645 -0.446936 150 150 150
0.130387 0.234711 -0.394484 150 150 150
-0.473357 0.127237 -0.484224 150 150 150
-0.319980 1.323137 -0.450940 150 150 150
0.114686 0.098597 -0.379215 150 150 150
-0.597001 0.077468 -0.422898 150 150 150
-0.335803 1.541954 -0.467683 150 150 150
-0.294775 1.444223 -0.385982 150 150 150
-0.352218 1.436035 -0.534325 150 150 150
-0.386141 1.602208 -0.413378 150 150 150
-0.218912 1.466209 -0.287513 150 150 150
-0.358278 1.455850 -0.652782 150 150 150
-0.186831 1.253202 -0.165266 150 150 150
-0.287055 1.236220 -0.757642 150 150 150
-0.292384 1.062473 -0.017584 150 150 150
-0.277485 1.015198 -0.904941 150 150 150
-0.322869 0.985361 0.013504 150 150 150
-0.273803 0.928837 -0.930021 150 150 150
