ply
format ascii 1.0
comment author: Greg Turk
comment object: another cube
element vertex 24
property float x
property float y
property float z
property uchar red
property uchar green
property uchar blue
element face 0
property list uchar int vertex_index
end_header
-0.472622 1.068738 -0.370856 150 150 150
-0.417289 0.993372 -0.326896 150 150 150
-0.510677 0.971675 -0.411544 150 150 150
-0.448039 1.184248 -0.416040 150 150 150
-0.650611 1.028194 -0.024710 150 150 150
-0.563653 0.584685 -0.407518 150 150 150
-0.480018 1.318020 -0.373641 150 150 150
-0.514017 0.660168 -0.196722 150 150 150
-0.499490 0.172562 -0.467922 150 150 150
-0.490115 1.378272 -0.363172 150 150 150
-0.556070 0.566682 -0.102165 150 150 150
-0.605399 0.086742 -0.412295 150 150 150
-0.535775 1.586163 -0.369978 150 150 150
-0.435662 1.502550 -0.354883 150 150 150
-0.588609 1.479434 -0.384682 150 150 150
-0.534237 1.649989 -0.297765 150 150 150
-0.319753 1.560209 -0.377839 150 150 150
-0.707446 1.494390 -0.392091 150 150 150
-0.111758 1.465782 -0.482026 150 150 150
-0.888212 1.311146 -0.334568 150 150 150
0.125255 1.360869 -0.498688 150 150 150
-0.828337 1.291155 -0.078214 150 150 150
0.189053 1.307393 -0.525143 150 150 150
-0.786467 1.284194 0.001024 150 150 150
