ply
format ascii 1.0
comment author: Greg Turk
comment object: another cube
element vertex 24
property float x
property float y
property float z
property uchar red
property uchar green
property uchar blue
element face 0
property list uchar int vertex_index
end_header
-0.365723 1.064146 0.722499 150 150 150
-0.334415 0.986035 0.662088 150 150 150
-0.395169 0.968425 0.770831 150 150 150
-0.418068 1.181052 0.703945 150 150 150
0.003899 0.867180 0.793304 150 150 150
-0.367280 0.585539 0.827229 150 150 150
-0.379604 1.315841 0.725195 150 150 150
-0.279155 0.569484 0.672942 150 150 150
-0.427730 0.168603 0.799154 150 150 150
-0.369203 1.374161 0.734318 150 150 150
-0.201533 0.458310 0.700934 150 150 150
-0.336079 0.087620 0.881836 150 150 150
-0.371982 1.587040 0.776216 150 150 150
-0.359668 1.498313 0.676292 150 150 150
-0.386443 1.478292 0.832498 150 150 150
-0.297322 1.648465 0.768015 150 150 150
-0.366778 1.543711 0.554785 150 150 150
-0.394884 1.487240 0.951434 150 150 150
-0.410092 1.397142 0.355929 150 150 150
-0.370667 1.269150 1.095875 150 150 150
-0.376809 1.223847 0.162968 150 150 150
-0.144514 1.141040 1.146080 150 150 150
-0.392347 1.154120 0.112313 150 150 150
-0.067557 1.094171 1.142159 150 150 150
