ply
format ascii 1.0
comment author: Greg Turk
comment object: another cube
element vertex 24
property float x
property float y
property float z
property uchar red
property uchar green
property uchar blue
element face 0
property list uchar int vertex_index
end_header
-0.540100 1.056615 -0.299866 150 150 150
-0.483680 0.977324 -0.265228 150 150 150
-0.583653 0.962612 -0.340072 150 150 150
-0.518048 1.176170 -0.344715 150 150 150
-0.656441 0.920747 0.074236 150 150 150
-0.602363 0.576655 -0.370326 150 150 150
-0.533996 1.311052 -0.298062 150 150 150
-0.596347 0.517311 -0.066761 150 150 150
-0.509121 0.175379 -0.466121 150 150 150
-0.538238 1.371462 -0.286429 150 150 150
-0.607929 0.431661 0.043246 150 150 150
-0.607388 0.081666 -0.409236 150 150 150
-0.571837 1.581978 -0.282895 150 150 150
-0.475714 1.491818 -0.283778 150 150 150
-0.631904 1.479613 -0.292429 150 150 150
-0.557538 1.644797 -0.210321 150 150 150
-0.363774 1.543824 -0.330309 150 150 150
-0.748062 1.502351 -0.278077 150 150 150
-0.191135 1.455963 -0.491369 150 150 150
-0.930446 1.366682 -0.138931 150 150 150
0.027477 1.353056 -0.585961 150 150 150
-0.770405 1.424825 0.064715 150 150 150
0.077568 1.301457 -0.635397 150 150 150
-0.698644 1.440181 0.116274 150 150 150
