ply
format ascii 1.0
comment author: Greg Turk
comment object: another cube
element vertex 24
property float x
property float y
property float z
property uchar red
property uchar green
property uchar blue
element face 0
property list uchar int vertex_index
end_header
0.129370 1.045636 -0.456055 150 150 150
0.160431 0.953817 -0.409941 150 150 150
0.106159 0.964892 -0.528051 150 150 150
0.176122 1.159932 -0.444985 150 150 150
0.161830 0.569260 -0.378159 150 150 150
-0.267678 0.951124 -0.439253 150 150 150
0.125570 1.297984 -0.428151 150 150 150
0.251171 0.151876 -0.422257 150 150 150
-0.037685 0.597507 -0.520731 150 150 150
0.113953 1.358616 -0.428906 150 150 150
0.156965 0.058901 -0.385345 150 150 150
-0.145893 0.495839 -0.526353 150 150 150
0.116056 1.572245 -0.417939 150 150 150
0.097754 1.466783 -0.344867 150 150 150
0.140510 1.480489 -0.495964 150 150 150
0.043856 1.635515 -0.405976 150 150 150
0.076363 1.486707 -0.221499 150 150 150
0.213270 1.524925 -0.580062 150 150 150
-0.108600 1.322094 -0.163873 150 150 150
0.383317 1.347984 -0.643994 150 150 150
-0.282298 1.360932 -0.358109 150 150 150
0.525357 1.190650 -0.801851 150 150 150
-0.333053 1.347421 -0.431104 150 150 150
0.564245 1.114620 -0.830391 150 150 150
