ply
format ascii 1.0
comment author: Greg Turk
comment object: another cube
element vertex 24
property float x
property float y
property float z
property uchar red
property uchar green
property uchar blue
element face 0
property list uchar int vertex_index
end_header
0.208879 1.013177 -0.536957 150 150 150
0.227911 0.927136 -0.478445 150 150 150
0.228376 0.923552 -0.600266 150 150 150
0.244858 1.148362 -0.527875 150 150 150
0.233389 0.555283 -0.422081 150 150 150
0.220800 0.550009 -0.657435 150 150 150
0.213017 1.286712 -0.524732 150 150 150
0.256348 0.125441 -0.425317 150 150 150
0.272566 0.129808 -0.641492 150 150 150
0.211547 1.344961 -0.528233 150 150 150
0.146356 0.047564 -0.388182 150 150 150
0.145681 0.066741 -0.684633 150 150 150
0.226456 1.568147 -0.543031 150 150 150
0.223182 1.464238 -0.454449 150 150 150
0.224077 1.462305 -0.613853 150 150 150
0.165172 1.640821 -0.528916 150 150 150
0.280301 1.478442 -0.342588 150 150 150
0.246198 1.476982 -0.729153 150 150 150
0.305380 1.253525 -0.250099 150 150 150
0.259805 1.244249 -0.835827 150 150 150
0.241030 1.042854 -0.106221 150 150 150
0.198656 1.033567 -0.987718 150 150 150
0.228020 0.959118 -0.082553 150 150 150
0.180224 0.950948 -1.018575 150 150 150
