ply
format ascii 1.0
comment author: Greg Turk
comment object: another cube
element vertex 24
property float x
property float y
property float z
property uchar red
property uchar green
property uchar blue
element face 0
property list uchar int vertex_index
end_header
-0.609096 1.068271 0.204075 150 150 150
-0.572602 0.971851 0.175273 150 150 150
-0.677508 0.995379 0.250441 150 150 150
-0.603953 1.175299 0.143180 150 150 150
-0.556472 0.586307 0.219577 150 150 150
-0.525664 1.065352 0.593878 150 150 150
-0.573221 1.317304 0.178045 150 150 150
-0.634041 0.163803 0.203306 150 150 150
-0.662724 0.728394 0.367805 150 150 150
-0.567746 1.377794 0.190771 150 150 150
-0.596817 0.073433 0.299815 150 150 150
-0.661983 0.612346 0.460537 150 150 150
-0.545274 1.585344 0.174844 150 150 150
-0.476186 1.477301 0.181690 150 150 150
-0.632459 1.502898 0.177844 150 150 150
-0.504835 1.652224 0.233184 150 150 150
-0.351523 1.480949 0.203332 150 150 150
-0.734019 1.562488 0.148412 150 150 150
-0.337300 1.361397 0.435464 150 150 150
-0.923300 1.473859 -0.001489 150 150 150
-0.551683 1.468677 0.551588 150 150 150
-1.159580 1.382345 -0.081794 150 150 150
-0.634785 1.485189 0.583488 150 150 150
-1.215592 1.322435 -0.120241 150 150 150
