ply
format ascii 1.0
comment author: Greg Turk
comment object: another cube
element vertex 24
property float x
property float y
property float z
property uchar red
property uchar green
property uchar blue
element face 0
property list uchar int vertex_index
end_header
-0.468203 1.007736 0.584913 150 150 150
-0.442857 0.922226 0.528375 150 150 150
-0.518731 0.916127 0.623817 150 150 150
-0.492366 1.139607 0.552947 150 150 150
-0.422120 0.549164 0.464727 150 150 150
-0.469934 0.559921 0.748110 150 150 150
-0.465499 1.277543 0.584660 150 150 150
-0.596079 0.206152 0.268536 150 150 150
-0.448246 0.139053 0.784728 150 150 150
-0.463683 1.335944 0.594897 150 150 150
-0.578216 0.077908 0.315146 150 150 150
-0.345971 0.089980 0.878584 150 150 150
-0.472674 1.553275 0.607010 150 150 150
-0.406616 1.452251 0.547504 150 150 150
-0.531819 1.451299 0.647838 150 150 150
-0.404600 1.616552 0.633109 150 150 150
-0.316602 1.463690 0.459758 150 150 150
-0.635810 1.480230 0.701670 150 150 150
-0.201786 1.240525 0.433078 150 150 150
-0.826417 1.309585 0.696730 150 150 150
-0.112421 1.079881 0.619092 150 150 150
-0.909268 1.101396 0.834419 150 150 150
-0.104216 1.018532 0.683264 150 150 150
-0.915357 1.017970 0.868224 150 150 150
