ply
format ascii 1.0
comment author: Greg Turk
comment object: another cube
element vertex 24
property float x
property float y
property float z
property uchar red
property uchar green
property uchar blue
element face 0
property list uchar int vertex_index
end_header
-0.605562 1.072101 0.226195 150 150 150
-0.569783 0.975759 0.196263 150 150 150
-0.671657 0.999747 0.276100 150 150 150
-0.603486 1.178236 0.164420 150 150 150
-0.554254 0.589135 0.231957 150 150 150
-0.496401 1.095174 0.602424 150 150 150
-0.572116 1.320390 0.198506 150 150 150
-0.632137 0.167019 0.204282 150 150 150
-0.635536 0.735095 0.417212 150 150 150
-0.566220 1.380943 0.211156 150 150 150
-0.597062 0.074126 0.299137 150 150 150
-0.620096 0.636615 0.527527 150 150 150
-0.542363 1.587605 0.193845 150 150 150
-0.474122 1.479252 0.200605 150 150 150
-0.630117 1.506411 0.198253 150 150 150
-0.500111 1.654320 0.251212 150 150 150
-0.349476 1.482485 0.222947 150 150 150
-0.730658 1.568091 0.168618 150 150 150
-0.339481 1.376330 0.462368 150 150 150
-0.921944 1.489399 0.015552 150 150 150
-0.556924 1.500812 0.552839 150 150 150
-1.161604 1.408765 -0.066294 150 150 150
-0.641343 1.523480 0.576769 150 150 150
-1.219839 1.351276 -0.105194 150 150 150
