ply
format ascii 1.0
comment author: Greg Turk
comment object: another cube
element vertex 24
property float x
property float y
property float z
property uchar red
property uchar green
property uchar blue
element face 0
property list uchar int vertex_index
end_header
0.207769 1.013632 -0.534937 150 150 150
0.226735 0.927418 -0.476684 150 150 150
0.227475 0.924240 -0.598502 150 150 150
0.243576 1.148769 -0.525280 150 150 150
0.232101 0.555414 -0.420881 150 150 150
0.219689 0.550881 -0.656987 150 150 150
0.211636 1.287052 -0.521581 150 150 150
0.257122 0.125692 -0.425256 150 150 150
0.272839 0.130892 -0.639971 150 150 150
0.210204 1.345288 -0.524934 150 150 150
0.147480 0.047366 -0.387994 150 150 150
0.146926 0.066872 -0.684515 150 150 150
0.225118 1.568585 -0.539145 150 150 150
0.221372 1.464432 -0.450770 150 150 150
0.223204 1.462837 -0.610165 150 150 150
0.163502 1.640995 -0.524927 150 150 150
0.277677 1.478432 -0.338478 150 150 150
0.246203 1.477540 -0.725327 150 150 150
0.301838 1.253426 -0.245842 150 150 150
0.259271 1.244667 -0.831620 150 150 150
0.238561 1.042200 -0.102148 150 150 150
0.200025 1.034386 -0.984894 150 150 150
0.226097 0.958311 -0.078765 150 150 150
0.181494 0.951856 -1.015931 150 150 150
