ply
format ascii 1.0
comment author: Greg Turk
comment object: another cube
element vertex 24
property float x
property float y
property float z
property uchar red
property uchar green
property uchar blue
element face 0
property list uchar int vertex_index
end_header
1.024483 0.970125 0.155738 150 150 150
0.974745 0.880189 0.169772 150 150 150
1.094597 0.887973 0.173209 150 150 150
1.007620 1.101604 0.197454 150 150 150
0.965283 0.520917 0.048049 150 150 150
1.133872 0.526645 0.277647 150 150 150
0.980929 1.236592 0.170325 150 150 150
1.052520 0.108251 -0.033238 150 150 150
1.055293 0.241131 0.579426 150 150 150
0.973659 1.294399 0.164968 150 150 150
0.986914 0.067250 -0.150397 150 150 150
1.108136 0.110148 0.533365 150 150 150
0.964714 1.516621 0.167598 150 150 150
0.890690 1.403974 0.191074 150 150 150
1.043949 1.420664 0.149146 150 150 150
0.921437 1.580520 0.107184 150 150 150
0.789701 1.423860 0.267041 150 150 150
1.147677 1.449494 0.107761 150 150 150
0.701078 1.219919 0.377189 150 150 150
1.269587 1.232221 0.032509 150 150 150
0.572629 0.993155 0.402767 150 150 150
1.184371 1.067983 -0.156065 150 150 150
0.557194 0.908879 0.423139 150 150 150
1.136922 1.010444 -0.206525 150 150 150
