ply
format ascii 1.0
comment author: Greg Turk
comment object: another cube
element vertex 24
property float x
property float y
property float z
property uchar red
property uchar green
property uchar blue
element face 0
property list uchar int vertex_index
end_header
0.175491 0.998391 0.847167 150 150 150
0.160528 0.907912 0.798866 150 150 150
0.158741 0.916833 0.919745 150 150 150
0.135632 1.127357 0.823880 150 150 150
0.243610 0.535604 0.790894 150 150 150
0.138437 0.542903 0.985286 150 150 150
0.169197 1.260824 0.799724 150 150 150
0.297845 0.117324 0.875007 150 150 150
-0.234454 0.352004 0.925241 150 150 150
0.176264 1.316936 0.793942 150 150 150
0.421772 0.065000 0.840617 150 150 150
-0.221948 0.205934 0.946988 150 150 150
0.178706 1.540366 0.776454 150 150 150
0.168006 1.423123 0.702062 150 150 150
0.178808 1.445655 0.862138 150 150 150
0.244872 1.602135 0.737161 150 150 150
0.123932 1.424055 0.582564 150 150 150
0.181295 1.478350 0.975095 150 150 150
0.099630 1.190599 0.498409 150 150 150
0.142655 1.276442 1.129584 150 150 150
0.185347 0.959419 0.403410 150 150 150
0.233143 1.060145 1.253965 150 150 150
0.204126 0.873082 0.395115 150 150 150
0.260088 0.975831 1.272763 150 150 150
