ply
format ascii 1.0
comment author: Greg Turk
comment object: another cube
element vertex 24
property float x
property float y
property float z
property uchar red
property uchar green
property uchar blue
element face 0
property list uchar int vertex_index
end_header
1.028161 0.969497 0.194690 150 150 150
0.977648 0.879283 0.204431 150 150 150
1.097108 0.887236 0.216202 150 150 150
1.009542 1.100871 0.236545 150 150 150
0.968995 0.526667 0.063737 150 150 150
1.126202 0.530254 0.336867 150 150 150
0.984434 1.236228 0.208038 150 150 150
1.054653 0.115859 -0.026990 150 150 150
1.040926 0.216100 0.606997 150 150 150
0.977846 1.294736 0.202494 150 150 150
0.988009 0.076668 -0.144669 150 150 150
1.099422 0.093738 0.546448 150 150 150
0.974496 1.516127 0.203730 150 150 150
0.897539 1.406471 0.225510 150 150 150
1.051333 1.418916 0.188368 150 150 150
0.935670 1.580475 0.141254 150 150 150
0.798559 1.434845 0.301927 150 150 150
1.155219 1.445820 0.146774 150 150 150
0.699014 1.250808 0.435579 150 150 150
1.266140 1.231912 0.044666 150 150 150
0.553528 1.040575 0.488044 150 150 150
1.135970 1.115474 -0.153582 150 150 150
0.531630 0.960960 0.518221 150 150 150
1.075023 1.077242 -0.207434 150 150 150
