ply
format ascii 1.0
comment author: Greg Turk
comment object: another cube
element vertex 24
property float x
property float y
property float z
property uchar red
property uchar green
property uchar blue
element face 0
property list uchar int vertex_index
end_header
0.684518 1.001710 0.726997 150 150 150
0.626226 0.915827 0.704030 150 150 150
0.725076 0.911036 0.778323 150 150 150
0.651989 1.132532 0.747808 150 150 150
0.538874 0.548456 0.714400 150 150 150
0.899265 0.581402 0.695027 150 150 150
0.685786 1.271773 0.718469 150 150 150
0.344393 0.188096 0.850053 150 150 150
0.965775 0.163991 0.693148 150 150 150
0.696372 1.331590 0.715018 150 150 150
0.413982 0.069982 0.841293 150 150 150
1.062829 0.124742 0.589679 150 150 150
0.703043 1.546478 0.721077 150 150 150
0.649745 1.445045 0.654291 150 150 150
0.744195 1.448676 0.782310 150 150 150
0.733591 1.609990 0.655752 150 150 150
0.573991 1.453635 0.554926 150 150 150
0.788902 1.488443 0.886112 150 150 150
0.623159 1.233835 0.441742 150 150 150
0.765390 1.330947 1.084141 150 150 150
0.876770 1.175628 0.419850 150 150 150
0.884181 1.150179 1.232270 150 150 150
0.959887 1.146250 0.434765 150 150 150
0.910019 1.069229 1.261961 150 150 150
