ply
format ascii 1.0
comment author: Greg Turk
comment object: another cube
element vertex 24
property float x
property float y
property float z
property uchar red
property uchar green
property uchar blue
element face 0
property list uchar int vertex_index
end_header
0.900013 1.040165 0.615248 150 150 150
0.841964 0.957618 0.587806 150 150 150
0.946968 0.946885 0.651917 150 150 150
0.876670 1.164330 0.660980 150 150 150
0.910402 0.671605 0.346281 150 150 150
1.009968 0.568509 0.635658 150 150 150
0.894704 1.301146 0.628665 150 150 150
0.732175 0.440781 0.661290 150 150 150
0.995810 0.146648 0.665294 150 150 150
0.901952 1.359803 0.621224 150 150 150
0.744165 0.309579 0.619506 150 150 150
1.082573 0.081723 0.565517 150 150 150
0.932457 1.576585 0.632860 150 150 150
0.839523 1.482430 0.606792 150 150 150
0.992498 1.469241 0.651052 150 150 150
0.929397 1.639069 0.558161 150 150 150
0.717527 1.516827 0.596685 150 150 150
1.107592 1.479354 0.669943 150 150 150
0.557815 1.326054 0.590546 150 150 150
1.216840 1.243720 0.648589 150 150 150
0.422866 1.116764 0.510617 150 150 150
1.270227 1.088480 0.441433 150 150 150
0.386812 1.037116 0.513147 150 150 150
1.265080 1.033179 0.370537 150 150 150
