ply
format ascii 1.0
comment author: Greg Turk
comment object: another cube
element vertex 24
property float x
property float y
property float z
property uchar red
property uchar green
property uchar blue
element face 0
property list uchar int vertex_index
end_header
0.485000 1.056668 0.803441 150 150 150
0.438535 0.965101 0.773303 150 150 150
0.536514 0.975358 0.857148 150 150 150
0.435903 1.171498 0.815598 150 150 150
0.422465 0.579219 0.763947 150 150 150
0.834009 0.923096 0.617683 150 150 150
0.475668 1.310960 0.780940 150 150 150
0.320979 0.171687 0.863783 150 150 150
0.776028 0.522179 0.756787 150 150 150
0.489804 1.370876 0.773455 150 150 150
0.407896 0.068220 0.843617 150 150 150
0.895715 0.460864 0.694103 150 150 150
0.486030 1.579424 0.754081 150 150 150
0.467412 1.470813 0.685852 150 150 150
0.502974 1.496284 0.838227 150 150 150
0.538236 1.641078 0.699705 150 150 150
0.456161 1.470831 0.560126 150 150 150
0.494962 1.560907 0.941319 150 150 150
0.665623 1.330406 0.496637 150 150 150
0.371690 1.483857 1.152388 150 150 150
0.804490 1.469885 0.673627 150 150 150
0.342552 1.416109 1.405839 150 150 150
0.845686 1.500178 0.748111 150 150 150
0.321657 1.360698 1.474045 150 150 150
