ply
format ascii 1.0
comment author: Greg Turk
comment object: another cube
element vertex 24
property float x
property float y
property float z
property uchar red
property uchar green
property uchar blue
element face 0
property list uchar int vertex_index
end_header
0.933899 1.060744 0.589113 150 150 150
0.876434 0.980676 0.556458 150 150 150
0.984461 0.965977 0.620189 150 150 150
0.912030 1.177524 0.640980 150 150 150
1.021698 0.932610 0.207346 150 150 150
1.032920 0.581571 0.599000 150 150 150
0.929893 1.313694 0.595404 150 150 150
0.892826 0.625321 0.479648 150 150 150
0.996876 0.164362 0.657865 150 150 150
0.935596 1.374461 0.582104 150 150 150
0.901886 0.492410 0.441666 150 150 150
1.081733 0.088214 0.564534 150 150 150
0.973178 1.584056 0.581961 150 150 150
0.876783 1.496855 0.578410 150 150 150
1.032719 1.480304 0.589177 150 150 150
0.962498 1.645857 0.509484 150 150 150
0.759706 1.547570 0.601878 150 150 150
1.148010 1.495300 0.572421 150 150 150
0.562018 1.412802 0.672755 150 150 150
1.271203 1.293681 0.450905 150 150 150
0.355917 1.253028 0.662714 150 150 150
1.185634 1.247066 0.204619 150 150 150
0.301932 1.187887 0.685612 150 150 150
1.136548 1.231156 0.130661 150 150 150
