ply
format ascii 1.0
comment author: Greg Turk
comment object: another cube
element vertex 24
property float x
property float y
property float z
property uchar red
property uchar green
property uchar blue
element face 0
property list uchar int vertex_index
end_header
0.686609 0.972709 -0.436533 150 150 150
0.691723 0.889567 -0.369950 150 150 150
0.715537 0.879337 -0.490596 150 150 150
0.718872 1.105372 -0.423553 150 150 150
0.745778 0.528755 -0.274598 150 150 150
0.562413 0.546675 -0.600330 150 150 150
0.675567 1.243721 -0.446025 150 150 150
0.981917 0.210301 -0.103578 150 150 150
0.498027 0.131312 -0.641879 150 150 150
0.665611 1.303182 -0.455265 150 150 150
0.979150 0.079877 -0.145820 150 150 150
0.363208 0.084051 -0.673651 150 150 150
0.661501 1.517786 -0.471010 150 150 150
0.633761 1.418089 -0.388039 150 150 150
0.695240 1.418991 -0.535276 150 150 150
0.588467 1.579038 -0.463045 150 150 150
0.589504 1.426814 -0.271218 150 150 150
0.753767 1.453701 -0.633553 150 150 150
0.514686 1.191141 -0.230550 150 150 150
0.919039 1.284884 -0.727778 150 150 150
0.400632 1.052696 -0.419473 150 150 150
0.907232 1.068045 -0.873141 150 150 150
0.387326 0.998624 -0.489296 150 150 150
0.894083 0.980683 -0.890702 150 150 150
