ply
format ascii 1.0
comment author: Greg Turk
comment object: another cube
element vertex 24
property float x
property float y
property float z
property uchar red
property uchar green
property uchar blue
element face 0
property list uchar int vertex_index
end_header
1.021046 1.025715 0.386689 150 150 150
0.966357 0.939944 0.368100 150 150 150
1.079060 0.937331 0.416682 150 150 150
0.999392 1.148861 0.437525 150 150 150
1.016355 0.716159 0.060035 150 150 150
1.099164 0.562141 0.490249 150 150 150
0.990505 1.285953 0.401102 150 150 150
1.066452 0.293596 0.126005 150 150 150
1.018455 0.177930 0.649574 150 150 150
0.989268 1.346464 0.391457 150 150 150
1.031951 0.240780 0.000638 150 150 150
1.087291 0.081300 0.561460 150 150 150
1.017438 1.560019 0.383047 150 150 150
0.926073 1.467094 0.401893 150 150 150
1.079671 1.457276 0.378625 150 150 150
0.993070 1.622297 0.312678 150 150 150
0.831468 1.525697 0.469622 150 150 150
1.182408 1.475126 0.329938 150 150 150
0.686738 1.440175 0.655251 150 150 150
1.248909 1.324295 0.116418 150 150 150
0.491793 1.311402 0.767986 150 150 150
1.037677 1.390287 -0.032789 150 150 150
0.450556 1.256105 0.821767 150 150 150
0.958777 1.417126 -0.065562 150 150 150
