ply
format ascii 1.0
comment author: Greg Turk
comment object: another cube
element vertex 24
property float x
property float y
property float z
property uchar red
property uchar green
property uchar blue
element face 0
property list uchar int vertex_index
end_header
-0.268163 1.077370 0.787593 150 150 150
-0.233580 1.000400 0.728736 150 150 150
-0.291907 0.981913 0.840390 150 150 150
-0.328014 1.189098 0.768284 150 150 150
0.123004 1.062824 0.858073 150 150 150
-0.306163 0.595092 0.875298 150 150 150
-0.287453 1.327751 0.776929 150 150 150
-0.023600 0.659518 0.828007 150 150 150
-0.419457 0.193155 0.816073 150 150 150
-0.276663 1.389729 0.780219 150 150 150
0.087028 0.576528 0.846335 150 150 150
-0.333438 0.094560 0.883521 150 150 150
-0.271396 1.596386 0.820339 150 150 150
-0.286443 1.511898 0.723966 150 150 150
-0.268641 1.493404 0.877310 150 150 150
-0.200546 1.657131 0.799963 150 150 150
-0.344842 1.574813 0.624028 150 150 150
-0.229585 1.513980 0.986515 150 150 150
-0.518684 1.511423 0.453345 150 150 150
-0.045230 1.371235 1.118239 150 150 150
-0.613755 1.423182 0.228604 150 150 150
0.129624 1.421218 0.924603 150 150 150
-0.661704 1.374100 0.174145 150 150 150
0.169512 1.438538 0.845925 150 150 150
