ply
format ascii 1.0
comment author: Greg Turk
comment object: another cube
element vertex 24
property float x
property float y
property float z
property uchar red
property uchar green
property uchar blue
element face 0
property list uchar int vertex_index
end_header
0.775121 0.990540 -0.334097 150 150 150
0.777103 0.904357 -0.270877 150 150 150
0.801251 0.899178 -0.393268 150 150 150
0.810656 1.119894 -0.312452 150 150 150
0.833718 0.540258 -0.189415 150 150 150
0.609649 0.599446 -0.535182 150 150 150
0.768857 1.261469 -0.332002 150 150 150
1.019653 0.171454 -0.063760 150 150 150
0.541706 0.191767 -0.621418 150 150 150
0.758131 1.322373 -0.339736 150 150 150
0.995648 0.057068 -0.134675 150 150 150
0.405063 0.165676 -0.669672 150 150 150
0.751220 1.532528 -0.338502 150 150 150
0.715099 1.428665 -0.269472 150 150 150
0.794869 1.443283 -0.404794 150 150 150
0.676071 1.590692 -0.337814 150 150 150
0.640346 1.427738 -0.169485 150 150 150
0.867165 1.500915 -0.481530 150 150 150
0.508682 1.219945 -0.233950 150 150 150
1.088860 1.402137 -0.559323 150 150 150
0.516644 1.270023 -0.490125 150 150 150
1.219397 1.266421 -0.740186 150 150 150
0.543764 1.273142 -0.575843 150 150 150
1.259207 1.192337 -0.772062 150 150 150
