ply
format ascii 1.0
comment author: Greg Turk
comment object: another cube
element vertex 24
property float x
property float y
property float z
property uchar red
property uchar green
property uchar blue
element face 0
property list uchar int vertex_index
end_header
0.850796 1.026437 -0.248621 150 150 150
0.846757 0.936660 -0.190652 150 150 150
0.874750 0.940208 -0.314511 150 150 150
0.887427 1.147424 -0.215974 150 150 150
0.875143 0.559340 -0.140976 150 150 150
0.593445 0.749668 -0.497048 150 150 150
0.843557 1.289486 -0.232852 150 150 150
1.027815 0.164527 -0.053945 150 150 150
0.623713 0.331854 -0.569352 150 150 150
0.830880 1.350223 -0.239605 150 150 150
0.994157 0.060073 -0.134928 150 150 150
0.502839 0.298063 -0.647486 150 150 150
0.818765 1.557716 -0.226592 150 150 150
0.776037 1.449645 -0.169725 150 150 150
0.872836 1.475306 -0.291556 150 150 150
0.741807 1.614636 -0.234573 150 150 150
0.681782 1.443274 -0.088184 150 150 150
0.951513 1.544211 -0.352692 150 150 150
0.541452 1.279856 -0.229996 150 150 150
1.194096 1.488014 -0.413856 150 150 150
0.636765 1.414246 -0.434865 150 150 150
1.396156 1.425274 -0.569081 150 150 150
0.689576 1.441925 -0.502690 150 150 150
1.460546 1.368146 -0.595822 150 150 150
