ply
format ascii 1.0
comment author: Greg Turk
comment object: another cube
element vertex 24
property float x
property float y
property float z
property uchar red
property uchar green
property uchar blue
element face 0
property list uchar int vertex_index
end_header
0.766366 0.995606 0.690487 150 150 150
0.706916 0.910664 0.668603 150 150 150
0.806792 0.904273 0.739879 150 150 150
0.737335 1.127698 0.715407 150 150 150
0.626352 0.541586 0.660250 150 150 150
0.944721 0.553208 0.684595 150 150 150
0.767354 1.265761 0.686570 150 150 150
0.383579 0.225268 0.825230 150 150 150
0.986958 0.132282 0.680347 150 150 150
0.777362 1.324367 0.683761 150 150 150
0.431049 0.096130 0.825022 150 150 150
1.078081 0.086155 0.574778 150 150 150
0.792617 1.542109 0.697213 150 150 150
0.724391 1.442879 0.635887 150 150 150
0.840525 1.438205 0.746752 150 150 150
0.811881 1.607818 0.629077 150 150 150
0.626826 1.455121 0.558135 150 150 150
0.912287 1.461685 0.839095 150 150 150
0.603698 1.224454 0.463971 150 150 150
0.934072 1.263431 0.997924 150 150 150
0.771872 1.056677 0.354425 150 150 150
1.073048 1.047828 1.057466 150 150 150
0.831662 0.992328 0.339847 150 150 150
1.104653 0.963357 1.056188 150 150 150
