ply
format ascii 1.0
comment author: Greg Turk
comment object: another cube
element vertex 24
property float x
property float y
property float z
property uchar red
property uchar green
property uchar blue
element face 0
property list uchar int vertex_index
end_header
1.007476 1.008244 0.042942 150 150 150
0.969813 0.916227 0.074879 150 150 150
1.084514 0.929767 0.029667 150 150 150
0.993289 1.132146 0.089328 150 150 150
0.962119 0.536167 0.025580 150 150 150
1.136931 0.577012 -0.109449 150 150 150
0.959182 1.266769 0.065474 150 150 150
1.047191 0.120308 -0.034986 150 150 150
1.171339 0.461316 0.296008 150 150 150
0.950364 1.322994 0.059338 150 150 150
0.984892 0.065792 -0.146261 150 150 150
1.194792 0.316995 0.271752 150 150 150
0.934157 1.544911 0.066467 150 150 150
0.865932 1.427907 0.096337 150 150 150
1.014799 1.452139 0.036815 150 150 150
0.876654 1.606673 0.013780 150 150 150
0.759324 1.429741 0.164596 150 150 150
1.114961 1.492409 -0.007318 150 150 150
0.694128 1.188988 0.165696 150 150 150
1.290651 1.304904 -0.026519 150 150 150
0.647391 0.983244 0.008242 150 150 150
1.407322 1.088427 -0.126667 150 150 150
0.659529 0.904432 -0.031922 150 150 150
1.425731 1.001172 -0.143146 150 150 150
