ply
format ascii 1.0
comment author: Greg Turk
comment object: another cube
element vertex 24
property float x
property float y
property float z
property uchar red
property uchar green
property uchar blue
element face 0
property list uchar int vertex_index
end_header
0.627289 0.987193 -0.490613 150 150 150
0.630859 0.903490 -0.425565 150 150 150
0.652934 0.893540 -0.545002 150 150 150
0.664289 1.119905 -0.479958 150 150 150
0.632415 0.534362 -0.343183 150 150 150
0.532504 0.541911 -0.628197 150 150 150
0.622126 1.256762 -0.499584 150 150 150
0.916551 0.256248 -0.174204 150 150 150
0.488396 0.120759 -0.643736 150 150 150
0.612500 1.315017 -0.508467 150 150 150
0.933655 0.120773 -0.184457 150 150 150
0.354332 0.069641 -0.672440 150 150 150
0.610138 1.532015 -0.533645 150 150 150
0.591289 1.434567 -0.442359 150 150 150
0.634027 1.427634 -0.597755 150 150 150
0.537668 1.594232 -0.521923 150 150 150
0.570959 1.448008 -0.318888 150 150 150
0.671572 1.444557 -0.709636 150 150 150
0.540195 1.215064 -0.233773 150 150 150
0.768595 1.229849 -0.810206 150 150 150
0.414258 0.993280 -0.291143 150 150 150
0.663207 1.007442 -0.901614 150 150 150
0.395370 0.911438 -0.320059 150 150 150
0.621258 0.927635 -0.900426 150 150 150
