ply
format ascii 1.0
comment author: Greg Turk
comment object: another cube
element vertex 24
property float x
property float y
property float z
property uchar red
property uchar green
property uchar blue
element face 0
property list uchar int vertex_index
end_header
0.525969 1.046147 -0.560744 150 150 150
0.530032 0.968118 -0.491734 150 150 150
0.533596 0.949025 -0.613520 150 150 150
0.577358 1.168653 -0.570315 150 150 150
0.257682 0.707814 -0.432352 150 150 150
0.463306 0.571313 -0.650122 150 150 150
0.534681 1.303926 -0.575253 150 150 150
0.569867 0.415316 -0.402417 150 150 150
0.478501 0.148998 -0.649688 150 150 150
0.521155 1.362105 -0.580414 150 150 150
0.485165 0.306695 -0.383383 150 150 150
0.351124 0.078424 -0.668598 150 150 150
0.506560 1.575706 -0.620187 150 150 150
0.527915 1.486185 -0.521637 150 150 150
0.503594 1.466927 -0.679033 150 150 150
0.434874 1.635875 -0.593965 150 150 150
0.568576 1.527672 -0.405796 150 150 150
0.471806 1.471817 -0.792920 150 150 150
0.673965 1.376666 -0.233502 150 150 150
0.395808 1.245622 -0.899729 150 150 150
0.685155 1.184482 -0.058883 150 150 150
0.153549 1.199569 -0.808031 150 150 150
0.711184 1.112724 -0.016001 150 150 150
0.079469 1.191429 -0.758068 150 150 150
