ply
format ascii 1.0
comment author: Greg Turk
comment object: another cube
element vertex 24
property float x
property float y
property float z
property uchar red
property uchar green
property uchar blue
element face 0
property list uchar int vertex_index
end_header
0.981961 1.053268 -0.064234 150 150 150
0.962722 0.956973 -0.020427 150 150 150
1.033685 0.978721 -0.127833 150 150 150
0.994867 1.165672 -0.009771 150 150 150
0.949572 0.572646 -0.052239 150 150 150
0.801951 0.928481 -0.426635 150 150 150
0.948505 1.305511 -0.031177 150 150 150
1.047334 0.154395 -0.047471 150 150 150
1.071816 0.678099 -0.207105 150 150 150
0.934924 1.365093 -0.040129 150 150 150
0.991223 0.070903 -0.140387 150 150 150
1.069835 0.550151 -0.282208 150 150 150
0.911266 1.574683 -0.025602 150 150 150
0.855741 1.462443 0.011275 150 150 150
0.988252 1.493849 -0.070303 150 150 150
0.840338 1.630791 -0.060387 150 150 150
0.743923 1.456747 0.068875 150 150 150
1.082088 1.559697 -0.106602 150 150 150
0.648939 1.265811 -0.073322 150 150 150
1.324150 1.472643 -0.103306 150 150 150
0.745098 1.341244 -0.307030 150 150 150
1.556830 1.380633 -0.188920 150 150 150
0.796350 1.348243 -0.381117 150 150 150
1.621919 1.318178 -0.195880 150 150 150
