ply
format ascii 1.0
comment author: Greg Turk
comment object: another cube
element vertex 24
property float x
property float y
property float z
property uchar red
property uchar green
property uchar blue
element face 0
property list uchar int vertex_index
end_header
0.303069 1.057615 0.842894 150 150 150
0.272116 0.962604 0.804760 150 150 150
0.328044 0.981774 0.919988 150 150 150
0.254531 1.171978 0.825580 150 150 150
0.316768 0.578069 0.797229 150 150 150
0.688767 0.875191 0.858583 150 150 150
0.299255 1.308213 0.794342 150 150 150
0.305662 0.155857 0.874828 150 150 150
0.328590 0.676068 0.974978 150 150 150
0.313355 1.366694 0.787814 150 150 150
0.412642 0.076868 0.840463 150 150 150
0.373594 0.537312 1.001164 150 150 150
0.311482 1.579580 0.762739 150 150 150
0.309539 1.466291 0.693472 150 150 150
0.309205 1.494680 0.850616 150 150 150
0.374623 1.638848 0.716907 150 150 150
0.311789 1.462479 0.566979 150 150 150
0.285284 1.553048 0.953479 150 150 150
0.466712 1.262047 0.529304 150 150 150
0.149517 1.436441 1.137522 150 150 150
0.681015 1.269552 0.684211 150 150 150
0.091783 1.319439 1.368478 150 150 150
0.740448 1.254592 0.750201 150 150 150
0.067559 1.252551 1.424377 150 150 150
