ply
format ascii 1.0
comment author: Greg Turk
comment object: another cube
element vertex 24
property float x
property float y
property float z
property uchar red
property uchar green
property uchar blue
element face 0
property list uchar int vertex_index
end_header
0.278992 1.051250 0.843576 150 150 150
0.249826 0.956996 0.803927 150 150 150
0.294663 0.974496 0.922555 150 150 150
0.233810 1.168122 0.822371 150 150 150
0.297839 0.573333 0.796529 150 150 150
0.622728 0.779107 0.919779 150 150 150
0.278494 1.303091 0.793050 150 150 150
0.303401 0.151005 0.874351 150 150 150
0.237424 0.608856 0.988011 150 150 150
0.291681 1.360852 0.786759 150 150 150
0.413424 0.075550 0.840603 150 150 150
0.278028 0.470390 1.021797 150 150 150
0.291306 1.575883 0.762588 150 150 150
0.289329 1.461188 0.692208 150 150 150
0.287674 1.489250 0.850417 150 150 150
0.356165 1.634900 0.717453 150 150 150
0.288487 1.457062 0.565550 150 150 150
0.267374 1.544034 0.955419 150 150 150
0.420309 1.242641 0.522928 150 150 150
0.141509 1.412267 1.135923 150 150 150
0.650919 1.194885 0.643627 150 150 150
0.096282 1.275053 1.358687 150 150 150
0.713577 1.162535 0.699274 150 150 150
0.077797 1.203998 1.411573 150 150 150
