ply
format ascii 1.0
comment author: Greg Turk
comment object: another cube
element vertex 24
property float x
property float y
property float z
property uchar red
property uchar green
property uchar blue
element face 0
property list uchar int vertex_index
end_header
0.422372 1.069022 0.819781 150 150 150
0.380983 0.975553 0.786526 150 150 150
0.471271 0.992297 0.881236 150 150 150
0.370023 1.180300 0.823681 150 150 150
0.385672 0.587702 0.777036 150 150 150
0.779924 1.055555 0.662731 150 150 150
0.411795 1.319526 0.790465 150 150 150
0.314423 0.172707 0.867706 150 150 150
0.621482 0.695551 0.832154 150 150 150
0.426431 1.379170 0.783728 150 150 150
0.407585 0.075761 0.841917 150 150 150
0.741865 0.615880 0.796743 150 150 150
0.418475 1.587660 0.760523 150 150 150
0.412386 1.477076 0.692032 150 150 150
0.426476 1.506080 0.847390 150 150 150
0.475409 1.649466 0.710933 150 150 150
0.416627 1.473847 0.565573 150 150 150
0.402636 1.572571 0.947195 150 150 150
0.633458 1.333951 0.534293 150 150 150
0.255610 1.504012 1.146912 150 150 150
0.747025 1.476196 0.726909 150 150 150
0.191179 1.446537 1.397460 150 150 150
0.778759 1.506670 0.806031 150 150 150
0.162127 1.392299 1.463802 150 150 150
