ply
format ascii 1.0
comment author: Greg Turk
comment object: another cube
element vertex 24
property float x
property float y
property float z
property uchar red
property uchar green
property uchar blue
element face 0
property list uchar int vertex_index
end_header
0.988302 1.048056 -0.044697 150 150 150
0.967112 0.952084 -0.001784 150 150 150
1.045452 0.972870 -0.103168 150 150 150
0.996332 1.161924 0.009673 150 150 150
0.956859 0.568412 -0.035724 150 150 150
0.855035 0.872952 -0.418101 150 150 150
0.951240 1.301176 -0.013275 150 150 150
1.048415 0.149260 -0.045984 150 150 150
1.115728 0.656978 -0.155709 150 150 150
0.938350 1.360416 -0.022450 150 150 150
0.989602 0.070584 -0.141659 150 150 150
1.126996 0.521644 -0.215067 150 150 150
0.915662 1.571686 -0.010714 150 150 150
0.858272 1.459346 0.026053 150 150 150
0.993408 1.488886 -0.052621 150 150 150
0.846505 1.628189 -0.048738 150 150 150
0.746800 1.454999 0.084423 150 150 150
1.088660 1.551143 -0.089956 150 150 150
0.657183 1.250042 -0.038245 150 150 150
1.324021 1.447743 -0.085800 150 150 150
0.735318 1.286487 -0.287164 150 150 150
1.550594 1.337643 -0.166500 150 150 150
0.780947 1.280622 -0.364792 150 150 150
1.612594 1.271928 -0.171381 150 150 150
