ply
format ascii 1.0
comment author: Greg Turk
comment object: another cube
element vertex 24
property float x
property float y
property float z
property uchar red
property uchar green
property uchar blue
element face 0
property list uchar int vertex_index
end_header
0.838942 1.007906 0.648510 150 150 150
0.782669 0.922093 0.624589 150 150 150
0.882941 0.916432 0.693314 150 150 150
0.809110 1.138857 0.681880 150 150 150
0.747933 0.552250 0.546087 150 150 150
0.978593 0.549525 0.668317 150 150 150
0.832810 1.276291 0.655524 150 150 150
0.500205 0.279916 0.771910 150 150 150
0.993330 0.125591 0.673933 150 150 150
0.841565 1.333778 0.653504 150 150 150
0.507456 0.142938 0.778981 150 150 150
1.083359 0.076032 0.568952 150 150 150
0.863905 1.553246 0.673630 150 150 150
0.782855 1.456076 0.621085 150 150 150
0.918076 1.444513 0.709528 150 150 150
0.872856 1.619564 0.603131 150 150 150
0.668817 1.472378 0.570138 150 150 150
1.014215 1.452069 0.779353 150 150 150
0.585641 1.246290 0.504149 150 150 150
1.080420 1.220115 0.870373 150 150 150
0.612862 1.020144 0.373701 150 150 150
1.215713 1.001139 0.809175 150 150 150
0.628799 0.935908 0.351088 150 150 150
1.241857 0.923780 0.770477 150 150 150
