ply
format ascii 1.0
comment author: Greg Turk
comment object: another cube
element vertex 24
property float x
property float y
property float z
property uchar red
property uchar green
property uchar blue
element face 0
property list uchar int vertex_index
end_header
0.717884 0.973199 -0.403489 150 150 150
0.722812 0.889552 -0.337140 150 150 150
0.746219 0.879945 -0.458537 150 150 150
0.750600 1.105474 -0.388807 150 150 150
0.785059 0.530936 -0.240979 150 150 150
0.583596 0.555379 -0.579164 150 150 150
0.707103 1.245149 -0.411058 150 150 150
1.001164 0.192157 -0.083702 150 150 150
0.508087 0.144639 -0.638711 150 150 150
0.696660 1.305479 -0.419905 150 150 150
0.989082 0.067202 -0.138631 150 150 150
0.372540 0.101270 -0.673558 150 150 150
0.690533 1.518137 -0.429686 150 150 150
0.660486 1.417305 -0.351557 150 150 150
0.728098 1.423126 -0.494777 150 150 150
0.617083 1.578189 -0.423505 150 150 150
0.605359 1.423205 -0.239511 150 150 150
0.792752 1.467775 -0.584840 150 150 150
0.507821 1.191710 -0.230190 150 150 150
0.984673 1.325596 -0.670856 150 150 150
0.425521 1.120569 -0.466733 150 150 150
1.027710 1.130388 -0.838324 150 150 150
0.423136 1.087285 -0.549818 150 150 150
1.034851 1.044531 -0.864302 150 150 150
