ply
format ascii 1.0
comment author: Greg Turk
comment object: another cube
element vertex 24
property float x
property float y
property float z
property uchar red
property uchar green
property uchar blue
element face 0
property list uchar int vertex_index
end_header
0.870231 1.035192 -0.227669 150 150 150
0.864572 0.944293 -0.171443 150 150 150
0.894649 0.951157 -0.295722 150 150 150
0.905944 1.153543 -0.191469 150 150 150
0.884981 0.564260 -0.131294 150 150 150
0.591094 0.808071 -0.486755 150 150 150
0.860919 1.295906 -0.207566 150 150 150
1.029473 0.164781 -0.052806 150 150 150
0.661232 0.391207 -0.542269 150 150 150
0.847287 1.356839 -0.213837 150 150 150
0.993565 0.062249 -0.135105 150 150 150
0.545868 0.347966 -0.624163 150 150 150
0.832586 1.563116 -0.196988 150 150 150
0.788676 1.453915 -0.144277 150 150 150
0.889831 1.483295 -0.261309 150 150 150
0.755630 1.619849 -0.207804 150 150 150
0.689888 1.446893 -0.068465 150 150 150
0.968224 1.556178 -0.317405 150 150 150
0.556590 1.291892 -0.226181 150 150 150
1.215135 1.510082 -0.368056 150 150 150
0.665617 1.440019 -0.414373 150 150 150
1.427980 1.460656 -0.513020 150 150 150
0.723363 1.469474 -0.477355 150 150 150
1.496341 1.405777 -0.533687 150 150 150
