ply
format ascii 1.0
comment author: Greg Turk
comment object: another cube
element vertex 24
property float x
property float y
property float z
property uchar red
property uchar green
property uchar blue
element face 0
property list uchar int vertex_index
end_header
0.324048 1.063071 0.841311 150 150 150
0.291384 0.967709 0.804387 150 150 150
0.355570 0.988260 0.916392 150 150 150
0.273702 1.175607 0.827458 150 150 150
0.335168 0.582424 0.794737 150 150 150
0.719340 0.962169 0.805663 150 150 150
0.319608 1.312373 0.794896 150 150 150
0.308289 0.161062 0.874201 150 150 150
0.398620 0.718369 0.950543 150 150 150
0.334786 1.371293 0.788158 150 150 150
0.411768 0.077686 0.840145 150 150 150
0.460689 0.584748 0.967506 150 150 150
0.332170 1.582448 0.762604 150 150 150
0.330045 1.470228 0.694110 150 150 150
0.330983 1.499000 0.850442 150 150 150
0.393881 1.642327 0.716334 150 150 150
0.335020 1.466704 0.567715 150 150 150
0.305011 1.560323 0.951648 150 150 150
0.510076 1.281454 0.534888 150 150 150
0.161915 1.458514 1.139337 150 150 150
0.698114 1.336022 0.712843 150 150 150
0.096172 1.359239 1.376293 150 150 150
0.750611 1.336776 0.786272 150 150 150
0.068305 1.296100 1.434831 150 150 150
