ply
format ascii 1.0
comment author: Greg Turk
comment object: another cube
element vertex 24
property float x
property float y
property float z
property uchar red
property uchar green
property uchar blue
element face 0
property list uchar int vertex_index
end_header
-0.160820 1.044491 0.830625 150 150 150
-0.138930 0.961416 0.773638 150 150 150
-0.186527 0.953528 0.887187 150 150 150
-0.215775 1.164715 0.812709 150 150 150
0.203073 0.798271 0.842276 150 150 150
-0.248164 0.574954 0.907552 150 150 150
-0.182218 1.302541 0.806961 150 150 150
0.118006 0.376105 0.870047 150 150 150
-0.410891 0.191879 0.828907 150 150 150
-0.174057 1.362548 0.806292 150 150 150
0.241961 0.313094 0.854896 150 150 150
-0.329146 0.084540 0.888599 150 150 150
-0.167732 1.576085 0.832670 150 150 150
-0.190679 1.482308 0.742431 150 150 150
-0.159552 1.473414 0.895899 150 150 150
-0.100273 1.640204 0.805051 150 150 150
-0.265364 1.535283 0.647767 150 150 150
-0.111343 1.494385 1.000834 150 150 150
-0.460746 1.456716 0.508708 150 150 150
0.079295 1.348101 1.122317 150 150 150
-0.581215 1.340832 0.309419 150 150 150
0.253002 1.369826 0.921586 150 150 150
-0.630895 1.284684 0.263891 150 150 150
0.292364 1.379304 0.841495 150 150 150
