ply
format ascii 1.0
comment author: Greg Turk
comment object: another cube
element vertex 24
property float x
property float y
property float z
property uchar red
property uchar green
property uchar blue
element face 0
property list uchar int vertex_index
end_header
0.644836 1.011618 0.742423 150 150 150
0.588951 0.924513 0.717915 150 150 150
0.686958 0.921810 0.794036 150 150 150
0.608477 1.140633 0.762182 150 150 150
0.510430 0.554411 0.726962 150 150 150
0.881431 0.609583 0.689791 150 150 150
0.642821 1.280599 0.732810 150 150 150
0.336649 0.180277 0.853739 150 150 150
0.948387 0.192057 0.701952 150 150 150
0.653353 1.340907 0.728711 150 150 150
0.410761 0.065381 0.843334 150 150 150
1.050718 0.158792 0.601087 150 150 150
0.655791 1.554194 0.729499 150 150 150
0.610021 1.451181 0.661745 150 150 150
0.693508 1.459990 0.796312 150 150 150
0.692201 1.616202 0.665906 150 150 150
0.546514 1.457905 0.553906 150 150 150
0.726502 1.507599 0.901462 150 150 150
0.634125 1.249431 0.439441 150 150 150
0.682726 1.370362 1.110863 150 150 150
0.892984 1.247143 0.474988 150 150 150
0.780166 1.210249 1.293732 150 150 150
0.974964 1.233676 0.508566 150 150 150
0.797433 1.132817 1.336075 150 150 150
