ply
format ascii 1.0
comment author: Greg Turk
comment object: another cube
element vertex 24
property float x
property float y
property float z
property uchar red
property uchar green
property uchar blue
element face 0
property list uchar int vertex_index
end_header
1.019154 0.975574 0.118085 150 150 150
0.971129 0.885800 0.137179 150 150 150
1.090756 0.893291 0.128751 150 150 150
1.004325 1.106389 0.160642 150 150 150
0.961444 0.519814 0.036840 150 150 150
1.147354 0.523866 0.193324 150 150 150
0.975902 1.241348 0.135661 150 150 150
1.051040 0.106106 -0.036109 150 150 150
1.088887 0.280866 0.534030 150 150 150
0.968289 1.298556 0.130600 150 150 150
0.985811 0.063053 -0.152131 150 150 150
1.126345 0.138962 0.511992 150 150 150
0.955794 1.521287 0.135289 150 150 150
0.884124 1.406550 0.160672 150 150 150
1.036237 1.426177 0.112950 150 150 150
0.908221 1.584980 0.077494 150 150 150
0.781843 1.418773 0.235706 150 150 150
1.139820 1.456881 0.071598 150 150 150
0.701993 1.199247 0.319679 150 150 150
1.272723 1.241125 0.018250 150 150 150
0.592870 0.960551 0.308763 150 150 150
1.240848 1.040275 -0.150765 150 150 150
0.582919 0.873089 0.315786 150 150 150
1.210437 0.967685 -0.194984 150 150 150
