ply
format ascii 1.0
comment author: Greg Turk
comment object: another cube
element vertex 24
property float x
property float y
property float z
property uchar red
property uchar green
property uchar blue
element face 0
property list uchar int vertex_index
end_header
0.561936 1.032091 -0.541811 150 150 150
0.564791 0.952666 -0.473434 150 150 150
0.575440 0.935739 -0.594924 150 150 150
0.610291 1.157595 -0.545925 150 150 150
0.356116 0.641790 -0.403502 150 150 150
0.500062 0.562275 -0.646736 150 150 150
0.566521 1.292639 -0.556087 150 150 150
0.706243 0.397954 -0.356299 150 150 150
0.483867 0.139967 -0.647215 150 150 150
0.553259 1.350451 -0.562885 150 150 150
0.654101 0.269894 -0.346370 150 150 150
0.353518 0.076444 -0.669735 150 150 150
0.542379 1.565370 -0.601267 150 150 150
0.551187 1.473958 -0.501925 150 150 150
0.547176 1.456927 -0.661825 150 150 150
0.468472 1.624737 -0.580285 150 150 150
0.569849 1.506600 -0.379812 150 150 150
0.532220 1.462321 -0.778553 150 150 150
0.622372 1.319241 -0.221011 150 150 150
0.502383 1.226943 -0.884914 150 150 150
0.582937 1.095916 -0.092489 150 150 150
0.275517 1.098628 -0.849345 150 150 150
0.595440 1.014687 -0.061825 150 150 150
0.203960 1.057538 -0.813572 150 150 150
