ply
format ascii 1.0
comment author: Greg Turk
comment object: another cube
element vertex 24
property float x
property float y
property float z
property uchar red
property uchar green
property uchar blue
element face 0
property list uchar int vertex_index
end_header
0.996965 1.024056 0.008737 150 150 150
0.966115 0.930946 0.048249 150 150 150
1.068045 0.945293 -0.024993 150 150 150
0.991960 1.144835 0.058261 150 150 150
0.962755 0.549187 0.013451 150 150 150
1.047494 0.669410 -0.289118 150 150 150
0.954128 1.281969 0.033422 150 150 150
1.047497 0.132206 -0.037644 150 150 150
1.181004 0.527815 0.089498 150 150 150
0.944031 1.339677 0.025580 150 150 150
0.986612 0.067768 -0.143448 150 150 150
1.212805 0.385205 0.065149 150 150 150
0.924973 1.557110 0.032588 150 150 150
0.861409 1.442478 0.066886 150 150 150
1.004599 1.468329 -0.001981 150 150 150
0.862781 1.616652 -0.014720 150 150 150
0.752465 1.441699 0.130615 150 150 150
1.103039 1.518393 -0.043649 150 150 150
0.678711 1.206227 0.082169 150 150 150
1.308660 1.364580 -0.045958 150 150 150
0.681408 1.089029 -0.153349 150 150 150
1.487713 1.187197 -0.127680 150 150 150
0.706044 1.034007 -0.219720 150 150 150
1.529487 1.107061 -0.133307 150 150 150
