ply
format ascii 1.0
comment author: Greg Turk
comment object: another cube
element vertex 24
property float x
property float y
property float z
property uchar red
property uchar green
property uchar blue
element face 0
property list uchar int vertex_index
end_header
0.572267 1.033164 0.770318 150 150 150
0.521517 0.943847 0.742600 150 150 150
0.618832 0.945972 0.821677 150 150 150
0.528511 1.156444 0.788145 150 150 150
0.468236 0.566154 0.743786 150 150 150
0.866848 0.703470 0.657199 150 150 150
0.563939 1.296710 0.757506 150 150 150
0.327854 0.173701 0.857819 150 150 150
0.903018 0.283947 0.712085 150 150 150
0.575432 1.356991 0.751976 150 150 150
0.407830 0.063609 0.843800 150 150 150
1.018008 0.249714 0.625547 150 150 150
0.573960 1.568095 0.743355 150 150 150
0.540628 1.462357 0.674560 150 150 150
0.603287 1.479032 0.819272 150 150 150
0.618943 1.629204 0.683651 150 150 150
0.501022 1.465906 0.555314 150 150 150
0.617414 1.535299 0.925511 150 150 150
0.655678 1.288281 0.452465 150 150 150
0.535618 1.428693 1.142326 150 150 150
0.872924 1.368926 0.576366 150 150 150
0.576307 1.308414 1.372045 150 150 150
0.938666 1.380507 0.636710 150 150 150
0.575988 1.239758 1.430320 150 150 150
