ply
format ascii 1.0
comment author: Greg Turk
comment object: another cube
element vertex 24
property float x
property float y
property float z
property uchar red
property uchar green
property uchar blue
element face 0
property list uchar int vertex_index
end_header
0.801897 1.002985 -0.302426 150 150 150
0.801818 0.915436 -0.241048 150 150 150
0.826973 0.913068 -0.363907 150 150 150
0.838487 1.129891 -0.276892 150 150 150
0.850309 0.546849 -0.169688 150 150 150
0.608281 0.639129 -0.520040 150 150 150
0.796625 1.271806 -0.295292 150 150 150
1.023545 0.166925 -0.059077 150 150 150
0.560783 0.228859 -0.610819 150 150 150
0.785510 1.332690 -0.302631 150 150 150
0.995715 0.056660 -0.134715 150 150 150
0.427383 0.208226 -0.670401 150 150 150
0.777528 1.541980 -0.296985 150 150 150
0.738761 1.436620 -0.232106 150 150 150
0.824500 1.455037 -0.363183 150 150 150
0.701579 1.599481 -0.298993 150 150 150
0.656713 1.433349 -0.138051 150 150 150
0.900037 1.516842 -0.434118 150 150 150
0.516170 1.242278 -0.233682 150 150 150
1.130441 1.433650 -0.507142 150 150 150
0.562297 1.333327 -0.474737 150 150 150
1.295415 1.329930 -0.681715 150 150 150
0.600845 1.348275 -0.554800 150 150 150
1.346529 1.262972 -0.713387 150 150 150
