ply
format ascii 1.0
comment author: Greg Turk
comment object: another cube
element vertex 24
property float x
property float y
property float z
property uchar red
property uchar green
property uchar blue
element face 0
property list uchar int vertex_index
end_header
0.988246 1.058349 0.490248 150 150 150
0.931126 0.978263 0.459560 150 150 150
1.040851 0.965417 0.521395 150 150 150
0.966694 1.174530 0.543417 150 150 150
1.072352 0.953549 0.103947 150 150 150
1.073201 0.579476 0.548029 150 150 150
0.971999 1.311849 0.499712 150 150 150
1.018626 0.571775 0.294040 150 150 150
1.008707 0.176151 0.655093 150 150 150
0.974082 1.373479 0.486396 150 150 150
1.033259 0.489495 0.182364 150 150 150
1.084444 0.088183 0.564071 150 150 150
1.013574 1.580931 0.476349 150 150 150
0.917667 1.495703 0.491665 150 150 150
1.070584 1.478304 0.475723 150 150 150
0.994734 1.640049 0.402942 150 150 150
0.819209 1.561395 0.547629 150 150 150
1.175407 1.497416 0.430550 150 150 150
0.649062 1.493834 0.718765 150 150 150
1.254821 1.361433 0.211337 150 150 150
0.431481 1.395081 0.819412 150 150 150
1.052829 1.449801 0.061429 150 150 150
0.381784 1.348299 0.873693 150 150 150
0.975710 1.482463 0.029308 150 150 150
