ply
format ascii 1.0
comment author: Greg Turk
comment object: another cube
element vertex 24
property float x
property float y
property float z
property uchar red
property uchar green
property uchar blue
element face 0
property list uchar int vertex_index
end_header
0.864896 1.021227 0.634547 150 150 150
0.807997 0.936943 0.608634 150 150 150
0.909372 0.928994 0.676396 150 150 150
0.837323 1.149662 0.673323 150 150 150
0.815175 0.581754 0.472681 150 150 150
0.989779 0.556638 0.659002 150 150 150
0.857949 1.286287 0.646237 150 150 150
0.580053 0.337785 0.739004 150 150 150
0.994930 0.133043 0.671313 150 150 150
0.866500 1.343441 0.642507 150 150 150
0.596380 0.202197 0.719272 150 150 150
1.083269 0.077820 0.567516 150 150 150
0.892552 1.563179 0.661544 150 150 150
0.805607 1.466411 0.617291 150 150 150
0.949383 1.453495 0.690424 150 150 150
0.896446 1.628082 0.588497 150 150 150
0.686744 1.487501 0.580580 150 150 150
1.055450 1.458277 0.742149 150 150 150
0.575385 1.269650 0.530869 150 150 150
1.139223 1.218483 0.792407 150 150 150
0.534680 1.039055 0.412517 150 150 150
1.255823 1.010046 0.678171 150 150 150
0.527241 0.952502 0.397158 150 150 150
1.272947 0.937290 0.627494 150 150 150
