ply
format ascii 1.0
comment author: Greg Turk
comment object: another cube
element vertex 24
property float x
property float y
property float z
property uchar red
property uchar green
property uchar blue
element face 0
property list uchar int vertex_index
end_header
-0.188201 1.054593 0.822846 150 150 150
-0.162652 0.973376 0.764936 150 150 150
-0.213348 0.962269 0.878091 150 150 150
-0.244766 1.172372 0.805317 150 150 150
0.197749 0.870133 0.853643 150 150 150
-0.261468 0.580423 0.902092 150 150 150
-0.209012 1.310492 0.802890 150 150 150
0.087524 0.453005 0.857215 150 150 150
-0.413141 0.192601 0.826974 150 150 150
-0.199809 1.371037 0.802858 150 150 150
0.210039 0.386034 0.852860 150 150 150
-0.330217 0.086843 0.887551 150 150 150
-0.192274 1.582567 0.832639 150 150 150
-0.215337 1.491327 0.741168 150 150 150
-0.184706 1.480076 0.894128 150 150 150
-0.123976 1.645702 0.805865 150 150 150
-0.287816 1.547482 0.646395 150 150 150
-0.135633 1.501659 0.998572 150 150 150
-0.482946 1.477674 0.502196 150 150 150
0.063019 1.363515 1.116847 150 150 150
-0.604963 1.375057 0.296848 150 150 150
0.225565 1.400271 0.909061 150 150 150
-0.656570 1.322706 0.249182 150 150 150
0.260264 1.413945 0.827435 150 150 150
