ply
format ascii 1.0
comment author: Greg Turk
comment object: another cube
element vertex 24
property float x
property float y
property float z
property uchar red
property uchar green
property uchar blue
element face 0
property list uchar int vertex_index
end_header
0.883974 1.030636 0.622618 150 150 150
0.826542 0.947161 0.596217 150 150 150
0.929955 0.937994 0.661482 150 150 150
0.858621 1.156989 0.665443 150 150 150
0.867087 0.617836 0.409659 150 150 150
0.999657 0.562165 0.647800 150 150 150
0.877642 1.293577 0.636505 150 150 150
0.667096 0.380581 0.707475 150 150 150
0.995254 0.139183 0.668277 150 150 150
0.885723 1.351220 0.631138 150 150 150
0.684785 0.247353 0.675255 150 150 150
1.083200 0.079353 0.566484 150 150 150
0.915024 1.569828 0.647455 150 150 150
0.823972 1.474393 0.612048 150 150 150
0.973583 1.460661 0.670204 150 150 150
0.915105 1.633815 0.573394 150 150 150
0.702536 1.501782 0.588741 150 150 150
1.085917 1.466317 0.704282 150 150 150
0.565197 1.295680 0.559656 150 150 150
1.183399 1.225661 0.715814 150 150 150
0.469435 1.072459 0.461020 150 150 150
1.271818 1.042308 0.546604 150 150 150
0.445007 0.988341 0.454430 150 150 150
1.278801 0.978992 0.482737 150 150 150
