ply
format ascii 1.0
comment author: Greg Turk
comment object: another cube
element vertex 24
property float x
property float y
property float z
property uchar red
property uchar green
property uchar blue
element face 0
property list uchar int vertex_index
end_header
0.585586 1.012638 -0.522018 150 150 150
0.588442 0.931178 -0.455398 150 150 150
0.603598 0.917466 -0.575995 150 150 150
0.630675 1.141594 -0.519639 150 150 150
0.477924 0.576072 -0.376267 150 150 150
0.516762 0.551068 -0.642467 150 150 150
0.589380 1.277472 -0.533722 150 150 150
0.820433 0.330800 -0.286324 150 150 150
0.486396 0.129132 -0.647097 150 150 150
0.578258 1.335108 -0.541673 150 150 150
0.795001 0.194906 -0.286247 150 150 150
0.353766 0.071678 -0.671486 150 150 150
0.572782 1.552038 -0.574919 150 150 150
0.568413 1.457201 -0.477610 150 150 150
0.585322 1.444493 -0.637777 150 150 150
0.498683 1.612390 -0.558480 150 150 150
0.568438 1.479191 -0.353022 150 150 150
0.591953 1.452476 -0.755236 150 150 150
0.578049 1.263391 -0.225769 150 150 150
0.619343 1.218087 -0.859839 150 150 150
0.492905 1.023301 -0.167167 150 150 150
0.438075 1.028634 -0.881021 150 150 150
0.488116 0.935684 -0.158328 150 150 150
0.377251 0.965480 -0.860391 150 150 150
