ply
format ascii 1.0
comment author: Greg Turk
comment object: another cube
element vertex 24
property float x
property float y
property float z
property uchar red
property uchar green
property uchar blue
element face 0
property list uchar int vertex_index
end_header
0.806214 1.001463 0.668698 150 150 150
0.748343 0.916318 0.645344 150 150 150
0.848058 0.909910 0.715747 150 150 150
0.776715 1.132926 0.698146 150 150 150
0.690476 0.544236 0.603416 150 150 150
0.963691 0.549420 0.676397 150 150 150
0.803238 1.270398 0.671058 150 150 150
0.430490 0.257763 0.795153 150 150 150
0.991418 0.126717 0.676959 150 150 150
0.812569 1.328089 0.668841 150 150 150
0.459593 0.123382 0.798767 150 150 150
1.081577 0.079155 0.571217 150 150 150
0.831083 1.547276 0.686317 150 150 150
0.756176 1.448624 0.628518 150 150 150
0.882475 1.440392 0.729187 150 150 150
0.844977 1.613370 0.616514 150 150 150
0.649774 1.461537 0.562913 150 150 150
0.967453 1.454533 0.811652 150 150 150
0.595234 1.231334 0.481516 150 150 150
1.011629 1.237978 0.941289 150 150 150
0.692376 1.023965 0.353866 150 150 150
1.149526 1.012878 0.942931 150 150 150
0.730362 0.946189 0.333772 150 150 150
1.177559 0.929457 0.922709 150 150 150
