ply
format ascii 1.0
comment author: Greg Turk
comment object: another cube
element vertex 24
property float x
property float y
property float z
property uchar red
property uchar green
property uchar blue
element face 0
property list uchar int vertex_index
end_header
0.374839 1.069151 0.830846 150 150 150
0.338127 0.974250 0.795892 150 150 150
0.417385 0.994513 0.899603 150 150 150
0.321854 1.179970 0.826123 150 150 150
0.363970 0.586901 0.783722 150 150 150
0.752750 1.053489 0.726665 150 150 150
0.365474 1.318285 0.793003 150 150 150
0.311350 0.168869 0.870358 150 150 150
0.512926 0.740340 0.892673 150 150 150
0.380674 1.377645 0.786437 150 150 150
0.409397 0.077987 0.840153 150 150 150
0.617296 0.634695 0.886434 150 150 150
0.375196 1.587058 0.761934 150 150 150
0.372143 1.475823 0.693427 150 150 150
0.377831 1.504890 0.849392 150 150 150
0.434629 1.648278 0.714679 150 150 150
0.379813 1.472041 0.567076 150 150 150
0.351270 1.569625 0.949262 150 150 150
0.582925 1.313614 0.540879 150 150 150
0.200600 1.491228 1.142800 150 150 150
0.719665 1.430176 0.735450 150 150 150
0.129125 1.419096 1.387841 150 150 150
0.757477 1.452036 0.814704 150 150 150
0.098554 1.361625 1.450725 150 150 150
