ply
format ascii 1.0
comment author: Greg Turk
comment object: another cube
element vertex 24
property float x
property float y
property float z
property uchar red
property uchar green
property uchar blue
element face 0
property list uchar int vertex_index
end_header
0.951863 1.066037 0.564589 150 150 150
0.893450 0.986744 0.533473 150 150 150
1.003156 0.971713 0.595923 150 150 150
0.931026 1.181799 0.615770 150 150 150
1.051561 0.993238 0.185679 150 150 150
1.048468 0.585053 0.584908 150 150 150
0.945262 1.317604 0.567065 150 150 150
0.951199 0.648646 0.421411 150 150 150
1.001669 0.171824 0.657280 150 150 150
0.949878 1.378953 0.552457 150 150 150
0.972402 0.536161 0.342295 150 150 150
1.082178 0.090326 0.564675 150 150 150
0.990482 1.586386 0.547449 150 150 150
0.893247 1.501424 0.552838 150 150 150
1.047984 1.483287 0.550762 150 150 150
0.976439 1.647213 0.474637 150 150 150
0.783449 1.560627 0.590937 150 150 150
1.159465 1.500942 0.520557 150 150 150
0.587413 1.459847 0.708816 150 150 150
1.275273 1.328001 0.353082 150 150 150
0.364811 1.330270 0.742502 150 150 150
1.119001 1.350499 0.140102 150 150 150
0.309852 1.273566 0.780014 150 150 150
1.049763 1.358260 0.083180 150 150 150
