ply
format ascii 1.0
comment author: Greg Turk
comment object: another cube
element vertex 24
property float x
property float y
property float z
property uchar red
property uchar green
property uchar blue
element face 0
property list uchar int vertex_index
end_header
-0.024755 0.992154 0.844050 150 150 150
-0.022700 0.903520 0.789793 150 150 150
-0.053521 0.906524 0.906420 150 150 150
-0.068032 1.122341 0.824485 150 150 150
0.166782 0.572868 0.796104 150 150 150
-0.169304 0.545834 0.921153 150 150 150
-0.036217 1.258384 0.809691 150 150 150
0.254710 0.159060 0.872766 150 150 150
-0.393894 0.197093 0.835143 150 150 150
-0.030193 1.316893 0.806917 150 150 150
0.384899 0.122319 0.834238 150 150 150
-0.322481 0.080923 0.893224 150 150 150
-0.028112 1.537200 0.815638 150 150 150
-0.045897 1.432810 0.731600 150 150 150
-0.021536 1.436084 0.888050 150 150 150
0.036593 1.603279 0.785165 150 150 150
-0.120578 1.468750 0.631249 150 150 150
0.010734 1.458149 0.998355 150 150 150
-0.284546 1.324841 0.509469 150 150 150
0.119790 1.263323 1.141458 150 150 150
-0.365324 1.146227 0.336997 150 150 150
0.347946 1.171448 1.042156 150 150 150
-0.399710 1.072567 0.302999 150 150 150
0.414651 1.142102 0.989405 150 150 150
