ply
format ascii 1.0
comment author: Greg Turk
comment object: another cube
element vertex 24
property float x
property float y
property float z
property uchar red
property uchar green
property uchar blue
element face 0
property list uchar int vertex_index
end_header
0.261105 1.042248 0.843074 150 150 150
0.233672 0.948910 0.801904 150 150 150
0.269620 0.964216 0.922166 150 150 150
0.217784 1.161767 0.820333 150 150 150
0.281438 0.566172 0.793622 150 150 150
0.540699 0.698505 0.968014 150 150 150
0.259835 1.296450 0.792499 150 150 150
0.300896 0.144866 0.874248 150 150 150
0.140632 0.555639 0.997576 150 150 150
0.271501 1.353663 0.786374 150 150 150
0.414117 0.073762 0.840546 150 150 150
0.164167 0.414471 1.035553 150 150 150
0.271618 1.570705 0.762865 150 150 150
0.268909 1.454691 0.691655 150 150 150
0.268103 1.482530 0.850774 150 150 150
0.337459 1.629769 0.718529 150 150 150
0.263714 1.449128 0.565140 150 150 150
0.252019 1.533404 0.957801 150 150 150
0.370236 1.223210 0.516937 150 150 150
0.138048 1.386668 1.134073 150 150 150
0.601313 1.117511 0.591888 150 150 150
0.108990 1.228796 1.345775 150 150 150
0.663333 1.068431 0.634004 150 150 150
0.097340 1.153344 1.394399 150 150 150
