ply
format ascii 1.0
comment author: Greg Turk
comment object: another cube
element vertex 24
property float x
property float y
property float z
property uchar red
property uchar green
property uchar blue
element face 0
property list uchar int vertex_index
end_header
0.514495 1.047769 -0.566287 150 150 150
0.519100 0.969566 -0.497663 150 150 150
0.520757 0.950778 -0.619411 150 150 150
0.566402 1.169957 -0.576381 150 150 150
0.242228 0.714083 -0.436037 150 150 150
0.450923 0.572716 -0.653974 150 150 150
0.524529 1.305368 -0.579247 150 150 150
0.534949 0.401637 -0.407296 150 150 150
0.476850 0.150802 -0.651189 150 150 150
0.511382 1.363603 -0.583815 150 150 150
0.443927 0.298432 -0.386297 150 150 150
0.350489 0.078166 -0.668980 150 150 150
0.496596 1.577470 -0.622704 150 150 150
0.520346 1.487652 -0.524966 150 150 150
0.491911 1.468661 -0.681692 150 150 150
0.425917 1.638393 -0.595159 150 150 150
0.566735 1.530332 -0.411322 150 150 150
0.457524 1.473258 -0.794947 150 150 150
0.684348 1.386884 -0.240067 150 150 150
0.374700 1.249014 -0.901226 150 150 150
0.705263 1.200328 -0.060555 150 150 150
0.133699 1.220804 -0.799530 150 150 150
0.733051 1.129922 -0.016495 150 150 150
0.060701 1.220328 -0.747449 150 150 150
