ply
format ascii 1.0
comment author: Greg Turk
comment object: another cube
element vertex 24
property float x
property float y
property float z
property uchar red
property uchar green
property uchar blue
element face 0
property list uchar int vertex_index
end_header
0.510376 1.050402 0.793764 150 150 150
0.462545 0.959644 0.764250 150 150 150
0.561364 0.966797 0.845155 150 150 150
0.462659 1.167474 0.809059 150 150 150
0.436351 0.575555 0.756629 150 150 150
0.853224 0.850814 0.621457 150 150 150
0.500834 1.307184 0.775265 150 150 150
0.323079 0.172202 0.861917 150 150 150
0.823628 0.439890 0.735137 150 150 150
0.514304 1.367103 0.768188 150 150 150
0.407755 0.066558 0.843365 150 150 150
0.943515 0.381835 0.670136 150 150 150
0.511821 1.576369 0.751532 150 150 150
0.487959 1.468573 0.683253 150 150 150
0.532794 1.491525 0.833711 150 150 150
0.561880 1.638021 0.695457 150 150 150
0.468280 1.469037 0.558720 150 150 150
0.531914 1.553552 0.938589 150 150 150
0.665947 1.320083 0.480007 150 150 150
0.420580 1.469580 1.153256 150 150 150
0.827619 1.446829 0.646508 150 150 150
0.409149 1.386623 1.403296 150 150 150
0.875522 1.474493 0.717820 150 150 150
0.393933 1.327859 1.470169 150 150 150
