ply
format ascii 1.0
comment author: Greg Turk
comment object: another cube
element vertex 24
property float x
property float y
property float z
property uchar red
property uchar green
property uchar blue
element face 0
property list uchar int vertex_index
end_header
0.442418 1.066289 0.816110 150 150 150
0.398960 0.973521 0.783986 150 150 150
0.492979 0.988268 0.874520 150 150 150
0.391163 1.178307 0.823161 150 150 150
0.397060 0.585910 0.774080 150 150 150
0.794759 1.030641 0.640194 150 150 150
0.432830 1.317453 0.788947 150 150 150
0.316062 0.172786 0.866657 150 150 150
0.678940 0.650365 0.800443 150 150 150
0.447524 1.377170 0.781759 150 150 150
0.407053 0.073397 0.843113 150 150 150
0.800047 0.579394 0.751801 150 150 150
0.440535 1.585395 0.759181 150 150 150
0.430957 1.475310 0.690936 150 150 150
0.451217 1.503831 0.845573 150 150 150
0.496037 1.647201 0.708033 150 150 150
0.431342 1.472952 0.564495 150 150 150
0.431209 1.570503 0.946067 150 150 150
0.649887 1.337471 0.525050 150 150 150
0.289957 1.502079 1.149588 150 150 150
0.764408 1.483806 0.713994 150 150 150
0.233818 1.446190 1.402189 150 150 150
0.797210 1.515933 0.791985 150 150 150
0.206271 1.392813 1.469809 150 150 150
