ply
format ascii 1.0
comment author: Greg Turk
comment object: another cube
element vertex 24
property float x
property float y
property float z
property uchar red
property uchar green
property uchar blue
element face 0
property list uchar int vertex_index
end_header
0.399411 1.070005 0.825004 150 150 150
0.360346 0.975794 0.790807 150 150 150
0.445477 0.994464 0.890134 150 150 150
0.346512 1.180917 0.824750 150 150 150
0.375607 0.587970 0.779798 150 150 150
0.765929 1.061430 0.692114 150 150 150
0.389218 1.319731 0.791830 150 150 150
0.312995 0.171488 0.868824 150 150 150
0.566831 0.723119 0.862606 150 150 150
0.404100 1.379241 0.785281 150 150 150
0.408364 0.077184 0.840974 150 150 150
0.683328 0.633344 0.840914 150 150 150
0.396898 1.588152 0.761500 150 150 150
0.392912 1.477207 0.692886 150 150 150
0.402115 1.506317 0.848679 150 150 150
0.455149 1.649774 0.713177 150 150 150
0.399630 1.473634 0.566468 150 150 150
0.376255 1.572127 0.948313 150 150 150
0.611132 1.325642 0.539712 150 150 150
0.226001 1.499972 1.144535 150 150 150
0.732076 1.458444 0.734447 150 150 150
0.156541 1.437163 1.392614 150 150 150
0.765440 1.485556 0.814107 150 150 150
0.126541 1.381634 1.457467 150 150 150
