ply
format ascii 1.0
comment author: Greg Turk
comment object: another cube
element vertex 24
property float x
property float y
property float z
property uchar red
property uchar green
property uchar blue
element face 0
property list uchar int vertex_index
end_header
0.961388 1.066501 0.547035 150 150 150
0.903207 0.987338 0.515615 150 150 150
1.012967 0.972398 0.578298 150 150 150
0.940242 1.181907 0.598925 150 150 150
1.062779 1.001814 0.168467 150 150 150
1.054944 0.585208 0.577419 150 150 150
0.952295 1.318206 0.551219 150 150 150
0.973367 0.646692 0.392125 150 150 150
1.003838 0.174126 0.657383 150 150 150
0.956356 1.379822 0.536768 150 150 150
0.996367 0.545288 0.299462 150 150 150
1.082746 0.090833 0.564941 150 150 150
0.997845 1.586650 0.530149 150 150 150
0.900518 1.502371 0.538706 150 150 150
1.054506 1.483687 0.532176 150 150 150
0.982305 1.646645 0.456963 150 150 150
0.794487 1.564867 0.582382 150 150 150
1.164049 1.502106 0.497123 150 150 150
0.604239 1.476850 0.718731 150 150 150
1.271230 1.341220 0.311760 150 150 150
0.379461 1.359411 0.773169 150 150 150
1.094763 1.390257 0.119641 150 150 150
0.325287 1.306253 0.816345 150 150 150
1.021067 1.408062 0.071388 150 150 150
