ply
format ascii 1.0
comment author: Greg Turk
comment object: another cube
element vertex 24
property float x
property float y
property float z
property uchar red
property uchar green
property uchar blue
element face 0
property list uchar int vertex_index
end_header
0.929435 1.056944 -0.159642 150 150 150
0.917656 0.962535 -0.109799 150 150 150
0.960401 0.980131 -0.232309 150 150 150
0.959549 1.168492 -0.112208 150 150 150
0.915968 0.576806 -0.103382 150 150 150
0.636479 0.976410 -0.440127 150 150 150
0.912364 1.310458 -0.127283 150 150 150
1.037359 0.166477 -0.050983 150 150 150
0.830800 0.594742 -0.418440 150 150 150
0.897107 1.370943 -0.133545 150 150 150
0.994241 0.068412 -0.135346 150 150 150
0.740241 0.522113 -0.510886 150 150 150
0.874030 1.575878 -0.108861 150 150 150
0.825454 1.463084 -0.069114 150 150 150
0.943265 1.500859 -0.166875 150 150 150
0.798039 1.632233 -0.129115 150 150 150
0.716284 1.452531 -0.008606 150 150 150
1.026948 1.578590 -0.206504 150 150 150
0.608593 1.305863 -0.192443 150 150 150
1.280699 1.542021 -0.221283 150 150 150
0.739148 1.469430 -0.353101 150 150 150
1.518888 1.508841 -0.328350 150 150 150
0.803532 1.504606 -0.406277 150 150 150
1.591949 1.457309 -0.340991 150 150 150
