ply
format ascii 1.0
comment author: Greg Turk
comment object: another cube
element vertex 24
property float x
property float y
property float z
property uchar red
property uchar green
property uchar blue
element face 0
property list uchar int vertex_index
end_header
0.886546 1.042016 -0.208772 150 150 150
0.879519 0.950108 -0.154119 150 150 150
0.911830 0.960071 -0.278608 150 150 150
0.921135 1.158149 -0.169502 150 150 150
0.894007 0.568058 -0.123285 150 150 150
0.592614 0.862063 -0.472624 150 150 150
0.875188 1.300741 -0.185150 150 150 150
1.031667 0.165002 -0.052482 150 150 150
0.700787 0.450493 -0.512992 150 150 150
0.860836 1.361806 -0.191118 150 150 150
0.993628 0.063819 -0.135384 150 150 150
0.589956 0.399705 -0.597037 150 150 150
0.843839 1.567144 -0.171120 150 150 150
0.798713 1.456982 -0.122300 150 150 150
0.904074 1.489423 -0.234396 150 150 150
0.767216 1.624021 -0.184367 150 150 150
0.696406 1.449430 -0.051374 150 150 150
0.982761 1.565418 -0.285269 150 150 150
0.571480 1.300094 -0.221076 150 150 150
1.232564 1.526068 -0.326043 150 150 150
0.690173 1.458010 -0.395176 150 150 150
1.455022 1.489953 -0.460240 150 150 150
0.751149 1.489266 -0.454212 150 150 150
1.526461 1.437877 -0.477318 150 150 150
