ply
format ascii 1.0
comment author: Greg Turk
comment object: another cube
element vertex 24
property float x
property float y
property float z
property uchar red
property uchar green
property uchar blue
element face 0
property list uchar int vertex_index
end_header
1.013499 1.036248 0.416503 150 150 150
0.958324 0.952182 0.392847 150 150 150
1.069533 0.946472 0.447360 150 150 150
0.991436 1.157009 0.468539 150 150 150
1.037634 0.784829 0.055949 150 150 150
1.093103 0.567462 0.507834 150 150 150
0.986953 1.294401 0.430219 150 150 150
1.059319 0.372155 0.177917 150 150 150
1.015687 0.176947 0.651913 150 150 150
0.986722 1.355271 0.419520 150 150 150
1.041904 0.308247 0.054640 150 150 150
1.086317 0.083053 0.562466 150 150 150
1.019046 1.566822 0.409767 150 150 150
0.925988 1.476590 0.428194 150 150 150
1.079321 1.463971 0.406725 150 150 150
0.996351 1.627951 0.338189 150 150 150
0.830958 1.538141 0.493138 150 150 150
1.182165 1.482027 0.357989 150 150 150
0.680188 1.462245 0.678413 150 150 150
1.248432 1.340864 0.137214 150 150 150
0.479090 1.346267 0.794101 150 150 150
1.037460 1.419895 -0.006197 150 150 150
0.435405 1.294953 0.849658 150 150 150
0.958959 1.450656 -0.036407 150 150 150
