ply
format ascii 1.0
comment author: Greg Turk
comment object: another cube
element vertex 24
property float x
property float y
property float z
property uchar red
property uchar green
property uchar blue
element face 0
property list uchar int vertex_index
end_header
1.030102 0.998184 0.313983 150 150 150
0.977223 0.909067 0.309003 150 150 150
1.093715 0.913046 0.340514 150 150 150
1.009257 1.126277 0.361378 150 150 150
0.986212 0.593090 0.095331 150 150 150
1.109152 0.548415 0.444499 150 150 150
0.991816 1.263070 0.330701 150 150 150
1.070014 0.177538 0.026524 150 150 150
1.023671 0.183309 0.641440 150 150 150
0.988624 1.322972 0.323713 150 150 150
1.001902 0.144968 -0.092901 150 150 150
1.089948 0.079360 0.559073 150 150 150
1.006183 1.540519 0.320747 150 150 150
0.919353 1.441262 0.339374 150 150 150
1.073367 1.438836 0.311964 150 150 150
0.977900 1.605079 0.253672 150 150 150
0.824554 1.491227 0.412168 150 150 150
1.176578 1.458292 0.265438 150 150 150
0.693351 1.374231 0.589569 150 150 150
1.253202 1.279812 0.081716 150 150 150
0.512322 1.215160 0.686225 150 150 150
1.051146 1.298581 -0.090267 150 150 150
0.476835 1.150169 0.733355 150 150 150
0.972948 1.310618 -0.132445 150 150 150
