ply
format ascii 1.0
comment author: Greg Turk
comment object: another cube
element vertex 24
property float x
property float y
property float z
property uchar red
property uchar green
property uchar blue
element face 0
property list uchar int vertex_index
end_header
0.746955 0.979503 -0.367933 150 150 150
0.750712 0.894796 -0.302777 150 150 150
0.774284 0.886864 -0.424643 150 150 150
0.781003 1.110808 -0.350343 150 150 150
0.812565 0.534485 -0.212766 150 150 150
0.601727 0.571153 -0.554833 150 150 150
0.738419 1.251619 -0.371560 150 150 150
1.012844 0.179442 -0.071182 150 150 150
0.522545 0.163986 -0.631394 150 150 150
0.727823 1.312393 -0.379913 150 150 150
0.993932 0.060154 -0.135569 150 150 150
0.386056 0.127877 -0.671700 150 150 150
0.721285 1.523593 -0.383963 150 150 150
0.688300 1.421363 -0.310437 150 150 150
0.761794 1.431688 -0.449859 150 150 150
0.647056 1.582590 -0.380239 150 150 150
0.622760 1.423488 -0.204174 150 150 150
0.830756 1.483719 -0.532781 150 150 150
0.505441 1.201516 -0.232918 150 150 150
1.040555 1.365151 -0.613479 150 150 150
0.468860 1.198749 -0.490936 150 150 150
1.130520 1.198540 -0.792637 150 150 150
0.481937 1.186070 -0.578832 150 150 150
1.155758 1.117649 -0.822756 150 150 150
