ply
format ascii 1.0
comment author: Greg Turk
comment object: another cube
element vertex 24
property float x
property float y
property float z
property uchar red
property uchar green
property uchar blue
element face 0
property list uchar int vertex_index
end_header
0.941561 1.059596 -0.142064 150 150 150
0.928240 0.964561 -0.093612 150 150 150
0.975492 0.983855 -0.214528 150 150 150
0.969455 1.170499 -0.092510 150 150 150
0.922533 0.578431 -0.095177 150 150 150
0.660325 0.993888 -0.433911 150 150 150
0.922234 1.312097 -0.108226 150 150 150
1.039262 0.166104 -0.050307 150 150 150
0.879495 0.629069 -0.380738 150 150 150
0.907115 1.372355 -0.114955 150 150 150
0.994489 0.069500 -0.135658 150 150 150
0.802369 0.546696 -0.477264 150 150 150
0.882885 1.577793 -0.090811 150 150 150
0.833064 1.464631 -0.052758 150 150 150
0.954559 1.502465 -0.146399 150 150 150
0.807380 1.633846 -0.113771 150 150 150
0.722518 1.453636 0.005647 150 150 150
1.040625 1.578828 -0.183912 150 150 150
0.618091 1.302514 -0.176505 150 150 150
1.294179 1.537397 -0.192631 150 150 150
0.747438 1.460301 -0.344019 150 150 150
1.533319 1.496505 -0.295677 150 150 150
0.811067 1.494319 -0.398838 150 150 150
1.605192 1.443160 -0.308193 150 150 150
