ply
format ascii 1.0
comment author: Greg Turk
comment object: another cube
element vertex 24
property float x
property float y
property float z
property uchar red
property uchar green
property uchar blue
element face 0
property list uchar int vertex_index
end_header
-0.233567 1.069169 0.805629 150 150 150
-0.203193 0.990721 0.746523 150 150 150
-0.257865 0.974911 0.859246 150 150 150
-0.291958 1.183335 0.788042 150 150 150
0.164167 0.987433 0.861465 150 150 150
-0.285080 0.589261 0.889426 150 150 150
-0.252904 1.321704 0.791323 150 150 150
0.029765 0.578637 0.842962 150 150 150
-0.416471 0.193619 0.822130 150 150 150
-0.242309 1.383086 0.792808 150 150 150
0.149456 0.507240 0.850745 150 150 150
-0.331635 0.091046 0.885169 150 150 150
-0.234768 1.591589 0.828406 150 150 150
-0.255332 1.504345 0.734442 150 150 150
-0.229086 1.489072 0.887146 150 150 150
-0.164844 1.653171 0.804582 150 150 150
-0.322077 1.565282 0.638247 150 150 150
-0.182571 1.511026 0.992777 150 150 150
-0.510769 1.505084 0.481872 150 150 150
0.018610 1.378935 1.112650 150 150 150
-0.625339 1.418178 0.265633 150 150 150
0.174868 1.431734 0.903734 150 150 150
-0.677500 1.369954 0.214502 150 150 150
0.207339 1.449640 0.821952 150 150 150
