ply
format ascii 1.0
comment author: Greg Turk
comment object: another cube
element vertex 24
property float x
property float y
property float z
property uchar red
property uchar green
property uchar blue
element face 0
property list uchar int vertex_index
end_header
0.201413 1.011826 0.848514 150 150 150
0.183574 0.920262 0.802706 150 150 150
0.190009 0.932166 0.924791 150 150 150
0.160738 1.137426 0.822608 150 150 150
0.253241 0.543144 0.791562 150 150 150
0.244664 0.563295 1.005950 150 150 150
0.195721 1.270243 0.797088 150 150 150
0.297900 0.123778 0.874743 150 150 150
-0.156129 0.436095 0.957469 150 150 150
0.203716 1.325819 0.790960 150 150 150
0.419642 0.067064 0.840580 150 150 150
-0.143221 0.290110 0.979147 150 150 150
0.205631 1.548865 0.770389 150 150 150
0.198048 1.429960 0.696837 150 150 150
0.203753 1.455590 0.857603 150 150 150
0.272710 1.610069 0.729678 150 150 150
0.165766 1.425533 0.573950 150 150 150
0.202338 1.492041 0.969617 150 150 150
0.178797 1.185674 0.502277 150 150 150
0.141874 1.300642 1.129596 150 150 150
0.309215 0.965428 0.433993 150 150 150
0.192289 1.090211 1.283978 150 150 150
0.342392 0.882814 0.433978 150 150 150
0.207924 1.005471 1.311878 150 150 150
