ply
format ascii 1.0
comment author: Greg Turk
comment object: another cube
element vertex 24
property float x
property float y
property float z
property uchar red
property uchar green
property uchar blue
element face 0
property list uchar int vertex_index
end_header
1.004821 1.045593 0.445554 150 150 150
0.948992 0.963162 0.418338 150 150 150
1.059062 0.954460 0.476965 150 150 150
0.982842 1.164472 0.498034 150 150 150
1.058183 0.851019 0.067375 150 150 150
1.086394 0.572049 0.523107 150 150 150
0.982644 1.301847 0.457065 150 150 150
1.036760 0.449463 0.222075 150 150 150
1.012857 0.176350 0.653499 150 150 150
0.983302 1.363015 0.445132 150 150 150
1.038636 0.375009 0.103951 150 150 150
1.085436 0.084910 0.563261 150 150 150
1.018862 1.572670 0.434249 150 150 150
0.924584 1.484753 0.452227 150 150 150
1.077666 1.469971 0.432321 150 150 150
0.997373 1.632632 0.361693 150 150 150
0.828549 1.548268 0.514139 150 150 150
1.180752 1.488278 0.383818 150 150 150
0.671387 1.478315 0.696542 150 150 150
1.248834 1.352502 0.159982 150 150 150
0.464480 1.371921 0.811176 150 150 150
1.040123 1.439351 0.017919 150 150 150
0.418641 1.323355 0.867366 150 150 150
0.961985 1.472240 -0.011102 150 150 150
