ply
format ascii 1.0
comment author: Greg Turk
comment object: another cube
element vertex 24
property float x
property float y
property float z
property uchar red
property uchar green
property uchar blue
element face 0
property list uchar int vertex_index
end_header
0.979454 1.062479 0.509676 150 150 150
0.921871 0.982998 0.478326 150 150 150
1.031625 0.969015 0.540739 150 150 150
0.958026 1.178013 0.562729 150 150 150
1.072189 0.982178 0.126052 150 150 150
1.066937 0.582217 0.558749 150 150 150
0.965585 1.315120 0.517777 150 150 150
1.006776 0.608927 0.327946 150 150 150
1.006911 0.175996 0.655892 150 150 150
0.968366 1.376854 0.504024 150 150 150
1.025757 0.523103 0.219721 150 150 150
1.083930 0.089592 0.564509 150 150 150
1.009177 1.583755 0.495003 150 150 150
0.912582 1.499269 0.508405 150 150 150
1.065661 1.481021 0.495066 150 150 150
0.991459 1.642963 0.421533 150 150 150
0.812249 1.564900 0.560904 150 150 150
1.171823 1.500153 0.452600 150 150 150
0.635349 1.493819 0.723325 150 150 150
1.259892 1.358765 0.240976 150 150 150
0.413756 1.392420 0.811706 150 150 150
1.063008 1.440214 0.081282 150 150 150
0.362336 1.344507 0.863341 150 150 150
0.986378 1.470218 0.045491 150 150 150
