ply
format ascii 1.0
comment author: Greg Turk
comment object: another cube
element vertex 24
property float x
property float y
property float z
property uchar red
property uchar green
property uchar blue
element face 0
property list uchar int vertex_index
end_header
0.964185 1.059663 -0.103879 150 150 150
0.947820 0.963716 -0.057933 150 150 150
1.006071 0.985101 -0.173637 150 150 150
0.985700 1.170520 -0.051079 150 150 150
0.934421 0.577829 -0.077042 150 150 150
0.719994 0.988909 -0.427628 150 150 150
0.938455 1.311198 -0.069331 150 150 150
1.043091 0.162397 -0.048859 150 150 150
0.980744 0.674401 -0.297322 150 150 150
0.923873 1.371040 -0.077325 150 150 150
0.993283 0.070785 -0.137222 150 150 150
0.938764 0.567727 -0.391794 150 150 150
0.898766 1.578200 -0.057099 150 150 150
0.846379 1.465188 -0.020390 150 150 150
0.974026 1.500766 -0.107232 150 150 150
0.825013 1.634109 -0.085720 150 150 150
0.734528 1.455726 0.036506 150 150 150
1.064545 1.572620 -0.142878 150 150 150
0.633729 1.289283 -0.133059 150 150 150
1.315214 1.513898 -0.144115 150 150 150
0.753470 1.419910 -0.328881 150 150 150
1.553391 1.450025 -0.238943 150 150 150
0.812998 1.445794 -0.392017 150 150 150
1.622348 1.392379 -0.249356 150 150 150
