ply
format ascii 1.0
comment author: Greg Turk
comment object: another cube
element vertex 24
property float x
property float y
property float z
property uchar red
property uchar green
property uchar blue
element face 0
property list uchar int vertex_index
end_header
0.242938 1.032757 0.843516 150 150 150
0.218389 0.940187 0.800478 150 150 150
0.244499 0.953689 0.921851 150 150 150
0.200611 1.154704 0.819841 150 150 150
0.269139 0.558957 0.791530 150 150 150
0.445230 0.636489 0.995989 150 150 150
0.240466 1.288847 0.793386 150 150 150
0.299636 0.138388 0.874126 150 150 150
0.048155 0.485652 0.987905 150 150 150
0.250743 1.345519 0.787275 150 150 150
0.415759 0.071433 0.840528 150 150 150
0.069094 0.344035 1.025917 150 150 150
0.251356 1.564580 0.764165 150 150 150
0.247537 1.447176 0.692356 150 150 150
0.248221 1.474978 0.852200 150 150 150
0.317900 1.623957 0.720795 150 150 150
0.235357 1.440335 0.566397 150 150 150
0.236641 1.521486 0.961126 150 150 150
0.313565 1.205668 0.512776 150 150 150
0.138004 1.358583 1.132002 150 150 150
0.525391 1.047289 0.531641 150 150 150
0.129907 1.180556 1.329176 150 150 150
0.581514 0.982591 0.557006 150 150 150
0.125161 1.101049 1.372167 150 150 150
