ply
format ascii 1.0
comment author: Greg Turk
comment object: another cube
element vertex 24
property float x
property float y
property float z
property uchar red
property uchar green
property uchar blue
element face 0
property list uchar int vertex_index
end_header
0.973498 1.057080 -0.084156 150 150 150
0.955627 0.960858 -0.039381 150 150 150
1.019911 0.982629 -0.151432 150 150 150
0.991187 1.168479 -0.030196 150 150 150
0.941797 0.575691 -0.065748 150 150 150
0.756433 0.966580 -0.427535 150 150 150
0.944425 1.308874 -0.049799 150 150 150
1.045511 0.158764 -0.048243 150 150 150
1.025974 0.680595 -0.256008 150 150 150
0.930312 1.368608 -0.058347 150 150 150
0.992584 0.070899 -0.138765 150 150 150
1.004330 0.562204 -0.342960 150 150 150
0.905612 1.576858 -0.041007 150 150 150
0.851808 1.464278 -0.004211 150 150 150
0.981933 1.497850 -0.088361 150 150 150
0.833179 1.632806 -0.072653 150 150 150
0.739852 1.456576 0.052828 150 150 150
1.074240 1.566854 -0.124087 150 150 150
0.641247 1.279001 -0.105252 150 150 150
1.321534 1.495347 -0.122889 150 150 150
0.751351 1.386252 -0.319882 150 150 150
1.557355 1.417704 -0.213649 150 150 150
0.807334 1.404186 -0.388656 150 150 150
1.624455 1.357621 -0.222337 150 150 150
