ply
format ascii 1.0
comment author: Greg Turk
comment object: another cube
element vertex 24
property float x
property float y
property float z
property uchar red
property uchar green
property uchar blue
element face 0
property list uchar int vertex_index
end_header
1.027852 1.013081 0.353512 150 150 150
0.974254 0.925280 0.341843 150 150 150
1.088791 0.926545 0.382163 150 150 150
1.006206 1.138958 0.402356 150 150 150
0.999276 0.646472 0.080685 150 150 150
1.104824 0.556042 0.469483 150 150 150
0.992443 1.275671 0.368302 150 150 150
1.072252 0.222836 0.068769 150 150 150
1.020986 0.179995 0.646107 150 150 150
0.990147 1.335801 0.359805 150 150 150
1.015515 0.182136 -0.053624 150 150 150
1.088270 0.079968 0.560222 150 150 150
1.013243 1.551514 0.353720 150 150 150
0.923998 1.455465 0.372513 150 150 150
1.077833 1.449087 0.347428 150 150 150
0.987061 1.615043 0.284881 150 150 150
0.829489 1.510277 0.442932 150 150 150
1.180790 1.467156 0.299550 150 150 150
0.691017 1.411209 0.626116 150 150 150
1.250107 1.303422 0.097969 150 150 150
0.502616 1.267578 0.731956 150 150 150
1.041601 1.350052 -0.061439 150 150 150
0.464257 1.207648 0.783127 150 150 150
0.962726 1.370681 -0.098631 150 150 150
