ply
format ascii 1.0
comment author: Greg Turk
comment object: another cube
element vertex 24
property float x
property float y
property float z
property uchar red
property uchar green
property uchar blue
element face 0
property list uchar int vertex_index
end_header
-0.130358 1.032805 0.836651 150 150 150
-0.112651 0.947995 0.780468 150 150 150
-0.156532 0.943156 0.894556 150 150 150
-0.183428 1.155557 0.818350 150 150 150
0.199692 0.728640 0.827133 150 150 150
-0.232848 0.568669 0.911899 150 150 150
-0.151735 1.292986 0.809533 150 150 150
0.158630 0.301976 0.874812 150 150 150
-0.408078 0.191449 0.830434 150 150 150
-0.144626 1.352507 0.808319 150 150 150
0.285133 0.247127 0.849802 150 150 150
-0.327847 0.082493 0.889576 150 150 150
-0.139978 1.568046 0.831077 150 150 150
-0.162079 1.471651 0.742102 150 150 150
-0.131425 1.465279 0.896187 150 150 150
-0.073434 1.633159 0.802820 150 150 150
-0.238386 1.521063 0.647151 150 150 150
-0.085386 1.485645 1.002098 150 150 150
-0.431440 1.430706 0.512666 150 150 150
0.092426 1.328432 1.128375 150 150 150
-0.546607 1.300323 0.319079 150 150 150
0.281822 1.331535 0.941338 150 150 150
-0.593133 1.239817 0.275609 150 150 150
0.328003 1.335673 0.864485 150 150 150
