ply
format ascii 1.0
comment author: Greg Turk
comment object: another cube
element vertex 24
property float x
property float y
property float z
property uchar red
property uchar green
property uchar blue
element face 0
property list uchar int vertex_index
end_header
0.912742 1.047698 0.607950 150 150 150
0.854188 0.966100 0.579598 150 150 150
0.960767 0.953953 0.642668 150 150 150
0.890956 1.169528 0.655867 150 150 150
0.948985 0.734618 0.292695 150 150 150
1.019448 0.573406 0.622255 150 150 150
0.908592 1.306070 0.619719 150 150 150
0.790892 0.499956 0.615040 150 150 150
0.996416 0.153194 0.662791 150 150 150
0.915483 1.365266 0.609994 150 150 150
0.799351 0.371216 0.565358 150 150 150
1.082183 0.083839 0.565023 150 150 150
0.949187 1.580060 0.617136 150 150 150
0.854063 1.487983 0.599805 150 150 150
1.009164 1.473626 0.630872 150 150 150
0.943039 1.642312 0.542767 150 150 150
0.732868 1.528728 0.601770 150 150 150
1.125434 1.485444 0.634372 150 150 150
0.554201 1.356336 0.620530 150 150 150
1.243450 1.258738 0.574559 150 150 150
0.388138 1.163237 0.562468 150 150 150
1.250185 1.135954 0.340368 150 150 150
0.343751 1.088721 0.572632 150 150 150
1.230754 1.091215 0.264662 150 150 150
