ply
format ascii 1.0
comment author: Greg Turk
comment object: another cube
element vertex 24
property float x
property float y
property float z
property uchar red
property uchar green
property uchar blue
element face 0
property list uchar int vertex_index
end_header
1.002605 1.016752 0.026463 150 150 150
0.968137 0.924237 0.062476 150 150 150
1.077635 0.938229 0.003299 150 150 150
0.992347 1.138983 0.074225 150 150 150
0.962663 0.542898 0.021548 150 150 150
1.098082 0.617870 -0.205370 150 150 150
0.956374 1.274552 0.049378 150 150 150
1.046881 0.126504 -0.035545 150 150 150
1.177152 0.496259 0.193180 150 150 150
0.946862 1.331345 0.042214 150 150 150
0.985676 0.066852 -0.144399 150 150 150
1.204134 0.353123 0.165785 150 150 150
0.928977 1.551240 0.048908 150 150 150
0.862986 1.435155 0.081013 150 150 150
1.009343 1.460387 0.017092 150 150 150
0.869049 1.612010 -0.001432 150 150 150
0.755017 1.435852 0.146791 150 150 150
1.108423 1.505749 -0.026269 150 150 150
0.687240 1.196097 0.122974 150 150 150
1.299933 1.334381 -0.036436 150 150 150
0.663691 1.028601 -0.078684 150 150 150
1.452159 1.135518 -0.124350 150 150 150
0.681743 0.960002 -0.133254 150 150 150
1.483729 1.051216 -0.135026 150 150 150
