ply
format ascii 1.0
comment author: Greg Turk
comment object: another cube
element vertex 24
property float x
property float y
property float z
property uchar red
property uchar green
property uchar blue
element face 0
property list uchar int vertex_index
end_header
0.725059 0.995936 0.710216 150 150 150
0.665311 0.910962 0.688209 150 150 150
0.764864 0.904724 0.760861 150 150 150
0.695326 1.127687 0.732548 150 150 150
0.575328 0.544116 0.694445 150 150 150
0.921987 0.563614 0.691951 150 150 150
0.728117 1.266003 0.703212 150 150 150
0.357953 0.201987 0.842159 150 150 150
0.978735 0.144794 0.685423 150 150 150
0.738845 1.325026 0.700193 150 150 150
0.419623 0.079156 0.836131 150 150 150
1.072040 0.100657 0.580784 150 150 150
0.750742 1.541598 0.710683 150 150 150
0.689577 1.441538 0.645719 150 150 150
0.794737 1.440114 0.766263 150 150 150
0.775282 1.606647 0.643864 150 150 150
0.602299 1.451929 0.556460 150 150 150
0.852571 1.470648 0.866547 150 150 150
0.613121 1.224851 0.449699 150 150 150
0.852235 1.292336 1.048321 150 150 150
0.834740 1.107475 0.376166 150 150 150
0.985523 1.092075 1.154347 150 150 150
0.910447 1.060336 0.372959 150 150 150
1.017457 1.009060 1.169099 150 150 150
