ply
format ascii 1.0
comment author: Greg Turk
comment object: another cube
element vertex 24
property float x
property float y
property float z
property uchar red
property uchar green
property uchar blue
element face 0
property list uchar int vertex_index
end_header
0.970453 1.065251 0.528425 150 150 150
0.912554 0.986046 0.496861 150 150 150
1.022317 0.971423 0.559560 150 150 150
0.949099 1.180546 0.581018 150 150 150
1.069417 0.998287 0.148075 150 150 150
1.060837 0.584206 0.568586 150 150 150
0.958874 1.317311 0.534695 150 150 150
0.991879 0.633858 0.360898 150 150 150
1.005300 0.175456 0.656820 150 150 150
0.962317 1.379049 0.520551 150 150 150
1.014007 0.541790 0.258652 150 150 150
1.083200 0.090525 0.564907 150 150 150
1.003850 1.585726 0.512615 150 150 150
0.906750 1.501586 0.523804 150 150 150
1.060180 1.482869 0.513574 150 150 150
0.987158 1.645201 0.439215 150 150 150
0.803915 1.566216 0.572225 150 150 150
1.167932 1.501742 0.474465 150 150 150
0.620271 1.488132 0.723218 150 150 150
1.265434 1.351493 0.274330 150 150 150
0.396091 1.380282 0.796107 150 150 150
1.076547 1.420139 0.100302 150 150 150
0.343120 1.330152 0.843997 150 150 150
1.000885 1.445431 0.059090 150 150 150
