ply
format ascii 1.0
comment author: Greg Turk
comment object: another cube
element vertex 24
property float x
property float y
property float z
property uchar red
property uchar green
property uchar blue
element face 0
property list uchar int vertex_index
end_header
0.991636 1.040913 -0.026712 150 150 150
0.968146 0.945638 0.015713 150 150 150
1.053764 0.964597 -0.078723 150 150 150
0.995347 1.156964 0.026604 150 150 150
0.961063 0.562623 -0.018117 150 150 150
0.917058 0.804071 -0.396409 150 150 150
0.952242 1.295568 0.002776 150 150 150
1.049053 0.143703 -0.044073 150 150 150
1.147554 0.627128 -0.082675 150 150 150
0.940320 1.354402 -0.006136 150 150 150
0.988593 0.069589 -0.142665 150 150 150
1.173301 0.489181 -0.130364 150 150 150
0.918982 1.567605 0.003585 150 150 150
0.859533 1.454752 0.040002 150 150 150
0.997326 1.482760 -0.035953 150 150 150
0.852007 1.624976 -0.037699 150 150 150
0.748644 1.451583 0.099847 150 150 150
1.093815 1.541120 -0.074782 150 150 150
0.664211 1.233907 -0.000407 150 150 150
1.321219 1.421548 -0.070446 150 150 150
0.721000 1.224933 -0.257302 150 150 150
1.537024 1.290172 -0.149156 150 150 150
0.760635 1.203305 -0.335229 150 150 150
1.593829 1.219857 -0.152653 150 150 150
