ply
format ascii 1.0
comment author: Greg Turk
comment object: another cube
element vertex 24
property float x
property float y
property float z
property uchar red
property uchar green
property uchar blue
element face 0
property list uchar int vertex_index
end_header
0.349137 1.066585 0.836629 150 150 150
0.314478 0.971244 0.800842 150 150 150
0.386921 0.992148 0.908710 150 150 150
0.297055 1.177998 0.827380 150 150 150
0.351398 0.584958 0.788751 150 150 150
0.739066 1.022993 0.765504 150 150 150
0.341988 1.315714 0.794170 150 150 150
0.309992 0.165402 0.872547 150 150 150
0.457484 0.740829 0.921804 150 150 150
0.357368 1.374979 0.787493 150 150 150
0.410411 0.077866 0.840161 150 150 150
0.540276 0.617943 0.931570 150 150 150
0.353691 1.584976 0.762360 150 150 150
0.350943 1.473518 0.694000 150 150 150
0.354257 1.502376 0.850019 150 150 150
0.414072 1.645616 0.715765 150 150 150
0.357772 1.469840 0.567672 150 150 150
0.327549 1.565689 0.950358 150 150 150
0.548818 1.298817 0.538886 150 150 150
0.179132 1.477172 1.141004 150 150 150
0.708783 1.390103 0.729093 150 150 150
0.109049 1.392703 1.382475 150 150 150
0.753368 1.403613 0.806570 150 150 150
0.079090 1.332722 1.443271 150 150 150
