ply
format ascii 1.0
comment author: Greg Turk
comment object: another cube
element vertex 24
property float x
property float y
property float z
property uchar red
property uchar green
property uchar blue
element face 0
property list uchar int vertex_index
end_header
0.099040 0.979865 0.845145 150 150 150
0.089771 0.890534 0.792990 150 150 150
0.072188 0.896734 0.911878 150 150 150
0.062130 1.112268 0.824695 150 150 150
0.214579 0.531714 0.790835 150 150 150
-0.035420 0.535323 0.944683 150 150 150
0.097653 1.246498 0.804971 150 150 150
0.291632 0.116973 0.874282 150 150 150
-0.340414 0.252285 0.866982 150 150 150
0.104786 1.303781 0.800138 150 150 150
0.419234 0.071940 0.839574 150 150 150
-0.299275 0.115811 0.908053 150 150 150
0.109375 1.526522 0.791224 150 150 150
0.094262 1.413982 0.713969 150 150 150
0.111534 1.429407 0.872558 150 150 150
0.174411 1.590018 0.755382 150 150 150
0.032725 1.429883 0.602341 150 150 150
0.124799 1.457468 0.985771 150 150 150
-0.059853 1.224080 0.499038 150 150 150
0.137011 1.246708 1.136711 150 150 150
-0.057398 0.998506 0.364040 150 150 150
0.309482 1.049583 1.176502 150 150 150
-0.066172 0.913020 0.343649 150 150 150
0.362003 0.976667 1.168212 150 150 150
