ply
format ascii 1.0
comment author: Greg Turk
comment object: another cube
element vertex 24
property float x
property float y
property float z
property uchar red
property uchar green
property uchar blue
element face 0
property list uchar int vertex_index
end_header
0.057356 0.978140 0.844853 150 150 150
0.051643 0.888937 0.791711 150 150 150
0.027629 0.894540 0.909632 150 150 150
0.020065 1.110623 0.824553 150 150 150
0.196043 0.537430 0.791577 150 150 150
-0.097679 0.538228 0.931048 150 150 150
0.055273 1.245402 0.806977 150 150 150
0.283846 0.124631 0.873242 150 150 150
-0.368199 0.223171 0.848456 150 150 150
0.062167 1.303199 0.802791 150 150 150
0.412819 0.082734 0.837825 150 150 150
-0.311560 0.095811 0.899330 150 150 150
0.065947 1.525282 0.799536 150 150 150
0.050396 1.415367 0.720031 150 150 150
0.069198 1.426867 0.878050 150 150 150
0.130820 1.589682 0.765670 150 150 150
-0.016260 1.438643 0.612011 150 150 150
0.088540 1.452990 0.990667 150 150 150
-0.137676 1.252280 0.501315 150 150 150
0.132229 1.243617 1.140926 150 150 150
-0.174737 1.039967 0.351980 150 150 150
0.336171 1.074913 1.131562 150 150 150
-0.196632 0.958356 0.326749 150 150 150
0.398547 1.014575 1.107304 150 150 150
