ply
format ascii 1.0
comment author: Greg Turk
comment object: another cube
element vertex 24
property float x
property float y
property float z
property uchar red
property uchar green
property uchar blue
element face 0
property list uchar int vertex_index
end_header
-0.286735 1.079107 0.777200 150 150 150
-0.251588 1.002515 0.718123 150 150 150
-0.311361 0.983250 0.829065 150 150 150
-0.345615 1.190846 0.757704 150 150 150
0.100227 1.069625 0.856795 150 150 150
-0.316629 0.596093 0.868059 150 150 150
-0.303870 1.328912 0.769452 150 150 150
-0.056047 0.671569 0.814559 150 150 150
-0.420248 0.191094 0.813179 150 150 150
-0.292760 1.390734 0.773814 150 150 150
0.051813 0.586245 0.837509 150 150 150
-0.333623 0.094821 0.883098 150 150 150
-0.288723 1.597261 0.815763 150 150 150
-0.300397 1.513380 0.718105 150 150 150
-0.287826 1.493621 0.872083 150 150 150
-0.217498 1.658102 0.796914 150 150 150
-0.353306 1.575778 0.615042 150 150 150
-0.253708 1.512913 0.983416 150 150 150
-0.515542 1.505599 0.436230 150 150 150
-0.084288 1.360394 1.122818 150 150 150
-0.595899 1.410759 0.208485 150 150 150
0.109631 1.399656 0.946040 150 150 150
-0.640172 1.360098 0.152413 150 150 150
0.157762 1.413743 0.871408 150 150 150
