ply
format ascii 1.0
comment author: Greg Turk
comment object: another cube
element vertex 24
property float x
property float y
property float z
property uchar red
property uchar green
property uchar blue
element face 0
property list uchar int vertex_index
end_header
0.363761 1.011567 -0.547300 150 150 150
0.383829 0.926223 -0.489401 150 150 150
0.380974 0.921642 -0.610284 150 150 150
0.400677 1.147165 -0.539599 150 150 150
0.390782 0.555298 -0.428389 150 150 150
0.381308 0.546971 -0.652816 150 150 150
0.373284 1.284880 -0.533595 150 150 150
0.392266 0.125292 -0.413466 150 150 150
0.478605 0.134552 -0.642215 150 150 150
0.371822 1.342086 -0.536145 150 150 150
0.278886 0.053221 -0.373039 150 150 150
0.351644 0.064679 -0.674289 150 150 150
0.394662 1.567932 -0.542950 150 150 150
0.380207 1.459427 -0.456300 150 150 150
0.391805 1.461931 -0.618433 150 150 150
0.335189 1.642626 -0.528371 150 150 150
0.420159 1.459596 -0.336081 150 150 150
0.420012 1.466304 -0.732267 150 150 150
0.424460 1.217400 -0.293735 150 150 150
0.420439 1.213912 -0.764791 150 150 150
0.339208 0.973574 -0.239553 150 150 150
0.344081 0.970387 -0.842581 150 150 150
0.330181 0.885783 -0.244104 150 150 150
0.309461 0.887172 -0.846934 150 150 150
