ply
format ascii 1.0
comment author: Greg Turk
comment object: another cube
element vertex 24
property float x
property float y
property float z
property uchar red
property uchar green
property uchar blue
element face 0
property list uchar int vertex_index
end_header
0.366489 1.012825 -0.545215 150 150 150
0.386403 0.927316 -0.487443 150 150 150
0.384511 0.923104 -0.608365 150 150 150
0.402754 1.148437 -0.536722 150 150 150
0.393621 0.556173 -0.427260 150 150 150
0.383381 0.548518 -0.652176 150 150 150
0.374485 1.285969 -0.530469 150 150 150
0.392819 0.126143 -0.412442 150 150 150
0.478572 0.135580 -0.641713 150 150 150
0.372932 1.343173 -0.533000 150 150 150
0.279593 0.053426 -0.372547 150 150 150
0.351887 0.065675 -0.674610 150 150 150
0.395942 1.569032 -0.539997 150 150 150
0.380492 1.460634 -0.453173 150 150 150
0.393931 1.462868 -0.615106 150 150 150
0.336035 1.643485 -0.525235 150 150 150
0.419436 1.460779 -0.332694 150 150 150
0.423976 1.466731 -0.728615 150 150 150
0.423681 1.218528 -0.290853 150 150 150
0.421257 1.214381 -0.761352 150 150 150
0.346794 0.972055 -0.235437 150 150 150
0.345799 0.970943 -0.840462 150 150 150
0.341304 0.883990 -0.239567 150 150 150
0.310691 0.887953 -0.845038 150 150 150
