ply
format ascii 1.0
comment author: Greg Turk
comment object: another cube
element vertex 24
property float x
property float y
property float z
property uchar red
property uchar green
property uchar blue
element face 0
property list uchar int vertex_index
end_header
0.369607 1.012853 -0.539281 150 150 150
0.389256 0.926902 -0.482177 150 150 150
0.387298 0.923562 -0.603124 150 150 150
0.406351 1.148082 -0.529565 150 150 150
0.396400 0.555319 -0.424385 150 150 150
0.384317 0.549289 -0.650625 150 150 150
0.378172 1.285974 -0.523514 150 150 150
0.391354 0.125242 -0.411708 150 150 150
0.477772 0.136026 -0.642354 150 150 150
0.376439 1.343421 -0.526100 150 150 150
0.277808 0.052845 -0.372613 150 150 150
0.351582 0.064573 -0.674062 150 150 150
0.399837 1.568441 -0.534746 150 150 150
0.383796 1.461135 -0.447104 150 150 150
0.397634 1.462312 -0.609001 150 150 150
0.340238 1.642977 -0.518668 150 150 150
0.417496 1.462757 -0.325310 150 150 150
0.426549 1.467338 -0.722728 150 150 150
0.413266 1.220506 -0.281998 150 150 150
0.434044 1.215772 -0.759489 150 150 150
0.325926 0.977033 -0.229259 150 150 150
0.354935 0.974458 -0.840022 150 150 150
0.317524 0.889194 -0.232701 150 150 150
0.320498 0.891238 -0.844141 150 150 150
