ply
format ascii 1.0
comment author: Greg Turk
comment object: another cube
element vertex 24
property float x
property float y
property float z
property uchar red
property uchar green
property uchar blue
element face 0
property list uchar int vertex_index
end_header
0.490453 1.047657 -0.575902 150 150 150
0.496619 0.968296 -0.508865 150 150 150
0.494590 0.951375 -0.630253 150 150 150
0.542924 1.170302 -0.585848 150 150 150
0.230270 0.703571 -0.437430 150 150 150
0.429375 0.572897 -0.662232 150 150 150
0.503603 1.306175 -0.584353 150 150 150
0.473976 0.350265 -0.413293 150 150 150
0.475366 0.152325 -0.653266 150 150 150
0.491893 1.364522 -0.587839 150 150 150
0.375468 0.254719 -0.388025 150 150 150
0.350490 0.076875 -0.669929 150 150 150
0.478786 1.579582 -0.623907 150 150 150
0.504643 1.488231 -0.527963 150 150 150
0.471355 1.470864 -0.683981 150 150 150
0.410089 1.642188 -0.594619 150 150 150
0.559790 1.531367 -0.417997 150 150 150
0.434979 1.474889 -0.796679 150 150 150
0.694023 1.395561 -0.252380 150 150 150
0.347073 1.251805 -0.901291 150 150 150
0.725692 1.212236 -0.071483 150 150 150
0.109904 1.245947 -0.787756 150 150 150
0.754504 1.141989 -0.027560 150 150 150
0.039153 1.255646 -0.733638 150 150 150
