ply
format ascii 1.0
comment author: Greg Turk
comment object: another cube
element vertex 24
property float x
property float y
property float z
property uchar red
property uchar green
property uchar blue
element face 0
property list uchar int vertex_index
end_header
0.367753 1.013450 -0.543528 150 150 150
0.387650 0.927806 -0.485929 150 150 150
0.385966 0.923858 -0.606844 150 150 150
0.403831 1.149021 -0.534621 150 150 150
0.394754 0.556546 -0.426342 150 150 150
0.384312 0.549336 -0.651761 150 150 150
0.375344 1.286628 -0.528284 150 150 150
0.392795 0.126505 -0.412163 150 150 150
0.478289 0.136139 -0.641662 150 150 150
0.373843 1.343932 -0.530826 150 150 150
0.279781 0.053271 -0.372592 150 150 150
0.352059 0.065318 -0.674327 150 150 150
0.397404 1.569517 -0.538477 150 150 150
0.381447 1.461559 -0.451311 150 150 150
0.395315 1.463269 -0.613137 150 150 150
0.337579 1.643985 -0.523220 150 150 150
0.419316 1.462363 -0.330594 150 150 150
0.425616 1.467179 -0.726624 150 150 150
0.422136 1.220229 -0.288047 150 150 150
0.423320 1.214982 -0.759984 150 150 150
0.347684 0.973343 -0.230965 150 150 150
0.344258 0.972735 -0.838840 150 150 150
0.343539 0.885217 -0.234251 150 150 150
0.308094 0.890208 -0.842905 150 150 150
