ply
format ascii 1.0
comment author: Greg Turk
comment object: another cube
element vertex 24
property float x
property float y
property float z
property uchar red
property uchar green
property uchar blue
element face 0
property list uchar int vertex_index
end_header
0.370404 1.012611 -0.537645 150 150 150
0.390252 0.926511 -0.480839 150 150 150
0.387933 0.923536 -0.601813 150 150 150
0.407176 1.147804 -0.527608 150 150 150
0.397883 0.554809 -0.424029 150 150 150
0.384843 0.549362 -0.649914 150 150 150
0.378973 1.285782 -0.521406 150 150 150
0.391062 0.124790 -0.412090 150 150 150
0.477672 0.135978 -0.641939 150 150 150
0.377144 1.343296 -0.523933 150 150 150
0.277215 0.053118 -0.372871 150 150 150
0.351445 0.064760 -0.674276 150 150 150
0.400201 1.568181 -0.532406 150 150 150
0.384602 1.460910 -0.444956 150 150 150
0.397892 1.462260 -0.606812 150 150 150
0.340765 1.642824 -0.516648 150 150 150
0.418309 1.462884 -0.323236 150 150 150
0.426677 1.468300 -0.720443 150 150 150
0.412326 1.220640 -0.280658 150 150 150
0.438959 1.217321 -0.759565 150 150 150
0.314748 0.980192 -0.233425 150 150 150
0.365111 0.974991 -0.841861 150 150 150
0.302748 0.892800 -0.238239 150 150 150
0.333624 0.890643 -0.846517 150 150 150
