ply
format ascii 1.0
comment author: Greg Turk
comment object: another cube
element vertex 24
property float x
property float y
property float z
property uchar red
property uchar green
property uchar blue
element face 0
property list uchar int vertex_index
end_header
0.362645 1.010925 -0.549558 150 150 150
0.382132 0.925546 -0.491540 150 150 150
0.380018 0.920949 -0.612419 150 150 150
0.399874 1.146449 -0.541744 150 150 150
0.386736 0.554673 -0.429580 150 150 150
0.380687 0.546179 -0.653908 150 150 150
0.372869 1.284266 -0.535873 150 150 150
0.391842 0.124736 -0.413391 150 150 150
0.478388 0.133870 -0.641747 150 150 150
0.371657 1.341525 -0.538485 150 150 150
0.278960 0.051943 -0.373019 150 150 150
0.351382 0.064388 -0.674409 150 150 150
0.394981 1.567263 -0.545750 150 150 150
0.380273 1.459133 -0.458982 150 150 150
0.392032 1.461090 -0.620963 150 150 150
0.335873 1.642172 -0.530903 150 150 150
0.420703 1.460654 -0.338909 150 150 150
0.420268 1.465227 -0.734813 150 150 150
0.425527 1.219389 -0.291859 150 150 150
0.419966 1.212870 -0.768147 150 150 150
0.337176 0.977625 -0.234036 150 150 150
0.339758 0.971227 -0.847824 150 150 150
0.326899 0.889922 -0.237576 150 150 150
0.303675 0.888688 -0.853156 150 150 150
