ply
format ascii 1.0
comment author: Greg Turk
comment object: another cube
element vertex 24
property float x
property float y
property float z
property uchar red
property uchar green
property uchar blue
element face 0
property list uchar int vertex_index
end_header
0.372463 1.011890 -0.532944 150 150 150
0.392939 0.925279 -0.476985 150 150 150
0.388736 0.923319 -0.598076 150 150 150
0.409978 1.147060 -0.522754 150 150 150
0.399393 0.553470 -0.421737 150 150 150
0.386425 0.549554 -0.648503 150 150 150
0.382300 1.285404 -0.515586 150 150 150
0.388285 0.123705 -0.412135 150 150 150
0.478275 0.135992 -0.641237 150 150 150
0.380477 1.343167 -0.517838 150 150 150
0.273472 0.053802 -0.373224 150 150 150
0.352263 0.064708 -0.674699 150 150 150
0.402071 1.567772 -0.526666 150 150 150
0.391429 1.460743 -0.439537 150 150 150
0.396732 1.462373 -0.601208 150 150 150
0.343046 1.642352 -0.510636 150 150 150
0.433654 1.464553 -0.320866 150 150 150
0.420130 1.471086 -0.715619 150 150 150
0.424416 1.223206 -0.279300 150 150 150
0.435351 1.221314 -0.761310 150 150 150
0.302211 0.993830 -0.237207 150 150 150
0.381377 0.973181 -0.842668 150 150 150
0.279464 0.908728 -0.245424 150 150 150
0.360505 0.885481 -0.845657 150 150 150
