ply
format ascii 1.0
comment author: Greg Turk
comment object: another cube
element vertex 24
property float x
property float y
property float z
property uchar red
property uchar green
property uchar blue
element face 0
property list uchar int vertex_index
end_header
0.366952 1.013098 -0.544702 150 150 150
0.386824 0.927535 -0.486986 150 150 150
0.385106 0.923429 -0.607908 150 150 150
0.403123 1.148702 -0.536022 150 150 150
0.393964 0.556348 -0.427011 150 150 150
0.383885 0.548866 -0.652086 150 150 150
0.374753 1.286240 -0.529714 150 150 150
0.392911 0.126315 -0.412416 150 150 150
0.478553 0.135809 -0.641650 150 150 150
0.373225 1.343468 -0.532250 150 150 150
0.279798 0.053416 -0.372521 150 150 150
0.352066 0.065507 -0.674440 150 150 150
0.396434 1.569268 -0.539454 150 150 150
0.380738 1.461003 -0.452521 150 150 150
0.394475 1.463046 -0.614398 150 150 150
0.336524 1.643715 -0.524598 150 150 150
0.419378 1.461330 -0.331989 150 150 150
0.424791 1.466820 -0.727854 150 150 150
0.423317 1.219114 -0.290058 150 150 150
0.421658 1.214500 -0.760640 150 150 150
0.347702 0.972406 -0.233883 150 150 150
0.345273 0.971415 -0.839882 150 150 150
0.342815 0.884309 -0.237655 150 150 150
0.309883 0.888552 -0.844412 150 150 150
