ply
format ascii 1.0
comment author: Greg Turk
comment object: another cube
element vertex 24
property float x
property float y
property float z
property uchar red
property uchar green
property uchar blue
element face 0
property list uchar int vertex_index
end_header
0.377193 1.011290 -0.536918 150 150 150
0.397286 0.923916 -0.481884 150 150 150
0.391573 0.923105 -0.602875 150 150 150
0.416695 1.146067 -0.526858 150 150 150
0.393951 0.552286 -0.426202 150 150 150
0.390531 0.549356 -0.653358 150 150 150
0.389841 1.284895 -0.517517 150 150 150
0.386371 0.122660 -0.413666 150 150 150
0.479768 0.135390 -0.643362 150 150 150
0.387809 1.343327 -0.518637 150 150 150
0.271130 0.053411 -0.374411 150 150 150
0.352742 0.065132 -0.674834 150 150 150
0.407115 1.567196 -0.527194 150 150 150
0.403043 1.460552 -0.440856 150 150 150
0.397411 1.463041 -0.601788 150 150 150
0.349197 1.641458 -0.507616 150 150 150
0.454313 1.469047 -0.326208 150 150 150
0.407740 1.474436 -0.717084 150 150 150
0.458572 1.229918 -0.275260 150 150 150
0.413962 1.224055 -0.760658 150 150 150
0.358930 0.996358 -0.206125 150 150 150
0.330499 0.979233 -0.823683 150 150 150
0.342516 0.909609 -0.206042 150 150 150
0.302843 0.893493 -0.821354 150 150 150
