ply
format ascii 1.0
comment author: Greg Turk
comment object: another cube
element vertex 24
property float x
property float y
property float z
property uchar red
property uchar green
property uchar blue
element face 0
property list uchar int vertex_index
end_header
0.373713 1.011331 -0.533569 150 150 150
0.394034 0.924424 -0.477943 150 150 150
0.389296 0.922921 -0.599037 150 150 150
0.412041 1.146420 -0.523394 150 150 150
0.398060 0.552669 -0.423063 150 150 150
0.388394 0.549283 -0.649878 150 150 150
0.384881 1.285005 -0.515513 150 150 150
0.387469 0.122952 -0.412650 150 150 150
0.478369 0.135363 -0.642666 150 150 150
0.382975 1.342968 -0.517341 150 150 150
0.272144 0.053919 -0.373645 150 150 150
0.351882 0.064367 -0.674935 150 150 150
0.403777 1.567369 -0.525720 150 150 150
0.396030 1.460264 -0.439065 150 150 150
0.396342 1.462567 -0.600508 150 150 150
0.345217 1.641828 -0.508139 150 150 150
0.442542 1.464995 -0.322175 150 150 150
0.414523 1.472730 -0.715508 150 150 150
0.433961 1.224179 -0.279582 150 150 150
0.426833 1.222942 -0.761888 150 150 150
0.313497 0.995371 -0.229723 150 150 150
0.373816 0.972722 -0.837586 150 150 150
0.290233 0.910263 -0.236051 150 150 150
0.355256 0.884459 -0.838219 150 150 150
