ply
format ascii 1.0
comment author: Greg Turk
comment object: another cube
element vertex 24
property float x
property float y
property float z
property uchar red
property uchar green
property uchar blue
element face 0
property list uchar int vertex_index
end_header
0.368150 1.013493 -0.542846 150 150 150
0.388056 0.927820 -0.485301 150 150 150
0.386310 0.923925 -0.606215 150 150 150
0.404256 1.149025 -0.533862 150 150 150
0.395063 0.556517 -0.425856 150 150 150
0.384262 0.549431 -0.651644 150 150 150
0.375735 1.286686 -0.527576 150 150 150
0.392459 0.126468 -0.412113 150 150 150
0.477859 0.136171 -0.641774 150 150 150
0.374217 1.344034 -0.530137 150 150 150
0.279401 0.053276 -0.372605 150 150 150
0.351703 0.065159 -0.674324 150 150 150
0.397818 1.569483 -0.538061 150 150 150
0.381788 1.461708 -0.450762 150 150 150
0.395708 1.463234 -0.612574 150 150 150
0.338009 1.643935 -0.522573 150 150 150
0.419008 1.462853 -0.329858 150 150 150
0.425850 1.467302 -0.726118 150 150 150
0.421046 1.220802 -0.286574 150 150 150
0.424720 1.215200 -0.760093 150 150 150
0.346341 0.973950 -0.229573 150 150 150
0.344315 0.973370 -0.838662 150 150 150
0.342235 0.885826 -0.232892 150 150 150
0.307743 0.891019 -0.842407 150 150 150
