ply
format ascii 1.0
comment author: Greg Turk
comment object: another cube
element vertex 24
property float x
property float y
property float z
property uchar red
property uchar green
property uchar blue
element face 0
property list uchar int vertex_index
end_header
0.392245 1.015052 -0.549002 150 150 150
0.412258 0.928005 -0.493518 150 150 150
0.400991 0.925311 -0.613831 150 150 150
0.435621 1.148473 -0.543916 150 150 150
0.388085 0.557647 -0.426966 150 150 150
0.392364 0.550451 -0.663072 150 150 150
0.409355 1.287398 -0.534543 150 150 150
0.389964 0.127854 -0.410565 150 150 150
0.480059 0.136468 -0.647940 150 150 150
0.406843 1.346236 -0.536568 150 150 150
0.278983 0.051048 -0.371726 150 150 150
0.352964 0.065195 -0.674219 150 150 150
0.420699 1.568259 -0.555485 150 150 150
0.425165 1.465973 -0.464922 150 150 150
0.409270 1.462104 -0.625037 150 150 150
0.360462 1.640390 -0.534800 150 150 150
0.483631 1.486998 -0.353713 150 150 150
0.403313 1.470639 -0.741065 150 150 150
0.553786 1.269989 -0.258217 150 150 150
0.381791 1.224694 -0.810380 150 150 150
0.532673 1.037706 -0.139771 150 150 150
0.172102 1.064963 -0.807316 150 150 150
0.540897 0.952443 -0.119223 150 150 150
0.099952 1.015523 -0.786606 150 150 150
