ply
format ascii 1.0
comment author: Greg Turk
comment object: another cube
element vertex 24
property float x
property float y
property float z
property uchar red
property uchar green
property uchar blue
element face 0
property list uchar int vertex_index
end_header
0.454345 1.041805 -0.578427 150 150 150
0.463718 0.959512 -0.514884 150 150 150
0.458067 0.947059 -0.635263 150 150 150
0.505972 1.167882 -0.585387 150 150 150
0.262582 0.645593 -0.434112 150 150 150
0.408075 0.568924 -0.668770 150 150 150
0.470530 1.304759 -0.579891 150 150 150
0.412798 0.242098 -0.415719 150 150 150
0.475872 0.150673 -0.653250 150 150 150
0.461675 1.363371 -0.582705 150 150 150
0.312080 0.148644 -0.388916 150 150 150
0.351873 0.073919 -0.671412 150 150 150
0.454516 1.580584 -0.614274 150 150 150
0.477552 1.486230 -0.520176 150 150 150
0.445201 1.472423 -0.676883 150 150 150
0.388292 1.645736 -0.585790 150 150 150
0.539510 1.525910 -0.412684 150 150 150
0.412926 1.476149 -0.790548 150 150 150
0.679780 1.381707 -0.260711 150 150 150
0.333149 1.248978 -0.891573 150 150 150
0.713209 1.189248 -0.089839 150 150 150
0.093034 1.238243 -0.785428 150 150 150
0.740173 1.115321 -0.050437 150 150 150
0.020832 1.248097 -0.733303 150 150 150
