ply
format ascii 1.0
comment author: Greg Turk
comment object: another cube
element vertex 24
property float x
property float y
property float z
property uchar red
property uchar green
property uchar blue
element face 0
property list uchar int vertex_index
end_header
0.372168 1.012071 -0.533440 150 150 150
0.392618 0.925576 -0.477328 150 150 150
0.388784 0.923422 -0.598395 150 150 150
0.409343 1.147255 -0.523220 150 150 150
0.399338 0.553751 -0.421700 150 150 150
0.385690 0.549550 -0.648311 150 150 150
0.381334 1.285490 -0.516322 150 150 150
0.388611 0.123947 -0.411945 150 150 150
0.478083 0.136088 -0.640664 150 150 150
0.379509 1.343196 -0.518691 150 150 150
0.274226 0.053264 -0.373148 150 150 150
0.352190 0.064762 -0.674435 150 150 150
0.401421 1.567848 -0.527547 150 150 150
0.389385 1.460846 -0.440305 150 150 150
0.397069 1.462270 -0.602028 150 150 150
0.342286 1.642507 -0.511998 150 150 150
0.429283 1.464377 -0.320749 150 150 150
0.422506 1.470353 -0.716130 150 150 150
0.420687 1.222822 -0.279005 150 150 150
0.438603 1.220464 -0.760744 150 150 150
0.300888 0.991868 -0.238587 150 150 150
0.380814 0.973876 -0.843854 150 150 150
0.279556 0.906426 -0.246916 150 150 150
0.357718 0.886785 -0.847886 150 150 150
