ply
format ascii 1.0
comment author: Greg Turk
comment object: another cube
element vertex 24
property float x
property float y
property float z
property uchar red
property uchar green
property uchar blue
element face 0
property list uchar int vertex_index
end_header
0.467228 1.044686 -0.579720 150 150 150
0.475485 0.963473 -0.514928 150 150 150
0.470797 0.949399 -0.635645 150 150 150
0.519198 1.169339 -0.588052 150 150 150
0.245036 0.669161 -0.436105 150 150 150
0.414883 0.570939 -0.667966 150 150 150
0.482137 1.305730 -0.583374 150 150 150
0.428306 0.279936 -0.416067 150 150 150
0.475566 0.151779 -0.653834 150 150 150
0.472121 1.364206 -0.586239 150 150 150
0.327899 0.186096 -0.390071 150 150 150
0.351477 0.075095 -0.671098 150 150 150
0.462272 1.580657 -0.619262 150 150 150
0.487156 1.487379 -0.524722 150 150 150
0.453383 1.472271 -0.680970 150 150 150
0.395189 1.644906 -0.590058 150 150 150
0.547565 1.528733 -0.416795 150 150 150
0.418729 1.475877 -0.794095 150 150 150
0.688479 1.390355 -0.259428 150 150 150
0.334367 1.250841 -0.896768 150 150 150
0.722860 1.202085 -0.084263 150 150 150
0.096811 1.247957 -0.784347 150 150 150
0.750916 1.129653 -0.043087 150 150 150
0.026106 1.260152 -0.730701 150 150 150
