ply
format ascii 1.0
comment author: Greg Turk
comment object: another cube
element vertex 24
property float x
property float y
property float z
property uchar red
property uchar green
property uchar blue
element face 0
property list uchar int vertex_index
end_header
0.424658 1.032500 -0.570380 150 150 150
0.437677 0.947999 -0.509860 150 150 150
0.429271 0.939186 -0.629764 150 150 150
0.474549 1.161896 -0.573656 150 150 150
0.313976 0.598304 -0.429089 150 150 150
0.397504 0.561820 -0.666720 150 150 150
0.444405 1.300066 -0.566922 150 150 150
0.394485 0.175392 -0.410782 150 150 150
0.477174 0.145593 -0.651143 150 150 150
0.438886 1.358937 -0.569919 150 150 150
0.291404 0.086375 -0.377445 150 150 150
0.352339 0.070163 -0.671784 150 150 150
0.440871 1.577939 -0.598660 150 150 150
0.457454 1.481114 -0.505189 150 150 150
0.429923 1.470070 -0.663007 150 150 150
0.376936 1.645698 -0.572897 150 150 150
0.521550 1.516081 -0.398156 150 150 150
0.405721 1.474841 -0.778127 150 150 150
0.650956 1.351733 -0.259877 150 150 150
0.340681 1.241732 -0.873316 150 150 150
0.676888 1.148419 -0.100067 150 150 150
0.095530 1.195542 -0.791081 150 150 150
0.700056 1.071100 -0.064756 150 150 150
0.018441 1.192397 -0.745427 150 150 150
