ply
format ascii 1.0
comment author: Greg Turk
comment object: another cube
element vertex 24
property float x
property float y
property float z
property uchar red
property uchar green
property uchar blue
element face 0
property list uchar int vertex_index
end_header
0.365191 1.012258 -0.546155 150 150 150
0.385212 0.926854 -0.488287 150 150 150
0.382772 0.922409 -0.609196 150 150 150
0.401794 1.147868 -0.538124 150 150 150
0.392799 0.555832 -0.427754 150 150 150
0.382112 0.547778 -0.652289 150 150 150
0.373939 1.285474 -0.531996 150 150 150
0.392838 0.125806 -0.412729 150 150 150
0.478645 0.135162 -0.642031 150 150 150
0.372401 1.342665 -0.534514 150 150 150
0.279390 0.053523 -0.372739 150 150 150
0.351759 0.065523 -0.674817 150 150 150
0.395192 1.568551 -0.541194 150 150 150
0.380299 1.459973 -0.454551 150 150 150
0.392849 1.462536 -0.616599 150 150 150
0.335380 1.643038 -0.526539 150 150 150
0.419794 1.459887 -0.334198 150 150 150
0.422060 1.466772 -0.730254 150 150 150
0.424105 1.217570 -0.292534 150 150 150
0.420835 1.214419 -0.763072 150 150 150
0.343698 0.972075 -0.237989 150 150 150
0.346103 0.970497 -0.841384 150 150 150
0.336641 0.884107 -0.242337 150 150 150
0.311569 0.887250 -0.845824 150 150 150
