ply
format ascii 1.0
comment author: Greg Turk
comment object: another cube
element vertex 24
property float x
property float y
property float z
property uchar red
property uchar green
property uchar blue
element face 0
property list uchar int vertex_index
end_header
0.369253 1.013026 -0.540108 150 150 150
0.388923 0.927123 -0.482919 150 150 150
0.387061 0.923674 -0.603852 150 150 150
0.405863 1.148313 -0.530506 150 150 150
0.396057 0.555598 -0.424800 150 150 150
0.384143 0.549354 -0.651012 150 150 150
0.377616 1.286156 -0.524415 150 150 150
0.391609 0.125521 -0.411785 150 150 150
0.477398 0.136040 -0.642401 150 150 150
0.375947 1.343585 -0.527007 150 150 150
0.278227 0.052870 -0.372549 150 150 150
0.351294 0.064384 -0.673887 150 150 150
0.399524 1.568678 -0.535640 150 150 150
0.383388 1.461337 -0.447981 150 150 150
0.397295 1.462472 -0.609867 150 150 150
0.339881 1.643188 -0.519562 150 150 150
0.417665 1.462872 -0.326329 150 150 150
0.426423 1.467127 -0.723580 150 150 150
0.414710 1.220661 -0.282884 150 150 150
0.431763 1.215352 -0.759237 150 150 150
0.331344 0.976171 -0.228156 150 150 150
0.350943 0.974341 -0.839075 150 150 150
0.324245 0.888219 -0.231251 150 150 150
0.315459 0.891551 -0.843023 150 150 150
