ply
format ascii 1.0
comment author: Greg Turk
comment object: another cube
element vertex 24
property float x
property float y
property float z
property uchar red
property uchar green
property uchar blue
element face 0
property list uchar int vertex_index
end_header
0.362834 1.011125 -0.548914 150 150 150
0.382503 0.925767 -0.490930 150 150 150
0.380114 0.921160 -0.611802 150 150 150
0.400001 1.146663 -0.541175 150 150 150
0.387682 0.554886 -0.429191 150 150 150
0.380847 0.546420 -0.653601 150 150 150
0.372938 1.284449 -0.535248 150 150 150
0.391939 0.124929 -0.413552 150 150 150
0.478333 0.134058 -0.641922 150 150 150
0.371661 1.341684 -0.537841 150 150 150
0.278903 0.052354 -0.373176 150 150 150
0.351366 0.064477 -0.674563 150 150 150
0.394891 1.567465 -0.544986 150 150 150
0.380227 1.459228 -0.458244 150 150 150
0.391922 1.461324 -0.620292 150 150 150
0.335722 1.642355 -0.530263 150 150 150
0.420391 1.460346 -0.338086 150 150 150
0.420058 1.465454 -0.734144 150 150 150
0.425128 1.218765 -0.292538 150 150 150
0.420140 1.213034 -0.766795 150 150 150
0.337430 0.976356 -0.236333 150 150 150
0.340564 0.970971 -0.845846 150 150 150
0.327382 0.888643 -0.240318 150 150 150
0.304803 0.888283 -0.851058 150 150 150
