ply
format ascii 1.0
comment author: Greg Turk
comment object: another cube
element vertex 24
property float x
property float y
property float z
property uchar red
property uchar green
property uchar blue
element face 0
property list uchar int vertex_index
end_header
0.363466 1.011463 -0.547726 150 150 150
0.383456 0.926125 -0.489803 150 150 150
0.380661 0.921523 -0.610678 150 150 150
0.400453 1.147041 -0.540055 150 150 150
0.389708 0.555212 -0.428566 150 150 150
0.381031 0.546832 -0.653035 150 150 150
0.373143 1.284762 -0.534077 150 150 150
0.392138 0.125217 -0.413527 150 150 150
0.478406 0.134424 -0.642213 150 150 150
0.371726 1.341967 -0.536645 150 150 150
0.278867 0.052952 -0.373181 150 150 150
0.351490 0.064576 -0.674502 150 150 150
0.394708 1.567807 -0.543582 150 150 150
0.380208 1.459376 -0.456880 150 150 150
0.391756 1.461746 -0.619018 150 150 150
0.335360 1.642596 -0.528983 150 150 150
0.420200 1.459739 -0.336674 150 150 150
0.419874 1.465962 -0.732866 150 150 150
0.424632 1.217660 -0.293680 150 150 150
0.420429 1.213524 -0.765026 150 150 150
0.338373 0.974330 -0.239028 150 150 150
0.342876 0.970526 -0.843198 150 150 150
0.328940 0.886577 -0.243477 150 150 150
0.307875 0.887485 -0.847812 150 150 150
