ply
format ascii 1.0
comment author: Greg Turk
comment object: another cube
element vertex 24
property float x
property float y
property float z
property uchar red
property uchar green
property uchar blue
element face 0
property list uchar int vertex_index
end_header
0.412397 1.026659 -0.564380 150 150 150
0.427888 0.941237 -0.505497 150 150 150
0.417702 0.934263 -0.625354 150 150 150
0.460631 1.157555 -0.565542 150 150 150
0.342283 0.580612 -0.427715 150 150 150
0.394376 0.557520 -0.665192 150 150 150
0.432593 1.296165 -0.558213 150 150 150
0.391775 0.153161 -0.409790 150 150 150
0.478239 0.142274 -0.649830 150 150 150
0.428472 1.355074 -0.561229 150 150 150
0.286758 0.067598 -0.373077 150 150 150
0.352556 0.068266 -0.672028 150 150 150
0.434789 1.574927 -0.588254 150 150 150
0.447911 1.476828 -0.495158 150 150 150
0.423190 1.467249 -0.653565 150 150 150
0.372060 1.644145 -0.564198 150 150 150
0.512064 1.508761 -0.387827 150 150 150
0.403810 1.472772 -0.769255 150 150 150
0.630930 1.330988 -0.258593 150 150 150
0.349145 1.236144 -0.859879 150 150 150
0.649192 1.120702 -0.106420 150 150 150
0.104869 1.164242 -0.795180 150 150 150
0.669585 1.041360 -0.073975 150 150 150
0.025962 1.150952 -0.754650 150 150 150
