ply
format ascii 1.0
comment author: Greg Turk
comment object: another cube
element vertex 24
property float x
property float y
property float z
property uchar red
property uchar green
property uchar blue
element face 0
property list uchar int vertex_index
end_header
0.380229 1.012088 -0.540516 150 150 150
0.399978 0.924500 -0.485720 150 150 150
0.392735 0.923659 -0.606532 150 150 150
0.421439 1.146518 -0.531350 150 150 150
0.391970 0.553215 -0.427484 150 150 150
0.391224 0.549806 -0.657150 150 150 150
0.395538 1.285722 -0.521533 150 150 150
0.386038 0.123648 -0.413163 150 150 150
0.480181 0.135905 -0.645046 150 150 150
0.393571 1.344559 -0.522587 150 150 150
0.272111 0.052092 -0.373771 150 150 150
0.352959 0.065541 -0.674950 150 150 150
0.411376 1.567714 -0.533533 150 150 150
0.409907 1.462324 -0.446336 150 150 150
0.400814 1.463432 -0.606901 150 150 150
0.352827 1.641094 -0.513385 150 150 150
0.463555 1.475332 -0.332939 150 150 150
0.405298 1.474952 -0.722290 150 150 150
0.487007 1.239827 -0.269843 150 150 150
0.404238 1.224976 -0.769980 150 150 150
0.411761 1.002786 -0.185388 150 150 150
0.274389 0.998287 -0.815573 150 150 150
0.404535 0.915111 -0.179923 150 150 150
0.230744 0.919954 -0.807729 150 150 150
