ply
format ascii 1.0
comment author: Greg Turk
comment object: another cube
element vertex 24
property float x
property float y
property float z
property uchar red
property uchar green
property uchar blue
element face 0
property list uchar int vertex_index
end_header
0.368968 1.013210 -0.540896 150 150 150
0.388706 0.927362 -0.483625 150 150 150
0.386877 0.923802 -0.604547 150 150 150
0.405422 1.148560 -0.531433 150 150 150
0.395849 0.555895 -0.425139 150 150 150
0.384031 0.549433 -0.651338 150 150 150
0.377081 1.286351 -0.525261 150 150 150
0.391916 0.125822 -0.412020 150 150 150
0.477044 0.136067 -0.642149 150 150 150
0.375461 1.343766 -0.527847 150 150 150
0.278680 0.052956 -0.372641 150 150 150
0.351071 0.064269 -0.673764 150 150 150
0.399107 1.568935 -0.536383 150 150 150
0.382954 1.461527 -0.448764 150 150 150
0.396896 1.462685 -0.610627 150 150 150
0.339406 1.643414 -0.520390 150 150 150
0.417940 1.463033 -0.327288 150 150 150
0.426305 1.467097 -0.724302 150 150 150
0.416487 1.220895 -0.283614 150 150 150
0.429951 1.215200 -0.759269 150 150 150
0.336318 0.975574 -0.227678 150 150 150
0.348074 0.974318 -0.838522 150 150 150
0.330349 0.887546 -0.230686 150 150 150
0.311846 0.891838 -0.842256 150 150 150
