ply
format ascii 1.0
comment author: Greg Turk
comment object: another cube
element vertex 24
property float x
property float y
property float z
property uchar red
property uchar green
property uchar blue
element face 0
property list uchar int vertex_index
end_header
0.397304 1.017496 -0.552818 150 150 150
0.416572 0.930924 -0.496412 150 150 150
0.404776 0.926902 -0.616542 150 150 150
0.441952 1.150364 -0.549852 150 150 150
0.380458 0.561746 -0.426186 150 150 150
0.392562 0.551481 -0.663556 150 150 150
0.415478 1.289214 -0.541302 150 150 150
0.391317 0.131932 -0.409521 150 150 150
0.479977 0.137364 -0.648435 150 150 150
0.412687 1.348022 -0.543837 150 150 150
0.281696 0.052864 -0.371207 150 150 150
0.353030 0.065725 -0.673494 150 150 150
0.424637 1.569464 -0.565941 150 150 150
0.431746 1.468556 -0.474192 150 150 150
0.412934 1.462573 -0.633904 150 150 150
0.363764 1.640959 -0.544540 150 150 150
0.492677 1.492920 -0.364331 150 150 150
0.402771 1.469772 -0.750063 150 150 150
0.580702 1.287214 -0.256988 150 150 150
0.371188 1.226425 -0.827672 150 150 150
0.575703 1.061553 -0.125638 150 150 150
0.143839 1.095952 -0.803699 150 150 150
0.588386 0.978124 -0.100337 150 150 150
0.066738 1.058986 -0.776189 150 150 150
