ply
format ascii 1.0
comment author: Greg Turk
comment object: another cube
element vertex 24
property float x
property float y
property float z
property uchar red
property uchar green
property uchar blue
element face 0
property list uchar int vertex_index
end_header
0.374881 1.011016 -0.535523 150 150 150
0.394972 0.923802 -0.480259 150 150 150
0.389739 0.922757 -0.601299 150 150 150
0.414064 1.145951 -0.525343 150 150 150
0.396406 0.552137 -0.425365 150 150 150
0.389902 0.549123 -0.651899 150 150 150
0.387585 1.284780 -0.516562 150 150 150
0.386899 0.122500 -0.413380 150 150 150
0.479102 0.135136 -0.642864 150 150 150
0.385720 1.343030 -0.517901 150 150 150
0.271286 0.053805 -0.374360 150 150 150
0.352283 0.064640 -0.674830 150 150 150
0.405857 1.567110 -0.526074 150 150 150
0.400470 1.460155 -0.439776 150 150 150
0.396701 1.462829 -0.600891 150 150 150
0.347814 1.641470 -0.507021 150 150 150
0.450291 1.466960 -0.324399 150 150 150
0.409651 1.474046 -0.716125 150 150 150
0.448557 1.227025 -0.277247 150 150 150
0.418547 1.223893 -0.760673 150 150 150
0.339642 0.995447 -0.215396 150 150 150
0.349908 0.975518 -0.828618 150 150 150
0.319807 0.909368 -0.217810 150 150 150
0.327083 0.888302 -0.827445 150 150 150
