ply
format ascii 1.0
comment author: Greg Turk
comment object: another cube
element vertex 24
property float x
property float y
property float z
property uchar red
property uchar green
property uchar blue
element face 0
property list uchar int vertex_index
end_header
0.384664 1.012807 -0.543059 150 150 150
0.404769 0.925254 -0.488330 150 150 150
0.396066 0.924160 -0.608994 150 150 150
0.426272 1.146972 -0.534832 150 150 150
0.391609 0.554139 -0.427694 150 150 150
0.391447 0.550020 -0.659604 150 150 150
0.399829 1.286079 -0.524811 150 150 150
0.386882 0.124551 -0.412552 150 150 150
0.480063 0.136123 -0.646121 150 150 150
0.397579 1.345014 -0.526014 150 150 150
0.274003 0.051201 -0.373202 150 150 150
0.352901 0.065382 -0.674855 150 150 150
0.414070 1.567790 -0.539132 150 150 150
0.414372 1.463320 -0.451036 150 150 150
0.403259 1.463094 -0.611449 150 150 150
0.355007 1.640771 -0.518885 150 150 150
0.469224 1.479002 -0.338238 150 150 150
0.404542 1.474111 -0.726992 150 150 150
0.506282 1.247374 -0.265852 150 150 150
0.398292 1.224943 -0.780410 150 150 150
0.446875 1.009664 -0.172243 150 150 150
0.239821 1.015537 -0.812859 150 150 150
0.444697 0.922124 -0.162564 150 150 150
0.185794 0.944447 -0.801808 150 150 150
