ply
format ascii 1.0
comment author: Greg Turk
comment object: another cube
element vertex 24
property float x
property float y
property float z
property uchar red
property uchar green
property uchar blue
element face 0
property list uchar int vertex_index
end_header
0.387449 1.013637 -0.545844 150 150 150
0.407550 0.926242 -0.490916 150 150 150
0.397438 0.924543 -0.611406 150 150 150
0.430042 1.147474 -0.538961 150 150 150
0.391170 0.555360 -0.427690 150 150 150
0.391941 0.550159 -0.661779 150 150 150
0.404119 1.286572 -0.529074 150 150 150
0.388249 0.125702 -0.411704 150 150 150
0.479952 0.136223 -0.647199 150 150 150
0.401849 1.345487 -0.530631 150 150 150
0.276259 0.050724 -0.372513 150 150 150
0.352841 0.065132 -0.674713 150 150 150
0.417250 1.567911 -0.546493 150 150 150
0.419441 1.464466 -0.457211 150 150 150
0.406097 1.462537 -0.617504 150 150 150
0.357562 1.640426 -0.526142 150 150 150
0.475854 1.482785 -0.345085 150 150 150
0.403901 1.472486 -0.733267 150 150 150
0.528727 1.257244 -0.261407 150 150 150
0.390829 1.224603 -0.794152 150 150 150
0.488002 1.020707 -0.156497 150 150 150
0.205162 1.037511 -0.810306 150 150 150
0.491045 0.933933 -0.141599 150 150 150
0.141187 0.976156 -0.795094 150 150 150
