ply
format ascii 1.0
comment author: Greg Turk
comment object: another cube
element vertex 24
property float x
property float y
property float z
property uchar red
property uchar green
property uchar blue
element face 0
property list uchar int vertex_index
end_header
0.377744 1.011566 -0.538511 150 150 150
0.397512 0.924043 -0.483612 150 150 150
0.391266 0.923292 -0.604528 150 150 150
0.418206 1.146198 -0.528741 150 150 150
0.392654 0.552595 -0.427005 150 150 150
0.391038 0.549563 -0.655053 150 150 150
0.392137 1.285285 -0.519113 150 150 150
0.385910 0.123010 -0.413576 150 150 150
0.480128 0.135624 -0.644092 150 150 150
0.390253 1.343936 -0.520144 150 150 150
0.271185 0.052872 -0.374167 150 150 150
0.352962 0.065410 -0.674911 150 150 150
0.409001 1.567472 -0.529560 150 150 150
0.406103 1.461347 -0.442957 150 150 150
0.398795 1.463349 -0.603690 150 150 150
0.350882 1.641332 -0.509624 150 150 150
0.458670 1.471928 -0.328985 150 150 150
0.406357 1.474923 -0.719013 150 150 150
0.471190 1.234158 -0.272821 150 150 150
0.409310 1.224564 -0.763355 150 150 150
0.382865 0.998624 -0.196187 150 150 150
0.305437 0.986326 -0.818964 150 150 150
0.370773 0.911282 -0.193691 150 150 150
0.270823 0.903310 -0.814181 150 150 150
