ply
format ascii 1.0
comment author: Greg Turk
comment object: another cube
element vertex 24
property float x
property float y
property float z
property uchar red
property uchar green
property uchar blue
element face 0
property list uchar int vertex_index
end_header
0.362667 1.010539 -0.550501 150 150 150
0.382097 0.925115 -0.492535 150 150 150
0.380049 0.920573 -0.613406 150 150 150
0.399890 1.146028 -0.542619 150 150 150
0.385124 0.554140 -0.430634 150 150 150
0.380136 0.545738 -0.654549 150 150 150
0.372742 1.283836 -0.536794 150 150 150
0.391450 0.124221 -0.413824 150 150 150
0.478317 0.133507 -0.642373 150 150 150
0.371587 1.341122 -0.539506 150 150 150
0.278965 0.051132 -0.372988 150 150 150
0.351280 0.063780 -0.674272 150 150 150
0.395061 1.566759 -0.547396 150 150 150
0.380553 1.458968 -0.460374 150 150 150
0.391939 1.460396 -0.622264 150 150 150
0.336121 1.641750 -0.532097 150 150 150
0.421761 1.461456 -0.340542 150 150 150
0.420257 1.464345 -0.736202 150 150 150
0.426790 1.221044 -0.289430 150 150 150
0.420081 1.212170 -0.771149 150 150 150
0.337335 0.980735 -0.227504 150 150 150
0.339076 0.971313 -0.852329 150 150 150
0.326495 0.893065 -0.230077 150 150 150
0.302455 0.889030 -0.857920 150 150 150
