ply
format ascii 1.0
comment author: Greg Turk
comment object: another cube
element vertex 24
property float x
property float y
property float z
property uchar red
property uchar green
property uchar blue
element face 0
property list uchar int vertex_index
end_header
0.362305 1.010288 -0.550695 150 150 150
0.381749 0.924862 -0.492764 150 150 150
0.379561 0.920315 -0.613625 150 150 150
0.399626 1.145747 -0.542862 150 150 150
0.384196 0.553828 -0.431103 150 150 150
0.380097 0.545486 -0.654772 150 150 150
0.372589 1.283586 -0.537089 150 150 150
0.391512 0.123899 -0.414762 150 150 150
0.478811 0.133369 -0.642824 150 150 150
0.371498 1.340882 -0.539901 150 150 150
0.279179 0.050998 -0.373232 150 150 150
0.351781 0.063416 -0.674222 150 150 150
0.395080 1.566443 -0.548373 150 150 150
0.380723 1.458910 -0.461075 150 150 150
0.391781 1.459916 -0.622944 150 150 150
0.336217 1.641460 -0.532769 150 150 150
0.422170 1.462017 -0.341312 150 150 150
0.419993 1.463712 -0.736976 150 150 150
0.427227 1.222107 -0.287816 150 150 150
0.420275 1.211655 -0.772888 150 150 150
0.337660 0.982416 -0.223721 150 150 150
0.339240 0.971157 -0.855038 150 150 150
0.326804 0.894738 -0.225862 150 150 150
0.302484 0.888946 -0.860726 150 150 150
