ply
format ascii 1.0
comment author: Greg Turk
comment object: another cube
element vertex 24
property float x
property float y
property float z
property uchar red
property uchar green
property uchar blue
element face 0
property list uchar int vertex_index
end_header
0.367358 1.013317 -0.544162 150 150 150
0.387230 0.927706 -0.486507 150 150 150
0.385573 0.923692 -0.607425 150 150 150
0.403464 1.148908 -0.535344 150 150 150
0.394352 0.556482 -0.426746 150 150 150
0.384202 0.549149 -0.651935 150 150 150
0.375029 1.286473 -0.528996 150 150 150
0.392981 0.126446 -0.412312 150 150 150
0.478501 0.136011 -0.641619 150 150 150
0.373525 1.343736 -0.531530 150 150 150
0.279959 0.053321 -0.372570 150 150 150
0.352186 0.065371 -0.674339 150 150 150
0.396949 1.569442 -0.538937 150 150 150
0.381088 1.461318 -0.451897 150 150 150
0.394935 1.463199 -0.613740 150 150 150
0.337076 1.643900 -0.523916 150 150 150
0.419406 1.461846 -0.331301 150 150 150
0.425324 1.467000 -0.727188 150 150 150
0.422850 1.219658 -0.289220 150 150 150
0.422317 1.214729 -0.760135 150 150 150
0.348055 0.972841 -0.232372 150 150 150
0.344667 0.972059 -0.839282 150 150 150
0.343620 0.884724 -0.235784 150 150 150
0.308940 0.889345 -0.843645 150 150 150
