ply
format ascii 1.0
comment author: Greg Turk
comment object: another cube
element vertex 24
property float x
property float y
property float z
property uchar red
property uchar green
property uchar blue
element face 0
property list uchar int vertex_index
end_header
0.479224 1.046456 -0.578875 150 150 150
0.486415 0.966216 -0.512921 150 150 150
0.482925 0.950658 -0.633992 150 150 150
0.531471 1.169953 -0.588170 150 150 150
0.234450 0.688894 -0.437138 150 150 150
0.421640 0.572131 -0.665684 150 150 150
0.493081 1.306019 -0.584825 150 150 150
0.448462 0.316213 -0.414973 150 150 150
0.475319 0.152232 -0.653757 150 150 150
0.482117 1.364418 -0.587905 150 150 150
0.348779 0.221805 -0.389059 150 150 150
0.350941 0.075974 -0.670552 150 150 150
0.470312 1.580149 -0.622379 150 150 150
0.496113 1.487866 -0.527247 150 150 150
0.462044 1.471596 -0.683260 150 150 150
0.402481 1.643605 -0.592902 150 150 150
0.554293 1.530366 -0.418514 150 150 150
0.426058 1.475345 -0.796058 150 150 150
0.693189 1.394708 -0.256724 150 150 150
0.338899 1.251697 -0.899849 150 150 150
0.726974 1.209638 -0.078081 150 150 150
0.102385 1.250184 -0.784999 150 150 150
0.755603 1.138503 -0.035281 150 150 150
0.032123 1.262207 -0.730732 150 150 150
