ply
format ascii 1.0
comment author: Greg Turk
comment object: another cube
element vertex 24
property float x
property float y
property float z
property uchar red
property uchar green
property uchar blue
element face 0
property list uchar int vertex_index
end_header
0.368855 1.013364 -0.541583 150 150 150
0.388697 0.927591 -0.484208 150 150 150
0.386857 0.923890 -0.605124 150 150 150
0.405132 1.148777 -0.532321 150 150 150
0.395532 0.556181 -0.425240 150 150 150
0.384052 0.549467 -0.651528 150 150 150
0.376630 1.286514 -0.526094 150 150 150
0.392109 0.126113 -0.412166 150 150 150
0.477018 0.136091 -0.641911 150 150 150
0.375035 1.343916 -0.528675 150 150 150
0.278976 0.053075 -0.372705 150 150 150
0.351085 0.064403 -0.673872 150 150 150
0.398653 1.569157 -0.537048 150 150 150
0.382517 1.461661 -0.449518 150 150 150
0.396515 1.462899 -0.611349 150 150 150
0.338883 1.643599 -0.521191 150 150 150
0.418212 1.463165 -0.328211 150 150 150
0.426240 1.467189 -0.724977 150 150 150
0.418196 1.221119 -0.284258 150 150 150
0.428246 1.215229 -0.759673 150 150 150
0.340557 0.975089 -0.227738 150 150 150
0.346165 0.974205 -0.838474 150 150 150
0.335545 0.887009 -0.230859 150 150 150
0.309502 0.891906 -0.842032 150 150 150
