ply
format ascii 1.0
comment author: Greg Turk
comment object: another cube
element vertex 24
property float x
property float y
property float z
property uchar red
property uchar green
property uchar blue
element face 0
property list uchar int vertex_index
end_header
0.371021 1.012361 -0.535469 150 150 150
0.391167 0.926061 -0.479012 150 150 150
0.388183 0.923509 -0.600034 150 150 150
0.407907 1.147555 -0.525253 150 150 150
0.398699 0.554322 -0.422667 150 150 150
0.385002 0.549483 -0.648948 150 150 150
0.379738 1.285682 -0.518789 150 150 150
0.389774 0.124422 -0.411759 150 150 150
0.477548 0.136037 -0.640972 150 150 150
0.377956 1.343310 -0.521265 150 150 150
0.275864 0.052841 -0.372961 150 150 150
0.351516 0.064799 -0.674273 150 150 150
0.400628 1.568031 -0.529906 150 150 150
0.386257 1.460963 -0.442585 150 150 150
0.397652 1.462273 -0.604353 150 150 150
0.341335 1.642721 -0.514604 150 150 150
0.422173 1.463799 -0.321649 150 150 150
0.425638 1.469316 -0.718015 150 150 150
0.414780 1.221838 -0.279743 150 150 150
0.440947 1.218931 -0.759693 150 150 150
0.305064 0.986055 -0.237571 150 150 150
0.374858 0.974953 -0.843794 150 150 150
0.288399 0.899525 -0.244463 150 150 150
0.347520 0.889176 -0.848700 150 150 150
