ply
format ascii 1.0
comment author: Greg Turk
comment object: another cube
element vertex 24
property float x
property float y
property float z
property uchar red
property uchar green
property uchar blue
element face 0
property list uchar int vertex_index
end_header
0.502436 1.048230 -0.571492 150 150 150
0.507726 0.969571 -0.503534 150 150 150
0.507457 0.951528 -0.625150 150 150 150
0.554778 1.170442 -0.581712 150 150 150
0.233137 0.712319 -0.437239 150 150 150
0.439084 0.573264 -0.658238 150 150 150
0.514179 1.306088 -0.582384 150 150 150
0.502742 0.379065 -0.410793 150 150 150
0.475752 0.151981 -0.652412 150 150 150
0.501687 1.364381 -0.586384 150 150 150
0.407009 0.280537 -0.387334 150 150 150
0.350257 0.077677 -0.669449 150 150 150
0.487431 1.578774 -0.623968 150 150 150
0.512668 1.488295 -0.527128 150 150 150
0.481257 1.469980 -0.683394 150 150 150
0.417757 1.640492 -0.595339 150 150 150
0.563860 1.531488 -0.415467 150 150 150
0.445366 1.474272 -0.796241 150 150 150
0.691047 1.393068 -0.246624 150 150 150
0.358826 1.250993 -0.901699 150 150 150
0.718631 1.209377 -0.065275 150 150 150
0.119854 1.236123 -0.792724 150 150 150
0.747268 1.139433 -0.020912 150 150 150
0.048088 1.241584 -0.739305 150 150 150
