ply
format ascii 1.0
comment author: Greg Turk
comment object: another cube
element vertex 24
property float x
property float y
property float z
property uchar red
property uchar green
property uchar blue
element face 0
property list uchar int vertex_index
end_header
0.362482 1.010724 -0.550106 150 150 150
0.381857 0.925316 -0.492091 150 150 150
0.379898 0.920744 -0.612970 150 150 150
0.399750 1.146239 -0.542223 150 150 150
0.385985 0.554425 -0.430097 150 150 150
0.380436 0.545954 -0.654241 150 150 150
0.372765 1.284072 -0.536392 150 150 150
0.391626 0.124502 -0.413370 150 150 150
0.478285 0.133665 -0.641934 150 150 150
0.371607 1.341348 -0.539043 150 150 150
0.278921 0.051503 -0.372918 150 150 150
0.351273 0.064105 -0.674352 150 150 150
0.395040 1.567042 -0.546544 150 150 150
0.380366 1.459059 -0.459689 150 150 150
0.392040 1.460792 -0.621616 150 150 150
0.336009 1.641980 -0.531504 150 150 150
0.421181 1.461014 -0.339741 150 150 150
0.420356 1.464842 -0.735491 150 150 150
0.426093 1.220129 -0.290909 150 150 150
0.419888 1.212561 -0.769551 150 150 150
0.337128 0.979109 -0.231038 150 150 150
0.339242 0.971327 -0.849986 150 150 150
0.326567 0.891424 -0.234107 150 150 150
0.302854 0.888929 -0.855412 150 150 150
