ply
format ascii 1.0
comment author: Greg Turk
comment object: another cube
element vertex 24
property float x
property float y
property float z
property uchar red
property uchar green
property uchar blue
element face 0
property list uchar int vertex_index
end_header
-0.019035 1.038474 -0.354808 150 150 150
0.010833 0.945661 -0.315327 150 150 150
-0.051684 0.955139 -0.421211 150 150 150
0.038462 1.157852 -0.354491 150 150 150
0.039229 0.566090 -0.318775 150 150 150
-0.308220 0.676658 -0.363321 150 150 150
0.026125 1.292510 -0.330315 150 150 150
0.129498 0.146274 -0.367408 150 150 150
-0.302024 0.257470 -0.435159 150 150 150
0.030597 1.346563 -0.332793 150 150 150
0.022209 0.065262 -0.331731 150 150 150
-0.400623 0.163720 -0.380119 150 150 150
0.093388 1.565121 -0.346077 150 150 150
0.076672 1.455986 -0.256875 150 150 150
0.062634 1.460211 -0.418485 150 150 150
0.033093 1.641836 -0.328450 150 150 150
0.126725 1.433802 -0.142688 150 150 150
0.086985 1.458044 -0.535222 150 150 150
0.092131 1.204499 -0.047554 150 150 150
0.071458 1.232583 -0.654821 150 150 150
-0.004171 1.065668 0.153395 150 150 150
-0.055206 1.111233 -0.852849 150 150 150
-0.041921 1.007791 0.208269 150 150 150
-0.105488 1.057119 -0.904869 150 150 150
