ply
format ascii 1.0
comment author: Greg Turk
comment object: another cube
element vertex 24
property float x
property float y
property float z
property uchar red
property uchar green
property uchar blue
element face 0
property list uchar int vertex_index
end_header
-0.207771 1.054044 -0.293707 150 150 150
-0.152196 0.975656 -0.250620 150 150 150
-0.261694 0.956604 -0.318121 150 150 150
-0.179268 1.164251 -0.355519 150 150 150
-0.158019 1.027232 0.129504 150 150 150
-0.291572 0.573910 -0.348244 150 150 150
-0.192147 1.307341 -0.330414 150 150 150
-0.198173 0.656360 -0.081800 150 150 150
-0.255890 0.157236 -0.411262 150 150 150
-0.195486 1.371007 -0.336803 150 150 150
-0.198037 0.540754 -0.006960 150 150 150
-0.365950 0.093202 -0.335146 150 150 150
-0.210570 1.576495 -0.378314 150 150 150
-0.130491 1.491055 -0.334934 150 150 150
-0.267843 1.474220 -0.397354 150 150 150
-0.229166 1.635256 -0.308772 150 150 150
-0.008735 1.537076 -0.337990 150 150 150
-0.355720 1.498567 -0.477081 150 150 150
0.196126 1.452532 -0.229201 150 150 150
-0.529107 1.325440 -0.533466 150 150 150
0.297184 1.665890 -0.127430 150 150 150
-0.721669 1.493956 -0.493459 150 150 150
0.341473 1.721685 -0.076558 150 150 150
-0.795360 1.538197 -0.468013 150 150 150
