ply
format ascii 1.0
comment author: Greg Turk
comment object: another cube
element vertex 24
property float x
property float y
property float z
property uchar red
property uchar green
property uchar blue
element face 0
property list uchar int vertex_index
end_header
1.049965 1.017905 -0.048671 150 150 150
1.064893 0.924917 -0.001015 150 150 150
1.051424 0.938024 -0.126910 150 150 150
1.093667 1.134336 -0.020793 150 150 150
1.102669 0.545415 0.046906 150 150 150
0.745772 0.766957 -0.295918 150 150 150
1.057432 1.267735 -0.003591 150 150 150
1.182711 0.122753 0.060412 150 150 150
0.828470 0.350159 -0.314511 150 150 150
1.057218 1.323501 -0.004784 150 150 150
1.071786 0.061733 0.119325 150 150 150
0.743184 0.252380 -0.382073 150 150 150
1.104488 1.544254 -0.001941 150 150 150
1.065339 1.436826 0.078070 150 150 150
1.109734 1.438750 -0.075757 150 150 150
1.039682 1.618479 -0.013728 150 150 150
1.078262 1.426387 0.205416 150 150 150
1.171389 1.445086 -0.179053 150 150 150
1.008154 1.223319 0.336715 150 150 150
1.211240 1.250416 -0.344838 150 150 150
0.826408 1.221070 0.525655 150 150 150
1.145215 1.223433 -0.600749 150 150 150
0.760462 1.212630 0.584275 150 150 150
1.111017 1.201419 -0.682029 150 150 150
