ply
format ascii 1.0
comment author: Greg Turk
comment object: another cube
element vertex 24
property float x
property float y
property float z
property uchar red
property uchar green
property uchar blue
element face 0
property list uchar int vertex_index
end_header
0.813638 1.009883 -0.282932 150 150 150
0.797670 0.924017 -0.224972 150 150 150
0.841780 0.918893 -0.340648 150 150 150
0.861410 1.134097 -0.258955 150 150 150
0.614437 0.593853 -0.152701 150 150 150
0.783542 0.546149 -0.388289 150 150 150
0.836671 1.270254 -0.258844 150 150 150
0.946611 0.337749 -0.051302 150 150 150
0.831145 0.128638 -0.329510 150 150 150
0.841970 1.326877 -0.259598 150 150 150
0.903611 0.222602 0.011375 150 150 150
0.721861 0.070706 -0.410030 150 150 150
0.892485 1.544837 -0.254915 150 150 150
0.843711 1.443074 -0.180429 150 150 150
0.904075 1.439091 -0.326566 150 150 150
0.832297 1.623099 -0.260752 150 150 150
0.849538 1.456364 -0.052304 150 150 150
0.967699 1.448845 -0.427954 150 150 150
0.770438 1.285095 0.109332 150 150 150
0.980175 1.240290 -0.578202 150 150 150
0.641188 1.239368 0.335000 150 150 150
0.960205 1.108572 -0.809862 150 150 150
0.589771 1.207320 0.398681 150 150 150
0.945865 1.049452 -0.876380 150 150 150
