ply
format ascii 1.0
comment author: Greg Turk
comment object: another cube
element vertex 24
property float x
property float y
property float z
property uchar red
property uchar green
property uchar blue
element face 0
property list uchar int vertex_index
end_header
0.346141 0.981978 -0.371745 150 150 150
0.350427 0.893331 -0.318679 150 150 150
0.369631 0.897651 -0.438274 150 150 150
0.385923 1.109646 -0.350600 150 150 150
0.175696 0.552222 -0.309771 150 150 150
0.410477 0.521936 -0.462159 150 150 150
0.360195 1.239220 -0.332339 150 150 150
0.142122 0.126063 -0.369379 150 150 150
0.717563 0.240756 -0.378398 150 150 150
0.364183 1.291105 -0.332015 150 150 150
0.022980 0.065397 -0.330452 150 150 150
0.678854 0.104672 -0.423122 150 150 150
0.427951 1.515609 -0.322387 150 150 150
0.387865 1.401586 -0.243308 150 150 150
0.413689 1.409007 -0.403862 150 150 150
0.383898 1.607182 -0.314733 150 150 150
0.437291 1.374146 -0.129754 150 150 150
0.455120 1.394063 -0.512253 150 150 150
0.456904 1.130149 -0.097839 150 150 150
0.434546 1.144709 -0.563629 150 150 150
0.482740 0.887627 0.008215 150 150 150
0.375507 0.909377 -0.678653 150 150 150
0.485091 0.800854 0.025973 150 150 150
0.348609 0.826656 -0.704887 150 150 150
