ply
format ascii 1.0
comment author: Greg Turk
comment object: another cube
element vertex 24
property float x
property float y
property float z
property uchar red
property uchar green
property uchar blue
element face 0
property list uchar int vertex_index
end_header
1.036468 1.010279 -0.057228 150 150 150
1.052677 0.918849 -0.007687 150 150 150
1.041137 0.928623 -0.133099 150 150 150
1.077817 1.129066 -0.031618 150 150 150
1.098618 0.541148 0.043123 150 150 150
0.759300 0.715827 -0.293126 150 150 150
1.042097 1.260949 -0.016101 150 150 150
1.183026 0.118875 0.061100 150 150 150
0.814873 0.296485 -0.329264 150 150 150
1.041410 1.315109 -0.018096 150 150 150
1.071216 0.059633 0.120495 150 150 150
0.722342 0.202849 -0.393623 150 150 150
1.090157 1.538162 -0.013932 150 150 150
1.048604 1.428437 0.065782 150 150 150
1.094560 1.430778 -0.089036 150 150 150
1.028129 1.615814 -0.026138 150 150 150
1.059062 1.409606 0.191659 150 150 150
1.155014 1.429594 -0.192513 150 150 150
1.001315 1.189007 0.298379 150 150 150
1.192269 1.215068 -0.331664 150 150 150
0.832502 1.099853 0.480303 150 150 150
1.128786 1.107994 -0.567779 150 150 150
0.772464 1.062639 0.533913 150 150 150
1.097462 1.059349 -0.637968 150 150 150
