ply
format ascii 1.0
comment author: Greg Turk
comment object: another cube
element vertex 24
property float x
property float y
property float z
property uchar red
property uchar green
property uchar blue
element face 0
property list uchar int vertex_index
end_header
0.389891 0.994323 0.170404 150 150 150
0.395913 0.909434 0.109923 150 150 150
0.367659 0.903282 0.229468 150 150 150
0.343396 1.119432 0.155506 150 150 150
0.585099 0.579796 0.055819 150 150 150
0.422048 0.533625 0.313329 150 150 150
0.372041 1.250133 0.159873 150 150 150
0.433285 0.227991 -0.144263 150 150 150
0.344703 0.118492 0.367446 150 150 150
0.371560 1.301672 0.167264 150 150 150
0.488341 0.102242 -0.126656 150 150 150
0.479801 0.065383 0.387194 150 150 150
0.322886 1.525111 0.197844 150 150 150
0.359110 1.425244 0.100020 150 150 150
0.325592 1.406733 0.260404 150 150 150
0.393665 1.594929 0.206514 150 150 150
0.340079 1.413998 -0.024674 150 150 150
0.292378 1.382356 0.371873 150 150 150
0.346222 1.176782 -0.103496 150 150 150
0.331217 1.136578 0.451047 150 150 150
0.416324 0.951138 -0.220718 150 150 150
0.444073 0.947345 0.603263 150 150 150
0.438780 0.867747 -0.240915 150 150 150
0.495769 0.882394 0.640291 150 150 150
