ply
format ascii 1.0
comment author: Greg Turk
comment object: another cube
element vertex 24
property float x
property float y
property float z
property uchar red
property uchar green
property uchar blue
element face 0
property list uchar int vertex_index
end_header
0.339831 1.067580 -0.143602 150 150 150
0.369953 0.965526 -0.157482 150 150 150
0.249655 1.003372 -0.117114 150 150 150
0.375027 1.171013 -0.204996 150 150 150
0.396646 0.581998 -0.175473 150 150 150
0.144124 0.991907 0.250189 150 150 150
0.413593 1.308261 -0.173212 150 150 150
0.365839 0.158722 -0.212090 150 150 150
0.188106 0.699410 -0.060633 150 150 150
0.418424 1.370130 -0.169617 150 150 150
0.455798 0.081325 -0.140390 150 150 150
0.154444 0.569644 -0.000975 150 150 150
0.419808 1.586212 -0.186468 150 150 150
0.498748 1.482614 -0.178902 150 150 150
0.345808 1.490941 -0.193976 150 150 150
0.416904 1.639358 -0.108902 150 150 150
0.614459 1.504305 -0.223359 150 150 150
0.240458 1.528449 -0.230386 150 150 150
0.778032 1.331340 -0.172948 150 150 150
0.027869 1.385422 -0.217952 150 150 150
0.804394 1.508638 0.009572 150 150 150
-0.151396 1.514375 -0.080130 150 150 150
0.822262 1.557866 0.081890 150 150 150
-0.217453 1.536123 -0.021976 150 150 150
