ply
format ascii 1.0
comment author: Greg Turk
comment object: another cube
element vertex 24
property float x
property float y
property float z
property uchar red
property uchar green
property uchar blue
element face 0
property list uchar int vertex_index
end_header
0.223885 1.017651 0.293428 150 150 150
0.208352 0.930485 0.236446 150 150 150
0.217528 0.926972 0.357393 150 150 150
0.178416 1.145935 0.282812 150 150 150
0.157746 0.556434 0.228735 150 150 150
0.373703 0.581590 0.385515 150 150 150
0.199019 1.281773 0.279996 150 150 150
-0.023979 0.164326 0.220094 150 150 150
0.342028 0.157094 0.388067 150 150 150
0.194173 1.336052 0.285359 150 150 150
0.051922 0.059733 0.270234 150 150 150
0.466976 0.080093 0.389430 150 150 150
0.138839 1.555515 0.292338 150 150 150
0.179230 1.450885 0.206670 150 150 150
0.139183 1.446899 0.363202 150 150 150
0.211959 1.621167 0.291955 150 150 150
0.168433 1.438661 0.081389 150 150 150
0.073487 1.446252 0.463780 150 150 150
0.228865 1.212644 -0.006640 150 150 150
0.031213 1.227480 0.590732 150 150 150
0.424773 1.107555 -0.141177 150 150 150
0.038834 1.164738 0.846032 150 150 150
0.489152 1.055635 -0.171803 150 150 150
0.058322 1.130267 0.927128 150 150 150
