ply
format ascii 1.0
comment author: Greg Turk
comment object: another cube
element vertex 24
property float x
property float y
property float z
property uchar red
property uchar green
property uchar blue
element face 0
property list uchar int vertex_index
end_header
0.074626 1.075328 -0.353164 150 150 150
0.084936 0.974480 -0.314242 150 150 150
0.031847 1.004883 -0.430213 150 150 150
0.147405 1.177235 -0.337390 150 150 150
0.069795 0.592980 -0.311555 150 150 150
-0.353019 1.038926 -0.413727 150 150 150
0.131777 1.323614 -0.310135 150 150 150
0.125716 0.171650 -0.360300 150 150 150
-0.184124 0.647067 -0.478712 150 150 150
0.142874 1.387136 -0.309585 150 150 150
0.023915 0.082011 -0.333336 150 150 150
-0.279951 0.538568 -0.493640 150 150 150
0.204138 1.589379 -0.319236 150 150 150
0.180882 1.496452 -0.237728 150 150 150
0.189123 1.495203 -0.387634 150 150 150
0.137731 1.655863 -0.312099 150 150 150
0.239831 1.519588 -0.128909 150 150 150
0.243495 1.521971 -0.490309 150 150 150
0.190927 1.400419 0.077849 150 150 150
0.212786 1.406334 -0.711349 150 150 150
0.100930 1.625749 0.156054 150 150 150
0.150615 1.645099 -0.788008 150 150 150
0.053685 1.685985 0.200201 150 150 150
0.100542 1.713149 -0.819591 150 150 150
