ply
format ascii 1.0
comment author: Greg Turk
comment object: another cube
element vertex 24
property float x
property float y
property float z
property uchar red
property uchar green
property uchar blue
element face 0
property list uchar int vertex_index
end_header
0.427304 0.968064 -0.374934 150 150 150
0.427564 0.880340 -0.320032 150 150 150
0.462813 0.884414 -0.436603 150 150 150
0.460380 1.097829 -0.352570 150 150 150
0.225736 0.554848 -0.313617 150 150 150
0.565615 0.522067 -0.428225 150 150 150
0.428585 1.226234 -0.341501 150 150 150
0.151575 0.132450 -0.362616 150 150 150
0.794671 0.173996 -0.343672 150 150 150
0.430231 1.277644 -0.342274 150 150 150
0.027523 0.078173 -0.329070 150 150 150
0.711350 0.073134 -0.412999 150 150 150
0.491146 1.503575 -0.329612 150 150 150
0.444119 1.389294 -0.253145 150 150 150
0.483971 1.395691 -0.411806 150 150 150
0.447765 1.595879 -0.325765 150 150 150
0.480947 1.356852 -0.136070 150 150 150
0.531558 1.376128 -0.517096 150 150 150
0.486238 1.110465 -0.120992 150 150 150
0.513774 1.122691 -0.551553 150 150 150
0.486556 0.852003 -0.054692 150 150 150
0.473747 0.867392 -0.628471 150 150 150
0.479374 0.763298 -0.052449 150 150 150
0.453341 0.779751 -0.642010 150 150 150
