ply
format ascii 1.0
comment author: Greg Turk
comment object: another cube
element vertex 24
property float x
property float y
property float z
property uchar red
property uchar green
property uchar blue
element face 0
property list uchar int vertex_index
end_header
0.999855 0.993968 -0.080425 150 150 150
1.018174 0.905140 -0.026938 150 150 150
1.011350 0.909319 -0.151982 150 150 150
1.036367 1.117434 -0.058896 150 150 150
1.083149 0.533814 0.031068 150 150 150
0.782075 0.635497 -0.296225 150 150 150
1.002002 1.248879 -0.049051 150 150 150
1.182133 0.115082 0.061067 150 150 150
0.811559 0.215659 -0.346546 150 150 150
1.002956 1.301790 -0.052927 150 150 150
1.070184 0.056881 0.121560 150 150 150
0.709280 0.128191 -0.405374 150 150 150
1.055546 1.527530 -0.052113 150 150 150
1.009472 1.417658 0.029152 150 150 150
1.058503 1.416169 -0.125703 150 150 150
0.997592 1.608992 -0.063353 150 150 150
1.024693 1.393354 0.151402 150 150 150
1.123199 1.403008 -0.224501 150 150 150
1.002864 1.151227 0.201386 150 150 150
1.154182 1.160792 -0.302031 150 150 150
0.903442 0.934833 0.317045 150 150 150
1.119715 0.944114 -0.455849 150 150 150
0.867873 0.856259 0.337103 150 150 150
1.098609 0.861690 -0.487959 150 150 150
