ply
format ascii 1.0
comment author: Greg Turk
comment object: another cube
element vertex 24
property float x
property float y
property float z
property uchar red
property uchar green
property uchar blue
element face 0
property list uchar int vertex_index
end_header
0.956061 0.978570 -0.116171 150 150 150
0.973707 0.891434 -0.059250 150 150 150
0.975817 0.892462 -0.184136 150 150 150
0.987561 1.105485 -0.096110 150 150 150
1.050473 0.526110 0.009167 150 150 150
0.792665 0.581647 -0.312377 150 150 150
0.953415 1.236859 -0.091672 150 150 150
1.177833 0.116916 0.058047 150 150 150
0.823759 0.160045 -0.342513 150 150 150
0.956755 1.289633 -0.096700 150 150 150
1.069022 0.055339 0.121003 150 150 150
0.715716 0.082680 -0.405462 150 150 150
1.012715 1.516519 -0.099586 150 150 150
0.961762 1.408803 -0.017532 150 150 150
1.016315 1.401937 -0.169770 150 150 150
0.958775 1.600621 -0.110138 150 150 150
0.986619 1.387398 0.101944 150 150 150
1.088979 1.380175 -0.259862 150 150 150
0.990894 1.142936 0.113042 150 150 150
1.106679 1.127680 -0.283884 150 150 150
0.945579 0.893982 0.189472 150 150 150
1.101243 0.872527 -0.366466 150 150 150
0.924391 0.808227 0.190910 150 150 150
1.086602 0.783116 -0.372192 150 150 150
