ply
format ascii 1.0
comment author: Greg Turk
comment object: another cube
element vertex 24
property float x
property float y
property float z
property uchar red
property uchar green
property uchar blue
element face 0
property list uchar int vertex_index
end_header
0.275866 1.042608 -0.259622 150 150 150
0.318380 0.946700 -0.260533 150 150 150
0.198501 0.968187 -0.292460 150 150 150
0.324204 1.159482 -0.287358 150 150 150
0.368179 0.565187 -0.225305 150 150 150
-0.076831 0.719129 -0.186905 150 150 150
0.335384 1.291691 -0.248380 150 150 150
0.360516 0.136755 -0.216576 150 150 150
0.063091 0.380870 -0.401884 150 150 150
0.336079 1.347616 -0.248567 150 150 150
0.455411 0.072508 -0.136089 150 150 150
-0.030881 0.268736 -0.416147 150 150 150
0.352873 1.570480 -0.285532 150 150 150
0.417128 1.461168 -0.226284 150 150 150
0.284530 1.465164 -0.317738 150 150 150
0.314400 1.641562 -0.229526 150 150 150
0.543710 1.456597 -0.204530 150 150 150
0.203367 1.474884 -0.403017 150 150 150
0.654102 1.239197 -0.146792 150 150 150
0.063681 1.271216 -0.479936 150 150 150
0.786945 1.194733 0.072247 150 150 150
-0.198509 1.244312 -0.452985 150 150 150
0.832882 1.170180 0.143429 150 150 150
-0.285766 1.224466 -0.439259 150 150 150
