ply
format ascii 1.0
comment author: Greg Turk
comment object: another cube
element vertex 24
property float x
property float y
property float z
property uchar red
property uchar green
property uchar blue
element face 0
property list uchar int vertex_index
end_header
0.101464 1.077064 -0.355426 150 150 150
0.107875 0.975088 -0.318105 150 150 150
0.058882 1.010217 -0.436260 150 150 150
0.176290 1.175430 -0.334947 150 150 150
0.093545 0.593103 -0.314252 150 150 150
-0.316064 1.097623 -0.448621 150 150 150
0.161363 1.322039 -0.305133 150 150 150
0.131601 0.170901 -0.363720 150 150 150
-0.117383 0.714904 -0.468264 150 150 150
0.172149 1.386173 -0.303564 150 150 150
0.027300 0.085289 -0.332635 150 150 150
-0.206400 0.601019 -0.486999 150 150 150
0.230762 1.587966 -0.312049 150 150 150
0.208540 1.495450 -0.231542 150 150 150
0.217939 1.494687 -0.380475 150 150 150
0.164266 1.653558 -0.306061 150 150 150
0.269134 1.521416 -0.124239 150 150 150
0.272215 1.525337 -0.481911 150 150 150
0.224711 1.414071 0.090099 150 150 150
0.247559 1.424013 -0.712724 150 150 150
0.132166 1.645120 0.148887 150 150 150
0.204851 1.661666 -0.807365 150 150 150
0.087174 1.711681 0.186276 150 150 150
0.163616 1.731983 -0.846415 150 150 150
