ply
format ascii 1.0
comment author: Greg Turk
comment object: another cube
element vertex 24
property float x
property float y
property float z
property uchar red
property uchar green
property uchar blue
element face 0
property list uchar int vertex_index
end_header
1.119392 1.007865 -0.055636 150 150 150
1.140645 0.921826 -0.001454 150 150 150
1.138487 0.922571 -0.123089 150 150 150
1.153532 1.138468 -0.041085 150 150 150
1.145198 0.545185 0.056283 150 150 150
1.132123 0.552682 -0.213407 150 150 150
1.122946 1.272445 -0.027055 150 150 150
1.183877 0.116286 0.065829 150 150 150
1.193006 0.135455 -0.248252 150 150 150
1.119243 1.327343 -0.027564 150 150 150
1.070614 0.054409 0.120952 150 150 150
1.071827 0.074150 -0.307521 150 150 150
1.164308 1.547824 -0.034257 150 150 150
1.141455 1.440393 0.051793 150 150 150
1.148904 1.444726 -0.110324 150 150 150
1.111130 1.631384 -0.021394 150 150 150
1.165185 1.441729 0.179776 150 150 150
1.153386 1.459692 -0.228643 150 150 150
1.137177 1.239108 0.327810 150 150 150
1.116929 1.258775 -0.393032 150 150 150
0.997246 1.053623 0.454061 150 150 150
0.974647 1.070078 -0.520608 150 150 150
0.956925 0.980146 0.484189 150 150 150
0.927230 1.000557 -0.554654 150 150 150
