ply
format ascii 1.0
comment author: Greg Turk
comment object: another cube
element vertex 24
property float x
property float y
property float z
property uchar red
property uchar green
property uchar blue
element face 0
property list uchar int vertex_index
end_header
0.804883 1.018017 -0.291991 150 150 150
0.785226 0.933278 -0.233301 150 150 150
0.832207 0.925763 -0.348841 150 150 150
0.855509 1.140396 -0.269417 150 150 150
0.532758 0.647935 -0.181434 150 150 150
0.783404 0.549078 -0.388878 150 150 150
0.828459 1.277706 -0.271155 150 150 150
0.877746 0.400585 -0.107730 150 150 150
0.830426 0.131854 -0.329507 150 150 150
0.832468 1.336040 -0.271812 150 150 150
0.833815 0.284510 -0.047977 150 150 150
0.721369 0.072776 -0.410127 150 150 150
0.878831 1.551424 -0.267795 150 150 150
0.834392 1.451266 -0.193347 150 150 150
0.891071 1.448665 -0.339465 150 150 150
0.816872 1.627209 -0.272653 150 150 150
0.840727 1.471216 -0.065302 150 150 150
0.953445 1.467442 -0.441164 150 150 150
0.747918 1.327686 0.116254 150 150 150
0.969315 1.283357 -0.621226 150 150 150
0.603811 1.362352 0.333810 150 150 150
0.938107 1.222410 -0.878597 150 150 150
0.544834 1.355365 0.398372 150 150 150
0.920018 1.184490 -0.958182 150 150 150
