ply
format ascii 1.0
comment author: Greg Turk
comment object: another cube
element vertex 24
property float x
property float y
property float z
property uchar red
property uchar green
property uchar blue
element face 0
property list uchar int vertex_index
end_header
1.119255 1.009282 -0.070264 150 150 150
1.141454 0.923769 -0.015697 150 150 150
1.137969 0.923522 -0.137237 150 150 150
1.153079 1.140206 -0.057068 150 150 150
1.149898 0.547979 0.047000 150 150 150
1.134595 0.552301 -0.221176 150 150 150
1.122657 1.274481 -0.043619 150 150 150
1.184941 0.119055 0.064459 150 150 150
1.193725 0.134403 -0.249443 150 150 150
1.118811 1.329554 -0.044293 150 150 150
1.072123 0.057653 0.121135 150 150 150
1.072266 0.072805 -0.308006 150 150 150
1.163459 1.549573 -0.051936 150 150 150
1.141236 1.442745 0.034467 150 150 150
1.147793 1.446595 -0.127602 150 150 150
1.110399 1.633249 -0.039493 150 150 150
1.164316 1.445840 0.162653 150 150 150
1.151041 1.462678 -0.245729 150 150 150
1.134683 1.246008 0.314559 150 150 150
1.116603 1.263310 -0.412367 150 150 150
0.988473 1.062838 0.436646 150 150 150
0.973432 1.072761 -0.535633 150 150 150
0.946083 0.990252 0.466216 150 150 150
0.925664 1.002832 -0.568281 150 150 150
