ply
format ascii 1.0
comment author: Greg Turk
comment object: another cube
element vertex 24
property float x
property float y
property float z
property uchar red
property uchar green
property uchar blue
element face 0
property list uchar int vertex_index
end_header
0.059157 1.069764 0.193571 150 150 150
0.072934 0.968599 0.154233 150 150 150
0.044724 0.997040 0.279341 150 150 150
0.012300 1.175188 0.137938 150 150 150
0.065520 0.590163 0.179147 150 150 150
0.349922 0.992750 0.509793 150 150 150
0.045565 1.323004 0.132431 150 150 150
-0.035280 0.176012 0.210621 150 150 150
0.120200 0.660113 0.356727 150 150 150
0.042054 1.388847 0.129521 150 150 150
0.043892 0.080290 0.270471 150 150 150
0.164920 0.532923 0.413706 150 150 150
0.012554 1.594945 0.118113 150 150 150
0.069066 1.501608 0.059742 150 150 150
-0.028770 1.501671 0.172397 150 150 150
0.082686 1.643010 0.155208 150 150 150
0.094315 1.537021 -0.056308 150 150 150
-0.131638 1.538435 0.218217 150 150 150
0.259068 1.402276 -0.167942 150 150 150
-0.251320 1.393815 0.378638 150 150 150
0.348585 1.633966 -0.113758 150 150 150
-0.227375 1.637063 0.456240 150 150 150
0.405708 1.700774 -0.101560 150 150 150
-0.199396 1.705493 0.507832 150 150 150
