ply
format ascii 1.0
comment author: Greg Turk
comment object: another cube
element vertex 24
property float x
property float y
property float z
property uchar red
property uchar green
property uchar blue
element face 0
property list uchar int vertex_index
end_header
-0.189162 1.039502 -0.341200 150 150 150
-0.140830 0.956644 -0.300274 150 150 150
-0.235983 0.946597 -0.381375 150 150 150
-0.152275 1.157987 -0.386790 150 150 150
-0.218545 0.754794 0.018594 150 150 150
-0.284877 0.567250 -0.381533 150 150 150
-0.167369 1.292598 -0.364255 150 150 150
-0.147279 0.406442 -0.222729 150 150 150
-0.252661 0.145437 -0.412730 150 150 150
-0.171916 1.348585 -0.368055 150 150 150
-0.151789 0.291519 -0.146107 150 150 150
-0.365577 0.082380 -0.340578 150 150 150
-0.172981 1.568129 -0.413849 150 150 150
-0.102926 1.470008 -0.348488 150 150 150
-0.231592 1.456006 -0.443389 150 150 150
-0.200822 1.639359 -0.352121 150 150 150
0.021340 1.485077 -0.317464 150 150 150
-0.312641 1.453500 -0.531330 150 150 150
0.148997 1.301156 -0.207485 150 150 150
-0.378557 1.210780 -0.580550 150 150 150
0.303732 1.256286 0.001104 150 150 150
-0.550032 1.006869 -0.578384 150 150 150
0.348401 1.227500 0.071249 150 150 150
-0.593064 0.928417 -0.567931 150 150 150
