ply
format ascii 1.0
comment author: Greg Turk
comment object: another cube
element vertex 24
property float x
property float y
property float z
property uchar red
property uchar green
property uchar blue
element face 0
property list uchar int vertex_index
end_header
0.311855 1.065551 -0.212607 150 150 150
0.342164 0.963237 -0.220204 150 150 150
0.217113 1.002123 -0.212711 150 150 150
0.363584 1.169900 -0.259855 150 150 150
0.383460 0.579508 -0.210934 150 150 150
-0.024306 0.955918 0.082799 150 150 150
0.390076 1.307618 -0.217588 150 150 150
0.364089 0.154541 -0.217857 150 150 150
0.062107 0.650708 -0.205970 150 150 150
0.392631 1.369976 -0.215534 150 150 150
0.455585 0.082155 -0.141965 150 150 150
-0.003604 0.525385 -0.170593 150 150 150
0.392763 1.584912 -0.242004 150 150 150
0.469322 1.484963 -0.207613 150 150 150
0.326102 1.486909 -0.264574 150 150 150
0.366997 1.642884 -0.172017 150 150 150
0.593496 1.508539 -0.215931 150 150 150
0.233481 1.518592 -0.331322 150 150 150
0.750435 1.342871 -0.128814 150 150 150
0.020983 1.381287 -0.369811 150 150 150
0.777109 1.515066 0.057730 150 150 150
-0.148708 1.560058 -0.285910 150 150 150
0.796108 1.561822 0.130724 150 150 150
-0.217085 1.604204 -0.246327 150 150 150
