ply
format ascii 1.0
comment author: Greg Turk
comment object: another cube
element vertex 24
property float x
property float y
property float z
property uchar red
property uchar green
property uchar blue
element face 0
property list uchar int vertex_index
end_header
1.072081 1.043682 -0.034215 150 150 150
1.080336 0.944189 0.006427 150 150 150
1.060575 0.971506 -0.121458 150 150 150
1.127567 1.150432 0.001498 150 150 150
1.108804 0.564766 0.053469 150 150 150
0.717528 0.965897 -0.300040 150 150 150
1.095154 1.293364 0.023565 150 150 150
1.180462 0.144076 0.059606 150 150 150
0.924317 0.597248 -0.223766 150 150 150
1.099249 1.356596 0.025488 150 150 150
1.074673 0.073618 0.116581 150 150 150
0.854480 0.483774 -0.283236 150 150 150
1.134971 1.566967 0.024277 150 150 150
1.106790 1.469550 0.102589 150 150 150
1.146925 1.470582 -0.043341 150 150 150
1.060705 1.624636 0.016062 150 150 150
1.137436 1.494155 0.223301 150 150 150
1.216481 1.507762 -0.133548 150 150 150
1.057328 1.355002 0.408755 150 150 150
1.271262 1.391506 -0.354205 150 150 150
0.936970 1.559962 0.506317 150 150 150
1.226128 1.591283 -0.515530 150 150 150
0.887968 1.623508 0.543887 150 150 150
1.192293 1.650451 -0.575049 150 150 150
