ply
format ascii 1.0
comment author: Greg Turk
comment object: another cube
element vertex 24
property float x
property float y
property float z
property uchar red
property uchar green
property uchar blue
element face 0
property list uchar int vertex_index
end_header
0.319019 1.069634 -0.195221 150 150 150
0.347976 0.966719 -0.203617 150 150 150
0.223536 1.007611 -0.187828 150 150 150
0.368539 1.172277 -0.247115 150 150 150
0.386295 0.582955 -0.204017 150 150 150
0.010615 0.996662 0.131201 150 150 150
0.398411 1.310769 -0.206697 150 150 150
0.365001 0.158497 -0.217312 150 150 150
0.083990 0.686746 -0.156748 150 150 150
0.401408 1.373711 -0.204454 150 150 150
0.455402 0.083803 -0.142544 150 150 150
0.023253 0.561910 -0.111961 150 150 150
0.400282 1.587813 -0.228739 150 150 150
0.478141 1.488352 -0.200160 150 150 150
0.332630 1.490985 -0.248424 150 150 150
0.378458 1.643681 -0.156521 150 150 150
0.600683 1.513875 -0.216343 150 150 150
0.237271 1.525482 -0.309322 150 150 150
0.762517 1.351760 -0.133757 150 150 150
0.018205 1.395451 -0.334475 150 150 150
0.774815 1.532653 0.045908 150 150 150
-0.140874 1.578551 -0.240000 150 150 150
0.789570 1.582735 0.117845 150 150 150
-0.206210 1.622786 -0.195585 150 150 150
