ply
format ascii 1.0
comment author: Greg Turk
comment object: another cube
element vertex 24
property float x
property float y
property float z
property uchar red
property uchar green
property uchar blue
element face 0
property list uchar int vertex_index
end_header
1.120403 1.008350 -0.058730 150 150 150
1.141988 0.922599 -0.004230 150 150 150
1.139884 0.922891 -0.125851 150 150 150
1.154033 1.139161 -0.044651 150 150 150
1.148715 0.546133 0.054414 150 150 150
1.135563 0.552638 -0.214620 150 150 150
1.123206 1.273150 -0.031203 150 150 150
1.184933 0.117061 0.065648 150 150 150
1.193373 0.134909 -0.248079 150 150 150
1.119225 1.328025 -0.031884 150 150 150
1.071526 0.055348 0.120787 150 150 150
1.072184 0.074005 -0.307783 150 150 150
1.163625 1.548494 -0.039317 150 150 150
1.141321 1.441276 0.047089 150 150 150
1.148202 1.445253 -0.115078 150 150 150
1.110495 1.632105 -0.026199 150 150 150
1.164946 1.443099 0.175146 150 150 150
1.151651 1.460284 -0.233436 150 150 150
1.138299 1.241214 0.324598 150 150 150
1.115849 1.259953 -0.398870 150 150 150
0.998491 1.054392 0.448916 150 150 150
0.973880 1.069436 -0.523956 150 150 150
0.958133 0.980642 0.478436 150 150 150
0.926502 0.999351 -0.556938 150 150 150
