ply
format ascii 1.0
comment author: Greg Turk
comment object: another cube
element vertex 24
property float x
property float y
property float z
property uchar red
property uchar green
property uchar blue
element face 0
property list uchar int vertex_index
end_header
0.795937 1.024687 -0.298471 150 150 150
0.772614 0.940852 -0.239479 150 150 150
0.822357 0.931256 -0.355108 150 150 150
0.849140 1.145014 -0.276509 150 150 150
0.459079 0.721808 -0.213204 150 150 150
0.781724 0.551363 -0.388633 150 150 150
0.818717 1.283779 -0.280501 150 150 150
0.808939 0.476685 -0.160947 150 150 150
0.829781 0.134479 -0.329098 150 150 150
0.821638 1.344300 -0.281053 150 150 150
0.766913 0.355867 -0.110280 150 150 150
0.720797 0.075146 -0.410128 150 150 150
0.863340 1.556663 -0.278372 150 150 150
0.823281 1.458850 -0.204029 150 150 150
0.876553 1.457052 -0.349291 150 150 150
0.799917 1.629625 -0.282863 150 150 150
0.832328 1.486121 -0.077131 150 150 150
0.939895 1.484466 -0.449003 150 150 150
0.732310 1.366757 0.117257 150 150 150
0.960837 1.324500 -0.649626 150 150 150
0.591352 1.478962 0.307168 150 150 150
0.922092 1.346120 -0.910467 150 150 150
0.528701 1.496192 0.365885 150 150 150
0.898873 1.334012 -0.996422 150 150 150
