ply
format ascii 1.0
comment author: Greg Turk
comment object: another cube
element vertex 24
property float x
property float y
property float z
property uchar red
property uchar green
property uchar blue
element face 0
property list uchar int vertex_index
end_header
0.195443 1.024022 0.283333 150 150 150
0.180461 0.934758 0.228855 150 150 150
0.192141 0.934621 0.349982 150 150 150
0.148309 1.150769 0.268842 150 150 150
0.130288 0.560816 0.224596 150 150 150
0.387452 0.608796 0.379596 150 150 150
0.172028 1.287925 0.262071 150 150 150
-0.031356 0.160411 0.220304 150 150 150
0.350936 0.184699 0.395817 150 150 150
0.167825 1.344221 0.265445 150 150 150
0.047711 0.059135 0.271596 150 150 150
0.469632 0.099203 0.390788 150 150 150
0.116139 1.561992 0.264698 150 150 150
0.157799 1.457425 0.184127 150 150 150
0.110876 1.456953 0.337180 150 150 150
0.189687 1.625716 0.268362 150 150 150
0.154095 1.450494 0.057533 150 150 150
0.037620 1.462834 0.432092 150 150 150
0.241080 1.240741 -0.046002 150 150 150
-0.012298 1.254425 0.568845 150 150 150
0.470091 1.237995 -0.163694 150 150 150
-0.003410 1.274362 0.827957 150 150 150
0.549820 1.217339 -0.194982 150 150 150
0.016914 1.265657 0.915218 150 150 150
