ply
format ascii 1.0
comment author: Greg Turk
comment object: another cube
element vertex 24
property float x
property float y
property float z
property uchar red
property uchar green
property uchar blue
element face 0
property list uchar int vertex_index
end_header
0.344758 1.062380 -0.130551 150 150 150
0.376149 0.961574 -0.148114 150 150 150
0.257972 0.995740 -0.101065 150 150 150
0.374236 1.168114 -0.191518 150 150 150
0.400767 0.577438 -0.161995 150 150 150
0.196215 0.946961 0.274122 150 150 150
0.415145 1.303154 -0.161146 150 150 150
0.365190 0.154590 -0.209408 150 150 150
0.218724 0.646450 -0.030615 150 150 150
0.420856 1.363723 -0.156774 150 150 150
0.456069 0.077808 -0.138507 150 150 150
0.192908 0.520228 0.040531 150 150 150
0.424578 1.581714 -0.172235 150 150 150
0.502758 1.475181 -0.171731 150 150 150
0.348138 1.486176 -0.174081 150 150 150
0.429481 1.635324 -0.094050 150 150 150
0.614968 1.492906 -0.226241 150 150 150
0.239693 1.522707 -0.200201 150 150 150
0.773051 1.310690 -0.189922 150 150 150
0.036845 1.367244 -0.175886 150 150 150
0.833033 1.475935 -0.003781 150 150 150
-0.152866 1.454541 -0.019944 150 150 150
0.861630 1.519110 0.068960 150 150 150
-0.219061 1.460436 0.041692 150 150 150
