ply
format ascii 1.0
comment author: Greg Turk
comment object: another cube
element vertex 24
property float x
property float y
property float z
property uchar red
property uchar green
property uchar blue
element face 0
property list uchar int vertex_index
end_header
-0.113765 1.023829 -0.341917 150 150 150
-0.074885 0.936165 -0.299182 150 150 150
-0.137615 0.935198 -0.404604 150 150 150
-0.066942 1.151004 -0.351207 150 150 150
-0.023014 0.561314 -0.291750 150 150 150
-0.270337 0.580098 -0.391529 150 150 150
-0.077983 1.283452 -0.336576 150 150 150
0.120484 0.156699 -0.347120 150 150 150
-0.257402 0.156836 -0.418021 150 150 150
-0.075675 1.334082 -0.343653 150 150 150
0.016661 0.065437 -0.323967 150 150 150
-0.364035 0.082490 -0.348223 150 150 150
-0.021915 1.558756 -0.379256 150 150 150
-0.017924 1.449065 -0.282602 150 150 150
-0.067115 1.445459 -0.439168 150 150 150
-0.073619 1.639722 -0.347292 150 150 150
0.060942 1.416877 -0.192108 150 150 150
-0.072910 1.421633 -0.554554 150 150 150
0.060058 1.169476 -0.169467 150 150 150
-0.067888 1.168244 -0.586069 150 150 150
0.097983 0.907699 -0.140433 150 150 150
-0.086822 0.904070 -0.627449 150 150 150
0.097974 0.819066 -0.146685 150 150 150
-0.093548 0.813898 -0.617850 150 150 150
