ply
format ascii 1.0
comment author: Greg Turk
comment object: another cube
element vertex 24
property float x
property float y
property float z
property uchar red
property uchar green
property uchar blue
element face 0
property list uchar int vertex_index
end_header
-0.181894 1.035897 -0.344854 150 150 150
-0.135830 0.951800 -0.303859 150 150 150
-0.224920 0.943865 -0.389799 150 150 150
-0.142214 1.157043 -0.384593 150 150 150
-0.213118 0.681475 -0.040914 150 150 150
-0.283475 0.567158 -0.386229 150 150 150
-0.157812 1.290453 -0.363288 150 150 150
-0.088934 0.326653 -0.250502 150 150 150
-0.252411 0.144578 -0.413551 150 150 150
-0.161888 1.345032 -0.367845 150 150 150
-0.102304 0.213493 -0.171726 150 150 150
-0.365027 0.080813 -0.342178 150 150 150
-0.157046 1.567032 -0.415130 150 150 150
-0.094054 1.466683 -0.341564 150 150 150
-0.213739 1.453082 -0.449286 150 150 150
-0.189333 1.640322 -0.356486 150 150 150
0.026739 1.473985 -0.300269 150 150 150
-0.286131 1.443306 -0.542933 150 150 150
0.128766 1.268459 -0.204257 150 150 150
-0.326536 1.193268 -0.580427 150 150 150
0.271462 1.148856 -0.016515 150 150 150
-0.453620 0.958172 -0.582931 150 150 150
0.309458 1.096569 0.043345 150 150 150
-0.480668 0.872849 -0.571423 150 150 150
