ply
format ascii 1.0
comment author: Greg Turk
comment object: another cube
element vertex 24
property float x
property float y
property float z
property uchar red
property uchar green
property uchar blue
element face 0
property list uchar int vertex_index
end_header
0.330607 1.050348 0.302884 150 150 150
0.326559 0.972273 0.233434 150 150 150
0.348892 0.953395 0.359228 150 150 150
0.265220 1.160226 0.321703 150 150 150
0.650412 1.001885 0.033353 150 150 150
0.387726 0.570336 0.379498 150 150 150
0.300983 1.297387 0.320193 150 150 150
0.498478 0.637014 0.193207 150 150 150
0.336021 0.149761 0.390490 150 150 150
0.304911 1.358031 0.330749 150 150 150
0.578088 0.534148 0.148443 150 150 150
0.470605 0.088554 0.389102 150 150 150
0.301453 1.567696 0.388458 150 150 150
0.277602 1.487588 0.288090 150 150 150
0.313615 1.453843 0.435895 150 150 150
0.379312 1.619320 0.376584 150 150 150
0.194335 1.536620 0.203987 150 150 150
0.310564 1.450556 0.554908 150 150 150
0.112592 1.383635 0.035289 150 150 150
0.356845 1.216993 0.626978 150 150 150
0.157480 1.513732 -0.177309 150 150 150
0.579189 1.282634 0.738256 150 150 150
0.170611 1.526459 -0.262498 150 150 150
0.664023 1.285833 0.766566 150 150 150
