ply
format ascii 1.0
comment author: Greg Turk
comment object: another cube
element vertex 24
property float x
property float y
property float z
property uchar red
property uchar green
property uchar blue
element face 0
property list uchar int vertex_index
end_header
0.365640 1.033497 0.256307 150 150 150
0.366553 0.952620 0.190418 150 150 150
0.371691 0.938225 0.316201 150 150 150
0.304129 1.148496 0.263739 150 150 150
0.712068 0.893224 0.031380 150 150 150
0.406574 0.556179 0.351107 150 150 150
0.338986 1.284611 0.261280 150 150 150
0.541675 0.498470 0.031145 150 150 150
0.339320 0.136763 0.376800 150 150 150
0.340473 1.343546 0.269144 150 150 150
0.608950 0.385482 -0.007369 150 150 150
0.474718 0.078960 0.385814 150 150 150
0.315965 1.555591 0.317385 150 150 150
0.308374 1.468621 0.217844 150 150 150
0.331266 1.444178 0.371517 150 150 150
0.390165 1.615028 0.310881 150 150 150
0.234045 1.499490 0.115605 150 150 150
0.320863 1.446167 0.491837 150 150 150
0.196621 1.349181 -0.076943 150 150 150
0.398059 1.247189 0.634865 150 150 150
0.265150 1.450681 -0.302964 150 150 150
0.568618 1.322159 0.819013 150 150 150
0.290674 1.467856 -0.385154 150 150 150
0.635179 1.338343 0.877040 150 150 150
