ply
format ascii 1.0
comment author: Greg Turk
comment object: another cube
element vertex 24
property float x
property float y
property float z
property uchar red
property uchar green
property uchar blue
element face 0
property list uchar int vertex_index
end_header
1.109581 1.006654 -0.043153 150 150 150
1.128282 0.918386 0.008430 150 150 150
1.122936 0.922137 -0.113253 150 150 150
1.150028 1.135441 -0.026034 150 150 150
1.124123 0.541504 0.063122 150 150 150
1.095158 0.555271 -0.211766 150 150 150
1.123787 1.270494 -0.008007 150 150 150
1.179131 0.114396 0.064446 150 150 150
1.182903 0.143094 -0.252212 150 150 150
1.123150 1.326367 -0.007396 150 150 150
1.067844 0.051829 0.121417 150 150 150
1.061925 0.078001 -0.307476 150 150 150
1.170842 1.545571 -0.010782 150 150 150
1.146985 1.438197 0.073246 150 150 150
1.156328 1.443971 -0.087705 150 150 150
1.114470 1.626171 0.001209 150 150 150
1.172666 1.441814 0.200683 150 150 150
1.168023 1.462349 -0.205139 150 150 150
1.130672 1.248044 0.356702 150 150 150
1.131588 1.268932 -0.377129 150 150 150
0.962701 1.115714 0.511254 150 150 150
0.974614 1.124709 -0.539594 150 150 150
0.910664 1.055498 0.550530 150 150 150
0.921925 1.067469 -0.585908 150 150 150
