ply
format ascii 1.0
comment author: Greg Turk
comment object: another cube
element vertex 24
property float x
property float y
property float z
property uchar red
property uchar green
property uchar blue
element face 0
property list uchar int vertex_index
end_header
1.065997 1.031770 -0.038313 150 150 150
1.078102 0.935238 0.005556 150 150 150
1.060317 0.955936 -0.121563 150 150 150
1.115415 1.143179 -0.006130 150 150 150
1.107199 0.555123 0.051651 150 150 150
0.722707 0.881835 -0.300532 150 150 150
1.079793 1.281608 0.013564 150 150 150
1.181086 0.133145 0.059656 150 150 150
0.870859 0.481518 -0.272501 150 150 150
1.082111 1.341611 0.014064 150 150 150
1.072738 0.067286 0.117467 150 150 150
0.797273 0.375620 -0.340743 150 150 150
1.124867 1.556654 0.013801 150 150 150
1.091422 1.455028 0.093684 150 150 150
1.132725 1.455928 -0.056466 150 150 150
1.054329 1.621949 0.003633 150 150 150
1.114203 1.464017 0.219621 150 150 150
1.199591 1.479178 -0.154407 150 150 150
1.032915 1.295629 0.383075 150 150 150
1.246748 1.328189 -0.357134 150 150 150
0.878162 1.433823 0.537336 150 150 150
1.188946 1.452271 -0.580938 150 150 150
0.815580 1.469646 0.588705 150 150 150
1.152008 1.479498 -0.659098 150 150 150
