ply
format ascii 1.0
comment author: Greg Turk
comment object: another cube
element vertex 24
property float x
property float y
property float z
property uchar red
property uchar green
property uchar blue
element face 0
property list uchar int vertex_index
end_header
0.032067 1.051327 0.165911 150 150 150
0.051979 0.951125 0.129558 150 150 150
0.002383 0.978262 0.247386 150 150 150
-0.004903 1.157429 0.103469 150 150 150
0.055093 0.571487 0.158633 150 150 150
0.232212 0.929531 0.547810 150 150 150
0.027697 1.301438 0.100768 150 150 150
-0.043279 0.157744 0.200695 150 150 150
0.015637 0.641426 0.312755 150 150 150
0.025359 1.364593 0.098471 150 150 150
0.043200 0.073130 0.267361 150 150 150
0.027430 0.505203 0.365692 150 150 150
-0.003652 1.575850 0.083716 150 150 150
0.059913 1.478397 0.029095 150 150 150
-0.050335 1.478659 0.135840 150 150 150
0.061772 1.628068 0.126421 150 150 150
0.098811 1.504108 -0.087777 150 150 150
-0.155996 1.508337 0.180829 150 150 150
0.252699 1.343746 -0.187874 150 150 150
-0.283735 1.337723 0.313291 150 150 150
0.431431 1.524420 -0.162556 150 150 150
-0.325868 1.505478 0.504081 150 150 150
0.506866 1.570577 -0.157869 150 150 150
-0.324007 1.545228 0.584994 150 150 150
