ply
format ascii 1.0
comment author: Greg Turk
comment object: another cube
element vertex 24
property float x
property float y
property float z
property uchar red
property uchar green
property uchar blue
element face 0
property list uchar int vertex_index
end_header
0.395598 0.988899 0.118099 150 150 150
0.403913 0.900741 0.062507 150 150 150
0.361611 0.901688 0.178275 150 150 150
0.358304 1.115470 0.089609 150 150 150
0.520390 0.540705 0.007466 150 150 150
0.414632 0.541230 0.292993 150 150 150
0.391267 1.244712 0.090041 150 150 150
0.393882 0.174189 -0.182200 150 150 150
0.345923 0.127115 0.361825 150 150 150
0.391251 1.296509 0.094535 150 150 150
0.461522 0.059738 -0.141432 150 150 150
0.479024 0.071759 0.387467 150 150 150
0.348116 1.524947 0.100587 150 150 150
0.403462 1.417227 0.019950 150 150 150
0.328259 1.408569 0.166536 150 150 150
0.416422 1.592036 0.128735 150 150 150
0.414633 1.396411 -0.103012 150 150 150
0.261088 1.385566 0.259031 150 150 150
0.430703 1.149958 -0.135599 150 150 150
0.272568 1.131738 0.303089 150 150 150
0.530894 0.913619 -0.194146 150 150 150
0.339303 0.920425 0.451646 150 150 150
0.558722 0.829502 -0.196342 150 150 150
0.378122 0.849171 0.492196 150 150 150
