ply
format ascii 1.0
comment author: Greg Turk
comment object: another cube
element vertex 24
property float x
property float y
property float z
property uchar red
property uchar green
property uchar blue
element face 0
property list uchar int vertex_index
end_header
0.361148 1.039925 0.265806 150 150 150
0.362093 0.960051 0.198608 150 150 150
0.371152 0.943875 0.325006 150 150 150
0.297397 1.152603 0.276044 150 150 150
0.706301 0.958072 0.027228 150 150 150
0.405567 0.561045 0.356579 150 150 150
0.333360 1.290141 0.272614 150 150 150
0.552081 0.558569 0.058049 150 150 150
0.338976 0.141860 0.379335 150 150 150
0.334922 1.350804 0.280802 150 150 150
0.624444 0.449761 0.016724 150 150 150
0.473967 0.082473 0.385527 150 150 150
0.315460 1.560458 0.330579 150 150 150
0.303600 1.476489 0.232324 150 150 150
0.329762 1.450356 0.383054 150 150 150
0.390864 1.616788 0.323181 150 150 150
0.225469 1.516828 0.136977 150 150 150
0.318806 1.456158 0.503014 150 150 150
0.176540 1.383591 -0.062929 150 150 150
0.399259 1.262794 0.646863 150 150 150
0.243739 1.527601 -0.262927 150 150 150
0.562357 1.388390 0.805817 150 150 150
0.268958 1.554131 -0.342511 150 150 150
0.629947 1.418825 0.856294 150 150 150
