ply
format ascii 1.0
comment author: Greg Turk
comment object: another cube
element vertex 24
property float x
property float y
property float z
property uchar red
property uchar green
property uchar blue
element face 0
property list uchar int vertex_index
end_header
0.387095 0.973411 -0.373665 150 150 150
0.389128 0.885351 -0.319442 150 150 150
0.418593 0.889699 -0.437324 150 150 150
0.422355 1.102650 -0.351757 150 150 150
0.197699 0.553613 -0.311483 150 150 150
0.507284 0.523068 -0.441430 150 150 150
0.393222 1.231423 -0.337575 150 150 150
0.145629 0.128486 -0.365248 150 150 150
0.768917 0.199560 -0.354712 150 150 150
0.395850 1.282911 -0.337822 150 150 150
0.024136 0.070068 -0.329653 150 150 150
0.701196 0.082801 -0.416031 150 150 150
0.457999 1.508546 -0.326342 150 150 150
0.414607 1.393871 -0.248567 150 150 150
0.446948 1.401239 -0.408561 150 150 150
0.414856 1.600818 -0.320345 150 150 150
0.459161 1.362348 -0.134162 150 150 150
0.490691 1.383316 -0.515514 150 150 150
0.474810 1.116642 -0.118403 150 150 150
0.472853 1.130714 -0.552685 150 150 150
0.490884 0.861870 -0.042127 150 150 150
0.422581 0.880618 -0.638553 150 150 150
0.488872 0.773290 -0.035538 150 150 150
0.398838 0.794327 -0.654675 150 150 150
