ply
format ascii 1.0
comment author: Greg Turk
comment object: another cube
element vertex 24
property float x
property float y
property float z
property uchar red
property uchar green
property uchar blue
element face 0
property list uchar int vertex_index
end_header
-0.212671 1.034869 -0.259410 150 150 150
-0.152742 0.953633 -0.229982 150 150 150
-0.267573 0.938948 -0.283957 150 150 150
-0.192868 1.151926 -0.315926 150 150 150
-0.108779 0.894442 0.148516 150 150 150
-0.298593 0.558280 -0.318556 150 150 150
-0.200234 1.294404 -0.286777 150 150 150
-0.135433 0.488363 0.010843 150 150 150
-0.257537 0.145645 -0.408082 150 150 150
-0.202922 1.357634 -0.293715 150 150 150
-0.099013 0.382946 0.091782 150 150 150
-0.367981 0.085134 -0.330285 150 150 150
-0.219387 1.563867 -0.337407 150 150 150
-0.136400 1.476618 -0.298903 150 150 150
-0.278742 1.462120 -0.349249 150 150 150
-0.233092 1.624673 -0.267021 150 150 150
-0.014584 1.518616 -0.316240 150 150 150
-0.373413 1.487495 -0.420448 150 150 150
0.196187 1.414306 -0.245019 150 150 150
-0.570323 1.334036 -0.445478 150 150 150
0.316337 1.612942 -0.139731 150 150 150
-0.661296 1.566354 -0.375718 150 150 150
0.371062 1.657305 -0.087964 150 150 150
-0.700016 1.635931 -0.334752 150 150 150
