ply
format ascii 1.0
comment author: Greg Turk
comment object: another cube
element vertex 24
property float x
property float y
property float z
property uchar red
property uchar green
property uchar blue
element face 0
property list uchar int vertex_index
end_header
1.101513 1.018084 -0.033955 150 150 150
1.113302 0.925062 0.012925 150 150 150
1.103860 0.936165 -0.110293 150 150 150
1.152507 1.139423 -0.008064 150 150 150
1.118232 0.546310 0.061671 150 150 150
0.935850 0.621342 -0.253663 150 150 150
1.129111 1.276797 0.014950 150 150 150
1.179908 0.120518 0.062104 150 150 150
1.110798 0.235052 -0.258536 150 150 150
1.132067 1.335518 0.017618 150 150 150
1.070214 0.057319 0.120004 150 150 150
1.023782 0.133685 -0.320624 150 150 150
1.172460 1.551410 0.021192 150 150 150
1.149919 1.445669 0.100333 150 150 150
1.169899 1.453680 -0.055368 150 150 150
1.103717 1.620058 0.028610 150 150 150
1.180056 1.457741 0.225427 150 150 150
1.202271 1.484897 -0.165941 150 150 150
1.121150 1.293531 0.406294 150 150 150
1.188763 1.331691 -0.374249 150 150 150
0.935587 1.351376 0.580563 150 150 150
1.036995 1.351114 -0.589397 150 150 150
0.864088 1.358304 0.632403 150 150 150
0.973829 1.345020 -0.653845 150 150 150
