ply
format ascii 1.0
comment author: Greg Turk
comment object: another cube
element vertex 24
property float x
property float y
property float z
property uchar red
property uchar green
property uchar blue
element face 0
property list uchar int vertex_index
end_header
0.131421 1.053827 0.249907 150 150 150
0.127554 0.958191 0.201750 150 150 150
0.133382 0.970569 0.325435 150 150 150
0.077162 1.171346 0.219433 150 150 150
0.094458 0.582215 0.212343 150 150 150
0.444587 0.754693 0.392643 150 150 150
0.105736 1.314724 0.207905 150 150 150
-0.029980 0.170074 0.221817 150 150 150
0.339523 0.340354 0.417106 150 150 150
0.101237 1.377108 0.206834 150 150 150
0.046866 0.067709 0.272797 150 150 150
0.443553 0.239071 0.427645 150 150 150
0.061271 1.587133 0.196679 150 150 150
0.107356 1.489053 0.127511 150 150 150
0.038395 1.490520 0.264249 150 150 150
0.136354 1.641929 0.214971 150 150 150
0.116614 1.510374 0.003887 150 150 150
-0.052033 1.516575 0.337829 150 150 150
0.262503 1.365688 -0.129151 150 150 150
-0.127506 1.353060 0.507894 150 150 150
0.421145 1.563839 -0.139563 150 150 150
-0.093973 1.557629 0.656973 150 150 150
0.495808 1.609851 -0.148879 150 150 150
-0.061731 1.607598 0.724292 150 150 150
