ply
format ascii 1.0
comment author: Greg Turk
comment object: another cube
element vertex 24
property float x
property float y
property float z
property uchar red
property uchar green
property uchar blue
element face 0
property list uchar int vertex_index
end_header
0.293866 1.025980 0.319153 150 150 150
0.280418 0.944043 0.256082 150 150 150
0.296019 0.932131 0.377614 150 150 150
0.242932 1.148695 0.327634 150 150 150
0.473733 0.629551 0.153126 150 150 150
0.382445 0.560622 0.399986 150 150 150
0.271847 1.280286 0.330820 150 150 150
0.198253 0.305035 0.210608 150 150 150
0.343916 0.137607 0.388973 150 150 150
0.273886 1.332527 0.341617 150 150 150
0.269290 0.189229 0.182838 150 150 150
0.474731 0.069609 0.390529 150 150 150
0.247157 1.554665 0.393659 150 150 150
0.249444 1.460372 0.286195 150 150 150
0.259211 1.433378 0.447104 150 150 150
0.323246 1.617945 0.382433 150 150 150
0.193264 1.469173 0.174290 150 150 150
0.243567 1.410414 0.562307 150 150 150
0.160254 1.240717 0.083922 150 150 150
0.249095 1.157001 0.606108 150 150 150
0.137381 1.030152 -0.072207 150 150 150
0.338411 0.930791 0.715564 150 150 150
0.127256 0.947032 -0.097409 150 150 150
0.368361 0.846748 0.729695 150 150 150
