ply
format ascii 1.0
comment author: Greg Turk
comment object: another cube
element vertex 24
property float x
property float y
property float z
property uchar red
property uchar green
property uchar blue
element face 0
property list uchar int vertex_index
end_header
0.307608 0.991517 -0.367944 150 150 150
0.313623 0.902282 -0.315923 150 150 150
0.322211 0.906423 -0.436515 150 150 150
0.352595 1.117230 -0.348110 150 150 150
0.159474 0.551148 -0.308833 150 150 150
0.302191 0.528546 -0.474571 150 150 150
0.330738 1.248026 -0.326603 150 150 150
0.140209 0.124910 -0.373150 150 150 150
0.640705 0.282705 -0.403181 150 150 150
0.335917 1.300520 -0.325929 150 150 150
0.022639 0.063421 -0.331313 150 150 150
0.632276 0.137971 -0.434105 150 150 150
0.400937 1.523203 -0.318824 150 150 150
0.363914 1.410748 -0.238503 150 150 150
0.384383 1.417452 -0.399086 150 150 150
0.355200 1.613505 -0.309727 150 150 150
0.415564 1.389477 -0.123982 150 150 150
0.423247 1.406996 -0.509470 150 150 150
0.434858 1.150899 -0.060956 150 150 150
0.397799 1.164942 -0.587213 150 150 150
0.457349 0.931395 0.087058 150 150 150
0.331629 0.954192 -0.739175 150 150 150
0.459990 0.849837 0.121255 150 150 150
0.302189 0.878138 -0.779170 150 150 150
