ply
format ascii 1.0
comment author: Greg Turk
comment object: another cube
element vertex 24
property float x
property float y
property float z
property uchar red
property uchar green
property uchar blue
element face 0
property list uchar int vertex_index
end_header
0.020006 1.051399 -0.352838 150 150 150
0.043233 0.955975 -0.312540 150 150 150
-0.016961 0.971138 -0.421258 150 150 150
0.083415 1.165344 -0.348431 150 150 150
0.051433 0.574827 -0.315170 150 150 150
-0.347239 0.779193 -0.366790 150 150 150
0.069586 1.303565 -0.323296 150 150 150
0.128174 0.153512 -0.365568 150 150 150
-0.290999 0.366570 -0.461274 150 150 150
0.076326 1.360809 -0.324767 150 150 150
0.022486 0.069832 -0.332965 150 150 150
-0.395958 0.266863 -0.442191 150 150 150
0.139697 1.573957 -0.335686 150 150 150
0.118938 1.470119 -0.248737 150 150 150
0.115510 1.472668 -0.407775 150 150 150
0.076060 1.646828 -0.323241 150 150 150
0.168322 1.463290 -0.131114 150 150 150
0.152485 1.480591 -0.521584 150 150 150
0.123659 1.265864 0.015318 150 150 150
0.126572 1.287880 -0.685641 150 150 150
-0.001614 1.310716 0.236662 150 150 150
-0.010380 1.355297 -0.896872 150 150 150
-0.050799 1.310936 0.309763 150 150 150
-0.071526 1.365558 -0.962328 150 150 150
