ply
format ascii 1.0
comment author: Greg Turk
comment object: another cube
element vertex 24
property float x
property float y
property float z
property uchar red
property uchar green
property uchar blue
element face 0
property list uchar int vertex_index
end_header
-0.195910 1.043113 -0.333588 150 150 150
-0.145333 0.961534 -0.292412 150 150 150
-0.245563 0.949172 -0.369290 150 150 150
-0.161599 1.159119 -0.384315 150 150 150
-0.207237 0.830539 0.064188 150 150 150
-0.285320 0.567836 -0.376554 150 150 150
-0.175852 1.295331 -0.361404 150 150 150
-0.181285 0.486557 -0.191100 150 150 150
-0.252631 0.146903 -0.413010 150 150 150
-0.180387 1.352879 -0.365132 150 150 150
-0.183216 0.370749 -0.116303 150 150 150
-0.365627 0.084865 -0.339527 150 150 150
-0.185520 1.569741 -0.409782 150 150 150
-0.110887 1.473946 -0.351674 150 150 150
-0.245270 1.459673 -0.435330 150 150 150
-0.209695 1.638781 -0.345905 150 150 150
0.015268 1.496005 -0.331021 150 150 150
-0.331653 1.464316 -0.518828 150 150 150
0.165583 1.335995 -0.212254 150 150 150
-0.426116 1.232602 -0.574235 150 150 150
0.321005 1.373183 -0.004166 150 150 150
-0.642224 1.078906 -0.567558 150 150 150
0.369087 1.371239 0.069422 150 150 150
-0.703527 1.013851 -0.557637 150 150 150
