ply
format ascii 1.0
comment author: Greg Turk
comment object: another cube
element vertex 24
property float x
property float y
property float z
property uchar red
property uchar green
property uchar blue
element face 0
property list uchar int vertex_index
end_header
1.117707 1.009788 -0.076335 150 150 150
1.140214 0.924410 -0.021657 150 150 150
1.136023 0.923810 -0.143160 150 150 150
1.151655 1.140817 -0.063728 150 150 150
1.149450 0.549114 0.043184 150 150 150
1.133638 0.552173 -0.224636 150 150 150
1.121549 1.275354 -0.050405 150 150 150
1.184502 0.120351 0.063559 150 150 150
1.193968 0.134265 -0.249933 150 150 150
1.117973 1.330623 -0.051148 150 150 150
1.071947 0.059059 0.120825 150 150 150
1.072404 0.072180 -0.307823 150 150 150
1.162681 1.550376 -0.059240 150 150 150
1.140588 1.443923 0.027323 150 150 150
1.146966 1.447449 -0.134587 150 150 150
1.109128 1.633554 -0.046448 150 150 150
1.163558 1.448115 0.155392 150 150 150
1.150664 1.464054 -0.252559 150 150 150
1.131521 1.248687 0.307055 150 150 150
1.116437 1.263613 -0.417531 150 150 150
0.985186 1.066689 0.430813 150 150 150
0.974134 1.073307 -0.542118 150 150 150
0.942769 0.994469 0.461118 150 150 150
0.926584 1.003703 -0.575660 150 150 150
