ply
format ascii 1.0
comment author: Greg Turk
comment object: another cube
element vertex 24
property float x
property float y
property float z
property uchar red
property uchar green
property uchar blue
element face 0
property list uchar int vertex_index
end_header
0.049654 1.065003 -0.351903 150 150 150
0.066317 0.966754 -0.311511 150 150 150
0.009383 0.989213 -0.424251 150 150 150
0.117865 1.172832 -0.341921 150 150 150
0.058105 0.585164 -0.311670 150 150 150
-0.369045 0.916462 -0.385163 150 150 150
0.102656 1.315790 -0.316162 150 150 150
0.125615 0.163944 -0.361694 150 150 150
-0.242690 0.515444 -0.473990 150 150 150
0.112186 1.376618 -0.316611 150 150 150
0.022447 0.076008 -0.333784 150 150 150
-0.343423 0.410407 -0.480692 150 150 150
0.176017 1.583245 -0.326549 150 150 150
0.152683 1.485867 -0.242550 150 150 150
0.156831 1.486072 -0.396809 150 150 150
0.110754 1.652805 -0.317514 150 150 150
0.206683 1.497183 -0.127882 150 150 150
0.204642 1.504929 -0.505042 150 150 150
0.156931 1.344438 0.059162 150 150 150
0.172868 1.353716 -0.704362 150 150 150
0.047164 1.518001 0.211533 150 150 150
0.067969 1.545705 -0.842129 150 150 150
-0.002671 1.558008 0.272275 150 150 150
0.009568 1.596010 -0.888832 150 150 150
