ply
format ascii 1.0
comment author: Greg Turk
comment object: another cube
element vertex 24
property float x
property float y
property float z
property uchar red
property uchar green
property uchar blue
element face 0
property list uchar int vertex_index
end_header
0.767782 1.035658 -0.308079 150 150 150
0.737949 0.953487 -0.249255 150 150 150
0.792483 0.940015 -0.364874 150 150 150
0.825359 1.152238 -0.285674 150 150 150
0.364684 0.879112 -0.259552 150 150 150
0.775194 0.555860 -0.383278 150 150 150
0.789982 1.294180 -0.293144 150 150 150
0.697816 0.608797 -0.232679 150 150 150
0.828310 0.139332 -0.327517 150 150 150
0.792180 1.358725 -0.293226 150 150 150
0.658308 0.480947 -0.201440 150 150 150
0.718844 0.079493 -0.408196 150 150 150
0.827393 1.565258 -0.291910 150 150 150
0.792906 1.471956 -0.218993 150 150 150
0.842481 1.471108 -0.360839 150 150 150
0.763345 1.633875 -0.298356 150 150 150
0.808372 1.510131 -0.095908 150 150 150
0.910958 1.511293 -0.452326 150 150 150
0.705976 1.423344 0.110470 150 150 150
0.946213 1.389769 -0.672425 150 150 150
0.608967 1.643615 0.203769 150 150 150
0.902133 1.560585 -0.864015 150 150 150
0.551507 1.699848 0.238691 150 150 150
0.873612 1.601192 -0.938814 150 150 150
