ply
format ascii 1.0
comment author: Greg Turk
comment object: another cube
element vertex 24
property float x
property float y
property float z
property uchar red
property uchar green
property uchar blue
element face 0
property list uchar int vertex_index
end_header
0.289468 1.048765 -0.251966 150 150 150
0.328676 0.950932 -0.256066 150 150 150
0.205879 0.977153 -0.276902 150 150 150
0.339770 1.162545 -0.283715 150 150 150
0.374270 0.568481 -0.222402 150 150 150
-0.078656 0.774740 -0.111899 150 150 150
0.353989 1.295981 -0.241689 150 150 150
0.361187 0.141064 -0.216440 150 150 150
0.054970 0.459085 -0.364636 150 150 150
0.354899 1.353840 -0.240915 150 150 150
0.455340 0.074955 -0.137218 150 150 150
-0.030047 0.339708 -0.368164 150 150 150
0.365604 1.574718 -0.274834 150 150 150
0.434665 1.468140 -0.222390 150 150 150
0.298269 1.471266 -0.304716 150 150 150
0.329872 1.642262 -0.214611 150 150 150
0.562347 1.472018 -0.208367 150 150 150
0.213747 1.487737 -0.386330 150 150 150
0.688609 1.268730 -0.139536 150 150 150
0.051221 1.302514 -0.461776 150 150 150
0.798502 1.316276 0.088544 150 150 150
-0.200111 1.360030 -0.411105 150 150 150
0.839534 1.321493 0.166578 150 150 150
-0.287339 1.367106 -0.388191 150 150 150
