ply
format ascii 1.0
comment author: Greg Turk
comment object: another cube
element vertex 24
property float x
property float y
property float z
property uchar red
property uchar green
property uchar blue
element face 0
property list uchar int vertex_index
end_header
0.338591 1.053364 0.296004 150 150 150
0.337000 0.975688 0.225941 150 150 150
0.357685 0.956173 0.352481 150 150 150
0.271140 1.161715 0.314235 150 150 150
0.657048 1.042540 0.028141 150 150 150
0.390549 0.572532 0.376123 150 150 150
0.306735 1.300346 0.311836 150 150 150
0.525391 0.665767 0.178552 150 150 150
0.336139 0.152636 0.389467 150 150 150
0.309994 1.362286 0.322150 150 150 150
0.609078 0.566361 0.133607 150 150 150
0.470490 0.090982 0.388239 150 150 150
0.306588 1.570041 0.378200 150 150 150
0.283138 1.490995 0.279632 150 150 150
0.317844 1.458432 0.425940 150 150 150
0.385151 1.619624 0.367957 150 150 150
0.199378 1.543934 0.198438 150 150 150
0.311793 1.460889 0.545128 150 150 150
0.115299 1.406002 0.020055 150 150 150
0.369079 1.238519 0.637183 150 150 150
0.174217 1.578778 -0.154313 150 150 150
0.564296 1.370284 0.738944 150 150 150
0.193244 1.609554 -0.233822 150 150 150
0.644504 1.398032 0.767554 150 150 150
