ply
format ascii 1.0
comment author: Greg Turk
comment object: another cube
element vertex 24
property float x
property float y
property float z
property uchar red
property uchar green
property uchar blue
element face 0
property list uchar int vertex_index
end_header
0.312923 1.041831 0.316104 150 150 150
0.302787 0.962245 0.249272 150 150 150
0.325725 0.945840 0.372996 150 150 150
0.254690 1.157206 0.333439 150 150 150
0.617629 0.851651 0.062426 150 150 150
0.385501 0.566035 0.388306 150 150 150
0.290032 1.291104 0.333113 150 150 150
0.402943 0.511123 0.204713 150 150 150
0.339840 0.144007 0.390698 150 150 150
0.294696 1.348234 0.343620 150 150 150
0.472527 0.401593 0.158211 150 150 150
0.473056 0.080111 0.388890 150 150 150
0.286364 1.563160 0.402387 150 150 150
0.266456 1.478507 0.298287 150 150 150
0.300480 1.444874 0.450638 150 150 150
0.362541 1.620399 0.388255 150 150 150
0.187131 1.515088 0.205299 150 150 150
0.299769 1.430873 0.568237 150 150 150
0.120765 1.330398 0.058515 150 150 150
0.329750 1.182675 0.609353 150 150 150
0.128028 1.313183 -0.198470 150 150 150
0.534688 1.067650 0.724286 150 150 150
0.127145 1.277002 -0.277372 150 150 150
0.601387 1.011861 0.745690 150 150 150
