ply
format ascii 1.0
comment author: Greg Turk
comment object: another cube
element vertex 24
property float x
property float y
property float z
property uchar red
property uchar green
property uchar blue
element face 0
property list uchar int vertex_index
end_header
-0.204539 1.049822 -0.314567 150 150 150
-0.151502 0.970413 -0.271092 150 150 150
-0.257370 0.953741 -0.343241 150 150 150
-0.172826 1.161517 -0.372925 150 150 150
-0.180041 0.970010 0.111680 150 150 150
-0.286512 0.570976 -0.365323 150 150 150
-0.186297 1.301568 -0.348794 150 150 150
-0.207345 0.612914 -0.124077 150 150 150
-0.253268 0.151743 -0.413281 150 150 150
-0.190167 1.362770 -0.353483 150 150 150
-0.209455 0.495938 -0.051639 150 150 150
-0.365386 0.090141 -0.337682 150 150 150
-0.200980 1.573412 -0.395421 150 150 150
-0.122549 1.483363 -0.347046 150 150 150
-0.259915 1.467792 -0.417297 150 150 150
-0.221277 1.636700 -0.328359 150 150 150
0.002527 1.520045 -0.340922 150 150 150
-0.348104 1.484581 -0.498392 150 150 150
0.188114 1.407941 -0.219655 150 150 150
-0.486992 1.280480 -0.559361 150 150 150
0.315785 1.572115 -0.064234 150 150 150
-0.747673 1.286286 -0.538953 150 150 150
0.361342 1.611716 -0.000561 150 150 150
-0.834681 1.270922 -0.523629 150 150 150
