ply
format ascii 1.0
comment author: Greg Turk
comment object: another cube
element vertex 24
property float x
property float y
property float z
property uchar red
property uchar green
property uchar blue
element face 0
property list uchar int vertex_index
end_header
0.114042 1.063461 0.239215 150 150 150
0.114153 0.966438 0.192175 150 150 150
0.115548 0.982331 0.317259 150 150 150
0.059181 1.177763 0.204020 150 150 150
0.088515 0.589737 0.207020 150 150 150
0.452104 0.821315 0.413972 150 150 150
0.088901 1.323189 0.193223 150 150 150
-0.028250 0.176164 0.221784 150 150 150
0.303589 0.418122 0.411178 150 150 150
0.084439 1.387078 0.191332 150 150 150
0.046786 0.072627 0.272947 150 150 150
0.396518 0.309308 0.438581 150 150 150
0.048089 1.594969 0.180436 150 150 150
0.095726 1.498826 0.114037 150 150 150
0.020346 1.500421 0.245330 150 150 150
0.123185 1.646902 0.202843 150 150 150
0.108900 1.526707 -0.007221 150 150 150
-0.073002 1.531454 0.312690 150 150 150
0.264704 1.393754 -0.138687 150 150 150
-0.156010 1.378882 0.487527 150 150 150
0.385203 1.616850 -0.125036 150 150 150
-0.112083 1.609811 0.587370 150 150 150
0.452348 1.674158 -0.128379 150 150 150
-0.074913 1.669969 0.642886 150 150 150
