ply
format ascii 1.0
comment author: Greg Turk
comment object: another cube
element vertex 24
property float x
property float y
property float z
property uchar red
property uchar green
property uchar blue
element face 0
property list uchar int vertex_index
end_header
-0.203895 0.995471 -0.172180 150 150 150
-0.145406 0.909760 -0.171554 150 150 150
-0.265043 0.906980 -0.196277 150 150 150
-0.190205 1.122982 -0.215284 150 150 150
-0.069315 0.623307 0.071007 150 150 150
-0.288863 0.535488 -0.264922 150 150 150
-0.183875 1.255988 -0.188090 150 150 150
-0.082228 0.202371 0.160814 150 150 150
-0.256008 0.134022 -0.402326 150 150 150
-0.187311 1.310883 -0.190397 150 150 150
0.001422 0.148906 0.258344 150 150 150
-0.368558 0.073509 -0.328799 150 150 150
-0.201475 1.532365 -0.240059 150 150 150
-0.110959 1.427934 -0.209726 150 150 150
-0.270894 1.422376 -0.233171 150 150 150
-0.196937 1.606305 -0.174325 150 150 150
0.012778 1.424682 -0.247847 150 150 150
-0.383389 1.422304 -0.274341 150 150 150
0.121919 1.201431 -0.235068 150 150 150
-0.512136 1.197555 -0.268966 150 150 150
0.315924 1.084298 -0.105667 150 150 150
-0.736808 1.132591 -0.143830 150 150 150
0.365505 1.024222 -0.064769 150 150 150
-0.803706 1.097787 -0.094674 150 150 150
