ply
format ascii 1.0
comment author: Greg Turk
comment object: another cube
element vertex 24
property float x
property float y
property float z
property uchar red
property uchar green
property uchar blue
element face 0
property list uchar int vertex_index
end_header
0.680954 1.019854 -0.351771 150 150 150
0.652942 0.935605 -0.297128 150 150 150
0.712558 0.927191 -0.408298 150 150 150
0.731446 1.139394 -0.324547 150 150 150
0.282463 0.831133 -0.314127 150 150 150
0.732423 0.545209 -0.404743 150 150 150
0.694861 1.279858 -0.327459 150 150 150
0.396876 0.416354 -0.330019 150 150 150
0.824235 0.136442 -0.331197 150 150 150
0.698191 1.343340 -0.325558 150 150 150
0.301022 0.330136 -0.282379 150 150 150
0.714683 0.074893 -0.410602 150 150 150
0.740251 1.551441 -0.315972 150 150 150
0.695165 1.455550 -0.248028 150 150 150
0.758036 1.456309 -0.385617 150 150 150
0.678729 1.622906 -0.328398 150 150 150
0.704286 1.486711 -0.122006 150 150 150
0.837932 1.490418 -0.470245 150 150 150
0.591900 1.377254 0.064645 150 150 150
0.879109 1.363515 -0.684305 150 150 150
0.509513 1.603714 0.150414 150 150 150
0.856953 1.580219 -0.825178 150 150 150
0.452119 1.659702 0.185928 150 150 150
0.836710 1.638203 -0.890263 150 150 150
