ply
format ascii 1.0
comment author: Greg Turk
comment object: another cube
element vertex 24
property float x
property float y
property float z
property uchar red
property uchar green
property uchar blue
element face 0
property list uchar int vertex_index
end_header
0.289288 1.020358 0.316613 150 150 150
0.275944 0.937699 0.254327 150 150 150
0.288581 0.926990 0.375346 150 150 150
0.239336 1.144915 0.321587 150 150 150
0.406718 0.584973 0.186983 150 150 150
0.383114 0.558756 0.399380 150 150 150
0.264778 1.276929 0.326290 150 150 150
0.128531 0.257401 0.216850 150 150 150
0.343569 0.135796 0.386264 150 150 150
0.264796 1.328462 0.336969 150 150 150
0.198827 0.138021 0.206676 150 150 150
0.474018 0.067419 0.391239 150 150 150
0.228883 1.551551 0.382333 150 150 150
0.241577 1.454016 0.276886 150 150 150
0.240056 1.431474 0.439211 150 150 150
0.304657 1.616264 0.372863 150 150 150
0.196427 1.453703 0.160466 150 150 150
0.216021 1.410320 0.553820 150 150 150
0.178589 1.217304 0.086329 150 150 150
0.215052 1.159686 0.613424 150 150 150
0.153788 0.982865 -0.032414 150 150 150
0.274598 0.930166 0.736445 150 150 150
0.142613 0.896347 -0.041541 150 150 150
0.298376 0.844517 0.753570 150 150 150
