ply
format ascii 1.0
comment author: Greg Turk
comment object: another cube
element vertex 24
property float x
property float y
property float z
property uchar red
property uchar green
property uchar blue
element face 0
property list uchar int vertex_index
end_header
0.346007 1.055223 0.289306 150 150 150
0.346147 0.977835 0.218933 150 150 150
0.364876 0.957830 0.345861 150 150 150
0.277515 1.162919 0.306761 150 150 150
0.666135 1.061730 0.026808 150 150 150
0.394931 0.574004 0.372455 150 150 150
0.312835 1.302552 0.303928 150 150 150
0.543077 0.675010 0.159086 150 150 150
0.337343 0.154757 0.388133 150 150 150
0.315375 1.365266 0.314043 150 150 150
0.629525 0.578638 0.112927 150 150 150
0.470980 0.091786 0.387234 150 150 150
0.310766 1.571680 0.368848 150 150 150
0.288636 1.493168 0.271288 150 150 150
0.321486 1.461690 0.416977 150 150 150
0.389678 1.620077 0.359531 150 150 150
0.205421 1.548077 0.190732 150 150 150
0.312625 1.468285 0.536085 150 150 150
0.122250 1.420591 0.004759 150 150 150
0.378045 1.257059 0.646240 150 150 150
0.187118 1.608404 -0.150688 150 150 150
0.548494 1.424246 0.740205 150 150 150
0.209436 1.644500 -0.227105 150 150 150
0.623690 1.464699 0.767310 150 150 150
