ply
format ascii 1.0
comment author: Greg Turk
comment object: another cube
element vertex 24
property float x
property float y
property float z
property uchar red
property uchar green
property uchar blue
element face 0
property list uchar int vertex_index
end_header
-0.075593 0.995628 0.045905 150 150 150
-0.033937 0.905033 0.017386 150 150 150
-0.145666 0.912940 0.065165 150 150 150
-0.074924 1.120263 -0.004040 150 150 150
0.035009 0.550420 0.144637 150 150 150
-0.232768 0.550495 0.147705 150 150 150
-0.045905 1.250855 0.004800 150 150 150
-0.054144 0.132733 0.199038 150 150 150
-0.277030 0.290134 -0.183377 150 150 150
-0.046930 1.303387 0.002305 150 150 150
0.042276 0.061394 0.270790 150 150 150
-0.352104 0.163258 -0.169604 150 150 150
-0.066581 1.530910 -0.040579 150 150 150
0.019632 1.415852 -0.056400 150 150 150
-0.132012 1.422593 0.003950 150 150 150
-0.030923 1.606480 0.015572 150 150 150
0.098119 1.396998 -0.153547 150 150 150
-0.245894 1.415688 0.026769 150 150 150
0.128699 1.154804 -0.196586 150 150 150
-0.293544 1.168502 0.074545 150 150 150
0.233467 0.921839 -0.267729 150 150 150
-0.364108 0.946011 0.206325 150 150 150
0.249110 0.837206 -0.286782 150 150 150
-0.370453 0.864559 0.246074 150 150 150
