ply
format ascii 1.0
comment author: Greg Turk
comment object: another cube
element vertex 24
property float x
property float y
property float z
property uchar red
property uchar green
property uchar blue
element face 0
property list uchar int vertex_index
end_header
1.115284 1.010143 -0.081155 150 150 150
1.137270 0.924800 -0.026189 150 150 150
1.134178 0.924081 -0.147742 150 150 150
1.149203 1.141211 -0.068383 150 150 150
1.147319 0.549905 0.040379 150 150 150
1.133231 0.552262 -0.227966 150 150 150
1.119532 1.276011 -0.055662 150 150 150
1.183918 0.121452 0.063515 150 150 150
1.194487 0.134351 -0.250476 150 150 150
1.116430 1.331417 -0.056601 150 150 150
1.071496 0.059770 0.120574 150 150 150
1.072984 0.071949 -0.308170 150 150 150
1.162343 1.550804 -0.065488 150 150 150
1.139051 1.445033 0.021357 150 150 150
1.146803 1.447693 -0.140302 150 150 150
1.108510 1.633989 -0.054715 150 150 150
1.161776 1.450305 0.149325 150 150 150
1.151699 1.464706 -0.258086 150 150 150
1.128068 1.251144 0.300358 150 150 150
1.116167 1.265023 -0.423520 150 150 150
0.982535 1.070361 0.426771 150 150 150
0.974278 1.076381 -0.551087 150 150 150
0.940729 0.998092 0.457693 150 150 150
0.927192 1.006974 -0.585620 150 150 150
