ply
format ascii 1.0
comment author: Greg Turk
comment object: another cube
element vertex 24
property float x
property float y
property float z
property uchar red
property uchar green
property uchar blue
element face 0
property list uchar int vertex_index
end_header
1.119055 1.009478 -0.072118 150 150 150
1.141431 0.924000 -0.017556 150 150 150
1.137545 0.923657 -0.139083 150 150 150
1.152921 1.140419 -0.059134 150 150 150
1.150021 0.548356 0.045877 150 150 150
1.134040 0.552294 -0.222268 150 150 150
1.122470 1.274756 -0.045661 150 150 150
1.184751 0.119451 0.064140 150 150 150
1.193766 0.134419 -0.249519 150 150 150
1.118670 1.329898 -0.046343 150 150 150
1.071979 0.058162 0.121010 150 150 150
1.072236 0.072612 -0.307739 150 150 150
1.163240 1.549836 -0.054100 150 150 150
1.141124 1.443109 0.032340 150 150 150
1.147579 1.446897 -0.129682 150 150 150
1.110029 1.633351 -0.041468 150 150 150
1.164137 1.446540 0.160493 150 150 150
1.150985 1.463187 -0.247766 150 150 150
1.133609 1.246799 0.312272 150 150 150
1.116654 1.263607 -0.414032 150 150 150
0.987031 1.063950 0.434412 150 150 150
0.973622 1.073099 -0.537497 150 150 150
0.944599 0.991454 0.464104 150 150 150
0.925926 1.003243 -0.570367 150 150 150
