ply
format ascii 1.0
comment author: Greg Turk
comment object: another cube
element vertex 24
property float x
property float y
property float z
property uchar red
property uchar green
property uchar blue
element face 0
property list uchar int vertex_index
end_header
-0.215404 1.010746 -0.213262 150 150 150
-0.156040 0.926232 -0.199106 150 150 150
-0.273328 0.919054 -0.238247 150 150 150
-0.198660 1.134608 -0.263004 150 150 150
-0.081301 0.709657 0.109804 150 150 150
-0.297182 0.543009 -0.288191 150 150 150
-0.197266 1.271541 -0.235967 150 150 150
-0.091996 0.279795 0.113145 150 150 150
-0.256714 0.135633 -0.405060 150 150 150
-0.200079 1.329970 -0.240860 150 150 150
-0.019370 0.209850 0.207797 150 150 150
-0.368683 0.076824 -0.328797 150 150 150
-0.214066 1.545678 -0.288835 150 150 150
-0.126701 1.448169 -0.253542 150 150 150
-0.279751 1.438785 -0.291126 150 150 150
-0.218444 1.614182 -0.220567 150 150 150
-0.000621 1.464287 -0.282111 150 150 150
-0.385951 1.449858 -0.347191 150 150 150
0.164327 1.284185 -0.242928 150 150 150
-0.551287 1.254431 -0.349751 150 150 150
0.362223 1.341399 -0.089604 150 150 150
-0.762796 1.361114 -0.239924 150 150 150
0.428749 1.333362 -0.033195 150 150 150
-0.834503 1.382451 -0.190729 150 150 150
