ply
format ascii 1.0
comment author: Greg Turk
comment object: another cube
element vertex 24
property float x
property float y
property float z
property uchar red
property uchar green
property uchar blue
element face 0
property list uchar int vertex_index
end_header
0.839036 0.990647 -0.253665 150 150 150
0.834241 0.902754 -0.196931 150 150 150
0.869342 0.902701 -0.314772 150 150 150
0.877357 1.117917 -0.227430 150 150 150
0.791899 0.536678 -0.094010 150 150 150
0.784085 0.540533 -0.383118 150 150 150
0.852364 1.251698 -0.224607 150 150 150
1.066892 0.226170 0.029241 150 150 150
0.831443 0.122111 -0.329534 150 150 150
0.859646 1.305718 -0.225850 150 150 150
1.018800 0.116229 0.098869 150 150 150
0.721715 0.066695 -0.410069 150 150 150
0.917326 1.528076 -0.219686 150 150 150
0.860702 1.423687 -0.145661 150 150 150
0.927905 1.416947 -0.290468 150 150 150
0.862886 1.611548 -0.228623 150 150 150
0.873870 1.422698 -0.019501 150 150 150
1.000403 1.408695 -0.383847 150 150 150
0.843432 1.202260 0.085195 150 150 150
1.015137 1.165651 -0.460936 150 150 150
0.763307 1.034881 0.273282 150 150 150
1.004473 0.943979 -0.611205 150 150 150
0.729867 0.967908 0.320069 150 150 150
0.991499 0.861461 -0.645842 150 150 150
