ply
format ascii 1.0
comment author: Greg Turk
comment object: another cube
element vertex 24
property float x
property float y
property float z
property uchar red
property uchar green
property uchar blue
element face 0
property list uchar int vertex_index
end_header
0.977877 0.985548 -0.096117 150 150 150
0.996478 0.897707 -0.040782 150 150 150
0.993595 0.900009 -0.165811 150 150 150
1.011525 1.111059 -0.075633 150 150 150
1.069447 0.529925 0.021567 150 150 150
0.788875 0.605571 -0.303020 150 150 150
0.977435 1.242701 -0.068815 150 150 150
1.180646 0.115038 0.059750 150 150 150
0.816904 0.184902 -0.346438 150 150 150
0.979867 1.295581 -0.073523 150 150 150
1.069831 0.055822 0.121415 150 150 150
0.711933 0.100765 -0.405595 150 150 150
1.034873 1.521879 -0.076031 150 150 150
0.986092 1.413628 0.006428 150 150 150
1.037525 1.408447 -0.147317 150 150 150
0.978890 1.604619 -0.086719 150 150 150
1.006642 1.391250 0.127121 150 150 150
1.106608 1.390042 -0.241640 150 150 150
1.000980 1.146671 0.151536 150 150 150
1.129997 1.140586 -0.288925 150 150 150
0.937123 0.904029 0.235124 150 150 150
1.114930 0.897630 -0.401089 150 150 150
0.912702 0.819188 0.237426 150 150 150
1.097933 0.809468 -0.414627 150 150 150
