ply
format ascii 1.0
comment author: Greg Turk
comment object: another cube
element vertex 24
property float x
property float y
property float z
property uchar red
property uchar green
property uchar blue
element face 0
property list uchar int vertex_index
end_header
-0.099866 0.986526 0.017568 150 150 150
-0.053847 0.897533 -0.008290 150 150 150
-0.170450 0.902802 0.024118 150 150 150
-0.095885 1.113932 -0.027121 150 150 150
0.022818 0.554603 0.142264 150 150 150
-0.263601 0.534352 0.036408 150 150 150
-0.068796 1.244260 -0.013061 150 150 150
-0.054637 0.134681 0.198769 150 150 150
-0.290648 0.247293 -0.274589 150 150 150
-0.069900 1.296572 -0.015040 150 150 150
0.041163 0.062844 0.271140 150 150 150
-0.373366 0.124895 -0.264471 150 150 150
-0.086401 1.524679 -0.060624 150 150 150
0.001277 1.409328 -0.067897 150 150 150
-0.154995 1.415875 -0.020437 150 150 150
-0.055663 1.602786 -0.004825 150 150 150
0.086197 1.387480 -0.158401 150 150 150
-0.270632 1.405450 -0.008500 150 150 150
0.103316 1.143572 -0.194254 150 150 150
-0.309768 1.155475 0.031109 150 150 150
0.170341 0.893855 -0.254981 150 150 150
-0.371944 0.915122 0.133111 150 150 150
0.166421 0.807167 -0.269878 150 150 150
-0.371233 0.828428 0.160132 150 150 150
