ply
format ascii 1.0
comment author: Greg Turk
comment object: another cube
element vertex 24
property float x
property float y
property float z
property uchar red
property uchar green
property uchar blue
element face 0
property list uchar int vertex_index
end_header
-0.146062 1.029468 -0.335240 150 150 150
-0.105831 0.943180 -0.291467 150 150 150
-0.176134 0.938843 -0.391476 150 150 150
-0.099371 1.156134 -0.357368 150 150 150
-0.109865 0.569754 -0.222407 150 150 150
-0.269876 0.571829 -0.395520 150 150 150
-0.112275 1.288500 -0.344655 150 150 150
0.081912 0.196306 -0.325204 150 150 150
-0.252940 0.147928 -0.418316 150 150 150
-0.112582 1.339705 -0.352846 150 150 150
0.001814 0.085449 -0.296255 150 150 150
-0.363123 0.079057 -0.348855 150 150 150
-0.080497 1.565342 -0.401218 150 150 150
-0.051152 1.459748 -0.306141 150 150 150
-0.129098 1.448548 -0.449901 150 150 150
-0.128458 1.642567 -0.357474 150 150 150
0.047528 1.439952 -0.232790 150 150 150
-0.160795 1.421143 -0.559289 150 150 150
0.075170 1.196267 -0.196420 150 150 150
-0.157282 1.165821 -0.567594 150 150 150
0.153711 0.950824 -0.131782 150 150 150
-0.197776 0.901595 -0.584349 150 150 150
0.166600 0.863923 -0.120567 150 150 150
-0.206537 0.812847 -0.567600 150 150 150
