ply
format ascii 1.0
comment author: Greg Turk
comment object: another cube
element vertex 24
property float x
property float y
property float z
property uchar red
property uchar green
property uchar blue
element face 0
property list uchar int vertex_index
end_header
-0.150064 0.978267 -0.050502 150 150 150
-0.097110 0.891257 -0.069107 150 150 150
-0.218314 0.893816 -0.063443 150 150 150
-0.141605 1.108064 -0.088573 150 150 150
-0.013583 0.564832 0.111106 150 150 150
-0.272842 0.528557 -0.141228 150 150 150
-0.121407 1.237613 -0.064242 150 150 150
-0.056230 0.142934 0.189771 150 150 150
-0.263666 0.171801 -0.371992 150 150 150
-0.122526 1.289656 -0.064430 150 150 150
0.038639 0.074550 0.267041 150 150 150
-0.367824 0.081438 -0.318451 150 150 150
-0.131235 1.517904 -0.111972 150 150 150
-0.043019 1.402144 -0.102526 150 150 150
-0.205974 1.409120 -0.083942 150 150 150
-0.108944 1.598163 -0.054713 150 150 150
0.058543 1.376481 -0.173940 150 150 150
-0.322900 1.398860 -0.090693 150 150 150
0.074070 1.130247 -0.195260 150 150 150
-0.371863 1.147440 -0.068210 150 150 150
0.133936 0.873479 -0.231736 150 150 150
-0.444590 0.903501 0.018407 150 150 150
0.124629 0.786378 -0.241968 150 150 150
-0.447228 0.816012 0.042127 150 150 150
