ply
format ascii 1.0
comment author: Greg Turk
comment object: another cube
element vertex 24
property float x
property float y
property float z
property uchar red
property uchar green
property uchar blue
element face 0
property list uchar int vertex_index
end_header
0.326493 1.071610 -0.178144 150 150 150
0.355126 0.968552 -0.187663 150 150 150
0.231647 1.009887 -0.163636 150 150 150
0.372360 1.173509 -0.234118 150 150 150
0.389533 0.584864 -0.195812 150 150 150
0.052886 1.019234 0.174944 150 150 150
0.405338 1.312172 -0.195940 150 150 150
0.365566 0.160826 -0.216059 150 150 150
0.116646 0.710876 -0.117107 150 150 150
0.408795 1.375198 -0.193167 150 150 150
0.455288 0.084356 -0.142514 150 150 150
0.065658 0.583637 -0.066903 150 150 150
0.407536 1.589312 -0.214647 150 150 150
0.486273 1.489291 -0.192577 150 150 150
0.338221 1.493351 -0.231191 150 150 150
0.390678 1.643748 -0.140415 150 150 150
0.607191 1.514659 -0.217029 150 150 150
0.239670 1.529634 -0.285203 150 150 150
0.771645 1.351783 -0.142662 150 150 150
0.018510 1.400841 -0.297517 150 150 150
0.777162 1.535598 0.034543 150 150 150
-0.140082 1.577550 -0.190855 150 150 150
0.789652 1.587619 0.105717 150 150 150
-0.204684 1.618512 -0.142304 150 150 150
