ply
format ascii 1.0
comment author: Greg Turk
comment object: another cube
element vertex 24
property float x
property float y
property float z
property uchar red
property uchar green
property uchar blue
element face 0
property list uchar int vertex_index
end_header
-0.210834 1.003118 -0.193845 150 150 150
-0.151844 0.917847 -0.186002 150 150 150
-0.270294 0.913001 -0.218309 150 150 150
-0.195453 1.128861 -0.240865 150 150 150
-0.075922 0.661064 0.088614 150 150 150
-0.293444 0.539170 -0.277210 150 150 150
-0.191715 1.263795 -0.214231 150 150 150
-0.086466 0.234179 0.141345 150 150 150
-0.256595 0.134379 -0.404045 150 150 150
-0.194994 1.320420 -0.217886 150 150 150
-0.008236 0.175248 0.239523 150 150 150
-0.368767 0.075146 -0.328657 150 150 150
-0.209797 1.539171 -0.266645 150 150 150
-0.120322 1.438368 -0.233779 150 150 150
-0.277121 1.430376 -0.264539 150 150 150
-0.209524 1.610076 -0.199159 150 150 150
0.005138 1.445022 -0.266779 150 150 150
-0.386931 1.435461 -0.312969 150 150 150
0.142848 1.240420 -0.239783 150 150 150
-0.533740 1.223532 -0.309587 150 150 150
0.350933 1.210778 -0.089014 150 150 150
-0.767440 1.244784 -0.190697 150 150 150
0.413145 1.175642 -0.038081 150 150 150
-0.842018 1.237570 -0.141344 150 150 150
