ply
format ascii 1.0
comment author: Greg Turk
comment object: another cube
element vertex 24
property float x
property float y
property float z
property uchar red
property uchar green
property uchar blue
element face 0
property list uchar int vertex_index
end_header
0.253617 1.018064 -0.364086 150 150 150
0.259838 0.925203 -0.316416 150 150 150
0.250892 0.936145 -0.439159 150 150 150
0.309382 1.135477 -0.341356 150 150 150
0.144855 0.557085 -0.308209 150 150 150
0.067710 0.605664 -0.505135 150 150 150
0.290506 1.268480 -0.315544 150 150 150
0.139636 0.131189 -0.374411 150 150 150
0.432856 0.399598 -0.440073 150 150 150
0.296240 1.322864 -0.313929 150 150 150
0.023961 0.066734 -0.331738 150 150 150
0.414911 0.257440 -0.477978 150 150 150
0.357837 1.541565 -0.311917 150 150 150
0.326559 1.432964 -0.229525 150 150 150
0.342573 1.438128 -0.389321 150 150 150
0.303029 1.625789 -0.301798 150 150 150
0.377372 1.428707 -0.110965 150 150 150
0.375208 1.444210 -0.503306 150 150 150
0.377119 1.217553 0.021927 150 150 150
0.341687 1.236301 -0.651149 150 150 150
0.374777 1.074382 0.245592 150 150 150
0.271219 1.103500 -0.873049 150 150 150
0.370576 1.013031 0.309266 150 150 150
0.237454 1.051724 -0.939553 150 150 150
