ply
format ascii 1.0
comment author: Greg Turk
comment object: another cube
element vertex 24
property float x
property float y
property float z
property uchar red
property uchar green
property uchar blue
element face 0
property list uchar int vertex_index
end_header
0.375153 1.009854 0.214551 150 150 150
0.377827 0.927012 0.151283 150 150 150
0.365023 0.916594 0.273934 150 150 150
0.322048 1.131613 0.211077 150 150 150
0.659067 0.677512 0.067609 150 150 150
0.414606 0.540077 0.330900 150 150 150
0.353187 1.263570 0.213780 150 150 150
0.476087 0.315241 -0.079145 150 150 150
0.342581 0.122222 0.371186 150 150 150
0.354477 1.317070 0.221586 150 150 150
0.543348 0.195549 -0.089649 150 150 150
0.478212 0.068338 0.387207 150 150 150
0.315713 1.536429 0.263151 150 150 150
0.329138 1.440824 0.160764 150 150 150
0.328161 1.420403 0.322367 150 150 150
0.387525 1.603683 0.261143 150 150 150
0.282163 1.443032 0.040895 150 150 150
0.314325 1.406568 0.440905 150 150 150
0.275704 1.231975 -0.094082 150 150 150
0.375960 1.179306 0.555440 150 150 150
0.350771 1.111534 -0.314821 150 150 150
0.519599 1.061136 0.747452 150 150 150
0.379043 1.062823 -0.382888 150 150 150
0.576592 1.018715 0.803431 150 150 150
