ply
format ascii 1.0
comment author: Greg Turk
comment object: another cube
element vertex 24
property float x
property float y
property float z
property uchar red
property uchar green
property uchar blue
element face 0
property list uchar int vertex_index
end_header
0.282199 1.016316 0.310881 150 150 150
0.268535 0.932998 0.249214 150 150 150
0.279053 0.923297 0.369859 150 150 150
0.233410 1.142522 0.312654 150 150 150
0.335104 0.559868 0.214633 150 150 150
0.381146 0.558037 0.396078 150 150 150
0.255487 1.275260 0.318163 150 150 150
0.062005 0.225376 0.220143 150 150 150
0.342603 0.134845 0.383552 150 150 150
0.253461 1.326460 0.328434 150 150 150
0.127810 0.104516 0.239649 150 150 150
0.472510 0.066006 0.392112 150 150 150
0.208654 1.549447 0.365958 150 150 150
0.231096 1.449303 0.263781 150 150 150
0.219003 1.431356 0.426441 150 150 150
0.283570 1.615576 0.358260 150 150 150
0.197062 1.440709 0.144351 150 150 150
0.185581 1.413319 0.539888 150 150 150
0.195807 1.199664 0.081931 150 150 150
0.175279 1.168102 0.619217 150 150 150
0.190197 0.955794 -0.019767 150 150 150
0.209107 0.949712 0.769440 150 150 150
0.184267 0.868057 -0.023733 150 150 150
0.229742 0.866172 0.798047 150 150 150
