ply
format ascii 1.0
comment author: Greg Turk
comment object: another cube
element vertex 24
property float x
property float y
property float z
property uchar red
property uchar green
property uchar blue
element face 0
property list uchar int vertex_index
end_header
0.623156 0.993494 -0.370214 150 150 150
0.604487 0.906438 -0.317560 150 150 150
0.657091 0.905239 -0.428417 150 150 150
0.667778 1.117394 -0.341097 150 150 150
0.313294 0.654322 -0.319218 150 150 150
0.702422 0.529044 -0.412793 150 150 150
0.634350 1.251604 -0.338358 150 150 150
0.233777 0.231522 -0.345003 150 150 150
0.824956 0.129410 -0.331269 150 150 150
0.636362 1.309064 -0.337886 150 150 150
0.111254 0.189445 -0.296000 150 150 150
0.715907 0.069962 -0.411964 150 150 150
0.685498 1.525516 -0.324563 150 150 150
0.632114 1.421945 -0.255439 150 150 150
0.701534 1.422990 -0.398230 150 150 150
0.628246 1.605417 -0.335594 150 150 150
0.630038 1.429300 -0.123545 150 150 150
0.774591 1.435195 -0.493850 150 150 150
0.534673 1.259934 0.033292 150 150 150
0.809491 1.249412 -0.670345 150 150 150
0.367069 1.332579 0.219156 150 150 150
0.777969 1.301846 -0.927420 150 150 150
0.299704 1.339078 0.275760 150 150 150
0.760767 1.308815 -1.015272 150 150 150
