ply
format ascii 1.0
comment author: Greg Turk
comment object: another cube
element vertex 24
property float x
property float y
property float z
property uchar red
property uchar green
property uchar blue
element face 0
property list uchar int vertex_index
end_header
0.358771 1.045863 0.272837 150 150 150
0.360335 0.967142 0.204188 150 150 150
0.372246 0.949081 0.330992 150 150 150
0.292486 1.156248 0.285686 150 150 150
0.697772 1.009113 0.025677 150 150 150
0.404626 0.565722 0.360963 150 150 150
0.328211 1.295185 0.282153 150 150 150
0.558094 0.607800 0.082770 150 150 150
0.338788 0.146913 0.381713 150 150 150
0.329720 1.357167 0.290826 150 150 150
0.637001 0.504487 0.039136 150 150 150
0.473184 0.085829 0.385681 150 150 150
0.315116 1.564833 0.341618 150 150 150
0.299679 1.483202 0.244470 150 150 150
0.328133 1.455839 0.392779 150 150 150
0.391783 1.617929 0.333485 150 150 150
0.219248 1.530727 0.155206 150 150 150
0.317018 1.464980 0.512245 150 150 150
0.158756 1.409035 -0.046758 150 150 150
0.397864 1.274739 0.655677 150 150 150
0.225661 1.581084 -0.221571 150 150 150
0.554111 1.432818 0.788069 150 150 150
0.250814 1.614159 -0.298579 150 150 150
0.622904 1.472117 0.829971 150 150 150
