ply
format ascii 1.0
comment author: Greg Turk
comment object: another cube
element vertex 24
property float x
property float y
property float z
property uchar red
property uchar green
property uchar blue
element face 0
property list uchar int vertex_index
end_header
1.096441 1.043560 -0.027345 150 150 150
1.103270 0.944179 0.014040 150 150 150
1.087196 0.969843 -0.113884 150 150 150
1.152405 1.152000 0.008904 150 150 150
1.114935 0.563504 0.057363 150 150 150
0.753934 0.904224 -0.295607 150 150 150
1.119284 1.294956 0.031686 150 150 150
1.180921 0.141525 0.057472 150 150 150
1.017812 0.584473 -0.183288 150 150 150
1.122255 1.358903 0.034712 150 150 150
1.074850 0.072180 0.115081 150 150 150
0.969435 0.458068 -0.239294 150 150 150
1.151448 1.568747 0.036323 150 150 150
1.127464 1.470661 0.112727 150 150 150
1.165167 1.474913 -0.032620 150 150 150
1.076210 1.625813 0.032853 150 150 150
1.161397 1.499833 0.231544 150 150 150
1.228126 1.518390 -0.124587 150 150 150
1.092778 1.371229 0.428623 150 150 150
1.270699 1.420848 -0.356274 150 150 150
0.995308 1.596201 0.505097 150 150 150
1.206159 1.641439 -0.477994 150 150 150
0.949290 1.665766 0.535460 150 150 150
1.162594 1.707370 -0.522185 150 150 150
