ply
format ascii 1.0
comment author: Greg Turk
comment object: another cube
element vertex 24
property float x
property float y
property float z
property uchar red
property uchar green
property uchar blue
element face 0
property list uchar int vertex_index
end_header
-0.010857 1.023751 0.108850 150 150 150
0.018400 0.928499 0.073591 150 150 150
-0.065587 0.944170 0.165349 150 150 150
-0.028759 1.139754 0.048365 150 150 150
0.048685 0.552081 0.135123 150 150 150
-0.018194 0.677808 0.437045 150 150 150
0.000982 1.275806 0.050513 150 150 150
-0.048615 0.138420 0.195686 150 150 150
-0.171541 0.434068 0.123622 150 150 150
-0.000893 1.332567 0.048123 150 150 150
0.043860 0.064191 0.267904 150 150 150
-0.208131 0.299474 0.172251 150 150 150
-0.029649 1.553734 0.020622 150 150 150
0.047545 1.446101 -0.020379 150 150 150
-0.083841 1.449467 0.071925 150 150 150
0.023046 1.617906 0.072199 150 150 150
0.107259 1.447968 -0.132588 150 150 150
-0.192258 1.461873 0.115548 150 150 150
0.208030 1.230869 -0.198610 150 150 150
-0.288886 1.243451 0.206799 150 150 150
0.453958 1.172515 -0.263152 150 150 150
-0.388447 1.167100 0.439061 150 150 150
0.532127 1.137366 -0.283685 150 150 150
-0.406338 1.128006 0.518520 150 150 150
