ply
format ascii 1.0
comment author: Greg Turk
comment object: another cube
element vertex 24
property float x
property float y
property float z
property uchar red
property uchar green
property uchar blue
element face 0
property list uchar int vertex_index
end_header
0.736957 1.041272 -0.318370 150 150 150
0.704948 0.960033 -0.259808 150 150 150
0.762022 0.944785 -0.374929 150 150 150
0.794940 1.156615 -0.295267 150 150 150
0.325275 0.956280 -0.290126 150 150 150
0.763852 0.559824 -0.383512 150 150 150
0.758031 1.300547 -0.302956 150 150 150
0.611162 0.636149 -0.279811 150 150 150
0.825562 0.144592 -0.328229 150 150 150
0.760732 1.367021 -0.302568 150 150 150
0.549412 0.516291 -0.253125 150 150 150
0.716613 0.081825 -0.407606 150 150 150
0.794125 1.570756 -0.301900 150 150 150
0.760202 1.479696 -0.230087 150 150 150
0.810122 1.478837 -0.369011 150 150 150
0.729453 1.636618 -0.310816 150 150 150
0.778421 1.522975 -0.109833 150 150 150
0.883907 1.523074 -0.453944 150 150 150
0.678922 1.441105 0.095458 150 150 150
0.925603 1.416471 -0.675717 150 150 150
0.624385 1.690014 0.115994 150 150 150
0.893192 1.656810 -0.764305 150 150 150
0.571572 1.758154 0.132758 150 150 150
0.864620 1.725893 -0.813987 150 150 150
