ply
format ascii 1.0
comment author: Greg Turk
comment object: another cube
element vertex 24
property float x
property float y
property float z
property uchar red
property uchar green
property uchar blue
element face 0
property list uchar int vertex_index
end_header
0.165290 1.061680 -0.359842 150 150 150
0.169809 0.961606 -0.320046 150 150 150
0.133095 0.991693 -0.442316 150 150 150
0.236027 1.162881 -0.335169 150 150 150
0.126008 0.579329 -0.315672 150 150 150
-0.245479 1.000502 -0.505240 150 150 150
0.218273 1.304849 -0.305802 150 150 150
0.139903 0.155434 -0.371368 150 150 150
0.028310 0.672998 -0.459836 150 150 150
0.225243 1.366210 -0.303874 150 150 150
0.029745 0.080311 -0.332863 150 150 150
-0.029091 0.540561 -0.487423 150 150 150
0.280446 1.573988 -0.310020 150 150 150
0.258770 1.476605 -0.228143 150 150 150
0.268803 1.477371 -0.381213 150 150 150
0.216146 1.644331 -0.300875 150 150 150
0.315238 1.496449 -0.114904 150 150 150
0.312270 1.505686 -0.489107 150 150 150
0.280561 1.364808 0.092984 150 150 150
0.288306 1.381768 -0.714992 150 150 150
0.173481 1.507818 0.282337 150 150 150
0.232319 1.503493 -0.942779 150 150 150
0.133007 1.543787 0.352442 150 150 150
0.196847 1.535199 -1.019909 150 150 150
