ply
format ascii 1.0
comment author: Greg Turk
comment object: another cube
element vertex 24
property float x
property float y
property float z
property uchar red
property uchar green
property uchar blue
element face 0
property list uchar int vertex_index
end_header
-0.065210 1.027347 -0.352488 150 150 150
-0.028955 0.937717 -0.311978 150 150 150
-0.092285 0.941008 -0.417159 150 150 150
-0.015124 1.151232 -0.356395 150 150 150
0.019398 0.560716 -0.313550 150 150 150
-0.283300 0.613759 -0.375088 150 150 150
-0.027185 1.284094 -0.335873 150 150 150
0.129440 0.145003 -0.362624 150 150 150
-0.277538 0.191701 -0.417986 150 150 150
-0.024270 1.335639 -0.340054 150 150 150
0.020918 0.062812 -0.330372 150 150 150
-0.374609 0.104995 -0.348452 150 150 150
0.037551 1.557924 -0.359506 150 150 150
0.027188 1.445884 -0.267798 150 150 150
-0.001426 1.449829 -0.429231 150 150 150
-0.018317 1.638527 -0.335467 150 150 150
0.085777 1.412996 -0.162017 150 150 150
0.008174 1.438356 -0.547475 150 150 150
0.065282 1.168732 -0.113142 150 150 150
0.007623 1.195690 -0.627650 150 150 150
0.048715 0.914131 -0.037637 150 150 150
-0.048544 0.951063 -0.720442 150 150 150
0.033920 0.826714 -0.032278 150 150 150
-0.069735 0.862959 -0.726863 150 150 150
