ply
format ascii 1.0
comment author: Greg Turk
comment object: another cube
element vertex 24
property float x
property float y
property float z
property uchar red
property uchar green
property uchar blue
element face 0
property list uchar int vertex_index
end_header
-0.216791 1.019021 -0.232151 150 150 150
-0.157072 0.935541 -0.212531 150 150 150
-0.273273 0.925860 -0.257738 150 150 150
-0.199009 1.140761 -0.283666 150 150 150
-0.090445 0.767702 0.128220 150 150 150
-0.299612 0.547570 -0.299159 150 150 150
-0.200436 1.279332 -0.255301 150 150 150
-0.102238 0.340963 0.077481 150 150 150
-0.257031 0.138021 -0.405894 150 150 150
-0.203102 1.339305 -0.260914 150 150 150
-0.038922 0.258876 0.168649 150 150 150
-0.368720 0.079055 -0.329147 150 150 150
-0.217638 1.551994 -0.307851 150 150 150
-0.131822 1.457979 -0.270731 150 150 150
-0.281143 1.446558 -0.313896 150 150 150
-0.225765 1.618457 -0.238998 150 150 150
-0.006131 1.483389 -0.295215 150 150 150
-0.383755 1.462098 -0.376319 150 150 150
0.182146 1.330934 -0.247125 150 150 150
-0.564035 1.282974 -0.387398 150 150 150
0.354555 1.454645 -0.104454 150 150 150
-0.732271 1.455369 -0.289376 150 150 150
0.418990 1.471142 -0.047520 150 150 150
-0.792687 1.502001 -0.242577 150 150 150
