ply
format ascii 1.0
comment author: Greg Turk
comment object: another cube
element vertex 24
property float x
property float y
property float z
property uchar red
property uchar green
property uchar blue
element face 0
property list uchar int vertex_index
end_header
0.861492 0.982101 -0.227712 150 150 150
0.863922 0.894593 -0.169958 150 150 150
0.891850 0.895052 -0.290163 150 150 150
0.894809 1.109983 -0.203111 150 150 150
0.874302 0.526951 -0.068159 150 150 150
0.785079 0.541129 -0.373293 150 150 150
0.866509 1.242151 -0.200442 150 150 150
1.114913 0.185953 0.046102 150 150 150
0.831450 0.121718 -0.330130 150 150 150
0.873167 1.295202 -0.202940 150 150 150
1.044239 0.086299 0.113337 150 150 150
0.721568 0.065652 -0.409755 150 150 150
0.931896 1.519811 -0.198043 150 150 150
0.873494 1.414106 -0.122986 150 150 150
0.941964 1.406223 -0.267879 150 150 150
0.879404 1.605095 -0.208248 150 150 150
0.890730 1.405649 0.001385 150 150 150
1.018806 1.389021 -0.355272 150 150 150
0.881483 1.171490 0.074763 150 150 150
1.034023 1.138001 -0.395293 150 150 150
0.830101 0.966144 0.233043 150 150 150
1.032278 0.892710 -0.504068 150 150 150
0.807342 0.889266 0.270250 150 150 150
1.021530 0.805501 -0.526046 150 150 150
