ply
format ascii 1.0
comment author: Greg Turk
comment object: another cube
element vertex 24
property float x
property float y
property float z
property uchar red
property uchar green
property uchar blue
element face 0
property list uchar int vertex_index
end_header
0.036919 1.058357 -0.352244 150 150 150
0.056867 0.961538 -0.311741 150 150 150
-0.001416 0.980205 -0.422629 150 150 150
0.102487 1.169312 -0.344834 150 150 150
0.054714 0.579989 -0.313247 150 150 150
-0.361481 0.846621 -0.375183 150 150 150
0.087387 1.309847 -0.319327 150 150 150
0.126907 0.158681 -0.363791 150 150 150
-0.270354 0.438580 -0.468221 150 150 150
0.095535 1.368934 -0.320246 150 150 150
0.022376 0.072929 -0.333544 150 150 150
-0.374599 0.336715 -0.464445 150 150 150
0.159367 1.578741 -0.330659 150 150 150
0.136867 1.478276 -0.245078 150 150 150
0.137938 1.479523 -0.401859 150 150 150
0.094627 1.649870 -0.320323 150 150 150
0.187953 1.481112 -0.128094 150 150 150
0.180703 1.493219 -0.513126 150 150 150
0.140586 1.305057 0.040391 150 150 150
0.150830 1.321506 -0.696803 150 150 150
0.019196 1.422122 0.233832 150 150 150
0.024047 1.465154 -0.871442 150 150 150
-0.031443 1.443798 0.302578 150 150 150
-0.037448 1.499890 -0.927428 150 150 150
