ply
format ascii 1.0
comment author: Greg Turk
comment object: another cube
element vertex 24
property float x
property float y
property float z
property uchar red
property uchar green
property uchar blue
element face 0
property list uchar int vertex_index
end_header
-0.185044 0.982442 -0.119825 150 150 150
-0.128198 0.896626 -0.131139 150 150 150
-0.249437 0.896457 -0.141362 150 150 150
-0.174437 1.111916 -0.157050 150 150 150
-0.049044 0.579070 0.067146 150 150 150
-0.279970 0.529153 -0.224188 150 150 150
-0.162053 1.241919 -0.128797 150 150 150
-0.066757 0.161478 0.174022 150 150 150
-0.254894 0.140955 -0.395273 150 150 150
-0.164548 1.294271 -0.128559 150 150 150
0.028669 0.106648 0.260607 150 150 150
-0.366710 0.072423 -0.328029 150 150 150
-0.173502 1.520385 -0.177539 150 150 150
-0.084101 1.408115 -0.155023 150 150 150
-0.248012 1.410600 -0.160986 150 150 150
-0.159734 1.599499 -0.116238 150 150 150
0.031941 1.386379 -0.204849 150 150 150
-0.364408 1.403707 -0.184469 150 150 150
0.083807 1.142670 -0.210561 150 150 150
-0.455814 1.161600 -0.173106 150 150 150
0.201847 0.906753 -0.180617 150 150 150
-0.593310 0.962256 -0.057163 150 150 150
0.215495 0.819860 -0.172444 150 150 150
-0.621970 0.885972 -0.017558 150 150 150
