ply
format ascii 1.0
comment author: Greg Turk
comment object: another cube
element vertex 24
property float x
property float y
property float z
property uchar red
property uchar green
property uchar blue
element face 0
property list uchar int vertex_index
end_header
1.120703 1.008622 -0.061533 150 150 150
1.142434 0.923046 -0.006831 150 150 150
1.140274 0.923016 -0.128435 150 150 150
1.154184 1.139534 -0.047807 150 150 150
1.150279 0.546744 0.052695 150 150 150
1.136993 0.552456 -0.215820 150 150 150
1.123385 1.273588 -0.034669 150 150 150
1.185363 0.117623 0.065394 150 150 150
1.193578 0.134485 -0.248014 150 150 150
1.119313 1.328481 -0.035434 150 150 150
1.071958 0.056044 0.120740 150 150 150
1.072426 0.073625 -0.307873 150 150 150
1.163444 1.548865 -0.043236 150 150 150
1.141396 1.441815 0.043325 150 150 150
1.148022 1.445593 -0.118839 150 150 150
1.110292 1.632468 -0.030083 150 150 150
1.164894 1.444113 0.171451 150 150 150
1.150988 1.460809 -0.237184 150 150 150
1.138495 1.243205 0.322419 150 150 150
1.115549 1.261086 -0.403544 150 150 150
0.997513 1.056870 0.446046 150 150 150
0.973140 1.070165 -0.527409 150 150 150
0.956622 0.983390 0.475558 150 150 150
0.925496 1.000080 -0.560015 150 150 150
