ply
format ascii 1.0
comment author: Greg Turk
comment object: another cube
element vertex 24
property float x
property float y
property float z
property uchar red
property uchar green
property uchar blue
element face 0
property list uchar int vertex_index
end_header
0.084243 1.075337 0.217267 150 150 150
0.091598 0.975575 0.173971 150 150 150
0.081061 0.999427 0.300866 150 150 150
0.030999 1.183652 0.171507 150 150 150
0.078170 0.597695 0.195199 150 150 150
0.427888 0.945946 0.458587 150 150 150
0.063116 1.331659 0.162820 150 150 150
-0.028509 0.183320 0.218163 150 150 150
0.216774 0.574717 0.392311 150 150 150
0.059368 1.397496 0.159974 150 150 150
0.045847 0.080708 0.272040 150 150 150
0.290725 0.457114 0.437499 150 150 150
0.029078 1.602915 0.148927 150 150 150
0.080116 1.509110 0.087020 150 150 150
-0.006891 1.510867 0.208092 150 150 150
0.102726 1.650736 0.179230 150 150 150
0.100030 1.544102 -0.030285 150 150 150
-0.104651 1.549015 0.263442 150 150 150
0.265268 1.415739 -0.149779 150 150 150
-0.206300 1.409241 0.437948 150 150 150
0.339321 1.655070 -0.107848 150 150 150
-0.152713 1.655318 0.484287 150 150 150
0.395922 1.722977 -0.101292 150 150 150
-0.110814 1.722747 0.526741 150 150 150
