ply
format ascii 1.0
comment author: Greg Turk
comment object: another cube
element vertex 24
property float x
property float y
property float z
property uchar red
property uchar green
property uchar blue
element face 0
property list uchar int vertex_index
end_header
0.394783 0.989525 0.145263 150 150 150
0.401480 0.903067 0.086922 150 150 150
0.366634 0.900265 0.204922 150 150 150
0.352945 1.115806 0.123887 150 150 150
0.548416 0.553516 0.032594 150 150 150
0.421077 0.534958 0.304100 150 150 150
0.383016 1.245803 0.126561 150 150 150
0.411024 0.195580 -0.166657 150 150 150
0.345300 0.120763 0.365718 150 150 150
0.382205 1.297260 0.132679 150 150 150
0.470371 0.073705 -0.136657 150 150 150
0.479634 0.066712 0.387307 150 150 150
0.333079 1.523315 0.151633 150 150 150
0.380470 1.419895 0.061174 150 150 150
0.326163 1.405142 0.216466 150 150 150
0.402985 1.592622 0.169382 150 150 150
0.376342 1.402857 -0.063346 150 150 150
0.275873 1.378893 0.319576 150 150 150
0.387108 1.159006 -0.115244 150 150 150
0.300896 1.126737 0.375064 150 150 150
0.463378 0.921272 -0.199978 150 150 150
0.396166 0.925095 0.522293 150 150 150
0.486018 0.836014 -0.208960 150 150 150
0.444079 0.858076 0.560524 150 150 150
