ply
format ascii 1.0
comment author: Greg Turk
comment object: another cube
element vertex 24
property float x
property float y
property float z
property uchar red
property uchar green
property uchar blue
element face 0
property list uchar int vertex_index
end_header
1.113939 1.006464 -0.048100 150 150 150
1.133732 0.919231 0.004742 150 150 150
1.130012 0.921535 -0.116925 150 150 150
1.151496 1.136112 -0.032228 150 150 150
1.130964 0.542468 0.060981 150 150 150
1.113335 0.553066 -0.211789 150 150 150
1.123334 1.270646 -0.015791 150 150 150
1.180411 0.114649 0.065581 150 150 150
1.188931 0.138374 -0.250055 150 150 150
1.121288 1.326030 -0.015602 150 150 150
1.068181 0.052062 0.121257 150 150 150
1.067922 0.075015 -0.307340 150 150 150
1.168216 1.545922 -0.020083 150 150 150
1.144459 1.438315 0.064706 150 150 150
1.153071 1.443688 -0.096869 150 150 150
1.113611 1.628077 -0.007557 150 150 150
1.168896 1.440412 0.192426 150 150 150
1.161373 1.460186 -0.214767 150 150 150
1.133061 1.241101 0.343052 150 150 150
1.123891 1.261654 -0.381176 150 150 150
0.980936 1.076598 0.483111 150 150 150
0.973835 1.092535 -0.525770 150 150 150
0.936219 1.007650 0.516970 150 150 150
0.924013 1.028221 -0.565754 150 150 150
