ply
format ascii 1.0
comment author: Greg Turk
comment object: another cube
element vertex 24
property float x
property float y
property float z
property uchar red
property uchar green
property uchar blue
element face 0
property list uchar int vertex_index
end_header
0.355925 1.050985 0.278279 150 150 150
0.357667 0.973191 0.208507 150 150 150
0.372062 0.953709 0.335512 150 150 150
0.287923 1.159642 0.293265 150 150 150
0.686926 1.045015 0.025291 150 150 150
0.402664 0.570033 0.364695 150 150 150
0.323203 1.299463 0.289955 150 150 150
0.559454 0.644867 0.108354 150 150 150
0.338590 0.151406 0.383806 150 150 150
0.324827 1.362203 0.299213 150 150 150
0.643311 0.546417 0.062406 150 150 150
0.472264 0.088625 0.385969 150 150 150
0.314406 1.568521 0.351387 150 150 150
0.296073 1.488714 0.254652 150 150 150
0.326335 1.459892 0.401244 150 150 150
0.392184 1.618934 0.342734 150 150 150
0.214250 1.541043 0.170078 150 150 150
0.315485 1.470194 0.520390 150 150 150
0.143676 1.424175 -0.029767 150 150 150
0.393778 1.277550 0.658370 150 150 150
0.211103 1.610874 -0.187215 150 150 150
0.547302 1.452300 0.769398 150 150 150
0.236194 1.647525 -0.262558 150 150 150
0.617391 1.496202 0.803872 150 150 150
