ply
format ascii 1.0
comment author: Greg Turk
comment object: another cube
element vertex 24
property float x
property float y
property float z
property uchar red
property uchar green
property uchar blue
element face 0
property list uchar int vertex_index
end_header
0.239488 1.028845 -0.280113 150 150 150
0.287411 0.936998 -0.271870 150 150 150
0.176989 0.949181 -0.325688 150 150 150
0.282856 1.150718 -0.302135 150 150 150
0.349296 0.558460 -0.229929 150 150 150
-0.039851 0.632843 -0.315649 150 150 150
0.289656 1.280913 -0.269346 150 150 150
0.358955 0.128217 -0.217760 150 150 150
0.065101 0.243133 -0.441759 150 150 150
0.289524 1.333078 -0.270396 150 150 150
0.455223 0.068116 -0.133997 150 150 150
-0.039442 0.142880 -0.471358 150 150 150
0.320053 1.558921 -0.310288 150 150 150
0.370699 1.445254 -0.238205 150 150 150
0.250177 1.450865 -0.348542 150 150 150
0.278702 1.638463 -0.264376 150 150 150
0.490156 1.425094 -0.196763 150 150 150
0.175238 1.446228 -0.438882 150 150 150
0.572992 1.191262 -0.152956 150 150 150
0.069693 1.218006 -0.504331 150 150 150
0.691808 0.980691 -0.042515 150 150 150
-0.121752 1.028679 -0.522758 150 150 150
0.729325 0.906016 -0.013266 150 150 150
-0.180539 0.959198 -0.527324 150 150 150
