ply
format ascii 1.0
comment author: Greg Turk
comment object: another cube
element vertex 24
property float x
property float y
property float z
property uchar red
property uchar green
property uchar blue
element face 0
property list uchar int vertex_index
end_header
0.171564 1.033169 0.271613 150 150 150
0.159173 0.941435 0.220005 150 150 150
0.171341 0.945733 0.341518 150 150 150
0.121558 1.157244 0.251928 150 150 150
0.112683 0.566836 0.220729 150 150 150
0.406483 0.646302 0.375292 150 150 150
0.147152 1.296057 0.241521 150 150 150
-0.033499 0.160924 0.220957 150 150 150
0.359242 0.223717 0.404668 150 150 150
0.143189 1.354357 0.243074 150 150 150
0.046460 0.060745 0.272417 150 150 150
0.472101 0.131635 0.395239 150 150 150
0.095602 1.569891 0.237465 150 150 150
0.138412 1.466858 0.161102 150 150 150
0.084334 1.467865 0.309546 150 150 150
0.169604 1.631245 0.246324 150 150 150
0.140234 1.468872 0.034115 150 150 150
0.004552 1.480511 0.398171 150 150 150
0.251815 1.282015 -0.086112 150 150 150
-0.052982 1.286500 0.548606 150 150 150
0.479746 1.369504 -0.162631 150 150 150
-0.037756 1.384007 0.786821 150 150 150
0.564194 1.380294 -0.185559 150 150 150
-0.015200 1.402654 0.871883 150 150 150
