ply
format ascii 1.0
comment author: Greg Turk
comment object: another cube
element vertex 24
property float x
property float y
property float z
property uchar red
property uchar green
property uchar blue
element face 0
property list uchar int vertex_index
end_header
-0.171932 1.032807 -0.342429 150 150 150
-0.127779 0.947630 -0.301282 150 150 150
-0.210987 0.941520 -0.391703 150 150 150
-0.129717 1.156398 -0.376238 150 150 150
-0.190172 0.623683 -0.105277 150 150 150
-0.279772 0.567729 -0.390363 150 150 150
-0.144947 1.289058 -0.357503 150 150 150
-0.027253 0.265757 -0.281603 150 150 150
-0.252213 0.144518 -0.415249 150 150 150
-0.148113 1.342270 -0.363542 150 150 150
-0.060107 0.152282 -0.208434 150 150 150
-0.364253 0.079718 -0.344384 150 150 150
-0.135810 1.566228 -0.413129 150 150 150
-0.082047 1.464114 -0.330908 150 150 150
-0.189906 1.450422 -0.451624 150 150 150
-0.173552 1.641296 -0.358870 150 150 150
0.033723 1.462720 -0.279682 150 150 150
-0.249737 1.432725 -0.551638 150 150 150
0.108599 1.239156 -0.202419 150 150 150
-0.267306 1.178576 -0.573728 150 150 150
0.229031 1.060257 -0.048474 150 150 150
-0.356063 0.926001 -0.580879 150 150 150
0.258151 0.991212 -0.001826 150 150 150
-0.373606 0.838284 -0.567524 150 150 150
