ply
format ascii 1.0
comment author: Greg Turk
comment object: another cube
element vertex 24
property float x
property float y
property float z
property uchar red
property uchar green
property uchar blue
element face 0
property list uchar int vertex_index
end_header
-0.041004 1.032499 -0.354500 150 150 150
-0.007843 0.941274 -0.314776 150 150 150
-0.070950 0.947700 -0.420075 150 150 150
0.012812 1.154159 -0.356135 150 150 150
0.030560 0.562705 -0.317596 150 150 150
-0.293510 0.641526 -0.367951 150 150 150
0.000664 1.287703 -0.333372 150 150 150
0.129869 0.144532 -0.366107 150 150 150
-0.291548 0.220487 -0.423701 150 150 150
0.004222 1.340354 -0.336584 150 150 150
0.021703 0.063623 -0.331196 150 150 150
-0.387598 0.129894 -0.358581 150 150 150
0.066511 1.560993 -0.352265 150 150 150
0.052299 1.450115 -0.261830 150 150 150
0.032094 1.454406 -0.423902 150 150 150
0.008144 1.639743 -0.331579 150 150 150
0.104724 1.422404 -0.150621 150 150 150
0.049455 1.447737 -0.541727 150 150 150
0.077568 1.183860 -0.079114 150 150 150
0.043332 1.212532 -0.642119 150 150 150
0.019108 0.966466 0.060357 150 150 150
-0.055783 1.013659 -0.789062 150 150 150
-0.007284 0.886609 0.087939 150 150 150
-0.093892 0.936320 -0.816920 150 150 150
