ply
format ascii 1.0
comment author: Greg Turk
comment object: another cube
element vertex 24
property float x
property float y
property float z
property uchar red
property uchar green
property uchar blue
element face 0
property list uchar int vertex_index
end_header
0.062544 1.070971 -0.352421 150 150 150
0.075879 0.971340 -0.312595 150 150 150
0.020924 0.997831 -0.427161 150 150 150
0.133105 1.175738 -0.339434 150 150 150
0.062965 0.589745 -0.311154 150 150 150
-0.364998 0.982806 -0.398840 150 150 150
0.117471 1.320676 -0.313105 150 150 150
0.125074 0.168518 -0.360317 150 150 150
-0.213455 0.587432 -0.478590 150 150 150
0.127920 1.383019 -0.313049 150 150 150
0.022897 0.079129 -0.333732 150 150 150
-0.311008 0.480016 -0.490042 150 150 150
0.190618 1.587114 -0.322787 150 150 150
0.167065 1.492336 -0.240177 150 150 150
0.173767 1.491607 -0.392011 150 150 150
0.124706 1.655058 -0.314732 150 150 150
0.223767 1.510517 -0.128443 150 150 150
0.225562 1.514805 -0.497244 150 150 150
0.174755 1.376926 0.070910 150 150 150
0.193600 1.383079 -0.709145 150 150 150
0.076228 1.584482 0.181884 150 150 150
0.112903 1.607151 -0.809168 150 150 150
0.027793 1.637400 0.233348 150 150 150
0.059165 1.669774 -0.845527 150 150 150
