ply
format ascii 1.0
comment author: Greg Turk
comment object: another cube
element vertex 24
property float x
property float y
property float z
property uchar red
property uchar green
property uchar blue
element face 0
property list uchar int vertex_index
end_header
1.120550 1.008834 -0.063989 150 150 150
1.142357 0.923354 -0.009188 150 150 150
1.140073 0.923126 -0.130777 150 150 150
1.154026 1.139786 -0.050487 150 150 150
1.150722 0.547197 0.051188 150 150 150
1.137235 0.552334 -0.217061 150 150 150
1.123326 1.273900 -0.037458 150 150 150
1.185552 0.118101 0.065175 150 150 150
1.193715 0.134273 -0.248171 150 150 150
1.119245 1.328818 -0.038246 150 150 150
1.072264 0.056596 0.120860 150 150 150
1.072547 0.073270 -0.307881 150 150 150
1.163383 1.549117 -0.046146 150 150 150
1.141334 1.442163 0.040447 150 150 150
1.147952 1.445868 -0.121713 150 150 150
1.110289 1.632780 -0.033179 150 150 150
1.164601 1.444735 0.168639 150 150 150
1.150785 1.461223 -0.240023 150 150 150
1.137744 1.244434 0.320463 150 150 150
1.115752 1.261752 -0.406796 150 150 150
0.995491 1.058801 0.443618 150 150 150
0.972989 1.070774 -0.530079 150 150 150
0.954133 0.985625 0.473245 150 150 150
0.925139 1.000788 -0.562578 150 150 150
