ply
format ascii 1.0
comment author: Greg Turk
comment object: another cube
element vertex 24
property float x
property float y
property float z
property uchar red
property uchar green
property uchar blue
element face 0
property list uchar int vertex_index
end_header
0.351835 1.054113 0.283485 150 150 150
0.353099 0.976749 0.213152 150 150 150
0.369796 0.956659 0.340192 150 150 150
0.283086 1.161867 0.300003 150 150 150
0.675973 1.062455 0.025660 150 150 150
0.399131 0.572838 0.368498 150 150 150
0.318198 1.301950 0.296947 150 150 150
0.554399 0.667390 0.134530 150 150 150
0.338106 0.154030 0.385966 150 150 150
0.320178 1.364936 0.306718 150 150 150
0.640665 0.571106 0.088112 150 150 150
0.471479 0.090560 0.386474 150 150 150
0.313220 1.570791 0.360289 150 150 150
0.292645 1.492083 0.263389 150 150 150
0.324324 1.461831 0.409094 150 150 150
0.391754 1.619578 0.351284 150 150 150
0.210091 1.546905 0.181692 150 150 150
0.314282 1.471225 0.528156 150 150 150
0.131825 1.427699 -0.012523 150 150 150
0.387363 1.270922 0.654761 150 150 150
0.198856 1.619265 -0.163087 150 150 150
0.544696 1.449169 0.752486 150 150 150
0.223133 1.656857 -0.238205 150 150 150
0.616700 1.493723 0.781766 150 150 150
