ply
format ascii 1.0
comment author: Greg Turk
comment object: another cube
element vertex 24
property float x
property float y
property float z
property uchar red
property uchar green
property uchar blue
element face 0
property list uchar int vertex_index
end_header
1.117017 1.009890 -0.078256 150 150 150
1.139472 0.924563 -0.023456 150 150 150
1.135467 0.923842 -0.144967 150 150 150
1.150906 1.140959 -0.065740 150 150 150
1.148893 0.549422 0.042049 150 150 150
1.133533 0.552098 -0.225819 150 150 150
1.120837 1.275592 -0.052659 150 150 150
1.184360 0.120753 0.063395 150 150 150
1.194207 0.134194 -0.250248 150 150 150
1.117391 1.330927 -0.053469 150 150 150
1.071896 0.059411 0.120769 150 150 150
1.072636 0.072014 -0.308032 150 150 150
1.162370 1.550553 -0.061769 150 150 150
1.140033 1.444302 0.024859 150 150 150
1.146689 1.447612 -0.136967 150 150 150
1.108708 1.633667 -0.049326 150 150 150
1.162982 1.448887 0.152883 150 150 150
1.150731 1.464412 -0.254876 150 150 150
1.130334 1.249672 0.304523 150 150 150
1.116199 1.263970 -0.419677 150 150 150
0.984371 1.068074 0.429316 150 150 150
0.974145 1.073899 -0.544900 150 150 150
0.942159 0.995880 0.459922 150 150 150
0.926781 1.004313 -0.578711 150 150 150
