ply
format ascii 1.0
comment author: Greg Turk
comment object: another cube
element vertex 24
property float x
property float y
property float z
property uchar red
property uchar green
property uchar blue
element face 0
property list uchar int vertex_index
end_header
0.379365 1.006781 0.024528 150 150 150
0.400528 0.913588 -0.018157 150 150 150
0.324456 0.925785 0.078305 150 150 150
0.360775 1.129702 -0.027025 150 150 150
0.458182 0.538048 -0.051361 150 150 150
0.382011 0.593673 0.255697 150 150 150
0.403364 1.258505 -0.022821 150 150 150
0.370049 0.143336 -0.200078 150 150 150
0.348981 0.172909 0.301814 150 150 150
0.408042 1.312853 -0.020177 150 150 150
0.456227 0.052139 -0.140285 150 150 150
0.458911 0.133427 0.390752 150 150 150
0.396987 1.540960 -0.030710 150 150 150
0.466322 1.427547 -0.080438 150 150 150
0.335675 1.434130 0.016593 150 150 150
0.452850 1.596901 0.026664 150 150 150
0.533592 1.418702 -0.186863 150 150 150
0.231743 1.436897 0.068302 150 150 150
0.588349 1.178399 -0.221436 150 150 150
0.170199 1.193113 0.119339 150 150 150
0.771914 0.998908 -0.174163 150 150 150
0.114741 0.998654 0.291432 150 150 150
0.819397 0.927455 -0.152151 150 150 150
0.111658 0.924900 0.343616 150 150 150
