ply
format ascii 1.0
comment author: Greg Turk
comment object: another cube
element vertex 24
property float x
property float y
property float z
property uchar red
property uchar green
property uchar blue
element face 0
property list uchar int vertex_index
end_header
-0.215092 1.026990 -0.248068 150 150 150
-0.155148 0.944627 -0.223331 150 150 150
-0.270567 0.932363 -0.273360 150 150 150
-0.196427 1.146429 -0.301942 150 150 150
-0.099396 0.831426 0.141461 150 150 150
-0.299785 0.552568 -0.309605 150 150 150
-0.201049 1.286942 -0.272559 150 150 150
-0.114792 0.413300 0.043073 150 150 150
-0.257389 0.141200 -0.407000 150 150 150
-0.203724 1.348623 -0.278767 150 150 150
-0.065153 0.317818 0.129241 150 150 150
-0.368584 0.081846 -0.329618 150 150 150
-0.219434 1.557975 -0.323959 150 150 150
-0.134997 1.467597 -0.286034 150 150 150
-0.280692 1.454398 -0.333200 150 150 150
-0.230577 1.621684 -0.254262 150 150 150
-0.010899 1.502060 -0.306605 150 150 150
-0.379607 1.475022 -0.400348 150 150 150
0.192314 1.375920 -0.247391 150 150 150
-0.570878 1.311039 -0.418404 150 150 150
0.335653 1.545900 -0.122316 150 150 150
-0.692207 1.524465 -0.334467 150 150 150
0.394838 1.579648 -0.067402 150 150 150
-0.738849 1.586934 -0.290413 150 150 150
