ply
format ascii 1.0
comment author: Greg Turk
comment object: another cube
element vertex 24
property float x
property float y
property float z
property uchar red
property uchar green
property uchar blue
element face 0
property list uchar int vertex_index
end_header
0.392567 0.991969 0.087310 150 150 150
0.403059 0.902154 0.034630 150 150 150
0.351547 0.906867 0.146660 150 150 150
0.361554 1.118458 0.051986 150 150 150
0.498975 0.535926 -0.014970 150 150 150
0.403579 0.552610 0.279062 150 150 150
0.399160 1.247210 0.052786 150 150 150
0.382908 0.160462 -0.192100 150 150 150
0.346277 0.137975 0.353257 150 150 150
0.400250 1.299887 0.056019 150 150 150
0.457777 0.053897 -0.143160 150 150 150
0.477627 0.083634 0.388504 150 150 150
0.365922 1.529069 0.051809 150 150 150
0.427911 1.418590 -0.017955 150 150 150
0.331699 1.415438 0.115306 150 150 150
0.431482 1.592867 0.090246 150 150 150
0.457232 1.398807 -0.138134 150 150 150
0.247217 1.399323 0.193669 150 150 150
0.482544 1.152666 -0.163145 150 150 150
0.239485 1.146150 0.233981 150 150 150
0.609493 0.924823 -0.195614 150 150 150
0.266064 0.932349 0.390451 150 150 150
0.642765 0.842957 -0.190542 150 150 150
0.292426 0.858409 0.435557 150 150 150
