ply
format ascii 1.0
comment author: Greg Turk
comment object: another cube
element vertex 24
property float x
property float y
property float z
property uchar red
property uchar green
property uchar blue
element face 0
property list uchar int vertex_index
end_header
-0.208498 1.048961 -0.276405 150 150 150
-0.149710 0.969930 -0.238827 150 150 150
-0.262781 0.951363 -0.299347 150 150 150
-0.185300 1.161401 -0.337396 150 150 150
-0.131123 0.999171 0.144014 150 150 150
-0.295337 0.569386 -0.331985 150 150 150
-0.196614 1.305639 -0.310007 150 150 150
-0.171393 0.613588 -0.039805 150 150 150
-0.257435 0.155047 -0.409143 150 150 150
-0.199671 1.370189 -0.317333 150 150 150
-0.159290 0.499748 0.037020 150 150 150
-0.366801 0.091337 -0.332200 150 150 150
-0.216965 1.573532 -0.359258 150 150 150
-0.135549 1.489509 -0.319227 150 150 150
-0.274150 1.473003 -0.374799 150 150 150
-0.233353 1.630958 -0.288287 150 150 150
-0.015687 1.538155 -0.329803 150 150 150
-0.363635 1.500900 -0.451368 150 150 150
0.196907 1.455809 -0.238112 150 150 150
-0.555513 1.346699 -0.492721 150 150 150
0.294911 1.675213 -0.151359 150 150 150
-0.655702 1.580095 -0.444062 150 150 150
0.342961 1.729502 -0.102474 150 150 150
-0.699809 1.650444 -0.410334 150 150 150
