ply
format ascii 1.0
comment author: Greg Turk
comment object: another cube
element vertex 24
property float x
property float y
property float z
property uchar red
property uchar green
property uchar blue
element face 0
property list uchar int vertex_index
end_header
0.598318 0.985627 -0.372444 150 150 150
0.584189 0.898187 -0.319186 150 150 150
0.632781 0.898510 -0.431347 150 150 150
0.640412 1.111060 -0.344532 150 150 150
0.322088 0.616648 -0.315999 150 150 150
0.691833 0.525124 -0.413233 150 150 150
0.607534 1.243540 -0.340741 150 150 150
0.205758 0.202985 -0.351457 150 150 150
0.824723 0.129181 -0.331312 150 150 150
0.609171 1.299187 -0.341117 150 150 150
0.079483 0.167414 -0.305901 150 150 150
0.716690 0.068752 -0.412294 150 150 150
0.660863 1.518050 -0.328126 150 150 150
0.606179 1.412321 -0.257599 150 150 150
0.674403 1.413157 -0.403160 150 150 150
0.604970 1.600454 -0.337456 150 150 150
0.604646 1.411344 -0.125753 150 150 150
0.743998 1.417472 -0.501401 150 150 150
0.524935 1.218256 0.012696 150 150 150
0.774388 1.210620 -0.654946 150 150 150
0.349586 1.201137 0.207415 150 150 150
0.734314 1.178823 -0.915947 150 150 150
0.283397 1.179307 0.261886 150 150 150
0.713335 1.159206 -1.001291 150 150 150
