ply
format ascii 1.0
comment author: Greg Turk
comment object: another cube
element vertex 24
property float x
property float y
property float z
property uchar red
property uchar green
property uchar blue
element face 0
property list uchar int vertex_index
end_header
0.466900 0.966565 -0.376353 150 150 150
0.465676 0.879089 -0.321034 150 150 150
0.504303 0.882654 -0.436684 150 150 150
0.499183 1.096243 -0.353511 150 150 150
0.258621 0.556808 -0.314768 150 150 150
0.607291 0.520665 -0.420490 150 150 150
0.465614 1.224733 -0.345031 150 150 150
0.159749 0.139108 -0.360962 150 150 150
0.809104 0.156044 -0.336500 150 150 150
0.466849 1.276339 -0.346055 150 150 150
0.033115 0.090284 -0.328374 150 150 150
0.716051 0.069207 -0.411845 150 150 150
0.527295 1.501398 -0.331483 150 150 150
0.475845 1.388101 -0.257118 150 150 150
0.524675 1.393636 -0.413510 150 150 150
0.481833 1.592930 -0.330472 150 150 150
0.500591 1.357561 -0.135666 150 150 150
0.577370 1.376039 -0.517570 150 150 150
0.488529 1.111833 -0.107124 150 150 150
0.566577 1.124200 -0.566621 150 150 150
0.474103 0.854193 -0.037570 150 150 150
0.529428 0.873965 -0.659854 150 150 150
0.462654 0.765899 -0.038563 150 150 150
0.508330 0.787116 -0.676782 150 150 150
