ply
format ascii 1.0
comment author: Greg Turk
comment object: another cube
element vertex 24
property float x
property float y
property float z
property uchar red
property uchar green
property uchar blue
element face 0
property list uchar int vertex_index
end_header
0.823594 1.000360 -0.270974 150 150 150
0.812226 0.913302 -0.213860 150 150 150
0.852854 0.910841 -0.330160 150 150 150
0.867406 1.126323 -0.245352 150 150 150
0.701444 0.557299 -0.123649 150 150 150
0.783580 0.542755 -0.386995 150 150 150
0.843718 1.261390 -0.243707 150 150 150
1.008483 0.276634 -0.006142 150 150 150
0.831397 0.124877 -0.329366 150 150 150
0.850351 1.316561 -0.244657 150 150 150
0.965214 0.163047 0.059752 150 150 150
0.722022 0.068478 -0.410209 150 150 150
0.905030 1.536916 -0.239431 150 150 150
0.851997 1.433835 -0.165052 150 150 150
0.915852 1.428223 -0.310672 150 150 150
0.847673 1.617931 -0.246534 150 150 150
0.861107 1.439829 -0.037632 150 150 150
0.983031 1.428346 -0.409367 150 150 150
0.803677 1.240735 0.096596 150 150 150
0.993858 1.199321 -0.524069 150 150 150
0.696083 1.126968 0.309466 150 150 150
0.983446 1.010812 -0.713981 150 150 150
0.652128 1.074595 0.365062 150 150 150
0.970830 0.935393 -0.762027 150 150 150
