ply
format ascii 1.0
comment author: Greg Turk
comment object: another cube
element vertex 24
property float x
property float y
property float z
property uchar red
property uchar green
property uchar blue
element face 0
property list uchar int vertex_index
end_header
0.189903 1.052265 -0.360005 150 150 150
0.194906 0.953981 -0.317706 150 150 150
0.164026 0.978649 -0.441038 150 150 150
0.257416 1.157009 -0.335743 150 150 150
0.131682 0.573361 -0.311715 150 150 150
-0.204046 0.893872 -0.511054 150 150 150
0.238587 1.296584 -0.308150 150 150 150
0.140577 0.148858 -0.371823 150 150 150
0.109835 0.607706 -0.458354 150 150 150
0.244528 1.356142 -0.306421 150 150 150
0.028556 0.076892 -0.332260 150 150 150
0.059221 0.473112 -0.491813 150 150 150
0.299796 1.566828 -0.311372 150 150 150
0.276531 1.466795 -0.228665 150 150 150
0.288090 1.468331 -0.383910 150 150 150
0.236446 1.639954 -0.300677 150 150 150
0.330233 1.482796 -0.112606 150 150 150
0.326818 1.493441 -0.494530 150 150 150
0.298717 1.333676 0.085151 150 150 150
0.299030 1.352229 -0.710168 150 150 150
0.211980 1.405152 0.322308 150 150 150
0.239080 1.405002 -0.963885 150 150 150
0.179412 1.414247 0.404103 150 150 150
0.204007 1.413215 -1.047036 150 150 150
