ply
format ascii 1.0
comment author: Greg Turk
comment object: another cube
element vertex 24
property float x
property float y
property float z
property uchar red
property uchar green
property uchar blue
element face 0
property list uchar int vertex_index
end_header
1.119584 1.009089 -0.068399 150 150 150
1.141658 0.923580 -0.013770 150 150 150
1.138597 0.923362 -0.135328 150 150 150
1.153264 1.140026 -0.055061 150 150 150
1.150138 0.547674 0.048244 150 150 150
1.135442 0.552267 -0.219956 150 150 150
1.122754 1.274236 -0.041720 150 150 150
1.185243 0.118712 0.064862 150 150 150
1.193649 0.134298 -0.249133 150 150 150
1.118825 1.329250 -0.042415 150 150 150
1.072342 0.057221 0.121299 150 150 150
1.072280 0.072917 -0.308084 150 150 150
1.163425 1.549359 -0.050068 150 150 150
1.141181 1.442467 0.036365 150 150 150
1.147785 1.446309 -0.125749 150 150 150
1.110509 1.633159 -0.037631 150 150 150
1.164326 1.445308 0.164569 150 150 150
1.150855 1.462131 -0.243929 150 150 150
1.135714 1.245387 0.316616 150 150 150
1.116406 1.262801 -0.410757 150 150 150
0.990477 1.061629 0.438978 150 150 150
0.973290 1.072191 -0.534023 150 150 150
0.948335 0.988895 0.468560 150 150 150
0.925482 1.002228 -0.566566 150 150 150
