ply
format ascii 1.0
comment author: Greg Turk
comment object: another cube
element vertex 24
property float x
property float y
property float z
property uchar red
property uchar green
property uchar blue
element face 0
property list uchar int vertex_index
end_header
0.305596 1.060192 -0.228214 150 150 150
0.338181 0.958954 -0.235121 150 150 150
0.213048 0.994424 -0.236065 150 150 150
0.358031 1.167230 -0.270596 150 150 150
0.381074 0.575491 -0.215891 150 150 150
-0.052777 0.899324 0.025725 150 150 150
0.380742 1.303757 -0.227436 150 150 150
0.362754 0.149898 -0.217573 150 150 150
0.051296 0.599559 -0.261822 150 150 150
0.382719 1.365012 -0.225556 150 150 150
0.455393 0.079865 -0.140700 150 150 150
-0.019361 0.473610 -0.240467 150 150 150
0.384975 1.581579 -0.254034 150 150 150
0.459993 1.480133 -0.214173 150 150 150
0.318621 1.481983 -0.279144 150 150 150
0.355677 1.642179 -0.186635 150 150 150
0.585883 1.499118 -0.214818 150 150 150
0.228297 1.509507 -0.351006 150 150 150
0.734671 1.324408 -0.127636 150 150 150
0.028112 1.358542 -0.403153 150 150 150
0.781911 1.478163 0.070932 150 150 150
-0.164493 1.517547 -0.328710 150 150 150
0.806385 1.518995 0.145679 150 150 150
-0.238688 1.556354 -0.294415 150 150 150
