ply
format ascii 1.0
comment author: Greg Turk
comment object: another cube
element vertex 24
property float x
property float y
property float z
property uchar red
property uchar green
property uchar blue
element face 0
property list uchar int vertex_index
end_header
-0.209842 1.042504 -0.268402 150 150 150
-0.150133 0.962454 -0.234850 150 150 150
-0.264396 0.945549 -0.291965 150 150 150
-0.188757 1.157134 -0.327314 150 150 150
-0.119515 0.954307 0.148847 150 150 150
-0.297077 0.564114 -0.325332 150 150 150
-0.198623 1.300832 -0.298517 150 150 150
-0.153143 0.559784 -0.017131 150 150 150
-0.257728 0.150662 -0.408804 150 150 150
-0.201506 1.365053 -0.305800 150 150 150
-0.132699 0.448228 0.061134 150 150 150
-0.367326 0.088561 -0.330953 150 150 150
-0.218631 1.569148 -0.348393 150 150 150
-0.136582 1.484073 -0.309412 150 150 150
-0.276679 1.468509 -0.362098 150 150 150
-0.233889 1.627801 -0.277534 150 150 150
-0.016333 1.530652 -0.323690 150 150 150
-0.368124 1.496337 -0.436300 150 150 150
0.196715 1.440650 -0.241420 150 150 150
-0.564240 1.345378 -0.469960 150 150 150
0.301980 1.654359 -0.150324 150 150 150
-0.649037 1.582794 -0.411862 150 150 150
0.353020 1.704746 -0.100366 150 150 150
-0.687414 1.654155 -0.373682 150 150 150
