ply
format ascii 1.0
comment author: Greg Turk
comment object: another cube
element vertex 24
property float x
property float y
property float z
property uchar red
property uchar green
property uchar blue
element face 0
property list uchar int vertex_index
end_header
1.118468 1.009648 -0.074166 150 150 150
1.140951 0.924220 -0.019562 150 150 150
1.136821 0.923748 -0.141075 150 150 150
1.152378 1.140627 -0.061388 150 150 150
1.149901 0.548746 0.044587 150 150 150
1.133646 0.552242 -0.223415 150 150 150
1.122056 1.275054 -0.047949 150 150 150
1.184636 0.119896 0.063841 150 150 150
1.193759 0.134359 -0.249632 150 150 150
1.118352 1.330259 -0.048653 150 150 150
1.071957 0.058645 0.120917 150 150 150
1.072210 0.072367 -0.307637 150 150 150
1.162952 1.550112 -0.056571 150 150 150
1.140897 1.443508 0.029932 150 150 150
1.147250 1.447185 -0.132041 150 150 150
1.109600 1.633468 -0.043764 150 150 150
1.163905 1.447307 0.158041 150 150 150
1.150790 1.463624 -0.250081 150 150 150
1.132645 1.247729 0.309795 150 150 150
1.116598 1.263642 -0.415754 150 150 150
0.986007 1.065281 0.432482 150 150 150
0.973890 1.073193 -0.539664 150 150 150
0.943548 0.992914 0.462412 150 150 150
0.926262 1.003448 -0.572832 150 150 150
