ply
format ascii 1.0
comment author: Greg Turk
comment object: another cube
element vertex 24
property float x
property float y
property float z
property uchar red
property uchar green
property uchar blue
element face 0
property list uchar int vertex_index
end_header
0.219565 1.021022 -0.295253 150 150 150
0.269367 0.931126 -0.282159 150 150 150
0.165079 0.939199 -0.346083 150 150 150
0.260376 1.145234 -0.314451 150 150 150
0.336934 0.555166 -0.231862 150 150 150
-0.010426 0.600525 -0.364569 150 150 150
0.264557 1.274776 -0.283166 150 150 150
0.358502 0.124844 -0.218681 150 150 150
0.072459 0.196215 -0.456896 150 150 150
0.263786 1.325689 -0.284242 150 150 150
0.454587 0.066825 -0.132798 150 150 150
-0.032914 0.096514 -0.487011 150 150 150
0.299941 1.552975 -0.322986 150 150 150
0.343009 1.437842 -0.245932 150 150 150
0.230658 1.444031 -0.365251 150 150 150
0.258851 1.636574 -0.282889 150 150 150
0.457441 1.411739 -0.196266 150 150 150
0.161012 1.432982 -0.459028 150 150 150
0.525047 1.171682 -0.165363 150 150 150
0.072270 1.196476 -0.518411 150 150 150
0.607011 0.921826 -0.120341 150 150 150
-0.059836 0.962456 -0.550885 150 150 150
0.627157 0.835288 -0.118680 150 150 150
-0.093662 0.878028 -0.560387 150 150 150
