ply
format ascii 1.0
comment author: Greg Turk
comment object: another cube
element vertex 24
property float x
property float y
property float z
property uchar red
property uchar green
property uchar blue
element face 0
property list uchar int vertex_index
end_header
-0.208087 1.052828 -0.284196 150 150 150
-0.150768 0.974363 -0.243362 150 150 150
-0.262160 0.955088 -0.307460 150 150 150
-0.182280 1.163769 -0.346139 150 150 150
-0.144630 1.022719 0.137480 150 150 150
-0.293771 0.572688 -0.339330 150 150 150
-0.194556 1.307762 -0.320157 150 150 150
-0.185634 0.645079 -0.061530 150 150 150
-0.256918 0.157343 -0.409891 150 150 150
-0.197762 1.372076 -0.327247 150 150 150
-0.180248 0.530510 0.014964 150 150 150
-0.366344 0.092931 -0.333485 150 150 150
-0.214396 1.575916 -0.369107 150 150 150
-0.133606 1.491793 -0.327407 150 150 150
-0.271278 1.474735 -0.386363 150 150 150
-0.231828 1.633423 -0.298526 150 150 150
-0.013132 1.540142 -0.334213 150 150 150
-0.359534 1.501192 -0.465013 150 150 150
0.196763 1.459543 -0.233768 150 150 150
-0.543771 1.339413 -0.514765 150 150 150
0.293610 1.678969 -0.143896 150 150 150
-0.681000 1.554706 -0.473451 150 150 150
0.339122 1.735463 -0.094991 150 150 150
-0.737189 1.618298 -0.444512 150 150 150
