ply
format ascii 1.0
comment author: Greg Turk
comment object: another cube
element vertex 24
property float x
property float y
property float z
property uchar red
property uchar green
property uchar blue
element face 0
property list uchar int vertex_index
end_header
0.252223 1.014526 0.300679 150 150 150
0.237734 0.928995 0.241584 150 150 150
0.244711 0.922862 0.362366 150 150 150
0.206251 1.143094 0.293557 150 150 150
0.199266 0.553219 0.231720 150 150 150
0.371020 0.566099 0.390274 150 150 150
0.224040 1.277844 0.294518 150 150 150
-0.009424 0.174513 0.219780 150 150 150
0.339768 0.141842 0.384076 150 150 150
0.219067 1.330396 0.301825 150 150 150
0.062211 0.065383 0.267105 150 150 150
0.467991 0.070201 0.390384 150 150 150
0.162593 1.551317 0.318351 150 150 150
0.200285 1.447507 0.227024 150 150 150
0.167663 1.439097 0.386401 150 150 150
0.235664 1.618112 0.315424 150 150 150
0.182816 1.432738 0.103571 150 150 150
0.111738 1.431650 0.492298 150 150 150
0.218994 1.196283 0.031287 150 150 150
0.081374 1.202653 0.606769 150 150 150
0.349044 1.006790 -0.094676 150 150 150
0.092966 1.068559 0.835517 150 150 150
0.388284 0.930821 -0.116705 150 150 150
0.112477 1.011612 0.903130 150 150 150
