ply
format ascii 1.0
comment author: Greg Turk
comment object: another cube
element vertex 24
property float x
property float y
property float z
property uchar red
property uchar green
property uchar blue
element face 0
property list uchar int vertex_index
end_header
0.353906 1.038806 -0.075875 150 150 150
0.384616 0.942571 -0.106508 150 150 150
0.279678 0.964627 -0.038115 150 150 150
0.363417 1.153078 -0.133209 150 150 150
0.415677 0.558981 -0.115608 150 150 150
0.333448 0.746115 0.274200 150 150 150
0.410043 1.281278 -0.109401 150 150 150
0.364793 0.140872 -0.204652 150 150 150
0.302219 0.358099 0.102772 150 150 150
0.417425 1.337479 -0.104198 150 150 150
0.456863 0.063349 -0.136067 150 150 150
0.313305 0.286043 0.230688 150 150 150
0.421190 1.561702 -0.117292 150 150 150
0.496954 1.448211 -0.139260 150 150 150
0.343679 1.462140 -0.097256 150 150 150
0.452288 1.616913 -0.042916 150 150 150
0.593415 1.454541 -0.220816 150 150 150
0.230621 1.487552 -0.085122 150 150 150
0.708949 1.236529 -0.233972 150 150 150
0.081838 1.284812 -0.031477 150 150 150
0.915100 1.230431 -0.078724 150 150 150
-0.079869 1.200100 0.158534 150 150 150
0.978887 1.204432 -0.022752 150 150 150
-0.122864 1.148860 0.219455 150 150 150
