ply
format ascii 1.0
comment author: Greg Turk
comment object: another cube
element vertex 24
property float x
property float y
property float z
property uchar red
property uchar green
property uchar blue
element face 0
property list uchar int vertex_index
end_header
0.272777 1.014313 0.305181 150 150 150
0.259174 0.930196 0.244267 150 150 150
0.267165 0.921654 0.364880 150 150 150
0.224876 1.141978 0.302922 150 150 150
0.263127 0.551785 0.227403 150 150 150
0.375853 0.559110 0.392840 150 150 150
0.243099 1.275765 0.307410 150 150 150
0.017629 0.195788 0.220087 150 150 150
0.340700 0.135403 0.382559 150 150 150
0.238967 1.327263 0.316519 150 150 150
0.084326 0.080199 0.258969 150 150 150
0.470309 0.066335 0.391835 150 150 150
0.186010 1.549388 0.343450 150 150 150
0.217838 1.446945 0.246413 150 150 150
0.194464 1.434125 0.408092 150 150 150
0.259947 1.616154 0.338132 150 150 150
0.193751 1.432543 0.124828 150 150 150
0.149601 1.420801 0.518557 150 150 150
0.210825 1.190986 0.064420 150 150 150
0.129508 1.182966 0.616535 150 150 150
0.256634 0.955445 -0.045211 150 150 150
0.148635 0.996692 0.806402 150 150 150
0.266075 0.868314 -0.055157 150 150 150
0.168971 0.922177 0.853892 150 150 150
