ply
format ascii 1.0
comment author: Greg Turk
comment object: another cube
element vertex 24
property float x
property float y
property float z
property uchar red
property uchar green
property uchar blue
element face 0
property list uchar int vertex_index
end_header
-0.028940 1.015300 0.090642 150 150 150
0.003938 0.921591 0.057072 150 150 150
-0.090430 0.934565 0.136023 150 150 150
-0.040370 1.134428 0.032340 150 150 150
0.045919 0.549452 0.136505 150 150 150
-0.101603 0.616861 0.349901 150 150 150
-0.011087 1.268079 0.035471 150 150 150
-0.050731 0.134835 0.196591 150 150 150
-0.224762 0.370763 0.026862 150 150 150
-0.012877 1.322959 0.032803 150 150 150
0.043630 0.062460 0.268991 150 150 150
-0.275146 0.240082 0.074410 150 150 150
-0.040215 1.546851 -0.000015 150 150 150
0.041428 1.436308 -0.033450 150 150 150
-0.097676 1.440488 0.049809 150 150 150
0.007221 1.615017 0.053929 150 150 150
0.108250 1.430838 -0.141479 150 150 150
-0.207902 1.445186 0.088949 150 150 150
0.184491 1.201200 -0.198602 150 150 150
-0.286305 1.212903 0.162904 150 150 150
0.391931 1.059870 -0.276380 150 150 150
-0.382423 1.071395 0.366270 150 150 150
0.450573 0.998270 -0.299320 150 150 150
-0.398009 1.013162 0.433785 150 150 150
