ply
format ascii 1.0
comment author: Greg Turk
comment object: another cube
element vertex 24
property float x
property float y
property float z
property uchar red
property uchar green
property uchar blue
element face 0
property list uchar int vertex_index
end_header
1.102450 1.038635 -0.027088 150 150 150
1.110162 0.940583 0.015439 150 150 150
1.096080 0.963022 -0.111641 150 150 150
1.156821 1.149601 0.007755 150 150 150
1.115434 0.559223 0.057100 150 150 150
0.778485 0.831439 -0.287792 150 150 150
1.124507 1.290696 0.030522 150 150 150
1.180650 0.136184 0.057521 150 150 150
1.041077 0.505534 -0.195926 150 150 150
1.127091 1.353382 0.033608 150 150 150
1.073745 0.068728 0.115574 150 150 150
0.987247 0.383347 -0.256932 150 150 150
1.158164 1.564876 0.036338 150 150 150
1.134268 1.464737 0.113173 150 150 150
1.169390 1.470116 -0.034524 150 150 150
1.083287 1.624165 0.034969 150 150 150
1.167264 1.490388 0.233820 150 150 150
1.226626 1.511539 -0.131184 150 150 150
1.099404 1.356065 0.429246 150 150 150
1.258680 1.404310 -0.361233 150 150 150
0.987251 1.566971 0.524872 150 150 150
1.170653 1.599813 -0.509172 150 150 150
0.937499 1.631713 0.559605 150 150 150
1.121772 1.657050 -0.559510 150 150 150
