ply
format ascii 1.0
comment author: Greg Turk
comment object: another cube
element vertex 24
property float x
property float y
property float z
property uchar red
property uchar green
property uchar blue
element face 0
property list uchar int vertex_index
end_header
0.538807 0.972542 -0.374958 150 150 150
0.532279 0.885198 -0.320398 150 150 150
0.575798 0.887480 -0.434314 150 150 150
0.574607 1.100242 -0.349611 150 150 150
0.309011 0.572700 -0.313457 150 150 150
0.662239 0.520450 -0.414534 150 150 150
0.541880 1.230148 -0.344223 150 150 150
0.179465 0.163318 -0.356458 150 150 150
0.821945 0.135439 -0.331582 150 150 150
0.543180 1.282885 -0.345677 150 150 150
0.050329 0.126020 -0.319340 150 150 150
0.718389 0.067600 -0.412047 150 150 150
0.600831 1.505263 -0.333869 150 150 150
0.544706 1.396442 -0.260560 150 150 150
0.607224 1.396862 -0.411486 150 150 150
0.549000 1.592891 -0.338656 150 150 150
0.549181 1.382174 -0.131211 150 150 150
0.668489 1.387671 -0.513482 150 150 150
0.505205 1.154368 -0.037955 150 150 150
0.686617 1.150706 -0.616442 150 150 150
0.394880 0.956200 0.101305 150 150 150
0.629567 0.964872 -0.801914 150 150 150
0.355745 0.879297 0.122739 150 150 150
0.600630 0.895259 -0.852345 150 150 150
