ply
format ascii 1.0
comment author: Greg Turk
comment object: another cube
element vertex 24
property float x
property float y
property float z
property uchar red
property uchar green
property uchar blue
element face 0
property list uchar int vertex_index
end_header
1.081940 1.048305 -0.030179 150 150 150
1.088603 0.947901 0.009886 150 150 150
1.069645 0.976678 -0.118404 150 150 150
1.139250 1.154363 0.006842 150 150 150
1.112260 0.568650 0.056410 150 150 150
0.729733 0.975441 -0.298924 150 150 150
1.106731 1.298912 0.029876 150 150 150
1.180530 0.147884 0.058370 150 150 150
0.972798 0.638352 -0.187919 150 150 150
1.110804 1.363617 0.032651 150 150 150
1.075802 0.075856 0.115251 150 150 150
0.916203 0.514892 -0.241620 150 150 150
1.140820 1.572233 0.032641 150 150 150
1.115783 1.475861 0.109210 150 150 150
1.155363 1.478488 -0.034516 150 150 150
1.065512 1.627254 0.025896 150 150 150
1.150569 1.506398 0.226650 150 150 150
1.224449 1.522062 -0.121683 150 150 150
1.077923 1.378211 0.420593 150 150 150
1.279004 1.425092 -0.350114 150 150 150
0.985653 1.608514 0.484943 150 150 150
1.236644 1.653223 -0.466714 150 150 150
0.939633 1.679048 0.512944 150 150 150
1.198296 1.720327 -0.513706 150 150 150
