ply
format ascii 1.0
comment author: Greg Turk
comment object: another cube
element vertex 24
property float x
property float y
property float z
property uchar red
property uchar green
property uchar blue
element face 0
property list uchar int vertex_index
end_header
0.298632 1.054447 -0.241018 150 150 150
0.334362 0.954737 -0.246884 150 150 150
0.209839 0.985813 -0.257336 150 150 150
0.350472 1.164793 -0.278074 150 150 150
0.378496 0.571722 -0.219401 150 150 150
-0.074127 0.838621 -0.041828 150 150 150
0.369066 1.299860 -0.235071 150 150 150
0.361808 0.145350 -0.216906 150 150 150
0.053984 0.534998 -0.313528 150 150 150
0.370537 1.359568 -0.233663 150 150 150
0.455250 0.077328 -0.138869 150 150 150
-0.025289 0.412143 -0.308378 150 150 150
0.376619 1.578214 -0.264603 150 150 150
0.449092 1.474336 -0.218682 150 150 150
0.309856 1.476845 -0.292204 150 150 150
0.343846 1.642102 -0.200568 150 150 150
0.576405 1.486436 -0.211590 150 150 150
0.222164 1.499432 -0.369031 150 150 150
0.715323 1.298412 -0.130936 150 150 150
0.039008 1.331812 -0.434620 150 150 150
0.791034 1.411580 0.086206 150 150 150
-0.183945 1.451870 -0.369617 150 150 150
0.822912 1.439156 0.164005 150 150 150
-0.265024 1.479466 -0.340444 150 150 150
