ply
format ascii 1.0
comment author: Greg Turk
comment object: another cube
element vertex 24
property float x
property float y
property float z
property uchar red
property uchar green
property uchar blue
element face 0
property list uchar int vertex_index
end_header
0.001040 1.044688 -0.353597 150 150 150
0.027586 0.950523 -0.313835 150 150 150
-0.034171 0.962739 -0.420705 150 150 150
0.061873 1.161500 -0.351576 150 150 150
0.046439 0.570154 -0.317348 150 150 150
-0.327596 0.721403 -0.362117 150 150 150
0.049124 1.297784 -0.326883 150 150 150
0.129067 0.149304 -0.366877 150 150 150
-0.304201 0.305400 -0.451041 150 150 150
0.054681 1.353374 -0.328872 150 150 150
0.022450 0.067342 -0.332301 150 150 150
-0.406202 0.208148 -0.411806 150 150 150
0.117883 1.569388 -0.340783 150 150 150
0.098939 1.462695 -0.252600 150 150 150
0.090503 1.466208 -0.413241 150 150 150
0.055790 1.644126 -0.325857 150 150 150
0.147708 1.447346 -0.136011 150 150 150
0.121414 1.468656 -0.528749 150 150 150
0.107373 1.231615 -0.015075 150 150 150
0.099241 1.257640 -0.670416 150 150 150
-0.010721 1.187086 0.212419 150 150 150
-0.040189 1.235958 -0.891536 150 150 150
-0.056108 1.158995 0.282534 150 150 150
-0.099092 1.215999 -0.956863 150 150 150
