ply
format ascii 1.0
comment author: Greg Turk
comment object: another cube
element vertex 24
property float x
property float y
property float z
property uchar red
property uchar green
property uchar blue
element face 0
property list uchar int vertex_index
end_header
-0.200933 1.046602 -0.325104 150 150 150
-0.148781 0.966245 -0.282932 150 150 150
-0.252336 0.951470 -0.357126 150 150 150
-0.168353 1.160379 -0.379863 150 150 150
-0.193165 0.908300 0.094343 150 150 150
-0.285184 0.569055 -0.371713 150 150 150
-0.182219 1.298475 -0.355916 150 150 150
-0.199736 0.558205 -0.153240 150 150 150
-0.252499 0.148839 -0.413252 150 150 150
-0.186414 1.357945 -0.359919 150 150 150
-0.199853 0.441779 -0.079724 150 150 150
-0.365414 0.087687 -0.338558 150 150 150
-0.194275 1.571654 -0.403095 150 150 150
-0.117402 1.478652 -0.350577 150 150 150
-0.254056 1.463972 -0.426440 150 150 150
-0.215999 1.637773 -0.337477 150 150 150
0.008861 1.508396 -0.338426 150 150 150
-0.341762 1.475347 -0.508619 150 150 150
0.179056 1.374106 -0.215767 150 150 150
-0.459608 1.256581 -0.567881 150 150 150
0.324272 1.484187 -0.028868 150 150 150
-0.709180 1.172705 -0.558024 150 150 150
0.372183 1.504859 0.041759 150 150 150
-0.785779 1.127238 -0.547070 150 150 150
