ply
format ascii 1.0
comment author: Greg Turk
comment object: another cube
element vertex 24
property float x
property float y
property float z
property uchar red
property uchar green
property uchar blue
element face 0
property list uchar int vertex_index
end_header
1.076000 1.047187 -0.032236 150 150 150
1.083033 0.946996 0.007771 150 150 150
1.063387 0.975733 -0.120338 150 150 150
1.133080 1.153009 0.004410 150 150 150
1.110034 0.567771 0.054839 150 150 150
0.721699 0.980431 -0.298958 150 150 150
1.101112 1.297082 0.027238 150 150 150
1.180486 0.147255 0.059127 150 150 150
0.949590 0.628905 -0.202267 150 150 150
1.105310 1.361238 0.029674 150 150 150
1.075496 0.075505 0.115940 150 150 150
0.885564 0.510261 -0.258264 150 150 150
1.137628 1.570416 0.029034 150 150 150
1.111251 1.473787 0.106358 150 150 150
1.151337 1.475658 -0.038141 150 150 150
1.062591 1.626081 0.021368 150 150 150
1.143989 1.502141 0.225281 150 150 150
1.220987 1.516940 -0.126163 150 150 150
1.067271 1.370329 0.416103 150 150 150
1.277204 1.412958 -0.351752 150 150 150
0.964021 1.592884 0.491083 150 150 150
1.236082 1.632363 -0.485341 150 150 150
0.918422 1.662385 0.522071 150 150 150
1.201379 1.698255 -0.536738 150 150 150
