ply
format ascii 1.0
comment author: Greg Turk
comment object: another cube
element vertex 24
property float x
property float y
property float z
property uchar red
property uchar green
property uchar blue
element face 0
property list uchar int vertex_index
end_header
0.721363 1.040008 -0.325552 150 150 150
0.689219 0.958599 -0.267694 150 150 150
0.747304 0.943945 -0.382171 150 150 150
0.778627 1.155463 -0.301557 150 150 150
0.308708 0.955414 -0.299866 150 150 150
0.755496 0.559239 -0.388528 150 150 150
0.742113 1.299422 -0.308054 150 150 150
0.564621 0.610486 -0.298723 150 150 150
0.824571 0.145555 -0.329632 150 150 150
0.745087 1.365770 -0.307165 150 150 150
0.490575 0.498094 -0.270877 150 150 150
0.716223 0.080948 -0.408373 150 150 150
0.779371 1.569669 -0.304924 150 150 150
0.743829 1.478088 -0.233983 150 150 150
0.795915 1.477822 -0.372197 150 150 150
0.714938 1.635760 -0.315347 150 150 150
0.760860 1.520474 -0.113128 150 150 150
0.871649 1.521784 -0.455619 150 150 150
0.659515 1.435764 0.089731 150 150 150
0.915919 1.415583 -0.676625 150 150 150
0.608858 1.685694 0.103883 150 150 150
0.886695 1.661038 -0.750828 150 150 150
0.556279 1.754636 0.118253 150 150 150
0.858440 1.733013 -0.796390 150 150 150
