ply
format ascii 1.0
comment author: Greg Turk
comment object: another cube
element vertex 24
property float x
property float y
property float z
property uchar red
property uchar green
property uchar blue
element face 0
property list uchar int vertex_index
end_header
-0.170300 0.978595 -0.087297 150 150 150
-0.115206 0.892337 -0.103170 150 150 150
-0.236669 0.893589 -0.105743 150 150 150
-0.160729 1.108576 -0.123431 150 150 150
-0.034132 0.568898 0.083834 150 150 150
-0.275734 0.527908 -0.190427 150 150 150
-0.144181 1.237925 -0.095703 150 150 150
-0.060676 0.149416 0.181217 150 150 150
-0.256771 0.151706 -0.387177 150 150 150
-0.145770 1.289901 -0.095209 150 150 150
0.035665 0.087821 0.262386 150 150 150
-0.366414 0.074679 -0.325228 150 150 150
-0.152926 1.517414 -0.143844 150 150 150
-0.064573 1.402548 -0.126949 150 150 150
-0.228669 1.408426 -0.121593 150 150 150
-0.134904 1.597736 -0.084819 150 150 150
0.044878 1.376604 -0.186695 150 150 150
-0.345590 1.399467 -0.136915 150 150 150
0.073187 1.130043 -0.199739 150 150 150
-0.412948 1.151077 -0.118821 150 150 150
0.148674 0.875290 -0.218182 150 150 150
-0.512623 0.919611 -0.024729 150 150 150
0.146041 0.787230 -0.224464 150 150 150
-0.526914 0.834976 0.004590 150 150 150
