ply
format ascii 1.0
comment author: Greg Turk
comment object: another cube
element vertex 24
property float x
property float y
property float z
property uchar red
property uchar green
property uchar blue
element face 0
property list uchar int vertex_index
end_header
0.098140 1.071288 0.228229 150 150 150
0.101992 0.972824 0.182844 150 150 150
0.097889 0.992786 0.309184 150 150 150
0.043713 1.182381 0.187791 150 150 150
0.083295 0.595404 0.201297 150 150 150
0.446450 0.890455 0.437900 150 150 150
0.074739 1.329387 0.178070 150 150 150
-0.027691 0.181218 0.220572 150 150 150
0.260462 0.503059 0.402618 150 150 150
0.070653 1.394436 0.175633 150 150 150
0.046388 0.077493 0.272663 150 150 150
0.342551 0.388692 0.440939 150 150 150
0.037812 1.600797 0.164655 150 150 150
0.087007 1.506054 0.100574 150 150 150
0.005592 1.507827 0.226652 150 150 150
0.112461 1.650245 0.191132 150 150 150
0.104080 1.538284 -0.018499 150 150 150
-0.089893 1.543141 0.288153 150 150 150
0.266038 1.409619 -0.144308 150 150 150
-0.181519 1.398603 0.464663 150 150 150
0.356736 1.644940 -0.114284 150 150 150
-0.128976 1.640800 0.528041 150 150 150
0.416868 1.709867 -0.112585 150 150 150
-0.088068 1.706358 0.574165 150 150 150
