ply
format ascii 1.0
comment author: Greg Turk
comment object: another cube
element vertex 24
property float x
property float y
property float z
property uchar red
property uchar green
property uchar blue
element face 0
property list uchar int vertex_index
end_header
0.018471 1.041677 0.148095 150 150 150
0.041266 0.942793 0.112268 150 150 150
-0.019930 0.966824 0.223686 150 150 150
-0.012358 1.150192 0.084656 150 150 150
0.053201 0.562980 0.148060 150 150 150
0.156943 0.851160 0.541784 150 150 150
0.019091 1.291486 0.083202 150 150 150
-0.045279 0.149583 0.196903 150 150 150
-0.043454 0.586370 0.270375 150 150 150
0.016992 1.352530 0.080917 150 150 150
0.043287 0.069436 0.266570 150 150 150
-0.046563 0.450154 0.325861 150 150 150
-0.012077 1.567335 0.063107 150 150 150
0.055849 1.466523 0.011452 150 150 150
-0.061182 1.467602 0.114896 150 150 150
0.050026 1.622914 0.108927 150 150 150
0.101676 1.485022 -0.105048 150 150 150
-0.167414 1.492385 0.160633 150 150 150
0.241856 1.303898 -0.194084 150 150 150
-0.288976 1.304046 0.277930 150 150 150
0.468818 1.423610 -0.200839 150 150 150
-0.363583 1.393040 0.509748 150 150 150
0.553679 1.447951 -0.205511 150 150 150
-0.373190 1.406423 0.598383 150 150 150
