ply
format ascii 1.0
comment author: Greg Turk
comment object: another cube
element vertex 24
property float x
property float y
property float z
property uchar red
property uchar green
property uchar blue
element face 0
property list uchar int vertex_index
end_header
0.276423 1.004235 -0.367221 150 150 150
0.282862 0.913313 -0.317377 150 150 150
0.282128 0.920377 -0.439173 150 150 150
0.327200 1.126032 -0.346134 150 150 150
0.149154 0.552574 -0.309147 150 150 150
0.185748 0.554033 -0.488158 150 150 150
0.307937 1.257651 -0.321701 150 150 150
0.139732 0.126243 -0.374569 150 150 150
0.544240 0.337246 -0.422308 150 150 150
0.313773 1.310822 -0.320337 150 150 150
0.023080 0.063770 -0.331696 150 150 150
0.530176 0.193218 -0.454533 150 150 150
0.377889 1.531697 -0.315140 150 150 150
0.343609 1.420649 -0.233943 150 150 150
0.361354 1.427078 -0.394319 150 150 150
0.328021 1.619600 -0.305125 150 150 150
0.395620 1.407612 -0.117297 150 150 150
0.396393 1.424549 -0.506945 150 150 150
0.407211 1.179946 -0.017950 150 150 150
0.366740 1.195852 -0.618740 150 150 150
0.421869 0.993898 0.171152 150 150 150
0.294561 1.018359 -0.806257 150 150 150
0.422562 0.921333 0.221842 150 150 150
0.262013 0.953340 -0.860652 150 150 150
