ply
format ascii 1.0
comment author: Greg Turk
comment object: another cube
element vertex 24
property float x
property float y
property float z
property uchar red
property uchar green
property uchar blue
element face 0
property list uchar int vertex_index
end_header
-0.050775 1.005922 0.070467 150 150 150
-0.013198 0.913855 0.039560 150 150 150
-0.117685 0.924024 0.102692 150 150 150
-0.055602 1.127897 0.015593 150 150 150
0.042225 0.548834 0.141471 150 150 150
-0.174407 0.575655 0.250183 150 150 150
-0.026633 1.259675 0.020496 150 150 150
-0.052619 0.132907 0.198064 150 150 150
-0.250982 0.325022 -0.082613 150 150 150
-0.028053 1.313082 0.017669 150 150 150
0.043182 0.061413 0.270082 150 150 150
-0.313884 0.194873 -0.050688 150 150 150
-0.051789 1.539162 -0.020852 150 150 150
0.032732 1.425898 -0.045360 150 150 150
-0.113330 1.431527 0.026662 150 150 150
-0.010250 1.611063 0.034958 150 150 150
0.105469 1.413246 -0.148417 150 150 150
-0.225446 1.430014 0.058315 150 150 150
0.156175 1.175374 -0.198674 150 150 150
-0.287008 1.188191 0.116228 150 150 150
0.312767 0.976901 -0.275148 150 150 150
-0.370739 0.998616 0.284623 150 150 150
0.350098 0.899941 -0.296424 150 150 150
-0.382319 0.927091 0.339219 150 150 150
