ply
format ascii 1.0
comment VCGLIB generated
element vertex 340
property float x
property float y
property float z
element face 676
property list uchar int vertex_indices
end_header
0.126387 0.487912 0.141716 
0.08288 0.600913 0.131385 
0.053496 0.489341 0.185195 
0.110078 0.625638 0.022293 
0.16601 0.523146 0.039529 
0.138164 0.575084 -0.058865 
0 0.665328 0.035329 
0 0.638838 -0.108842 
0.142779 0.45328 -0.099247 
0.076441 0.354707 0.194603 
0.135546 0.355495 0.117297 
0.050098 0.41087 0.200824 
0.072258 0.459618 0.185869 
0.165112 0.428398 -0.022985 
0.157797 0.477626 0.056813 
0.069639 0.516362 -0.161364 
0 0.468092 -0.178236 
0.148637 0.370021 -0.008597 
0.099707 0.370659 -0.098882 
0.054644 0.358851 -0.125975 
0 0.451227 0.218975 
0 0.389848 0.212463 
0 0.609095 0.157154 
0 0.357185 -0.13105 
0.159941 0.406433 0.027237 
0.142509 0.345446 0.09689 
0.485369 0.100274 0.002296 
0.29726 0.059149 -0.041103 
0.517782 0.116549 -0.103141 
0.269588 -0.1129 0.042742 
0.265005 -0.207503 -0.038912 
0.227089 -0.060815 -0.116332 
0.20881 -0.172521 -0.142355 
0.063302 -0.169741 0.268615 
0.095039 -0.262533 0.260649 
0.210779 -0.177691 0.200921 
0 0.241413 -0.196849 
0.102412 0.164214 -0.214011 
0 0.112815 -0.214113 
0.19122 -0.399373 0.238795 
0.375234 -0.642201 0.143686 
0.275136 -0.314245 0.131088 
0 -0.565864 -0.023431 
0 -0.522794 -0.101866 
0.067905 -0.617673 -0.051949 
0.197009 -0.659902 -0.133718 
0.406072 -0.569696 -0.035821 
0.294318 -0.579839 -0.145267 
0.284299 -0.317159 -0.129309 
0.423507 -0.628572 0.087547 
0.391902 -0.539831 0.055099 
0.155952 -0.751437 -0.058135 
0.194081 -0.817024 0.010296 
0.113377 -0.647383 0.126814 
0.292345 -0.655416 0.184792 
0.225608 -0.689163 0.171519 
0.291126 -0.757035 0.138582 
0.313474 -0.768331 -0.188893 
0.228174 -0.847058 -0.115442 
0.353215 -1.028788 -0.096134 
0.587372 -0.961066 -0.077148 
0.487595 -0.669731 -0.040752 
0.578629 -0.929883 0.014254 
0.501998 -0.931268 0.085614 
0.375507 -1.090513 0.053385 
0.396632 -1.027104 -0.1441 
0.063236 -0.465176 0.203758 
0 -0.5235 0.136468 
0.19917 -0.765558 0.086579 
0.355525 -0.982471 0.069907 
0.193901 0.087861 0.165794 
0.273056 0.153915 0.104131 
0 -0.112015 -0.263438 
0.318087 -0.320161 0.037311 
0.297273 -0.261025 0.076993 
0.182983 0.348913 0.078558 
0.083771 0.277649 -0.186369 
0.265141 0.282638 -0.142372 
0.282675 0.338406 -0.077963 
0.441415 0.201283 -0.157573 
0.36345 0.145736 -0.144212 
0.234379 0.179835 -0.160187 
0.078401 -0.487435 -0.213705 
0 -0.474224 -0.208424 
0.436743 0.339388 0.03193 
0.328954 0.342784 0.007063 
0.243089 0.26399 0.110127 
0.116615 0.061972 0.214646 
0 -0.078545 0.25663 
0 -0.410978 -0.268371 
0.249823 0.068312 -0.118289 
0 -0.490382 0.176359 
0.137058 -0.389379 -0.263509 
0.476799 -0.980214 -0.166575 
0 -0.381273 0.268531 
0.167903 -0.343034 0.238942 
0.680843 0.136993 0.063325 
0.480384 0.176133 0.078489 
0.622168 0.302829 0.045133 
0.544662 0.358524 -0.026869 
0.499681 0.283672 -0.143384 
0.438074 0.350465 -0.067889 
0.729179 0.305723 -0.123486 
0.302763 0.081751 0.041707 
0.450077 0.27685 0.082799 
0 -0.236028 0.28197 
-0.210779 -0.177691 0.200921 
-0.297273 -0.261025 0.076993 
-0.275136 -0.314245 0.131088 
0.064285 0.286119 0.136271 
0.618761 0.20505 0.10005 
0.709523 0.12046 -0.051465 
0.694342 0.234988 0.092661 
0.775459 0.298698 0.046979 
0.845843 0.322924 -0.026797 
0.694607 0.210324 -0.15965 
0.852112 0.123402 0.053174 
0.795403 0.145 0.095882 
0.792112 0.20289 0.126214 
0.863736 0.301397 0.008946 
0.961134 0.296388 -0.024771 
0.908179 0.279148 0.046977 
0.807681 0.301458 -0.128293 
0.847501 0.309809 -0.092573 
0.843096 0.134445 0.007693 
0.861284 0.136168 -0.053663 
0.798811 0.137749 -0.141265 
0.941666 0.236194 0.062243 
1.000837 0.191923 -0.030017 
0.934427 0.158803 0.03762 
0.950802 0.13726 -0.064496 
0.942007 0.286103 -0.12302 
0.955954 0.205364 -0.139653 
0.910343 0.282684 -0.153964 
0.886944 0.28275 -0.175473 
0.812493 0.268477 -0.178021 
0.774725 0.199214 -0.177581 
0.825208 0.217894 -0.207046 
0.881126 0.182833 -0.202509 
0.838525 0.13305 -0.098916 
0.909064 0.136493 -0.129963 
0.867626 0.174874 0.11113 
0.846092 0.282868 0.095312 
0.06985 0.147378 0.213856 
0 0.153117 0.22492 
0 0.273028 0.148749 
0 -0.547762 0.077182 
0.172934 -0.28095 -0.259742 
0.429328 -0.963981 0.105007 
0.42837 -0.701733 -0.160673 
0.528041 -0.967806 -0.139072 
0 -0.447608 0.217403 
0.097085 -0.250538 -0.275564 
0 -0.258671 -0.281066 
0.121274 -0.086415 -0.221926 
0.531494 -0.972756 0.224191 
0.492797 -1.017682 0.26319 
0.587091 -1.050636 0.2552 
0.434063 -1.088933 0.253995 
0.55495 -1.103975 0.261203 
0.470858 -1.177697 0.228811 
0.59818 -1.10207 0.245692 
0.409126 -1.158182 0.173813 
0.512101 -1.194546 0.142784 
0.508263 -0.956709 0.164462 
0.583718 -0.972913 0.207783 
0.601548 -0.958055 0.176119 
0.641299 -1.072933 0.201447 
0.539521 -1.179277 0.197331 
0.642371 -1.117145 0.131593 
0.664338 -0.99053 0.104624 
0.460523 -0.981264 0.181609 
0.441992 -1.02483 0.233974 
0.393661 -1.038848 0.182714 
0.378933 -1.030435 0.100899 
0.417399 -1.153749 0.048197 
0.487591 -1.185101 0.023727 
0.610672 -1.122589 -0.108494 
0.666339 -1.079801 0.051185 
0.606932 -1.004147 -0.140485 
0.505651 -1.080946 -0.18799 
0.439901 -1.14305 -0.13329 
0.396528 -1.139571 -0.029906 
0.531027 -1.179074 -0.106258 
0.048542 -0.330758 -0.283975 
-0.167903 -0.343034 0.238942 
-0.19122 -0.399373 0.238795 
-0.048542 -0.330758 -0.283975 
-0.097085 -0.250538 -0.275564 
-0.126387 0.487912 0.141716 
-0.053496 0.489341 0.185195 
-0.08288 0.600913 0.131385 
-0.110078 0.625638 0.022293 
-0.16601 0.523146 0.039529 
-0.138164 0.575084 -0.058865 
-0.142779 0.45328 -0.099247 
-0.135546 0.355495 0.117297 
-0.076441 0.354707 0.194603 
-0.050098 0.41087 0.200824 
-0.072258 0.459618 0.185869 
-0.165112 0.428398 -0.022985 
-0.157797 0.477626 0.056813 
-0.069639 0.516362 -0.161364 
-0.148637 0.370021 -0.008597 
-0.099707 0.370659 -0.098882 
-0.054644 0.358851 -0.125975 
-0.159941 0.406433 0.027237 
-0.142509 0.345446 0.09689 
-0.485369 0.100274 0.002296 
-0.517782 0.116549 -0.103141 
-0.297188 0.059149 -0.041103 
-0.269566 -0.1129 0.042742 
-0.227057 -0.060815 -0.116332 
-0.264975 -0.207503 -0.038912 
-0.208883 -0.172521 -0.142355 
-0.063302 -0.169741 0.268615 
-0.095015 -0.262533 0.260649 
-0.102412 0.164214 -0.214011 
-0.375234 -0.642201 0.143686 
-0.067905 -0.617673 -0.051949 
-0.197009 -0.659902 -0.133718 
-0.406072 -0.569696 -0.035821 
-0.284353 -0.317159 -0.129309 
-0.294318 -0.579839 -0.145267 
-0.423507 -0.628572 0.087547 
-0.391902 -0.539831 0.055099 
-0.155952 -0.751437 -0.058135 
-0.113377 -0.647383 0.126814 
-0.194081 -0.817024 0.010296 
-0.292345 -0.655416 0.184792 
-0.291126 -0.757035 0.138582 
-0.225608 -0.689163 0.171519 
-0.313474 -0.768331 -0.188893 
-0.228174 -0.847058 -0.115442 
-0.353215 -1.028788 -0.096134 
-0.587372 -0.961066 -0.077148 
-0.578629 -0.929883 0.014254 
-0.487595 -0.669731 -0.040752 
-0.501998 -0.931268 0.085614 
-0.375507 -1.090513 0.053385 
-0.396632 -1.027104 -0.1441 
-0.063236 -0.465176 0.203758 
-0.19917 -0.765558 0.086579 
-0.355525 -0.982471 0.069907 
-0.273105 0.153915 0.104131 
-0.318087 -0.320161 0.037311 
-0.182983 0.348913 0.078558 
-0.083771 0.277649 -0.186369 
-0.265141 0.282638 -0.142372 
-0.282675 0.338406 -0.077963 
-0.441415 0.201283 -0.157573 
-0.234379 0.179835 -0.160187 
-0.363474 0.145736 -0.144212 
-0.078401 -0.487435 -0.213705 
-0.436743 0.339388 0.03193 
-0.243089 0.26399 0.110127 
-0.328954 0.342784 0.007063 
-0.116615 0.061972 0.214646 
-0.249823 0.068312 -0.118289 
-0.137058 -0.389379 -0.263509 
-0.476799 -0.980214 -0.166575 
-0.480384 0.176133 0.078489 
-0.680843 0.136993 0.063325 
-0.622168 0.302829 0.045133 
-0.544662 0.358524 -0.026869 
-0.499681 0.283672 -0.143384 
-0.729179 0.305723 -0.123486 
-0.438074 0.350465 -0.067889 
-0.450077 0.27685 0.082799 
-0.302803 0.081743 0.041707 
-0.064285 0.286119 0.136271 
-0.618761 0.20505 0.10005 
-0.709523 0.12046 -0.051465 
-0.775459 0.298698 0.046979 
-0.694342 0.234988 0.092661 
-0.845843 0.322924 -0.026797 
-0.694607 0.210324 -0.15965 
-0.852112 0.123402 0.053174 
-0.795403 0.145 0.095882 
-0.792112 0.20289 0.126214 
-0.961134 0.296388 -0.024771 
-0.863736 0.301397 0.008946 
-0.908179 0.279148 0.046977 
-0.807681 0.301458 -0.128293 
-0.847501 0.309809 -0.092573 
-0.843096 0.134445 0.007693 
-0.861284 0.136168 -0.053663 
-0.798811 0.137749 -0.141265 
-0.941666 0.236194 0.062243 
-1.000837 0.191923 -0.030017 
-0.934427 0.158803 0.03762 
-0.950802 0.13726 -0.064496 
-0.942007 0.286103 -0.12302 
-0.955954 0.205364 -0.139653 
-0.910343 0.282684 -0.153964 
-0.812493 0.268477 -0.178021 
-0.886944 0.28275 -0.175473 
-0.774725 0.199214 -0.177581 
-0.825208 0.217894 -0.207046 
-0.881126 0.182833 -0.202509 
-0.838525 0.13305 -0.098916 
-0.909064 0.136493 -0.129963 
-0.867626 0.174874 0.11113 
-0.846092 0.282868 0.095312 
-0.06985 0.147378 0.213856 
-0.12123 -0.086415 -0.221926 
-0.193901 0.087861 0.165794 
-0.172934 -0.28095 -0.259742 
-0.429328 -0.963981 0.105007 
-0.42837 -0.701733 -0.160673 
-0.528041 -0.967806 -0.139072 
-0.531494 -0.972756 0.224191 
-0.587091 -1.050636 0.2552 
-0.492797 -1.017682 0.26319 
-0.55495 -1.103975 0.261203 
-0.434063 -1.088933 0.253995 
-0.470858 -1.177697 0.228811 
-0.59818 -1.10207 0.245692 
-0.409126 -1.158182 0.173813 
-0.512101 -1.194546 0.142784 
-0.508263 -0.956709 0.164462 
-0.601548 -0.958055 0.176119 
-0.583718 -0.972913 0.207783 
-0.641299 -1.072933 0.201447 
-0.539521 -1.179277 0.197331 
-0.642371 -1.117145 0.131593 
-0.664338 -0.99053 0.104624 
-0.460523 -0.981264 0.181609 
-0.441992 -1.02483 0.233974 
-0.393661 -1.038848 0.182714 
-0.378933 -1.030435 0.100899 
-0.606932 -1.004147 -0.140485 
-0.417399 -1.153749 0.048197 
-0.487591 -1.185101 0.023727 
-0.610672 -1.122589 -0.108494 
-0.666339 -1.079801 0.051185 
-0.505651 -1.080946 -0.18799 
-0.439901 -1.14305 -0.13329 
-0.396528 -1.139571 -0.029906 
-0.531027 -1.179074 -0.106258 
3 0 1 2 
3 3 1 4 
3 4 5 3 
3 1 3 6 
3 3 7 6 
3 0 4 1 
3 5 4 8 
3 7 3 5 
3 0 9 10 
3 9 0 11 
3 11 0 12 
3 13 4 14 
3 15 5 8 
3 5 15 7 
3 15 16 7 
3 17 18 13 
3 13 18 8 
3 18 19 8 
3 2 20 12 
3 21 9 11 
3 1 6 22 
3 23 16 19 
3 19 15 8 
3 0 10 14 
3 14 10 24 
3 19 16 15 
3 10 25 24 
3 24 25 17 
3 17 13 24 
3 26 27 28 
3 29 30 31 
3 30 32 31 
3 33 34 35 
3 36 37 38 
3 39 40 41 
3 42 43 44 
3 44 43 45 
3 46 47 48 
3 49 46 50 
3 51 52 53 
3 54 55 56 
3 50 40 49 
3 57 58 45 
3 57 59 58 
3 60 61 62 
3 63 49 40 
3 52 59 64 
3 65 59 57 
3 66 67 53 
3 53 52 68 
3 69 68 52 
3 52 64 69 
3 70 35 71 
3 72 38 37 
3 73 74 41 
3 17 25 75 
3 76 18 77 
3 77 18 78 
3 79 80 81 
3 82 43 83 
3 84 85 86 
3 87 88 33 
3 82 83 89 
3 56 68 69 
3 86 85 75 
3 27 90 28 
3 28 90 80 
3 81 80 90 
3 78 17 85 
3 66 91 67 
3 17 75 85 
3 82 92 45 
3 68 55 53 
3 57 45 47 
3 61 49 62 
3 57 93 65 
3 74 35 41 
3 94 95 34 
3 43 82 45 
3 95 94 39 
3 39 41 95 
3 73 48 74 
3 44 45 51 
3 26 96 97 
3 98 99 84 
3 100 101 102 
3 102 101 99 
3 101 84 99 
3 79 28 80 
3 71 103 97 
3 104 71 97 
3 101 78 84 
3 84 78 85 
3 104 84 86 
3 26 103 27 
3 88 105 33 
3 29 35 74 
3 106 107 108 
3 25 10 109 
3 10 9 109 
3 11 20 21 
3 17 78 18 
3 76 77 37 
3 31 37 90 
3 109 75 25 
3 100 79 81 
3 84 104 110 
3 26 28 111 
3 98 112 113 
3 110 96 112 
3 114 99 113 
3 110 112 98 
3 102 115 100 
3 111 116 96 
3 96 116 117 
3 96 117 118 
3 114 119 120 
3 120 119 121 
3 112 96 118 
3 122 99 123 
3 124 116 111 
3 111 125 124 
3 115 126 111 
3 119 114 113 
3 127 128 120 
3 129 124 130 
3 129 128 127 
3 124 125 130 
3 128 129 130 
3 127 120 121 
3 114 120 131 
3 120 128 131 
3 131 128 132 
3 130 132 128 
3 123 114 131 
3 123 99 114 
3 123 131 133 
3 123 133 122 
3 122 134 135 
3 136 135 137 
3 136 137 126 
3 135 134 137 
3 137 134 138 
3 139 126 140 
3 138 126 137 
3 126 138 140 
3 117 141 118 
3 141 117 116 
3 116 129 141 
3 142 121 113 
3 113 121 119 
3 118 141 142 
3 141 127 142 
3 113 112 142 
3 142 112 118 
3 124 129 116 
3 111 139 125 
3 111 126 139 
3 126 115 136 
3 136 115 135 
3 122 135 102 
3 115 102 135 
3 12 0 2 
3 86 71 104 
3 77 78 101 
3 81 77 100 
3 100 77 101 
3 29 31 27 
3 143 144 87 
3 104 97 110 
3 111 96 26 
3 100 115 79 
3 84 110 98 
3 97 96 110 
3 28 79 115 
3 115 111 28 
3 98 113 99 
3 99 122 102 
3 23 76 36 
3 90 37 81 
3 31 90 27 
3 37 36 76 
3 23 19 76 
3 76 19 18 
3 37 77 81 
3 71 86 70 
3 145 9 21 
3 109 9 145 
3 82 89 92 
3 53 55 66 
3 66 55 39 
3 51 53 146 
3 146 53 67 
3 47 45 92 
3 92 147 47 
3 48 73 46 
3 50 46 73 
3 52 51 58 
3 148 40 56 
3 56 69 148 
3 46 49 61 
3 57 47 149 
3 148 63 40 
3 52 58 59 
3 57 149 93 
3 93 149 150 
3 60 149 61 
3 151 66 94 
3 105 34 33 
3 74 30 29 
3 72 152 153 
3 72 154 152 
3 2 22 20 
3 1 22 2 
3 49 63 62 
3 155 156 157 
3 156 158 159 
3 159 158 160 
3 161 157 159 
3 162 163 160 
3 164 165 166 
3 165 157 167 
3 165 167 166 
3 165 164 155 
3 168 169 161 
3 169 168 163 
3 170 166 167 
3 163 168 160 
3 160 168 159 
3 161 167 157 
3 171 172 155 
3 129 127 141 
3 173 162 158 
3 170 167 169 
3 69 64 174 
3 69 174 148 
3 164 166 62 
3 166 170 62 
3 162 174 175 
3 162 175 163 
3 163 175 176 
3 169 163 177 
3 169 177 178 
3 62 170 179 
3 60 62 179 
3 180 93 179 
3 179 150 60 
3 181 65 180 
3 180 65 93 
3 181 182 65 
3 174 64 175 
3 62 63 164 
3 63 148 164 
3 164 148 171 
3 171 148 174 
3 64 182 175 
3 179 170 178 
3 179 178 177 
3 179 177 180 
3 180 177 183 
3 180 183 181 
3 183 176 181 
3 181 176 182 
3 175 182 176 
3 65 182 59 
3 163 183 177 
3 163 176 183 
3 159 168 161 
3 169 178 170 
3 159 157 156 
3 173 171 174 
3 173 174 162 
3 182 64 59 
3 68 56 55 
3 54 39 55 
3 33 35 87 
3 73 41 40 
3 54 40 39 
3 40 54 56 
3 73 40 50 
3 87 35 70 
3 30 48 32 
3 92 184 147 
3 48 30 74 
3 94 185 186 
3 91 66 151 
3 187 188 153 
3 41 35 95 
3 60 150 149 
3 61 149 46 
3 46 149 47 
3 146 42 44 
3 32 154 31 
3 146 44 51 
3 58 51 45 
3 179 93 150 
3 152 154 147 
3 34 105 94 
3 109 143 75 
3 86 143 87 
3 0 14 4 
3 8 4 13 
3 14 24 13 
3 75 143 86 
3 145 143 109 
3 70 86 87 
3 145 144 143 
3 87 144 88 
3 12 20 11 
3 134 122 133 
3 131 132 133 
3 140 138 132 
3 140 130 139 
3 130 125 139 
3 157 165 155 
3 169 167 161 
3 162 160 158 
3 173 158 172 
3 172 171 173 
3 172 158 156 
3 164 171 155 
3 172 156 155 
3 140 132 130 
3 132 138 133 
3 138 134 133 
3 127 121 142 
3 189 190 191 
3 192 193 191 
3 193 192 194 
3 191 6 192 
3 192 6 7 
3 189 191 193 
3 194 195 193 
3 7 194 192 
3 189 196 197 
3 197 198 189 
3 198 199 189 
3 200 201 193 
3 202 195 194 
3 194 7 202 
3 202 7 16 
3 203 200 204 
3 200 195 204 
3 204 195 205 
3 190 199 20 
3 21 198 197 
3 191 22 6 
3 23 205 16 
3 205 195 202 
3 189 201 196 
3 201 206 196 
3 205 202 16 
3 196 206 207 
3 206 203 207 
3 203 206 200 
3 208 209 210 
3 211 212 213 
3 213 212 214 
3 215 106 216 
3 36 38 217 
3 186 108 218 
3 42 219 43 
3 219 220 43 
3 221 222 223 
3 224 225 221 
3 226 227 228 
3 229 230 231 
3 225 224 218 
3 232 220 233 
3 232 233 234 
3 235 236 237 
3 238 218 224 
3 228 239 234 
3 240 232 234 
3 241 227 67 
3 227 242 228 
3 243 228 242 
3 228 243 239 
3 211 106 244 
3 72 217 38 
3 245 108 107 
3 203 246 207 
3 247 248 204 
3 248 249 204 
3 250 251 252 
3 253 83 43 
3 254 255 256 
3 257 215 88 
3 253 89 83 
3 230 243 242 
3 255 246 256 
3 210 209 258 
3 209 252 258 
3 251 258 252 
3 249 256 203 
3 241 67 91 
3 203 256 246 
3 253 220 259 
3 242 227 231 
3 232 223 220 
3 237 236 224 
3 232 240 260 
3 94 216 185 
3 43 220 253 
3 241 94 186 
3 186 185 108 
3 245 107 222 
3 219 226 220 
3 208 261 262 
3 263 254 264 
3 265 266 267 
3 266 264 267 
3 267 264 254 
3 250 252 209 
3 268 261 244 
3 267 254 249 
3 254 256 249 
3 268 255 254 
3 210 211 269 
3 88 215 105 
3 211 107 106 
3 35 34 95 
3 207 270 196 
3 196 270 197 
3 198 21 20 
3 203 204 249 
3 247 217 248 
3 212 258 217 
3 270 207 246 
3 265 251 250 
3 254 271 268 
3 208 272 209 
3 263 273 274 
3 271 274 262 
3 275 273 264 
3 271 263 274 
3 266 265 276 
3 272 262 277 
3 262 278 277 
3 262 279 278 
3 275 280 281 
3 280 282 281 
3 274 279 262 
3 283 284 264 
3 285 272 277 
3 272 285 286 
3 276 272 287 
3 281 273 275 
3 288 280 289 
3 290 291 285 
3 290 288 289 
3 285 291 286 
3 289 291 290 
3 288 282 280 
3 275 292 280 
3 280 292 289 
3 292 293 289 
3 291 289 293 
3 284 292 275 
3 284 275 264 
3 284 294 292 
3 284 283 294 
3 283 295 296 
3 297 298 295 
3 297 287 298 
3 295 298 296 
3 298 299 296 
3 300 301 287 
3 299 298 287 
3 287 301 299 
3 278 279 302 
3 302 277 278 
3 277 302 290 
3 303 273 282 
3 273 281 282 
3 279 303 302 
3 302 303 288 
3 273 303 274 
3 303 279 274 
3 285 277 290 
3 272 286 300 
3 272 300 287 
3 287 297 276 
3 297 295 276 
3 283 266 295 
3 276 295 266 
3 199 190 189 
3 255 268 244 
3 248 267 249 
3 251 265 248 
3 265 267 248 
3 211 210 212 
3 304 257 144 
3 268 271 261 
3 272 208 262 
3 265 250 276 
3 254 263 271 
3 261 271 262 
3 209 276 250 
3 276 209 272 
3 263 264 273 
3 264 266 283 
3 23 36 247 
3 305 212 217 
3 258 251 217 
3 212 210 258 
3 217 247 36 
3 23 247 205 
3 247 204 205 
3 217 251 248 
3 244 306 255 
3 145 21 197 
3 270 145 197 
3 253 259 89 
3 227 241 231 
3 241 186 231 
3 226 146 227 
3 146 67 227 
3 223 259 220 
3 222 307 223 
3 222 221 245 
3 225 245 221 
3 228 233 226 
3 308 230 218 
3 230 308 243 
3 221 237 224 
3 232 309 223 
3 308 218 238 
3 228 234 233 
3 232 260 309 
3 260 310 309 
3 235 237 309 
3 151 94 241 
3 105 215 216 
3 107 211 213 
3 72 153 188 
3 188 307 305 
3 190 20 22 
3 191 190 22 
3 224 236 238 
3 311 312 313 
3 313 314 315 
3 314 316 315 
3 317 314 312 
3 318 316 319 
3 320 321 322 
3 322 323 312 
3 322 321 323 
3 322 311 320 
3 324 317 325 
3 325 319 324 
3 326 323 321 
3 319 316 324 
3 316 314 324 
3 317 312 323 
3 327 311 328 
3 290 302 288 
3 329 315 318 
3 326 325 323 
3 243 330 239 
3 243 308 330 
3 331 235 310 
3 320 236 321 
3 321 236 326 
3 318 332 330 
3 318 319 332 
3 319 333 332 
3 325 334 319 
3 325 335 334 
3 236 331 326 
3 235 331 236 
3 336 331 260 
3 337 336 240 
3 336 260 240 
3 337 240 338 
3 330 332 239 
3 236 320 238 
3 238 320 308 
3 320 327 308 
3 327 330 308 
3 239 332 338 
3 331 335 326 
3 331 334 335 
3 331 336 334 
3 336 339 334 
3 336 337 339 
3 339 337 333 
3 337 338 333 
3 332 333 338 
3 240 234 338 
3 319 334 339 
3 319 339 333 
3 314 317 324 
3 325 326 335 
3 314 313 312 
3 329 330 327 
3 329 318 330 
3 338 234 239 
3 242 231 230 
3 229 231 186 
3 215 257 106 
3 245 218 108 
3 229 186 218 
3 218 230 229 
3 245 225 218 
3 257 306 106 
3 35 29 71 
3 213 214 222 
3 188 187 307 
3 222 107 213 
3 91 151 241 
3 216 106 185 
3 235 309 310 
3 237 221 309 
3 221 223 309 
3 146 219 42 
3 305 217 72 
3 146 226 219 
3 233 220 226 
3 310 260 331 
3 216 94 105 
3 270 246 304 
3 255 257 304 
3 189 193 201 
3 195 200 193 
3 201 200 206 
3 246 255 304 
3 145 270 304 
3 306 257 255 
3 145 304 144 
3 257 88 144 
3 199 198 20 
3 296 294 283 
3 292 294 293 
3 301 293 299 
3 301 300 291 
3 291 300 286 
3 312 311 322 
3 325 317 323 
3 318 315 316 
3 329 328 315 
3 328 329 327 
3 328 313 315 
3 320 311 327 
3 328 311 313 
3 301 291 293 
3 293 294 299 
3 299 294 296 
3 288 303 282 
3 37 31 154 
3 72 37 154 
3 307 214 305 
3 305 214 212 
3 305 72 188 
3 106 108 185 
3 94 66 39 
3 71 29 103 
3 29 27 103 
3 269 211 244 
3 208 210 269 
3 103 26 97 
3 208 269 261 
3 261 269 244 
3 106 306 244 
3 307 259 223 
3 48 147 32 
3 222 214 307 
3 154 32 147 
3 147 48 47 
3 187 259 307 
3 152 184 153 
3 89 187 184 
3 92 89 184 
3 259 187 89 
3 187 153 184 
3 184 152 147 
